<?xml version="1.0" encoding="utf-8"?>
<!-- Generator: Adobe Illustrator 16.0.0, SVG Export Plug-In . SVG Version: 6.00 Build 0)  -->
<!DOCTYPE svg PUBLIC "-//W3C//DTD SVG 1.1//EN" "http://www.w3.org/Graphics/SVG/1.1/DTD/svg11.dtd">
<svg version="1.1" xmlns="http://www.w3.org/2000/svg" xmlns:xlink="http://www.w3.org/1999/xlink" x="0px" y="0px"
	 width="20.983px" height="28.001px" viewBox="0 0 20.983 28.001" enable-background="new 0 0 20.983 28.001" xml:space="preserve">
<g id="bg">
</g>
<g id="圖層_1">
	<g>
		<g>
			<path fill="#FF3333" d="M8.127,21c0.68,0,1.337-0.193,1.93-0.523l-2.845,6.979c-0.239,0.59-1.007,0.734-1.444,0.271l-1.979-2.094
				l-2.88,0.111c-0.635,0.023-1.083-0.617-0.843-1.205l2.479-6.084c0.413,0.32,0.87,0.59,1.39,0.729
				c1.145,0.307,0.897,0.174,1.372,0.648C6.061,20.586,7.062,21,8.127,21z M11.654,18.912c-0.294-0.186-0.814-0.338-1.162-0.338
				s-0.868,0.152-1.162,0.338c-0.868,0.551-1.994,0.418-2.718-0.318c-0.805-0.82-0.896-0.768-2.119-1.102
				c-0.759-0.207-1.352-0.811-1.556-1.584c-0.408-1.553-0.302-1.365-1.418-2.502C0.963,12.84,0.747,12.014,0.95,11.24
				c0.409-1.553,0.408-1.338,0-2.889C0.747,7.578,0.963,6.754,1.519,6.188C2.635,5.051,2.53,5.238,2.937,3.686
				c0.204-0.773,0.797-1.377,1.556-1.584c1.524-0.416,1.341-0.309,2.456-1.445c0.556-0.566,1.366-0.787,2.125-0.58
				c1.525,0.416,1.313,0.416,2.836,0c0.759-0.207,1.569,0.014,2.125,0.58c1.116,1.137,0.933,1.029,2.456,1.445
				c0.759,0.207,1.353,0.811,1.556,1.584c0.409,1.553,0.303,1.365,1.418,2.502c0.556,0.566,0.772,1.391,0.569,2.164
				c-0.408,1.555-0.408,1.338,0,2.891c0.203,0.773-0.014,1.598-0.569,2.164c-1.115,1.137-1.009,0.949-1.418,2.502
				c-0.203,0.773-0.797,1.377-1.556,1.584c-1.188,0.324-1.284,0.252-2.119,1.102C13.648,19.33,12.522,19.463,11.654,18.912z
				 M10.492,14.875c2.847,0,5.155-2.352,5.155-5.252s-2.309-5.25-5.155-5.25s-5.155,2.35-5.155,5.25S7.645,14.875,10.492,14.875z
				 M20.075,25.744l-2.88-0.111l-1.98,2.094c-0.437,0.463-1.204,0.318-1.444-0.271l-2.844-6.979c0.592,0.33,1.25,0.523,1.93,0.523
				c1.065,0,2.066-0.414,2.82-1.168c0.474-0.475,0.221-0.34,1.372-0.648c0.52-0.139,0.977-0.406,1.39-0.729l2.479,6.084
				C21.158,25.127,20.709,25.768,20.075,25.744z"/>
		</g>
		<g>
			<path fill="#FF3333" d="M8.127,21c0.68,0,1.337-0.193,1.93-0.523l-2.845,6.979c-0.239,0.59-1.007,0.734-1.444,0.271l-1.979-2.094
				l-2.88,0.111c-0.635,0.023-1.083-0.617-0.843-1.205l2.479-6.084c0.413,0.32,0.87,0.59,1.39,0.729
				c1.145,0.307,0.897,0.174,1.372,0.648C6.061,20.586,7.062,21,8.127,21z M11.654,18.912c-0.294-0.186-0.814-0.338-1.162-0.338
				s-0.868,0.152-1.162,0.338c-0.868,0.551-1.994,0.418-2.718-0.318c-0.805-0.82-0.896-0.768-2.119-1.102
				c-0.759-0.207-1.352-0.811-1.556-1.584c-0.408-1.553-0.302-1.365-1.418-2.502C0.963,12.84,0.747,12.014,0.95,11.24
				c0.409-1.553,0.408-1.338,0-2.889C0.747,7.578,0.963,6.754,1.519,6.188C2.635,5.051,2.53,5.238,2.937,3.686
				c0.204-0.773,0.797-1.377,1.556-1.584c1.524-0.416,1.341-0.309,2.456-1.445c0.556-0.566,1.366-0.787,2.125-0.58
				c1.525,0.416,1.313,0.416,2.836,0c0.759-0.207,1.569,0.014,2.125,0.58c1.116,1.137,0.933,1.029,2.456,1.445
				c0.759,0.207,1.353,0.811,1.556,1.584c0.409,1.553,0.303,1.365,1.418,2.502c0.556,0.566,0.772,1.391,0.569,2.164
				c-0.408,1.555-0.408,1.338,0,2.891c0.203,0.773-0.014,1.598-0.569,2.164c-1.115,1.137-1.009,0.949-1.418,2.502
				c-0.203,0.773-0.797,1.377-1.556,1.584c-1.188,0.324-1.284,0.252-2.119,1.102C13.648,19.33,12.522,19.463,11.654,18.912z
				 M10.492,14.875c2.847,0,5.155-2.352,5.155-5.252s-2.309-5.25-5.155-5.25s-5.155,2.35-5.155,5.25S7.645,14.875,10.492,14.875z
				 M20.075,25.744l-2.88-0.111l-1.98,2.094c-0.437,0.463-1.204,0.318-1.444-0.271l-2.844-6.979c0.592,0.33,1.25,0.523,1.93,0.523
				c1.065,0,2.066-0.414,2.82-1.168c0.474-0.475,0.221-0.34,1.372-0.648c0.52-0.139,0.977-0.406,1.39-0.729l2.479,6.084
				C21.158,25.127,20.709,25.768,20.075,25.744z"/>
		</g>
	</g>
</g>
</svg>
