<?xml version="1.0" encoding="utf-8"?>
<!-- Generator: Adobe Illustrator 16.0.0, SVG Export Plug-In . SVG Version: 6.00 Build 0)  -->
<!DOCTYPE svg PUBLIC "-//W3C//DTD SVG 1.1//EN" "http://www.w3.org/Graphics/SVG/1.1/DTD/svg11.dtd">
<svg version="1.1" id="圖層_1" xmlns="http://www.w3.org/2000/svg" xmlns:xlink="http://www.w3.org/1999/xlink" x="0px" y="0px"
	 width="242.188px" height="52.247px" viewBox="0 0 242.188 52.247" enable-background="new 0 0 242.188 52.247"
	 xml:space="preserve">
<g>
	<g>
		<g>
			<path fill="#943332" d="M177.625,18.859c0.989,0,1.484,0.797,1.484,2.391c0,1.063,0.677,2.975,2.031,5.734l-0.563,0.375h-0.922
				l-0.375-0.188c0,0.125-0.058,0.188-0.172,0.188c0-0.313-0.558-0.927-1.672-1.844l-0.922-4.078
				c0.063-0.488,0.244-0.734,0.547-0.734v-0.375c0-0.125-0.063-0.188-0.188-0.188C177.166,19.287,177.416,18.859,177.625,18.859z
				 M179.469,0c1.114,0.574,1.672,1.313,1.672,2.219l-0.188,0.375c0.25,0.031,0.375,0.152,0.375,0.359
				c0.229-0.125,0.411-0.188,0.547-0.188l-0.188-0.359h1.844c0.135,0,0.203,0.063,0.203,0.188c0.552,0,4.244-0.801,11.078-2.406
				c0.438,0,0.989-0.063,1.656-0.188l1.109,0.922h0.375c0.125,1.531,0.188,2.334,0.188,2.406c-0.615,3.906-1.662,8.031-3.141,12.375
				c-0.406,0.74-1.391,1.109-2.953,1.109c-0.261,0-0.881-0.551-1.859-1.656c-0.678,0.012-2.031,0.688-4.063,2.031
				c-0.094,0-0.464,0.063-1.109,0.188l-0.375-0.563v-1.109h-0.172c-0.281,0-0.594,0.559-0.938,1.672
				c-0.125,0-0.308,0.063-0.547,0.188c-1.938,0-3.229-4.25-3.875-12.75c-0.125,0-0.25-0.551-0.375-1.656l0.188-1.109V0.359
				C179.119,0.359,179.302,0.24,179.469,0z M181.688,4.25c0.594,2.844,0.963,4.266,1.109,4.266c2.333-0.457,3.5-0.832,3.5-1.125
				V4.813h-1.656L183.734,5C183.734,4.5,183.052,4.25,181.688,4.25z M189.813,16.453H190c1.041,0,2.463,0.865,4.266,2.594
				c3.229-0.947,5.016-1.629,5.359-2.047h0.359c1.188,0,2.484,1.172,3.891,3.516v0.547h0.172v0.375
				c-0.073,0.375-0.563,0.563-1.469,0.563h-0.375c-1.073,0-2.303-0.863-3.688-2.594h-0.188c-0.219,0-1.084,0.309-2.594,0.922
				c0,0.303,0.677,1.781,2.031,4.438v0.188c0,1.719-0.553,2.578-1.656,2.578c-0.209,0.125-0.521,0.188-0.938,0.188h-1.469
				c-2.803,0-5.271-0.734-7.406-2.203c-2.209-1-3.313-2.484-3.313-4.453c0-0.238,0.182-0.359,0.547-0.359
				c1.844,1.605,2.953,2.406,3.328,2.406c2.864,1.344,5.208,2.016,7.031,2.016c0-0.114,0.057-0.172,0.172-0.172v0.172
				c0.5-0.114,0.75-0.484,0.75-1.109v-0.172c0-2.01-1.292-3.182-3.875-3.516c-1.365-0.938-2.047-1.494-2.047-1.672v-0.359
				C189.141,17.068,189.447,16.453,189.813,16.453z M184.469,11.469v-0.188l-1.297,0.734c0,0.387,0.244,1.615,0.734,3.688h0.188
				c0-0.813,0.677-1.551,2.031-2.219v-2.016c0-0.25-0.125-0.375-0.375-0.375C185.26,11.344,184.833,11.469,184.469,11.469z
				 M189.094,4.25v0.188l0.172,2.219h0.188c0.239,0,0.359-0.125,0.359-0.375V5.719l0.563-0.359c1.479,0.406,2.219,1.146,2.219,2.219
				c0,0.688-1.109,1.428-3.328,2.219c-0.375,0.656-0.563,1.584-0.563,2.781h0.188c0.708-0.26,1.51-0.391,2.406-0.391
				c0.041,0.262,0.166,0.391,0.375,0.391h0.547c0.219,0,1.146-3.082,2.781-9.25V2.953C194.427,2.953,192.458,3.387,189.094,4.25z"/>
			<path fill="#943332" d="M209.688,8.688l4.063,1.656c0.625,0.656,0.938,1.271,0.938,1.844c0,0.469-0.434,1.459-1.297,2.969
				c-0.125,0.668-0.188,1.219-0.188,1.656c0.125,0.24,0.188,0.428,0.188,0.563h0.188c3.188-3.322,5.094-5.604,5.719-6.844h0.359
				v0.75c0,1.199-1.906,5.012-5.719,11.438c-0.188,0-0.434,0.131-0.734,0.391c-1.355-0.344-2.031-0.9-2.031-1.672
				c-0.125-0.832-0.188-1.391-0.188-1.672c0.332,0,0.766-1.41,1.297-4.234c0.188,0,0.307-0.926,0.359-2.781
				c-0.125-0.238-0.188-0.426-0.188-0.563h-2.031c-1.031,0-1.646-0.922-1.844-2.766V9.234
				C209.057,8.871,209.426,8.688,209.688,8.688z M211.344,0.359c1.781,0,3.566,0.928,5.359,2.781
				c-0.115,0.74-0.297,1.109-0.547,1.109h-0.359c-2.512,0-4.115-1.047-4.813-3.141h-0.188V0.75
				C210.797,0.49,210.979,0.359,211.344,0.359z M231.859,0c0.488,0,0.863,0.25,1.125,0.75v0.547c0,0.365-0.313,0.547-0.938,0.547
				v0.75c0.363,0.574,0.547,1.063,0.547,1.469l-0.359,0.75h0.188l-0.188,0.359v0.734c3.166-0.729,5.385-1.094,6.656-1.094
				c0.854,0,1.406,0.734,1.656,2.203c0.125,0,0.188,0.125,0.188,0.375h-0.188c-0.584,1.813-2.371,3.844-5.359,6.094
				c-1.012,0.74-1.746,1.109-2.203,1.109v0.188c0,2.469-0.131,3.703-0.391,3.703c0,0.115,0.063,0.172,0.188,0.172
				c-0.125,1.23-0.188,2.156-0.188,2.781v2.578c0,0.688,0.063,1.553,0.188,2.594c-0.168,0.5-0.475,0.87-0.922,1.109h-0.172
				c-0.262,0-0.391-0.182-0.391-0.547l-0.359,0.188h-0.188c-2.646-2.197-4.059-3.557-4.234-4.078
				c-0.646,0.375-1.266,0.563-1.859,0.563h-0.188c-0.178,0-0.359-0.188-0.547-0.563v-0.375c2.604-2.979,4.141-5.129,4.609-6.453
				c0.219-0.135,0.469-0.203,0.75-0.203c0.488,0.137,0.734,0.512,0.734,1.125v1.844c0,0.156-0.865,1.203-2.594,3.141
				c0,0.199,0.926,0.813,2.781,1.844v-0.188c0.125-3.863,0.369-6.879,0.734-9.047h-0.188c-0.199,0-1.309,0.371-3.328,1.109
				c-0.73-0.479-1.094-0.785-1.094-0.922l0.188-0.375c-0.365,0-1.047-0.801-2.047-2.406c-0.531,1.156-1.084,1.896-1.656,2.219
				l-2.047,2.953v0.203l0.563-0.375h0.188c-1.105,1.887-2.766,3.73-4.984,5.531l-0.938-0.188c0-0.313,1.723-3.453,5.172-9.422
				c2-3.938,3.354-7.135,4.063-9.594V3.516l-0.906,0.188H223c-0.271,0-1.074-0.188-2.406-0.563V2.219
				c0-0.479,1.785-0.848,5.359-1.109c0.613-0.363,0.922-0.613,0.922-0.75l0.359,0.188L231.859,0z M226.125,8.125
				c0,0.375-0.121,0.809-0.359,1.297c0.238,0.5,0.359,0.934,0.359,1.297h0.203V9.984c0-0.281-0.068-0.531-0.203-0.75
				c0.135-0.207,0.203-0.453,0.203-0.734V8.125H226.125z M226.328,7.578v0.375h0.188c2.332-1.156,3.5-2.635,3.5-4.438
				c0.25,0,0.375-0.432,0.375-1.297c-2.105,0.365-3.156,1.23-3.156,2.594C226.629,5.906,226.328,6.828,226.328,7.578z
				 M227.234,10.906v0.922l0.391,0.547v0.375c0,0.125-0.068,0.188-0.203,0.188c0.135,0.219,0.203,0.465,0.203,0.734
				c0.947,0,2.666-0.676,5.156-2.031c1.238-0.145,1.859-0.391,1.859-0.734v-0.188l-4.625,0.75h-0.547
				c-0.99-0.426-1.484-0.738-1.484-0.938v-0.75c0-0.479,1.535-0.844,4.609-1.094c1.854,0.074,2.781,0.506,2.781,1.297
				c1.238-1.094,1.979-2.082,2.219-2.969h-0.188c-5.605,1.146-8.746,1.949-9.422,2.406C227.484,9.943,227.234,10.438,227.234,10.906
				z M235.188,17.375h0.188c1.666,0,3.266,1.412,4.797,4.234v0.203c0,0.137-0.059,0.318-0.172,0.547v0.547
				c-0.365,0-0.547,0.068-0.547,0.203c-0.781,0-2.016-1.172-3.703-3.516c-0.125-0.697-0.621-1.379-1.484-2.047h0.547l0.375,0.203
				V17.375z"/>
		</g>
	</g>
	<path fill="#96B0CA" d="M118.725,34.398c-1.769-0.438-3.67-0.258-5.27,0.4c-2.402,0.055-4.01,1.459-4.487,3.183
		c-3.601,0.29-7.192,0.683-10.768,1.188c-0.029,0.004-0.059,0.009-0.087,0.013c-0.372-0.525-0.945-0.944-1.743-1.141
		c-0.11-0.026-0.22-0.038-0.329-0.054c-1.016-0.445-2.17-0.689-3.17-0.063c-0.847,0.529-1.266,1.42-1.361,2.312
		c-3.506,0.606-6.998,1.271-10.487,1.944c-0.236-0.52-0.592-1-1.078-1.398c-1.548-1.268-3.817-1.283-5.75-0.728
		c-0.911,0.014-1.896,0.332-2.635,0.776c-1.423,0.854-2.435,2.168-2.628,3.604c-3.607,0.618-7.232,1.148-10.883,1.557
		c-0.003-0.006-0.003-0.012-0.006-0.018c-0.258-0.506-0.725-0.885-1.257-1.118c-1.016-0.715-2.525-0.831-3.605,0.073
		c-0.317,0.267-0.515,0.573-0.655,0.892c-0.268,0.202-0.498,0.439-0.662,0.719c-0.339,0.021-0.676,0.056-1.015,0.074
		c-3.839,0.205-7.69,0.248-11.538,0.143c-0.365-1.599-1.705-2.988-3.764-3.376c-1.92-0.362-3.63,0.389-4.608,1.619
		c-0.473,0.337-0.88,0.726-1.19,1.176c-2.164-0.207-4.322-0.46-6.469-0.769c-6.777-0.976-17.311-1.828-20.742-7.887
		c-0.784-1.384-3.163-0.171-2.382,1.209c2.681,4.732,8.732,6.437,14.248,7.57c4.86,0.998,9.797,1.737,14.766,2.223
		c0.115,0.936,0.592,1.848,1.353,2.509c2.412,2.101,6.633,1.326,8.231-1.171c0.149-0.233,0.264-0.474,0.361-0.717
		c4.289,0.118,8.521-0.016,12.721-0.316c0.552,1.085,1.863,1.78,3.343,1.574c0.738-0.104,1.404-0.417,1.91-0.856
		c0.359-0.195,0.613-0.507,0.702-0.91c0.058-0.115,0.1-0.233,0.139-0.354c3.821-0.419,7.622-0.959,11.417-1.573
		c1.999,3.759,9.502,2.555,11.43-0.715c0.26-0.439,0.434-0.918,0.525-1.406c2.059-0.388,4.121-0.78,6.189-1.172
		c1.495-0.283,2.992-0.542,4.49-0.795c0.221,0.726,0.821,1.189,1.582,1.404c0.906,0.507,2.023,0.685,3.184,0.306
		c0.371-0.121,0.705-0.292,1.007-0.492c0.893-0.509,1.493-1.387,1.519-2.315c3.257-0.434,6.52-0.801,9.791-1.073
		c0.18,0.507,0.451,1.002,0.847,1.457c2.365,2.729,8.431,3.297,11.155,0.619c0.793-0.78,1.25-1.733,1.404-2.712
		c3.764-0.04,7.537,0.041,11.318,0.248c0.038,0.084,0.085,0.163,0.131,0.243c-0.01,0.104-0.025,0.208-0.026,0.31
		c-0.013,1.782,1.198,3.121,3.204,3.501c1.775,0.337,4.183,0.31,5.484-0.934c0.664-0.634,1.049-1.409,1.207-2.229
		c2.529,0.316,5.05,0.688,7.563,1.101c0.006,0.561,0.153,1.126,0.479,1.653c1.549,2.493,6.004,3.466,8.68,1.801
		c0.701-0.437,1.172-0.99,1.453-1.595c4.665,0.838,9.332,1.646,14.028,2.258c0.331,0.729,0.928,1.375,1.691,1.812
		c0.803,0.666,2.301,0.986,3.384,0.636c0.907-0.293,1.604-0.919,2.054-1.68c0.007-0.008,0.015-0.016,0.021-0.023
		c1.452,0.109,2.906,0.201,4.367,0.25c2.883,0.095,5.752,0.051,8.605-0.11c0.543,0.493,1.51,0.409,2.031-0.054
		c0.006,0.028,0.009,0.057,0.016,0.084c0.938,4.434,7.008,3.891,9.707,1.088c0.852-0.883,1.258-1.774,1.322-2.625
		c10.91-1.836,21.596-4.943,32.049-8.057c1.67-0.497,0.953-2.812-0.732-2.31c-10.465,3.116-21.107,6.24-32.01,8.055
		c-0.946-1.335-2.746-2.364-4.799-2.771c-3.65-0.723-7.702,1.105-8.1,4.206c-0.635,0.034-1.268,0.072-1.904,0.093
		c-3.309,0.111-6.586-0.008-9.844-0.255c-0.086-0.596-0.369-1.14-0.783-1.596c-0.122-0.165-0.256-0.323-0.417-0.466
		c-1.864-1.652-5.149-1.095-6.457,0.848c-0.081,0.12-0.149,0.242-0.209,0.367c-4.638-0.635-9.251-1.453-13.864-2.285
		c-0.357-1.226-1.286-2.36-2.604-2.987c-1.688-0.803-3.549-0.677-5.038,0.062c-0.893,0.18-1.642,0.625-2.185,1.222
		c-2.187-0.349-4.377-0.669-6.576-0.938c-0.703-0.086-1.408-0.146-2.112-0.225c-0.486-1.476-1.621-2.795-3.21-3.389
		c-2.5-0.935-5.786,0.388-6.662,2.552c-3.834-0.213-7.674-0.309-11.514-0.28C121.692,36.009,120.508,34.841,118.725,34.398z
		 M35.541,46.603c-0.004-0.007-0.008-0.014-0.014-0.021c-0.297-0.389-0.714-0.64-1.167-0.761c0.027-0.038,0.054-0.075,0.075-0.115
		c0.247-0.024,0.504-0.005,0.76,0.071c0.568,0.17,0.965,0.489,1.205,0.875C36.113,46.639,35.828,46.617,35.541,46.603z
		 M96.223,42.738c-0.298,0.158-0.65,0.266-1.008,0.321c-0.22-0.106-0.404-0.257-0.563-0.429c0.756,0.098,1.527-0.14,2.017-0.741
		c0.153-0.022,0.306-0.047,0.458-0.069C96.945,42.183,96.652,42.508,96.223,42.738z M204.25,43.509
		c-0.02-0.044-0.046-0.08-0.069-0.121c0.226,0,0.437-0.051,0.624-0.142c0.282,0.128,0.538,0.276,0.76,0.445
		c-0.388,0.056-0.777,0.104-1.166,0.154L204.25,43.509z M178.769,44.021c0.278-0.33,0.704-0.582,1.146-0.598
		c0.75-0.025,1.201,0.374,1.359,0.874C180.438,44.215,179.604,44.119,178.769,44.021z M178.372,46.927
		c0.1,0.039,0.179,0.094,0.286,0.125c0.582,0.169,1.162,0.185,1.692,0.086c0.017,0.085,0.033,0.169,0.058,0.253
		c-0.678,0.146-1.402,0.064-2.045-0.287C178.348,47.05,178.359,46.988,178.372,46.927z M142.009,40.741
		c-0.495,1.423-2.123,2.677-3.937,2.188c-0.402-0.108-0.715-0.299-0.967-0.525c1.503,0.292,3.129-0.03,4.14-1.218
		c0.131-0.153,0.241-0.321,0.339-0.496C141.727,40.705,141.867,40.725,142.009,40.741z M137.007,40.275
		c0.208,0.042,0.423,0.068,0.656,0.054c0.012-0.001,0.024-0.005,0.036-0.007c0.076,0.007,0.153,0.01,0.23,0.016
		c0.305,0.025,0.607,0.06,0.911,0.086c-0.358,0.359-0.929,0.572-1.462,0.532c-0.392-0.03-0.684-0.15-0.9-0.326
		c0.02-0.13,0.037-0.259,0.081-0.385C136.709,40.256,136.857,40.265,137.007,40.275z M136.692,37.364
		c0.051-0.066,0.103-0.128,0.155-0.186c0.559-0.443,1.242-0.765,1.973-0.854c1.002,0.052,1.732,0.891,1.968,1.889
		c-0.062-0.005-0.122-0.013-0.183-0.019c-0.063-0.12-0.181-0.224-0.377-0.272c-0.356-0.088-0.705-0.134-1.049-0.152
		C138.557,37.32,137.702,37.114,136.692,37.364z"/>
</g>
</svg>
