<?xml version="1.0" encoding="utf-8"?>
<!-- Generator: Adobe Illustrator 16.0.0, SVG Export Plug-In . SVG Version: 6.00 Build 0)  -->
<!DOCTYPE svg PUBLIC "-//W3C//DTD SVG 1.1//EN" "http://www.w3.org/Graphics/SVG/1.1/DTD/svg11.dtd">
<svg version="1.1" id="圖層_1" xmlns="http://www.w3.org/2000/svg" xmlns:xlink="http://www.w3.org/1999/xlink" x="0px" y="0px"
	 width="242.188px" height="56.308px" viewBox="0 0 242.188 56.308" enable-background="new 0 0 242.188 56.308"
	 xml:space="preserve">
<g>
	<g>
		<g>
			<path fill="#943332" d="M88.548,4.609h0.172c1.146,0,1.697,0.979,1.656,2.938c0.322,0.927,0.463,2.13,0.422,3.609h0.516
				c0.708,0,1.416-0.625,2.125-1.875c1.813,0.635,2.708,1.438,2.688,2.406c-0.188,1.021-1.651,2.057-4.391,3.109
				c-1.042,0.26-1.573,0.891-1.594,1.891v0.172c0.333,0.666,0.489,1.239,0.469,1.719h3.094c1.031,0.239,1.541,0.525,1.531,0.859
				v0.188c-0.031,1.104-1.604,2.021-4.719,2.75c0.177,2.104,0.427,3.427,0.75,3.969c1.666-0.354,3.63-0.531,5.891-0.531h0.156
				c0.697,0,1.385,0.463,2.063,1.391c-0.042,1.26-1.506,1.891-4.391,1.891c-4.99,0.926-9.136,1.391-12.438,1.391
				c-1.844,0-2.745-0.75-2.703-2.25c0.01-0.303,0.302-0.589,0.875-0.859c1.197,0.114,1.891,0.172,2.078,0.172
				c1.729,0,2.599-0.344,2.609-1.031c0.021-0.511,0.088-0.854,0.203-1.031c0.791,0.333,1.364,0.5,1.719,0.5l0.047-1.875
				l-0.172-0.359c-1.209,0-2.428,0.291-3.656,0.875l-0.859-0.188c-0.625,0.125-1.141,0.188-1.547,0.188
				c-0.563-0.646-0.834-1.344-0.813-2.094v-0.328c0.021-0.709,2.229-1.516,6.625-2.422c0.125-0.219,0.188-0.391,0.188-0.516
				c0.041-1.719-0.109-2.578-0.453-2.578c-2.063,0.688-3.506,1.031-4.328,1.031c-0.646-0.49-1.266-1.24-1.859-2.25
				c0.5-1.156,0.817-2.131,0.953-2.922c-0.219-0.531-0.323-1.104-0.313-1.719c0.104-0.584,0.286-0.875,0.547-0.875
				c1.364,0.604,2.031,1.641,2,3.109c-0.011,0.344,0.094,0.516,0.313,0.516c2.188,0,3.302-0.75,3.344-2.25
				C87.604,6.849,88.006,4.609,88.548,4.609z"/>
			<path fill="#943332" d="M112.126,16.375h0.563c2.489,0.583,3.766,1.625,3.828,3.125l-0.547,0.375
				c-0.854-0.74-1.547-1.109-2.078-1.109c-1.49-0.188-2.24-0.433-2.25-0.734l-0.016-0.563
				C111.667,16.739,111.834,16.375,112.126,16.375z M114.97,8.406c0.01,0.406,1.271,1.208,3.781,2.406l0.422,1.109l-0.516,0.938
				c-1.667-0.74-3.359-1.359-5.078-1.859c-0.396-0.469-0.604-1.021-0.625-1.656C113.392,8.885,114.063,8.572,114.97,8.406z
				 M127.954,5.453h0.734c2.239,0.219,3.385,1.021,3.438,2.406c0.021,0.469-0.881,1.083-2.703,1.844
				c-0.479,0.364-0.714,0.614-0.703,0.75c0.979,0,1.484,0.369,1.516,1.109c0.041,1.104,0.802,1.656,2.281,1.656
				c0.833,0.208,1.65,0.578,2.453,1.109h0.188v0.188c0.01,0.125-0.047,0.188-0.172,0.188l0.203,0.375v0.188
				c0.021,0.458-1.563,0.947-4.75,1.469c-1.104,2.854-1.839,4.391-2.203,4.609c-0.24,0.125-0.428,0.188-0.563,0.188l0.016,0.203
				c0.666-0.136,1.156-0.203,1.469-0.203c0.822,0,2.734-0.063,5.734-0.188c0.396,0.125,0.9,0.494,1.516,1.109l-0.156,0.375
				c0.114,0.219,0.177,0.469,0.188,0.75c-1.271,0.781-2.156,1.641-2.656,2.578l0.016,0.188c0.281,0,0.594,0.307,0.938,0.922
				l0.031,0.938c0.021,0.364-2.167,0.979-6.563,1.844c0.01,0.238-0.109,0.359-0.359,0.359c-1.438,0-2.656-2.709-3.656-8.125
				l0.891-0.75c0.375,0,0.88,0.188,1.516,0.563c0.489-0.094,0.734-0.214,0.734-0.359c-0.271-0.406-0.412-0.719-0.422-0.938
				c0.219,0,0.604-1.172,1.156-3.516h-0.203c-3.104,0.26-5.068,0.391-5.891,0.391c-1.438,3.864-2.422,7.005-2.953,9.422
				l-0.672,1.281l0.391,0.547c-0.292,0.801-0.589,1.234-0.891,1.297h-0.547c-1.604-0.219-2.433-0.891-2.484-2.016
				c0.396-1.656,2.182-4.865,5.359-9.625l0.344-0.734c-0.667,0-1.109-0.245-1.328-0.734l-0.016-0.188
				c1.135-0.365,2.047-0.734,2.734-1.109l0.734,0.172c1.281-0.115,3.119-0.484,5.516-1.109l-0.078-2.203l-0.234-1.109
				c0.114-0.219,0.166-0.469,0.156-0.75c-0.875,0.531-1.975,0.963-3.297,1.297l-0.188-0.359l-0.016-0.375
				c2.729-2.709,4.088-4.188,4.078-4.438c-0.146-0.365-0.531-0.547-1.156-0.547l-0.016-0.547h0.938V5.641h-0.375L127.954,5.453z
				 M128.157,24.5l-0.922-0.188l0.016,0.188c0.281,1.104,0.432,1.906,0.453,2.406h0.75c0.688-0.261,1.75-1.25,3.188-2.969
				L128.157,24.5z"/>
			<path fill="#943332" d="M159.494,16.857c0,1.279-1.152,2.432-2.432,2.432c-1.28,0-2.465-1.024-2.465-2.432
				c0-1.408,1.057-2.465,2.465-2.465C158.47,14.393,159.494,15.576,159.494,16.857z"/>
			<path fill="#943332" d="M181.267,4.797l0.359,0.188h0.188c0.125,0,0.188-0.063,0.188-0.188c1.239,0.489,2.041,0.922,2.406,1.297
				l-0.188,0.359v1.859c2.208-0.521,3.313-1.323,3.313-2.406c0.219,0,0.531-0.125,0.938-0.375c0,0.25,0.188,0.375,0.563,0.375
				c0,1.354-0.683,3.385-2.047,6.094h0.188c1.447-0.49,3.052-1.167,4.813-2.031c-0.625-1.313-0.938-2.115-0.938-2.406h0.188
				c2.469,0,3.703,0.744,3.703,2.234c0,0.635-0.183,1.927-0.547,3.875c0.646,0,1.938-0.683,3.875-2.047
				c1.229,0.219,1.844,0.469,1.844,0.75v0.375c-0.803,0.697-1.912,3.896-3.328,9.594c1.26,2.344,3.844,4.13,7.75,5.359
				c1.364,0.25,2.047,0.563,2.047,0.938c-0.167,0.738-0.475,1.109-0.922,1.109c-5.428-0.387-8.141-1.131-8.141-2.234
				c-0.188,0-0.928-0.797-2.219-2.391c-2.073,2.958-3.979,4.438-5.719,4.438c-1.053,0-2.037-0.62-2.953-1.859v-0.359
				c0.614,0.239,1.536,0.359,2.766,0.359c2.385-2.188,3.864-3.912,4.438-5.172c-0.74-1.969-1.787-3.448-3.141-4.438
				c-0.5-0.094-0.75-0.214-0.75-0.359c1.239-2.709,1.859-4.62,1.859-5.734v-0.375c-1.646,0.864-3.62,1.729-5.922,2.594
				c-0.438,0.938-0.87,1.677-1.297,2.219h0.188c0.666-0.115,1.224-0.172,1.672-0.172l0.188,0.359h-0.563
				c0.739,0.479,1.109,0.786,1.109,0.922c0,0.072-0.74,1.057-2.219,2.953c0.208,0,0.453,0.432,0.734,1.297
				c1.489-0.125,2.234-0.245,2.234-0.359c0.208,0.114,0.76,0.234,1.656,0.359v0.188l-0.188,0.359l0.734,0.188v0.375
				c0,0.188-0.245,0.432-0.734,0.734h-3.328v1.297c0,0.125,0.063,0.188,0.188,0.188l-0.188,0.375v0.906
				c0,0.135,0.063,0.203,0.188,0.203l-0.188,0.359v1.109c-0.125,1.822-0.433,2.807-0.922,2.953h-1.672
				c-2.459-0.271-3.688-1.012-3.688-2.219c0.125,0,0.188-0.058,0.188-0.172c-0.125,0-0.188-0.063-0.188-0.188h0.375
				c1.229,0.5,1.9,0.75,2.016,0.75h1.125c0.375,0,0.619-1.172,0.734-3.516l-0.172-0.375c0.114-0.219,0.172-0.469,0.172-0.75v-0.172
				c-0.125,0-0.313-0.063-0.563-0.188c-0.792,0.239-1.344,0.359-1.656,0.359h-1.844l-0.922-0.734
				c-1.479,1.479-2.526,2.219-3.141,2.219c-0.24-0.125-0.428-0.188-0.563-0.188c3.333-4.438,5-6.776,5-7.016
				c0-0.448,0.552-1.125,1.656-2.031v-0.734c-0.24-0.136-0.422-0.203-0.547-0.203c-2.803,0.677-4.219,1.109-4.25,1.297l-0.375-0.188
				c-0.709,0-1.448,0.13-2.219,0.391c0-0.136-0.245-0.386-0.734-0.75c0-0.719,1.661-1.334,4.984-1.844
				c0.958-0.5,1.635-0.75,2.031-0.75h0.563c0.114-0.219,0.172-1.203,0.172-2.953c-0.406,0.25-1.516,0.557-3.328,0.922
				c-0.115,0-0.547-0.183-1.297-0.547v-0.188c0-0.553,1.297-1.104,3.891-1.656c0.739-0.198,1.109-0.698,1.109-1.5l0.172-1.094
				C181.568,5.994,181.267,5.255,181.267,4.797z M178.11,23.281h0.188c2.344-2.042,3.516-3.396,3.516-4.063h-0.188L178.11,23.281z
				 M179.782,23.094c2.719-0.553,4.078-0.922,4.078-1.109l-0.75-1.484c0.125-0.396,0.432-1.011,0.922-1.844h-0.172
				C182.517,19.438,181.157,20.916,179.782,23.094z M183.657,13.109h0.203c0.375,0,0.927-1.104,1.656-3.313h-0.188
				c-0.979,0-1.469,0.672-1.469,2.016C183.725,11.969,183.657,12.4,183.657,13.109z M192.72,17.172l2.219,2.406
				c0.583-0.688,1.016-2.042,1.297-4.063h-0.188C195.162,15.516,194.053,16.067,192.72,17.172z"/>
			<path fill="#943332" d="M226.172,0h1.297c0.322,0,0.572,0.489,0.75,1.469v0.938c-0.104,0.385-1.219,1.552-3.344,3.5
				c0.303,0.25,0.916,0.438,1.844,0.563c0.209-0.125,0.521-0.188,0.938-0.188l0.172,0.375v0.172h-0.359v0.188
				c0,0.25,0.182,0.375,0.547,0.375c0,0.406-1.104,1.021-3.313,1.844c0,0.552-0.063,0.922-0.188,1.109h0.188
				c0.791-0.25,1.344-0.375,1.656-0.375h0.563c0.365,0.885,0.547,1.38,0.547,1.484c0,0.469-1.172,1.083-3.516,1.844v0.188
				c0.625,0.5,0.994,0.75,1.109,0.75c2.646-0.865,4.557-1.729,5.734-2.594l1.094,0.188l-0.172,0.359v0.563
				c0.375,0,0.563,0.125,0.563,0.375v0.172c-2.072,1.438-3.928,2.302-5.563,2.594c2.709,3.177,6.65,5.516,11.828,7.016
				c1,0.572,1.5,0.942,1.5,1.109c-0.396,0.739-1.693,1.109-3.891,1.109c0-0.125-0.063-0.188-0.188-0.188v0.188
				c-0.719-0.365-1.459-0.672-2.219-0.922v0.172c-2.563-0.928-4.104-1.85-4.625-2.766h-0.547v0.375c0,1.375-0.553,3.286-1.656,5.734
				h0.359l2.594-0.547h0.188c0.313,0.479,0.557,0.719,0.734,0.719v0.188c0,0.125-0.063,0.188-0.188,0.188l0.188,0.375
				c-1.428,1.229-2.287,1.844-2.578,1.844c0,0.572,2.275,1.254,6.828,2.047c0.74,0.322,1.109,0.563,1.109,0.719V34
				c-0.125,0-0.619,0.119-1.484,0.359c-0.447,0-1-0.059-1.656-0.172c-1.084,0.363-1.885,0.547-2.406,0.547
				c-0.209,0-1.375-0.615-3.5-1.844l-1.297-0.359c-1.75,1.906-3.354,3.01-4.813,3.313c-0.24-0.303-0.359-0.547-0.359-0.734
				l-0.563,0.375c-0.375-0.512-0.563-2.059-0.563-4.641v-1.469c0-1.531,0.244-3.381,0.734-5.547h-0.906
				c-0.26,0-0.391-0.183-0.391-0.547h-0.172c-2.365,3.104-3.963,5.016-4.797,5.734c-1.656,1.104-2.953,1.656-3.891,1.656
				c-0.396-0.25-0.703-0.375-0.922-0.375V29.75c0.01-0.168,0.75-0.6,2.219-1.297c3.479-3.729,5.76-6.808,6.844-9.234
				c-2.354,0.864-3.588,1.297-3.703,1.297c-1.354,0-2.031-0.62-2.031-1.859c0.865-0.365,1.297-0.609,1.297-0.734l0.734,0.375
				c3.813-1.344,5.719-2.396,5.719-3.156v-0.188h-2.203l-0.375-0.172c0,0.114-0.063,0.172-0.188,0.172
				c-0.365-0.542-0.547-1.094-0.547-1.656c1.344-0.49,2.016-0.797,2.016-0.922c0.135,0,0.203,0.063,0.203,0.188
				c1.844-0.24,2.766-0.979,2.766-2.219c-1.396,0.364-3.119,1.041-5.172,2.031c-0.74-0.281-1.109-0.526-1.109-0.734h0.188
				l-0.188-0.375v-0.547C222.662,5.406,226.172,1.833,226.172,0z M218.406,1.844c0.26,0.01,0.875,0.567,1.844,1.672
				c1.178,0.083,1.859,0.328,2.047,0.734c-0.041,0.469-0.656,0.958-1.844,1.469c-1.791-0.719-2.9-1.453-3.328-2.203V3.141
				C217.125,2.275,217.553,1.844,218.406,1.844z M224.141,16.813c-0.094,0.375-0.834,0.807-2.219,1.297
				c-0.197,0.614-0.506,0.922-0.922,0.922l0.188,0.375c-0.334,0.739-0.578,1.109-0.734,1.109c0-0.25-0.125-0.375-0.375-0.375
				c0.25-0.396,0.375-0.703,0.375-0.922h-0.203l0.203-0.375v-0.188c-0.541,0-1.1,0.619-1.672,1.859v0.734h0.734l0.563-0.375
				c0.031,0.25,0.156,0.375,0.375,0.375l4.063-1.109v-0.375c-0.5-0.688-0.75-1.178-0.75-1.469c0-0.115,0.25-0.484,0.75-1.109
				C224.516,16.938,224.391,16.813,224.141,16.813z M221.75,29.75v0.188c0.072,2.207,0.193,3.313,0.359,3.313
				c0.938-0.449,1.615-1,2.031-1.656c-0.01-0.168-0.688-0.6-2.031-1.297c-0.125-0.23-0.188-0.412-0.188-0.547H221.75z
				 M221.922,26.609v0.359c0.822-0.323,1.318-0.688,1.484-1.094C222.416,26.072,221.922,26.317,221.922,26.609z M222.469,23.828
				h0.188c0.344-0.115,1.209-0.172,2.594-0.172v0.172c0.375,0,0.682-0.615,0.922-1.844h-0.188
				C223.641,22.432,222.469,23.047,222.469,23.828z"/>
		</g>
	</g>
	<path fill="#96B0CA" d="M118.725,38.46c-1.769-0.438-3.67-0.259-5.27,0.401c-2.402,0.053-4.01,1.457-4.487,3.182
		c-3.601,0.29-7.192,0.683-10.768,1.188c-0.029,0.005-0.059,0.01-0.087,0.014c-0.372-0.525-0.945-0.944-1.743-1.141
		c-0.11-0.027-0.22-0.038-0.329-0.054c-1.016-0.445-2.17-0.688-3.17-0.063c-0.847,0.53-1.266,1.42-1.361,2.312
		c-3.506,0.606-6.998,1.27-10.487,1.945c-0.236-0.521-0.592-1-1.078-1.398c-1.548-1.268-3.817-1.284-5.75-0.729
		c-0.911,0.014-1.896,0.332-2.635,0.775c-1.423,0.855-2.435,2.168-2.628,3.605c-3.607,0.619-7.232,1.148-10.883,1.557
		c-0.003-0.006-0.003-0.012-0.006-0.018c-0.258-0.506-0.725-0.885-1.257-1.119c-1.016-0.714-2.525-0.83-3.605,0.074
		c-0.317,0.266-0.515,0.574-0.655,0.891c-0.268,0.203-0.498,0.439-0.662,0.72c-0.339,0.021-0.676,0.056-1.015,0.074
		c-3.839,0.206-7.69,0.247-11.538,0.143c-0.365-1.599-1.705-2.988-3.764-3.376c-1.92-0.363-3.63,0.389-4.608,1.619
		c-0.473,0.337-0.88,0.726-1.19,1.176c-2.164-0.207-4.322-0.461-6.469-0.77c-6.777-0.975-17.311-1.828-20.742-7.887
		c-0.784-1.383-3.163-0.17-2.382,1.209c2.681,4.733,8.732,6.438,14.248,7.57c4.86,0.999,9.797,1.738,14.766,2.223
		c0.115,0.937,0.592,1.848,1.353,2.51c2.412,2.1,6.633,1.326,8.231-1.172c0.149-0.232,0.264-0.473,0.361-0.717
		c4.289,0.119,8.521-0.015,12.721-0.314c0.552,1.084,1.863,1.779,3.343,1.572c0.738-0.104,1.404-0.416,1.91-0.855
		c0.359-0.195,0.613-0.507,0.702-0.91c0.058-0.115,0.1-0.233,0.139-0.354c3.821-0.42,7.622-0.959,11.417-1.574
		c1.999,3.76,9.502,2.556,11.43-0.714c0.26-0.44,0.434-0.918,0.525-1.407c2.059-0.387,4.121-0.779,6.189-1.172
		c1.495-0.283,2.992-0.541,4.49-0.793c0.221,0.725,0.821,1.188,1.582,1.402c0.906,0.508,2.023,0.686,3.184,0.307
		c0.371-0.121,0.705-0.292,1.007-0.492c0.893-0.51,1.493-1.387,1.519-2.316c3.257-0.433,6.52-0.8,9.791-1.072
		c0.18,0.507,0.451,1.002,0.847,1.457c2.365,2.729,8.431,3.297,11.155,0.619c0.793-0.78,1.25-1.734,1.404-2.713
		c3.764-0.039,7.537,0.041,11.318,0.249c0.038,0.083,0.085,0.163,0.131,0.243c-0.01,0.104-0.025,0.208-0.026,0.31
		c-0.013,1.782,1.198,3.121,3.204,3.501c1.775,0.336,4.183,0.31,5.484-0.934c0.664-0.633,1.049-1.409,1.207-2.229
		c2.529,0.316,5.05,0.688,7.563,1.101c0.006,0.56,0.153,1.126,0.479,1.653c1.549,2.493,6.004,3.465,8.68,1.801
		c0.701-0.438,1.172-0.99,1.453-1.595c4.665,0.838,9.332,1.646,14.028,2.257c0.331,0.73,0.928,1.376,1.691,1.813
		c0.803,0.666,2.301,0.986,3.384,0.636c0.907-0.293,1.604-0.919,2.054-1.68c0.007-0.009,0.015-0.016,0.021-0.024
		c1.452,0.109,2.906,0.202,4.367,0.25c2.883,0.096,5.752,0.053,8.605-0.109c0.543,0.493,1.51,0.408,2.031-0.054
		c0.006,0.028,0.009,0.057,0.016,0.084c0.938,4.434,7.008,3.891,9.707,1.088c0.852-0.883,1.258-1.774,1.322-2.625
		c10.91-1.837,21.596-4.944,32.049-8.057c1.67-0.497,0.953-2.812-0.732-2.31c-10.465,3.115-21.107,6.24-32.01,8.055
		c-0.946-1.335-2.746-2.363-4.799-2.771c-3.65-0.724-7.702,1.104-8.1,4.206c-0.635,0.033-1.268,0.072-1.904,0.093
		c-3.309,0.11-6.586-0.008-9.844-0.255c-0.086-0.596-0.369-1.141-0.783-1.596c-0.122-0.165-0.256-0.324-0.417-0.466
		c-1.864-1.653-5.149-1.095-6.457,0.847c-0.081,0.121-0.149,0.244-0.209,0.367c-4.638-0.635-9.251-1.452-13.864-2.283
		c-0.357-1.227-1.286-2.361-2.604-2.988c-1.688-0.803-3.549-0.678-5.038,0.062c-0.893,0.18-1.642,0.625-2.185,1.222
		c-2.187-0.349-4.377-0.67-6.576-0.939c-0.703-0.086-1.408-0.146-2.112-0.223c-0.486-1.477-1.621-2.797-3.21-3.39
		c-2.5-0.935-5.786,0.388-6.662,2.552c-3.834-0.213-7.674-0.309-11.514-0.28C121.692,40.07,120.508,38.902,118.725,38.46z
		 M35.541,50.664c-0.004-0.007-0.008-0.014-0.014-0.021c-0.297-0.389-0.714-0.64-1.167-0.761c0.027-0.038,0.054-0.076,0.075-0.115
		c0.247-0.023,0.504-0.005,0.76,0.071c0.568,0.169,0.965,0.489,1.205,0.874C36.113,50.699,35.828,50.679,35.541,50.664z
		 M96.223,46.799c-0.298,0.16-0.65,0.267-1.008,0.322c-0.22-0.106-0.404-0.257-0.563-0.429c0.756,0.098,1.527-0.14,2.017-0.741
		c0.153-0.021,0.306-0.047,0.458-0.069C96.945,46.244,96.652,46.569,96.223,46.799z M204.25,47.57
		c-0.02-0.045-0.046-0.08-0.069-0.121c0.226,0,0.437-0.051,0.624-0.142c0.282,0.128,0.538,0.276,0.76,0.444
		c-0.388,0.057-0.777,0.104-1.166,0.154L204.25,47.57z M178.769,48.082c0.278-0.33,0.704-0.582,1.146-0.598
		c0.75-0.025,1.201,0.373,1.359,0.874C180.438,48.275,179.604,48.18,178.769,48.082z M178.372,50.988
		c0.1,0.039,0.179,0.094,0.286,0.125c0.582,0.169,1.162,0.184,1.692,0.086c0.017,0.084,0.033,0.169,0.058,0.254
		c-0.678,0.145-1.402,0.063-2.045-0.287C178.348,51.111,178.359,51.05,178.372,50.988z M142.009,44.803
		c-0.495,1.422-2.123,2.677-3.937,2.188c-0.402-0.109-0.715-0.299-0.967-0.525c1.503,0.292,3.129-0.03,4.14-1.217
		c0.131-0.154,0.241-0.322,0.339-0.496C141.727,44.768,141.867,44.786,142.009,44.803z M137.007,44.337
		c0.208,0.042,0.423,0.068,0.656,0.054c0.012,0,0.024-0.006,0.036-0.006c0.076,0.006,0.153,0.009,0.23,0.016
		c0.305,0.023,0.607,0.059,0.911,0.086c-0.358,0.358-0.929,0.571-1.462,0.531c-0.392-0.03-0.684-0.15-0.9-0.326
		c0.02-0.13,0.037-0.259,0.081-0.385C136.709,44.317,136.857,44.326,137.007,44.337z M136.692,41.426
		c0.051-0.066,0.103-0.128,0.155-0.186c0.559-0.443,1.242-0.766,1.973-0.855c1.002,0.053,1.732,0.892,1.968,1.891
		c-0.062-0.006-0.122-0.014-0.183-0.02c-0.063-0.121-0.181-0.223-0.377-0.272c-0.356-0.089-0.705-0.134-1.049-0.153
		C138.557,41.381,137.702,41.176,136.692,41.426z"/>
</g>
</svg>
