<?xml version="1.0" encoding="utf-8"?>
<!-- Generator: Adobe Illustrator 16.0.0, SVG Export Plug-In . SVG Version: 6.00 Build 0)  -->
<!DOCTYPE svg PUBLIC "-//W3C//DTD SVG 1.1//EN" "http://www.w3.org/Graphics/SVG/1.1/DTD/svg11.dtd">
<svg version="1.1" id="圖層_1" xmlns="http://www.w3.org/2000/svg" xmlns:xlink="http://www.w3.org/1999/xlink" x="0px" y="0px"
	 width="242.187px" height="55.215px" viewBox="0 0 242.187 55.215" enable-background="new 0 0 242.187 55.215"
	 xml:space="preserve">
<g>
	<g>
		<g>
			<path fill="#943332" d="M177.922,13.016c1.219,0,2.302,0.547,3.25,1.641v1h-0.203l-0.391-0.188v0.391
				c-0.542-0.354-1.698-0.688-3.469-1c-0.406-0.5-0.609-0.974-0.609-1.422C177.052,13.156,177.526,13.016,177.922,13.016z
				 M179.75,4.688l5.891,2.438c0.281,0.438,0.422,0.781,0.422,1.031c-0.333,0.261-0.604,0.391-0.813,0.391
				c-0.271,0-1.766-0.063-4.484-0.188c-1.219-0.958-1.828-1.781-1.828-2.469C179.125,5.464,179.396,5.063,179.75,4.688z M193.578,0
				c1.083,0.167,1.625,0.511,1.625,1.031l0.406-0.203c0.177,0,0.646,1.083,1.406,3.25c0.906,0.052,1.453,0.255,1.641,0.609
				c0,0.594-0.745,1.141-2.234,1.641c-0.261,0.719-0.391,1.458-0.391,2.219h0.203c0.229-0.125,0.489-0.188,0.781-0.188l0.219,0.391
				v0.219c-1.219,0.833-1.828,1.781-1.828,2.844h0.203l6.906-2.047l-0.203-0.391V9.156h1.219c0.542,0.542,0.948,0.813,1.219,0.813
				v0.422c0,0.958-5.755,2.922-17.266,5.891c-0.188,0-0.594,0.948-1.219,2.844c-0.364,0.438-1.114,1.792-2.25,4.063l0.203,0.406
				c-0.406,0.792-0.739,1.604-1,2.438h0.188c-0.261,0.489-0.391,1.036-0.391,1.641v0.188c0,0.135,0.067,0.203,0.203,0.203
				c-0.489,1.354-1.104,2.031-1.844,2.031c-1.489-0.073-2.234-0.75-2.234-2.031c0.323,0,0.661-1.156,1.016-3.469l-0.203-0.391
				c0.261-0.614,0.531-0.953,0.813-1.016l0.609,0.406c0-0.479,1.489-2.719,4.469-6.719v-0.188h-0.406l-0.391,0.188
				c0-0.261-0.141-0.391-0.422-0.391v-0.625c0.198-0.364,3.114-1.578,8.75-3.641l0.203-1.234v-0.188
				c-2.229,0.542-3.651,0.813-4.266,0.813h-0.406c-0.271,0-0.406-0.141-0.406-0.422c1.739-1.073,3.433-1.813,5.078-2.219V7.328
				l-3.047,0.406c-0.677,0-1.016-0.614-1.016-1.844c2.844-0.729,4.266-1.198,4.266-1.406V4.281c0-0.396-0.339-1.479-1.016-3.25
				V0.625C192.766,0.417,193.036,0.208,193.578,0z M198.047,14.859c0,0.271,0.609,0.604,1.828,1c0.677,0,1.016,2.989,1.016,8.969
				c-0.219,5.958-0.625,8.938-1.219,8.938l-1.016,0.203c-1.989-1.719-3.073-3.209-3.25-4.469v-0.203c0.5,0,1.313,0.474,2.438,1.422
				l0.609-5.094c-0.136-0.261-0.203-0.458-0.203-0.594c0.136,0,0.203-0.067,0.203-0.203h-0.203l0.203-0.422v-1.016
				c0-1.698,0.067-3.797,0.203-6.297c-0.136-0.261-0.203-0.464-0.203-0.609h-0.406c-3.25,1.229-4.875,2.245-4.875,3.047h0.203
				c0.614,0,1.5-0.063,2.656-0.188c0.531,0.104,0.797,0.234,0.797,0.391v0.594c0.271,0.063,0.406,0.203,0.406,0.422
				c-0.094,0.271-1.448,1.016-4.063,2.234l-0.203,0.828c0.136,0.25,0.203,0.448,0.203,0.594h0.406c0.136,0,0.203-0.067,0.203-0.203
				c0.136,0,0.203,0.067,0.203,0.203c1.208-0.271,2.089-0.406,2.641-0.406c0.813,0.323,1.219,0.599,1.219,0.828
				c-0.792,0.989-2.349,1.864-4.672,2.625c-0.136,2.719-0.203,4.213-0.203,4.484l-0.609,0.391c-0.417,0-0.891-0.266-1.422-0.797
				c0,0.125-0.067,0.188-0.203,0.188c-0.136-1.219-0.266-1.828-0.391-1.828l0.188-0.391v-0.422c0-0.136-0.063-0.203-0.188-0.203
				l0.188-0.406v-4.656c-0.813-0.489-1.219-1.104-1.219-1.844c0.177,0,0.583-0.406,1.219-1.219v-0.625l-0.188-1.203
				c0.313-1.219,0.641-1.828,0.984-1.828c0.688,0.271,1.031,0.474,1.031,0.609C194.974,15.808,196.87,14.859,198.047,14.859z"/>
			<path fill="#943332" d="M211.608,16.547v0.375l-0.203,0.359h0.75l1.109-0.172c0.531,0.239,1.271,0.484,2.219,0.734l0.734,1.109
				v0.922l-0.734,0.188c0-0.177-0.188-0.359-0.563-0.547h-0.359v0.359h-0.375c0-0.5-0.125-0.75-0.375-0.75
				c-0.113,0-0.979,0.25-2.594,0.75h-0.547c-0.156,0-0.525-0.433-1.108-1.297v-0.172l0.546-0.75v-0.188l-0.188-0.359
				C210.933,16.734,211.495,16.547,211.608,16.547z M211.405,8.969h0.203c0.449,0.208,1.434,0.396,2.953,0.563
				c2.334,1.156,3.5,2.198,3.5,3.125l-0.922,0.563c-2.875-0.875-4.354-1.614-4.438-2.219c-0.145,0-0.391-0.489-0.734-1.469
				C211.792,9.531,211.604,9.344,211.405,8.969z M212.702,14.703h0.563c0,0.177-0.432,0.609-1.297,1.297h-0.359
				C212.339,15.438,212.702,15.005,212.702,14.703z M219.733,19.688l0.359,0.188l0.938-0.188c0,0.364,0.24,0.547,0.719,0.547
				l0.391-0.172c1.23,0,1.844,1.417,1.844,4.25c-0.322,3.583-1.25,5.552-2.781,5.906c-0.738-0.313-1.109-0.74-1.109-1.281
				c0.25-0.511,0.375-0.881,0.375-1.109c-0.25,0-0.375-0.125-0.375-0.375v-0.375l0.375,0.188h0.375l0.547-4.078l-0.188-0.719
				l0.188-0.391c-0.238-0.489-0.359-0.854-0.359-1.094h-0.188c0,0.438-1.051,2.344-3.156,5.719
				c-1.656,3.208-3.191,4.813-4.609,4.813h-0.188c-0.604-0.323-0.91-0.568-0.922-0.734l0.188-2.234h-0.188
				c0.293-0.854,0.537-1.281,0.734-1.281c0.043,0.25,0.168,0.375,0.375,0.375h0.188c0-0.25,0.059-0.375,0.172-0.375l-0.172-0.375
				c0.313-0.604,0.559-0.911,0.734-0.922c0,0.125,0.063,0.188,0.188,0.188l0.188-0.375c-0.125,0-0.188-0.063-0.188-0.188
				c0.303,0,0.797-0.427,1.484-1.281c0.668,0,1.219-0.495,1.656-1.484C218.308,21.849,219.108,20.802,219.733,19.688z
				 M229.702,7.859l1.484,1.297v0.734c0,0.771-1.359,2.495-4.078,5.172v0.188l3.891-1.484c0,0.125,0.063,0.188,0.188,0.188
				c-0.104-0.208-0.229-0.942-0.375-2.203h0.188c3.084,0.958,4.625,2.125,4.625,3.5c0,0.177-0.188,0.364-0.563,0.563h-0.547
				c-0.729-0.739-1.473-1.109-2.234-1.109c-0.906,1.083-3.922,2.5-9.047,4.25c0,0.114-0.244,0.172-0.734,0.172h-0.359v-0.359
				l-0.391,0.188h-0.172l-0.547-0.938c0.406-1.229,0.959-1.844,1.656-1.844c2-1.833,3.293-3.188,3.875-4.063
				c0.313-0.114,0.809-0.734,1.484-1.859v-0.172l-7.406,2.406c-0.801,0-1.535-0.745-2.203-2.234h-0.188V9.703
				c0.188,0,0.434-0.12,0.734-0.359h0.188c0.25,0.042,0.375,0.161,0.375,0.359c-0.25,0.042-0.375,0.167-0.375,0.375h0.172
				c0.406,0,3.615-0.739,9.625-2.219H229.702z M226.749,1.953c2.469,0.989,3.703,2.036,3.703,3.141v0.375l-0.938,0.172
				c-1.25-0.739-2.109-1.109-2.578-1.109c0,0.125-0.063,0.188-0.188,0.188c-0.072-0.364-0.566-0.547-1.484-0.547l-0.359,0.172
				c-0.563-0.198-0.994-0.567-1.297-1.109V2.313C225.276,2.073,226.323,1.953,226.749,1.953z M225.093,18.578
				c0.24,0,0.359,0.183,0.359,0.547h0.188c0-0.239,0.059-0.359,0.172-0.359c1.293,0,2.037,0.864,2.234,2.594v1.281
				c0,4.198-0.557,6.297-1.672,6.297c-0.375-0.042-0.744-0.475-1.109-1.297l0.188-0.375c0-0.604-0.182-1.219-0.547-1.844
				c0.365,0,0.547-0.063,0.547-0.188c0-1.188,0.121-2.479,0.359-3.875c-0.113-1.219-0.354-2.021-0.719-2.406V18.578z
				 M228.218,18.016c0.125,0,0.188,0.067,0.188,0.203c0.137,0,0.203-0.067,0.203-0.203c1.719,0,2.943,1.052,3.672,3.156
				c0,0.604,0.131,1.406,0.391,2.406h-0.203c0.137,0.292,0.262,0.906,0.375,1.844c-0.113,0.646-0.172,1.261-0.172,1.844v0.922h0.359
				l-0.188,0.359h0.375c2.219-0.146,3.328-0.386,3.328-0.719c-0.25-0.302-0.375-0.552-0.375-0.75
				c0.188-0.489,0.375-0.734,0.563-0.734l0.359,0.188c0.5-0.864,0.75-1.667,0.75-2.406c0-0.281-0.188-1.021-0.563-2.219h0.563
				c0.605,0.198,0.906,0.505,0.906,0.922h0.188l0.375-0.188c0.209,0,0.453,1.911,0.734,5.734c0.262,0,0.391,0.427,0.391,1.281
				c0,0.396-2.406,1.078-7.219,2.047c-1,0-2.109-0.865-3.328-2.594c0-0.615-0.063-0.922-0.188-0.922l0.188-0.922v-1.297
				c0-5.042-0.426-7.563-1.281-7.563h-0.391V18.016z"/>
		</g>
	</g>
	<path fill="#96B0CA" d="M118.725,37.366c-1.769-0.438-3.67-0.258-5.27,0.4c-2.403,0.055-4.01,1.459-4.487,3.183
		c-3.602,0.291-7.193,0.683-10.769,1.188c-0.028,0.004-0.058,0.01-0.087,0.014c-0.371-0.525-0.945-0.945-1.742-1.141
		c-0.111-0.027-0.22-0.039-0.329-0.055c-1.016-0.445-2.17-0.688-3.171-0.063c-0.846,0.53-1.265,1.42-1.361,2.313
		c-3.506,0.605-6.998,1.27-10.486,1.944c-0.236-0.521-0.592-1-1.078-1.398c-1.549-1.269-3.818-1.284-5.75-0.728
		c-0.911,0.013-1.896,0.331-2.635,0.775c-1.424,0.855-2.436,2.168-2.629,3.604c-3.606,0.619-7.231,1.148-10.883,1.558
		c-0.002-0.006-0.002-0.013-0.006-0.019c-0.257-0.506-0.725-0.884-1.256-1.118c-1.016-0.715-2.525-0.831-3.605,0.074
		c-0.317,0.266-0.516,0.572-0.656,0.891c-0.267,0.202-0.498,0.439-0.662,0.719c-0.338,0.021-0.674,0.057-1.014,0.074
		c-3.839,0.206-7.691,0.248-11.539,0.143c-0.365-1.598-1.705-2.988-3.763-3.376c-1.921-0.362-3.63,0.39-4.608,1.62
		c-0.473,0.336-0.881,0.725-1.191,1.176c-2.164-0.207-4.322-0.461-6.469-0.77c-6.776-0.975-17.311-1.828-20.742-7.887
		c-0.783-1.383-3.162-0.171-2.381,1.209c2.681,4.732,8.732,6.437,14.248,7.57c4.859,0.998,9.797,1.738,14.766,2.223
		c0.115,0.936,0.592,1.848,1.352,2.51c2.413,2.1,6.633,1.325,8.232-1.172c0.148-0.232,0.264-0.474,0.361-0.717
		c4.289,0.118,8.521-0.016,12.721-0.315c0.552,1.085,1.863,1.78,3.342,1.573c0.739-0.104,1.405-0.417,1.911-0.856
		c0.358-0.195,0.612-0.507,0.702-0.91c0.057-0.115,0.1-0.233,0.139-0.354c3.821-0.419,7.622-0.958,11.417-1.573
		c1.999,3.76,9.501,2.555,11.429-0.715c0.26-0.439,0.435-0.918,0.525-1.406c2.06-0.387,4.122-0.78,6.189-1.172
		c1.496-0.283,2.992-0.542,4.49-0.795c0.222,0.726,0.822,1.189,1.583,1.404c0.905,0.508,2.022,0.685,3.184,0.306
		c0.371-0.121,0.705-0.292,1.007-0.491c0.893-0.51,1.493-1.388,1.518-2.316c3.258-0.434,6.521-0.801,9.791-1.073
		c0.181,0.507,0.453,1.002,0.848,1.458c2.365,2.728,8.431,3.296,11.154,0.618c0.794-0.78,1.25-1.733,1.404-2.712
		c3.765-0.04,7.538,0.041,11.319,0.248c0.038,0.084,0.085,0.163,0.13,0.243c-0.01,0.104-0.025,0.208-0.025,0.31
		c-0.014,1.783,1.198,3.121,3.204,3.502c1.775,0.336,4.183,0.309,5.484-0.935c0.663-0.634,1.049-1.409,1.206-2.229
		c2.529,0.317,5.051,0.688,7.564,1.101c0.006,0.561,0.152,1.127,0.479,1.654c1.548,2.492,6.003,3.465,8.679,1.8
		c0.702-0.437,1.173-0.989,1.455-1.595c4.664,0.838,9.33,1.646,14.027,2.258c0.33,0.729,0.928,1.375,1.691,1.813
		c0.803,0.666,2.301,0.986,3.384,0.635c0.907-0.293,1.603-0.919,2.054-1.68c0.006-0.008,0.014-0.016,0.021-0.023
		c1.452,0.109,2.906,0.201,4.367,0.25c2.883,0.096,5.751,0.051,8.604-0.11c0.544,0.493,1.511,0.409,2.032-0.054
		c0.005,0.028,0.009,0.057,0.015,0.084c0.938,4.434,7.008,3.891,9.708,1.088c0.851-0.883,1.257-1.774,1.323-2.625
		c10.908-1.836,21.594-4.943,32.049-8.057c1.668-0.496,0.951-2.811-0.734-2.309c-10.463,3.115-21.107,6.24-32.009,8.054
		c-0.946-1.335-2.746-2.363-4.8-2.771c-3.649-0.723-7.701,1.105-8.1,4.207c-0.634,0.033-1.268,0.071-1.903,0.092
		c-3.31,0.111-6.586-0.008-9.845-0.255c-0.086-0.596-0.369-1.14-0.782-1.596c-0.122-0.165-0.257-0.323-0.417-0.466
		c-1.865-1.652-5.149-1.095-6.457,0.848c-0.081,0.12-0.149,0.243-0.209,0.367c-4.639-0.635-9.252-1.453-13.865-2.285
		c-0.356-1.225-1.285-2.359-2.603-2.986c-1.688-0.803-3.55-0.678-5.038,0.061c-0.893,0.18-1.643,0.625-2.186,1.223
		c-2.186-0.35-4.377-0.67-6.576-0.939c-0.702-0.086-1.408-0.146-2.111-0.224c-0.486-1.477-1.621-2.796-3.21-3.39
		c-2.501-0.934-5.786,0.389-6.662,2.552c-3.834-0.213-7.675-0.309-11.515-0.28C121.692,38.977,120.508,37.809,118.725,37.366z
		 M35.541,49.57c-0.005-0.007-0.009-0.014-0.014-0.021c-0.297-0.389-0.714-0.639-1.167-0.761c0.027-0.038,0.054-0.075,0.074-0.114
		c0.248-0.024,0.505-0.006,0.76,0.07c0.568,0.17,0.965,0.489,1.206,0.875C36.113,49.606,35.827,49.585,35.541,49.57z M96.222,45.706
		c-0.297,0.159-0.649,0.266-1.008,0.322c-0.219-0.107-0.404-0.258-0.563-0.43c0.756,0.098,1.528-0.139,2.018-0.74
		c0.152-0.022,0.305-0.048,0.457-0.07C96.944,45.15,96.651,45.476,96.222,45.706z M204.25,46.478
		c-0.02-0.045-0.046-0.081-0.069-0.121c0.225,0,0.436-0.052,0.623-0.143c0.283,0.128,0.539,0.276,0.761,0.445
		c-0.388,0.056-0.777,0.104-1.167,0.154L204.25,46.478z M178.769,46.988c0.277-0.33,0.703-0.582,1.146-0.597
		c0.75-0.026,1.201,0.373,1.359,0.873C180.438,47.183,179.603,47.087,178.769,46.988z M178.372,49.896
		c0.1,0.038,0.178,0.093,0.286,0.125c0.582,0.168,1.161,0.184,1.692,0.085c0.016,0.085,0.033,0.169,0.058,0.253
		c-0.679,0.146-1.403,0.064-2.046-0.286C178.347,50.018,178.358,49.956,178.372,49.896z M142.009,43.709
		c-0.496,1.423-2.123,2.677-3.938,2.188c-0.402-0.108-0.714-0.298-0.966-0.524c1.503,0.291,3.13-0.031,4.14-1.218
		c0.131-0.153,0.24-0.321,0.339-0.496C141.726,43.674,141.866,43.692,142.009,43.709z M137.007,43.243
		c0.208,0.043,0.423,0.068,0.656,0.055c0.012-0.001,0.023-0.006,0.035-0.007c0.077,0.006,0.154,0.009,0.23,0.016
		c0.305,0.024,0.607,0.059,0.912,0.086c-0.358,0.358-0.93,0.571-1.463,0.531c-0.391-0.03-0.683-0.149-0.899-0.326
		c0.02-0.13,0.037-0.259,0.081-0.385C136.708,43.224,136.857,43.232,137.007,43.243z M136.692,40.332
		c0.051-0.066,0.102-0.128,0.155-0.185c0.558-0.443,1.242-0.766,1.972-0.855c1.003,0.053,1.732,0.891,1.969,1.89
		c-0.062-0.006-0.122-0.014-0.184-0.02c-0.063-0.12-0.18-0.223-0.377-0.272c-0.355-0.088-0.705-0.134-1.049-0.152
		C138.557,40.288,137.702,40.082,136.692,40.332z"/>
</g>
</svg>
