<?xml version="1.0" encoding="utf-8"?>
<!-- Generator: Adobe Illustrator 16.0.0, SVG Export Plug-In . SVG Version: 6.00 Build 0)  -->
<!DOCTYPE svg PUBLIC "-//W3C//DTD SVG 1.1//EN" "http://www.w3.org/Graphics/SVG/1.1/DTD/svg11.dtd">
<svg version="1.1" id="圖層_1" xmlns="http://www.w3.org/2000/svg" xmlns:xlink="http://www.w3.org/1999/xlink" x="0px" y="0px"
	 width="242.188px" height="55.855px" viewBox="0 0 242.188 55.855" enable-background="new 0 0 242.188 55.855"
	 xml:space="preserve">
<g>
	<g>
		<g>
			<path fill="#943332" d="M180.906,19.016c2.708,1.25,4.063,2.604,4.063,4.063l-0.188,1.156c0,0.947-0.333,1.828-1,2.641v0.203
				c4.688,1.146,7.058,1.754,7.109,1.828c0.146,0,0.219-0.068,0.219-0.203c3.261,1.094,8.005,1.979,14.234,2.656
				c0.677,0,1.016,0.135,1.016,0.406h-0.203l0.422,0.813l-2.438,0.406v-0.203c-1.646,0.541-3.755,0.813-6.328,0.813h-1
				c-0.313,0-0.589-0.068-0.828-0.203c-0.25,0.135-0.453,0.203-0.609,0.203c0-0.469-3.464-1.625-10.391-3.469
				c-2.229-0.396-4.531-0.734-6.906-1.016c0-0.271-0.276-0.406-0.828-0.406v-0.188c0-1.115,0.547-1.797,1.641-2.047
				c0.125,0,0.188-0.068,0.188-0.203c1.625,0.281,2.917,0.422,3.875,0.422c0.271-0.459,0.406-0.87,0.406-1.234
				c-0.417-2.678-1.031-4.016-1.844-4.016c-0.813-0.438-1.219-1.115-1.219-2.031L180.906,19.016z M184.375,14.453
				c0.625,0.271,0.964,0.541,1.016,0.813v0.609c0,0.375-0.813,0.65-2.438,0.828l-0.406-0.203l-1.219,0.203
				c-0.625-0.417-1.031-0.625-1.219-0.625v-0.391C180.109,14.864,181.531,14.453,184.375,14.453z M198.234,0
				c0.489,0,1.031,0.271,1.625,0.813c0,1.291-1.422,2.922-4.266,4.891l-0.625,0.828h0.188c3.511-0.823,5.38-1.234,5.609-1.234
				c1.219,0.114,1.828,0.322,1.828,0.625c-4.542,1.646-6.813,2.525-6.813,2.641h0.203l-0.203,0.391
				c0.136,0.26,0.203,0.469,0.203,0.625c-1.448,1.76-2.87,3.119-4.266,4.078v0.188h0.188c1.417-0.813,2.5-1.219,3.25-1.219h0.828V12
				c1.906,0,2.859,1.9,2.859,5.703c0.083,1.364,0.214,2.047,0.391,2.047c-0.136,0.26-0.203,0.463-0.203,0.609
				c0,5.697-0.406,8.547-1.219,8.547c-0.25,0.135-0.453,0.203-0.609,0.203c-0.948-0.387-1.422-0.99-1.422-1.813
				c0-0.115,0.136-0.662,0.406-1.641v-0.203h-0.203l-4.484,3.063h-0.203c-0.208,0-0.677-0.479-1.406-1.438l0.188-0.391
				c-0.125,0-0.188-0.073-0.188-0.219c0.396,0,0.661-0.953,0.797-2.859l-0.203-1.203c0.136-0.719,0.203-1.401,0.203-2.047V19.75
				c-0.948-0.344-1.422-0.683-1.422-1.016v-0.609c0-0.531,0.474-1.146,1.422-1.844v-1.625h-0.203
				c-0.875,0.271-1.484,0.406-1.828,0.406h-0.406v-0.406c3.427-3.219,5.083-4.854,4.969-4.906l0.219-0.406V9.156
				c-0.083,0-2.219,0.885-6.406,2.656l-0.422-0.203c-0.5,0.26-1.042,0.391-1.625,0.391h-0.813c-0.813-0.469-1.219-0.803-1.219-1
				V9.969c0-0.303,1.708-0.823,5.125-1.563c1.5-0.365,2.552-0.678,3.156-0.938l-0.344-0.75l-1,0.203
				c-3.125-1.313-4.688-2.537-4.688-3.672l0.391-1.422h0.219c0.739,0,2.099,1.021,4.078,3.063c0.594,0.188,1.13,0.458,1.609,0.813
				h0.219C195.271,1.9,197.442,0,198.234,0z M192.516,14.25c0-0.136-0.067-0.203-0.203-0.203v0.203
				c0.281,0.5,0.422,1.041,0.422,1.625h2.641l1.016-0.188v-2.25C195.526,13.438,194.234,13.708,192.516,14.25z M192.734,24.438
				h0.203c2.302-0.5,3.453-1.109,3.453-1.828v-1.031l-0.203-0.406c0.136,0,0.203-0.068,0.203-0.203h-0.406
				c-2.031,0.864-3.047,1.609-3.047,2.234C192.802,23.922,192.734,24.333,192.734,24.438z M193.75,19.125l1.406-0.188h1.234
				l0.203-1.234c-0.261-0.125-0.464-0.188-0.609-0.188C194.63,18.234,193.886,18.771,193.75,19.125z"/>
			<path fill="#943332" d="M223.688,0.844c1.406,0.438,2.109,1.203,2.109,2.297l0.313,1.938c-0.094,0-0.141,0.052-0.141,0.156
				c1.364,0.677,2.234,1.219,2.609,1.625v0.172l-2.609,0.984c-0.114,0.958-0.229,1.552-0.344,1.781h0.344l4.203-1.141v0.172
				l-0.141,0.328c0.531,0.531,1.125,0.797,1.781,0.797v0.484c-2.094,0.875-5.026,1.744-8.797,2.609
				c-0.958,1.083-1.438,1.682-1.438,1.797l0.313,0.172c0.489,0,1.359-0.443,2.609-1.328c0.114,0,0.172,0.063,0.172,0.188
				c0.323-0.125,0.917-0.188,1.781-0.188c0,0.635,0.542,1.021,1.625,1.156v0.172c0,0.896-1.359,2.135-4.078,3.719
				c0,0.156-0.161,0.484-0.484,0.984h0.172c2.052-0.229,3.349-0.396,3.891-0.5c0.219,0.104,0.386,0.156,0.5,0.156l0.797-0.156
				c0.636,0.104,1.067,0.484,1.297,1.141c0.771,0.229,1.156,0.453,1.156,0.672l-1.781,2.594c2.886,2.385,4.781,3.578,5.688,3.578
				l0.484,0.641v0.328c-0.136,0-0.567,0.161-1.297,0.484c-1.917,0-3.864-1.031-5.844-3.094h-0.328
				c-1.198,1.958-2.177,3.313-2.938,4.063l-0.641,0.5l-0.5-0.328l-0.484,0.328c0-0.178-0.386-0.506-1.156-0.984
				c-0.198-0.387-0.297-0.818-0.297-1.297c0-0.271,0.052-0.703,0.156-1.297l-0.156-0.984l0.156-0.313
				c-0.104-0.188-0.156-0.401-0.156-0.641h0.156l-0.156-0.328l0.156-0.344l-0.328-0.156c-1.083,1.083-1.844,2.166-2.281,3.25
				l-2.109,2.766c3.031,0.645,5.469,1.02,7.313,1.125c0.114,0,0.172-0.053,0.172-0.156l1.125,0.156h1.641
				c0.323,0,0.484-0.053,0.484-0.156l0.797,0.156h3.25c0.125,0,0.188-0.053,0.188-0.156l0.313,0.156
				c0.114,0,0.172-0.053,0.172-0.156l0.313,0.156c0.25,0,0.469-0.053,0.656-0.156c0.114,0,0.172,0.051,0.172,0.156l1.953-0.156
				h1.141c0.75,0.041,1.125,0.15,1.125,0.328l0.328-0.172h0.484v0.344h0.328c0.271,0,0.755-0.115,1.453-0.344
				c0,0.551-0.703,0.938-2.109,1.156c-2.021,0.75-5.438,1.285-10.25,1.609c-0.094,0-0.141-0.047-0.141-0.141l-0.828,0.141h-1.641
				c-0.563,0-1.479-0.047-2.75-0.141v0.141c-0.979-0.418-4.609-1.281-10.891-2.594l-1.141,0.172l-0.828-0.172v0.172
				c-0.969-0.605-1.453-1.152-1.453-1.641h-0.156c0-0.553,0.917-0.984,2.75-1.297c1.094-0.678,1.641-1.323,1.641-1.938v-0.484
				c0-0.979-0.433-1.469-1.297-1.469h-2.109c-0.167,0-0.333-0.167-0.5-0.5h0.328v-0.156c-0.114,0-0.281-0.053-0.5-0.156
				c0-0.25,1.089-1.771,3.266-4.563v-0.641c-0.323-1.469-0.484-2.287-0.484-2.453l0.641-0.469c0.677,0,1.109,0.536,1.297,1.609
				c0.219,0.364,0.328,0.692,0.328,0.984v0.5c-1.271,1.271-2.464,2.786-3.578,4.547v0.156h1.141c1.948,0,3.141,1.244,3.578,3.734
				c-0.083,0.688-0.354,1.344-0.813,1.969v0.141l1.297,0.344l-0.156-0.828c1.396-1.823,2.75-4.1,4.063-6.828
				c-0.979,0.541-1.63,0.813-1.953,0.813h-0.156v-0.328c0-0.479,0.38-1.016,1.141-1.609c0-0.261,0.646-0.964,1.938-2.109v-0.172
				c-0.761-1.771-1.141-2.698-1.141-2.781l0.172-0.313l-0.172-0.969c0.761-0.229,1.141-0.453,1.141-0.672v-0.156h-0.156
				l-4.047,1.141c-0.458-0.156-0.786-0.422-0.984-0.797c0.344-0.636,1.589-1.287,3.734-1.953l3.891-1.484l0.172-0.953
				c0-0.104-0.058-0.156-0.172-0.156l0.172-0.344V8.656h-0.172c-0.344,0-2.021,0.224-5.031,0.672
				c-0.219-0.354-0.328-0.631-0.328-0.828c2.083,0,3.979-0.656,5.688-1.969c0-0.667,0.058-1.475,0.172-2.422l-0.328-1.469
				l0.156-0.813l-0.156-0.813L223.688,0.844z M222.531,15.969h-0.297v-0.328h-0.172v0.328c0.25,0.656,0.464,0.984,0.641,0.984
				c0-0.115,0.433-0.553,1.297-1.313V15.5C223.386,15.563,222.896,15.719,222.531,15.969z M223.016,21.656
				c-0.094,0.188-0.141,0.406-0.141,0.656v0.156c1.083,0,1.625,0.813,1.625,2.438c0.114,0.531,0.172,1.239,0.172,2.125
				c0.667-0.386,1.474-1.193,2.422-2.422c-2.125-2.063-3.484-3.094-4.078-3.094V21.656z M227.094,21.516
				c0,0.135,0.386,0.453,1.156,0.953h0.469l0.156-1.125C228.292,21.458,227.698,21.516,227.094,21.516z"/>
		</g>
	</g>
	<path fill="#96B0CA" d="M118.725,38.008c-1.769-0.439-3.67-0.26-5.27,0.4c-2.402,0.053-4.01,1.458-4.487,3.182
		c-3.602,0.291-7.193,0.683-10.768,1.188c-0.029,0.004-0.059,0.009-0.088,0.013c-0.371-0.525-0.944-0.944-1.742-1.141
		c-0.11-0.027-0.22-0.038-0.329-0.053c-1.015-0.445-2.169-0.689-3.171-0.063c-0.846,0.529-1.265,1.419-1.361,2.311
		c-3.506,0.607-6.998,1.27-10.486,1.945c-0.236-0.521-0.592-1-1.078-1.398c-1.549-1.268-3.817-1.284-5.75-0.729
		c-0.911,0.014-1.896,0.332-2.635,0.776c-1.423,0.854-2.436,2.168-2.628,3.604c-3.607,0.619-7.232,1.148-10.883,1.557
		c-0.003-0.006-0.003-0.012-0.007-0.018c-0.257-0.506-0.724-0.885-1.256-1.119c-1.016-0.713-2.525-0.83-3.605,0.074
		c-0.317,0.266-0.516,0.574-0.656,0.892c-0.267,0.202-0.498,0.438-0.661,0.719c-0.339,0.021-0.675,0.056-1.015,0.074
		c-3.839,0.206-7.691,0.247-11.539,0.144c-0.365-1.6-1.704-2.988-3.763-3.377c-1.92-0.362-3.63,0.389-4.608,1.619
		c-0.473,0.337-0.881,0.727-1.191,1.176c-2.164-0.207-4.321-0.46-6.469-0.77c-6.775-0.975-17.311-1.828-20.742-7.886
		c-0.783-1.384-3.162-0.171-2.381,1.208c2.682,4.733,8.732,6.438,14.248,7.571c4.859,0.999,9.797,1.737,14.766,2.222
		c0.115,0.938,0.592,1.848,1.352,2.51c2.413,2.101,6.634,1.326,8.232-1.171c0.148-0.233,0.264-0.474,0.361-0.717
		c4.289,0.118,8.521-0.016,12.721-0.315c0.553,1.084,1.863,1.779,3.343,1.572c0.738-0.103,1.405-0.416,1.91-0.855
		c0.359-0.195,0.612-0.506,0.702-0.91c0.058-0.115,0.1-0.232,0.139-0.354c3.821-0.419,7.622-0.959,11.417-1.573
		c1.999,3.759,9.502,2.555,11.43-0.714c0.259-0.44,0.435-0.918,0.525-1.407c2.059-0.388,4.121-0.78,6.189-1.172
		c1.495-0.283,2.992-0.542,4.49-0.794c0.222,0.725,0.821,1.188,1.582,1.403c0.905,0.507,2.023,0.685,3.184,0.306
		c0.371-0.121,0.706-0.291,1.007-0.492c0.893-0.51,1.493-1.387,1.519-2.315c3.257-0.434,6.52-0.8,9.791-1.073
		c0.18,0.507,0.452,1.002,0.847,1.457c2.365,2.729,8.431,3.297,11.154,0.619c0.794-0.78,1.251-1.733,1.404-2.712
		c3.766-0.04,7.538,0.041,11.319,0.248c0.038,0.083,0.085,0.163,0.13,0.243c-0.009,0.104-0.025,0.208-0.025,0.311
		c-0.014,1.781,1.199,3.121,3.204,3.5c1.775,0.337,4.183,0.311,5.484-0.934c0.663-0.633,1.05-1.409,1.206-2.229
		c2.529,0.316,5.051,0.689,7.564,1.101c0.006,0.561,0.152,1.126,0.479,1.653c1.548,2.494,6.004,3.465,8.679,1.801
		c0.703-0.438,1.174-0.99,1.455-1.595c4.664,0.838,9.331,1.646,14.027,2.258c0.331,0.729,0.928,1.376,1.691,1.812
		c0.803,0.666,2.301,0.986,3.385,0.637c0.906-0.294,1.603-0.92,2.053-1.68c0.006-0.009,0.014-0.017,0.021-0.024
		c1.452,0.109,2.906,0.201,4.367,0.249c2.883,0.096,5.751,0.053,8.605-0.109c0.544,0.494,1.51,0.409,2.031-0.054
		c0.005,0.028,0.009,0.057,0.015,0.085c0.938,4.434,7.008,3.891,9.708,1.088c0.851-0.884,1.258-1.775,1.323-2.626
		c10.908-1.837,21.594-4.944,32.049-8.056c1.669-0.498,0.952-2.813-0.732-2.311c-10.465,3.115-21.108,6.24-32.011,8.055
		c-0.946-1.334-2.746-2.363-4.8-2.771c-3.649-0.723-7.701,1.104-8.1,4.206c-0.634,0.034-1.268,0.072-1.903,0.094
		c-3.31,0.109-6.586-0.009-9.844-0.256c-0.086-0.596-0.37-1.141-0.783-1.596c-0.122-0.164-0.257-0.323-0.417-0.466
		c-1.864-1.652-5.149-1.095-6.457,0.847c-0.081,0.121-0.149,0.244-0.209,0.367c-4.639-0.635-9.252-1.451-13.864-2.283
		c-0.357-1.227-1.286-2.361-2.604-2.988c-1.687-0.803-3.549-0.677-5.038,0.063c-0.893,0.179-1.643,0.625-2.185,1.221
		c-2.187-0.349-4.378-0.669-6.576-0.938c-0.703-0.087-1.408-0.146-2.112-0.224c-0.486-1.477-1.621-2.796-3.21-3.39
		c-2.501-0.935-5.786,0.388-6.662,2.552c-3.834-0.213-7.675-0.309-11.515-0.279C121.692,39.617,120.508,38.449,118.725,38.008z
		 M35.541,50.211c-0.005-0.007-0.009-0.014-0.014-0.021c-0.296-0.388-0.714-0.64-1.167-0.761c0.027-0.037,0.055-0.076,0.075-0.115
		c0.247-0.023,0.504-0.004,0.76,0.072c0.567,0.169,0.964,0.488,1.205,0.873C36.113,50.246,35.827,50.227,35.541,50.211z
		 M96.222,46.346c-0.297,0.16-0.649,0.267-1.008,0.322c-0.219-0.106-0.404-0.257-0.562-0.428c0.755,0.097,1.527-0.141,2.017-0.742
		c0.152-0.021,0.305-0.047,0.458-0.068C96.945,45.791,96.652,46.116,96.222,46.346z M204.25,47.117
		c-0.019-0.044-0.046-0.08-0.069-0.121c0.225,0,0.437-0.051,0.623-0.141c0.283,0.127,0.539,0.275,0.761,0.444
		c-0.388,0.056-0.777,0.104-1.166,0.154L204.25,47.117z M178.769,47.629c0.277-0.33,0.704-0.582,1.146-0.598
		c0.75-0.025,1.201,0.374,1.359,0.874C180.438,47.823,179.603,47.728,178.769,47.629z M178.372,50.535
		c0.1,0.039,0.178,0.094,0.287,0.125c0.582,0.17,1.16,0.184,1.691,0.086c0.016,0.084,0.033,0.169,0.058,0.254
		c-0.679,0.146-1.402,0.063-2.045-0.287C178.347,50.658,178.358,50.598,178.372,50.535z M142.009,44.35
		c-0.496,1.423-2.123,2.677-3.938,2.188c-0.401-0.109-0.713-0.299-0.966-0.525c1.503,0.292,3.13-0.03,4.14-1.217
		c0.131-0.154,0.24-0.322,0.339-0.496C141.726,44.314,141.867,44.334,142.009,44.35z M137.007,43.885
		c0.208,0.041,0.423,0.068,0.656,0.053c0.012,0,0.024-0.006,0.035-0.006c0.077,0.006,0.154,0.01,0.231,0.016
		c0.304,0.023,0.606,0.059,0.911,0.086c-0.358,0.358-0.929,0.572-1.463,0.531c-0.391-0.029-0.683-0.15-0.899-0.326
		c0.02-0.129,0.037-0.259,0.081-0.385C136.708,43.864,136.857,43.873,137.007,43.885z M136.692,40.973
		c0.051-0.066,0.103-0.127,0.155-0.186c0.558-0.443,1.242-0.766,1.972-0.854c1.004,0.052,1.732,0.892,1.969,1.89
		c-0.062-0.006-0.122-0.014-0.184-0.02c-0.063-0.12-0.18-0.223-0.377-0.271c-0.355-0.089-0.705-0.135-1.048-0.153
		C138.558,40.928,137.702,40.723,136.692,40.973z"/>
</g>
</svg>
