<?xml version="1.0" encoding="utf-8"?>
<!-- Generator: Adobe Illustrator 16.0.0, SVG Export Plug-In . SVG Version: 6.00 Build 0)  -->
<!DOCTYPE svg PUBLIC "-//W3C//DTD SVG 1.1//EN" "http://www.w3.org/Graphics/SVG/1.1/DTD/svg11.dtd">
<svg version="1.1" id="圖層_1" xmlns="http://www.w3.org/2000/svg" xmlns:xlink="http://www.w3.org/1999/xlink" x="0px" y="0px"
	 width="242.188px" height="53.277px" viewBox="0 0 242.188 53.277" enable-background="new 0 0 242.188 53.277"
	 xml:space="preserve">
<g>
	<g>
		<g>
			<path fill="#943332" d="M148.017,3.531h0.188c1.104,0,1.656,0.552,1.656,1.656c0.094,1.479,0.219,2.219,0.375,2.219l-0.188,0.922
				v0.188c0,1.292-0.063,3.266-0.188,5.922l4.063-0.938v-1.844c0-0.792-0.37-1.469-1.109-2.031V8.328
				c0.791-0.239,1.286-0.359,1.484-0.359c1.052,0,1.729,1.042,2.031,3.125l-0.359,1.859l2.391-0.563v0.188
				c1.229-0.208,1.844-0.573,1.844-1.094c0.094-1.604,0.219-2.406,0.375-2.406c0-0.125-0.063-0.188-0.188-0.188l0.188-1.859V6.672
				c0-0.25-0.183-0.375-0.547-0.375l-6.844,1.484V7.594l-0.375,0.188h-0.359c0-0.625-0.125-0.938-0.375-0.938
				c-0.24,0.125-0.428,0.188-0.563,0.188c0-0.198,0.432-0.442,1.297-0.734v0.375c2.666-0.989,5.317-1.609,7.953-1.859h0.547
				c0.989,0,1.484,0.739,1.484,2.219c0,1.604-0.12,2.406-0.359,2.406l0.172,0.359c-0.084,0.989-0.203,1.484-0.359,1.484
				c0,0.136,0.063,0.203,0.188,0.203c-0.125,1.646-0.375,3.058-0.75,4.234h0.188l-0.188,0.375v0.359c0,1-0.125,2.109-0.375,3.328
				h1.297c1.229,0,1.844,0.433,1.844,1.297c-0.406,0.469-1.573,0.839-3.5,1.109c-0.344,2.708-0.776,4.063-1.297,4.063h-0.734v-0.172
				l-0.375,0.172c-2.396-1.969-3.875-2.953-4.438-2.953c-0.104,0-0.6,0.063-1.484,0.188l-0.359-0.188
				c-0.219,0.125-0.469,0.188-0.75,0.188c-0.24,0-0.359-0.063-0.359-0.188l-0.922,0.188c-0.156,0-0.776-0.063-1.859-0.188
				c0,0.125-0.058,0.188-0.172,0.188c0-0.396-0.553-0.703-1.656-0.922c-0.188,0-0.438-0.495-0.75-1.484
				c0.864-1.781,1.297-2.953,1.297-3.516h-3.328c-0.375,0-0.62-0.489-0.734-1.469c0.156-0.125,0.583-0.188,1.281-0.188v-0.188
				c-0.636,0-1.006-0.188-1.109-0.563h0.375c0.614,0,0.922,0.13,0.922,0.391c0.989-0.177,1.484-0.364,1.484-0.563
				c0.239,0.114,0.427,0.172,0.563,0.172c0.979,0,1.469-1.042,1.469-3.125c0.125-0.458,0.188-1.141,0.188-2.047V9.438
				C148.204,8.146,148.142,6.177,148.017,3.531z M148.376,20.906c0.521,0,1.203,0.058,2.047,0.172c0.594,0,1.697-0.12,3.313-0.359
				c-0.479-2.448-0.719-3.87-0.719-4.266v-0.188c-2.25,0-3.547,0.563-3.891,1.688C148.626,19.63,148.376,20.614,148.376,20.906z
				 M155.22,15.906c0.375,0.489,0.807,2.026,1.297,4.609h0.563c0.114,0,0.172-0.058,0.172-0.172
				c0.239,0.114,0.422,0.172,0.547,0.172c0.989,0,1.484-0.854,1.484-2.563l0.563-3.344h-0.188
				C156.698,15.016,155.22,15.448,155.22,15.906z M155.407,23.297c0.697,0,1.625,0.245,2.781,0.734v-0.172l0.172-1.125v-0.172
				C156.392,22.771,155.407,23.016,155.407,23.297z"/>
			<path fill="#943332" d="M178.032,1.313h0.563c2.146,0,3.802,0.984,4.969,2.953l0.391-0.188c1.104,0.469,1.656,0.844,1.656,1.125
				c0,0.479-0.37,0.719-1.109,0.719v0.203c0.854,0,1.344,0.302,1.469,0.906c-1.115,2.104-2.469,3.156-4.063,3.156h-0.188V9.078
				h-0.359V8.719c0.822,0,1.688-0.864,2.594-2.594h-0.188l-0.375,0.188V5.922c-1.729,0.364-2.594,0.864-2.594,1.5
				c-0.24,0.927-0.359,1.786-0.359,2.578v0.734l0.172,0.375c0.51-0.25,0.88-0.375,1.109-0.375c0,0.125,0.063,0.188,0.188,0.188
				c0-0.094,0.188-0.276,0.563-0.547l0.359,0.172c1.25-0.239,1.994-0.359,2.234-0.359v0.188l0.359-0.188h0.359
				c0.125,0,0.188,0.063,0.188,0.188c0.25-0.125,0.438-0.188,0.563-0.188l1.297,0.734l0.188-1.109
				c-0.25-0.396-0.375-0.703-0.375-0.922h0.188c1.354,0.208,2.031,0.703,2.031,1.484h0.734c1.302,0,2.286-0.25,2.953-0.75
				c0.114,0,0.484,0.25,1.109,0.75h0.547l0.188-2.219V7.031c-2.948,0.188-4.422,0.5-4.422,0.938
				c-0.24-0.125-0.422-0.188-0.547-0.188c0-0.864,0.239-1.297,0.719-1.297V6.313h-0.172c-0.625,0.364-1.058,0.547-1.297,0.547
				l-0.188-0.375l2.219-0.734c0.125,0,0.188,0.058,0.188,0.172c1.416-0.239,2.4-0.359,2.953-0.359c1.729,0,2.594,0.802,2.594,2.406
				v1.844l-0.75,9.609v0.188c0,0.729-0.365,1.224-1.094,1.484c0-0.25-0.131-0.375-0.391-0.375c0,0.114,0.25,0.484,0.75,1.109v2.219
				l0.188,2.219c2.072-0.271,3.427-0.521,4.063-0.75c-0.084-0.864-0.203-1.297-0.359-1.297c0.114-0.177,0.354-1.651,0.719-4.422
				c0-0.229-0.12-0.724-0.359-1.484c0.406-0.239,0.713-0.359,0.922-0.359c0.521,0,1.078,1.536,1.672,4.609
				c0,1.083,0.307,2.317,0.922,3.703v0.172c0,0.896-2.406,1.578-7.219,2.047c-1.719-0.604-2.578-1.344-2.578-2.219l0.375-2.219
				h-0.188l0.188-0.375v-1.844l0.188-0.375h-0.188c-3.344,3.896-5.198,5.869-5.563,5.922c-1.104-0.229-1.656-0.662-1.656-1.297
				c0.375-0.531,0.563-0.964,0.563-1.297h0.188v0.547h0.188c0.854-0.854,2.391-2.698,4.609-5.531v-0.375h-0.188
				c-2.178,1.114-3.412,1.672-3.703,1.672c-0.553-0.219-1.042-0.651-1.469-1.297v-0.188c0-0.542,0.432-1.156,1.297-1.844
				c-0.365-2.344-0.547-4.005-0.547-4.984h-0.188c-0.896,0.364-1.453,0.547-1.672,0.547h-0.734v-0.375
				c0.364,0,0.547-0.12,0.547-0.359v-0.203c-0.24,0-0.359-0.058-0.359-0.172c-1.073,0.375-1.688,0.563-1.844,0.563v0.547l3.5,2.219
				v0.188c0,0.656-1.167,1.208-3.5,1.656v3.141c0.364,0,1.411,0.188,3.141,0.563h0.359c0,0.188,0.432,0.677,1.297,1.469v0.188
				l-0.922,0.563c-0.667,0-1.896-0.433-3.688-1.297c0,0.125-0.063,0.188-0.188,0.188l0.188,1.844v2.766
				c0,0.177-0.188,0.364-0.563,0.563h-0.188c-0.75,0-1.365-0.495-1.844-1.484l0.188-0.375v-0.188c0-0.136-0.125-0.808-0.375-2.016
				v-0.938l0.188-1.281c-1.125,0.563-2.542,1.974-4.25,4.234h-0.375c-0.344,0-0.651-0.427-0.922-1.281
				c0.594-1.688,1.891-3.167,3.891-4.438l1.656-0.359v-0.938h-0.188c-2.115,0.864-3.531,1.297-4.25,1.297
				c-0.469-0.042-0.839-0.411-1.109-1.109h-0.188v-0.359c0.041-0.25,0.166-0.375,0.375-0.375v0.188
				c3.197-1.031,5.047-1.771,5.547-2.219v-2.047h-0.188c-0.563,0-2.719,0.989-6.469,2.969c-1.604,0-2.406-0.558-2.406-1.672
				c0-0.136,0.063-0.317,0.188-0.547c-0.125-0.219-0.188-0.469-0.188-0.75V13.5h0.188v0.391c0.594,0,2.869-0.802,6.828-2.406
				l-0.188-0.375c0.125,0,0.188-0.063,0.188-0.188h-0.188c0,0.125-0.058,0.188-0.172,0.188c-0.625-0.719-0.938-1.396-0.938-2.031
				c0-0.521,0.188-1.141,0.563-1.859c-1.229,0-1.844-0.302-1.844-0.906c0-0.198-0.125-0.448-0.375-0.75V5.203h0.188l0.375,0.172
				c1.188-0.364,2.479-0.672,3.875-0.922V4.078c-0.198,0-0.995-0.609-2.391-1.828l0.359-0.563L178.032,1.5V1.313z M190.595,13.141
				V13.5h0.188c0.114,0,0.604-0.12,1.469-0.359h1.125c0.447,0.364,0.875,0.547,1.281,0.547h0.188V13.5
				c0-0.146,0.063-0.755,0.188-1.828h-0.188L190.595,13.141z M190.97,15.906v1.484c2.219-0.458,3.328-0.766,3.328-0.922
				c0.125-0.208,0.188-0.453,0.188-0.734v-0.75l-0.938-0.188C192.162,15.536,191.303,15.906,190.97,15.906z M195.954,15.188
				c0,0.219-0.12,0.708-0.359,1.469c0.114,0.177,0.172,0.547,0.172,1.109h0.188c0-0.677,0.182-1.354,0.547-2.031
				c-0.24,0-0.359-0.183-0.359-0.547H195.954z"/>
			<path fill="#943332" d="M221.235,6.453l0.734,0.344c-0.125,0.594-0.25,0.891-0.375,0.891l0.375,0.719
				c1.063-0.479,2.552-0.719,4.469-0.719h0.703c1,0,1.838,0.839,2.516,2.516v0.891c0,1.188-0.776,2.442-2.328,3.766
				c-1.781,1.677-3.391,2.516-4.828,2.516c-1.178,0-2.078-0.599-2.703-1.797l0.188-0.359c-0.156-1.552-0.396-2.328-0.719-2.328
				c-2.386,4.261-3.938,7.479-4.656,9.656c-0.553,1.094-1.203,1.641-1.953,1.641c-1.334-0.489-2-0.969-2-1.438
				c0-0.136,0.063-0.203,0.188-0.203l-0.344-2.5c0.594-0.156,0.891-0.567,0.891-1.234v-0.203c0-0.313-0.12-0.667-0.359-1.063
				l0.156-1.609c0-1.823-0.475-3.021-1.422-3.594c-0.229,0-0.344-0.292-0.344-0.875c0.594-0.281,0.891-0.464,0.891-0.547
				c2.031,0,3.047,0.656,3.047,1.969v4.297c1.083-0.729,2.396-2.344,3.938-4.844c1.791-3.042,2.688-4.891,2.688-5.547h0.172
				l0.375,0.188C220.532,6.683,220.767,6.505,221.235,6.453z M213.173,3.047c2.396,0.521,3.594,1.474,3.594,2.859
				c0,0.469-0.303,0.88-0.906,1.234h-0.344c-0.719,0-1.078-0.292-1.078-0.875h-0.188c-0.115,0-0.589,0.474-1.422,1.422h-0.172
				c0.583-1.104,0.875-1.761,0.875-1.969c-1.438-1.198-2.334-1.974-2.688-2.328C211.386,3.161,212.162,3.047,213.173,3.047z
				 M231.454,0c2.666,0.136,4.099,0.489,4.297,1.063l-0.172,0.719c0.114,0.208,0.172,0.453,0.172,0.734
				c-0.698,0.625-1.417,1.036-2.156,1.234c0.354,1.261,0.531,2.031,0.531,2.313v0.203c0,1.469-0.115,4.396-0.344,8.781l0.188,0.703
				l-0.188,0.359c0.125,0.208,0.188,0.448,0.188,0.719c0,0.239-0.063,0.359-0.188,0.359c0.229,2.886,0.411,4.62,0.547,5.203
				c0,0.104-0.068,0.156-0.203,0.156c0.166,1.813,0.297,2.833,0.391,3.063c0,0.125-0.063,0.188-0.188,0.188l0.188,0.891v0.188
				c0,0.833-0.063,2.146-0.188,3.938h0.188c-0.303,2.5-1.386,3.75-3.25,3.75c0,0.177-0.178,0.354-0.531,0.531
				c-4.125-0.625-6.933-1.521-8.422-2.688c0.041-0.229,0.156-0.344,0.344-0.344c0.364,0.229,1.088,0.406,2.172,0.531l1.234-0.188
				l0.734,0.188c0.833-0.198,1.25-0.375,1.25-0.531l0.359,0.172c1.906,0,2.859-0.834,2.859-2.5c0-0.604,0.063-1.5,0.188-2.688
				c-0.125-0.229-0.188-0.412-0.188-0.547c0.125,0,0.188-0.058,0.188-0.172h-0.188l0.188-0.375v-0.156
				c0-1.719,0.057-4.047,0.172-6.984l-0.172-0.359c0-0.125,0.057-0.188,0.172-0.188l-0.172-2.156v-1.969
				c0-0.489,0.057-1.146,0.172-1.969l-0.172-0.359c0.114-0.219,0.172-0.396,0.172-0.531c0-0.125-0.058-0.188-0.172-0.188
				l0.359-2.688c-0.125-0.177-0.188-0.536-0.188-1.078h0.188l-0.188-0.344c0-2.396-0.359-3.594-1.078-3.594
				c-0.428,0-0.781-0.177-1.063-0.531c-0.365,0-1.558,0.114-3.578,0.344c-2.094,0-3.531-0.776-4.313-2.328V0.531
				c0.063,0,0.302-0.063,0.719-0.188l0.188,0.359c-0.24,0.114-0.417,0.172-0.531,0.172v0.188c1.083,0,1.916,0.063,2.5,0.188
				C227.178,0.438,229.506,0.021,231.454,0z M221.97,11.469c0.489,2.5,0.849,3.75,1.078,3.75c2.375-1.636,3.563-3.308,3.563-5.016
				l-0.359-0.188h-0.188c-0.104,0-0.156,0.063-0.156,0.188c-0.125,0-0.188-0.063-0.188-0.188
				C223.22,10.349,221.97,10.833,221.97,11.469z"/>
		</g>
	</g>
	<path fill="#96B0CA" d="M118.725,35.43c-1.769-0.438-3.669-0.259-5.269,0.4c-2.403,0.054-4.01,1.458-4.488,3.182
		c-3.601,0.291-7.192,0.683-10.768,1.188c-0.029,0.004-0.059,0.01-0.088,0.014c-0.371-0.525-0.944-0.945-1.742-1.141
		c-0.11-0.027-0.219-0.039-0.328-0.054c-1.016-0.445-2.17-0.689-3.171-0.063c-0.847,0.529-1.265,1.419-1.361,2.312
		c-3.506,0.605-6.998,1.27-10.487,1.944c-0.236-0.521-0.592-1-1.079-1.398c-1.548-1.268-3.817-1.284-5.75-0.728
		c-0.911,0.014-1.895,0.331-2.634,0.775c-1.423,0.855-2.436,2.168-2.628,3.604c-3.606,0.619-7.232,1.149-10.883,1.558
		c-0.003-0.006-0.003-0.012-0.006-0.019c-0.257-0.506-0.725-0.884-1.257-1.118c-1.015-0.715-2.525-0.83-3.605,0.074
		c-0.317,0.266-0.515,0.573-0.656,0.891c-0.267,0.202-0.498,0.439-0.662,0.719c-0.339,0.021-0.675,0.057-1.015,0.074
		c-3.839,0.206-7.691,0.248-11.538,0.144c-0.365-1.599-1.705-2.988-3.763-3.377c-1.92-0.362-3.63,0.39-4.609,1.62
		c-0.472,0.336-0.88,0.726-1.19,1.176c-2.164-0.207-4.322-0.461-6.469-0.77c-6.776-0.975-17.311-1.828-20.743-7.887
		c-0.783-1.383-3.163-0.171-2.381,1.209c2.682,4.732,8.733,6.438,14.249,7.57c4.86,0.999,9.797,1.738,14.765,2.223
		c0.115,0.937,0.592,1.848,1.353,2.51c2.412,2.1,6.633,1.326,8.232-1.172c0.149-0.232,0.263-0.474,0.361-0.717
		c4.29,0.118,8.521-0.016,12.721-0.315c0.552,1.085,1.863,1.78,3.342,1.573c0.739-0.104,1.405-0.416,1.911-0.856
		c0.358-0.194,0.612-0.506,0.701-0.91c0.058-0.115,0.1-0.232,0.139-0.354c3.822-0.419,7.623-0.958,11.418-1.573
		c1.999,3.76,9.501,2.555,11.429-0.714c0.26-0.44,0.435-0.918,0.525-1.407c2.06-0.387,4.122-0.78,6.189-1.172
		c1.495-0.283,2.993-0.542,4.49-0.794c0.222,0.725,0.821,1.188,1.583,1.403c0.905,0.508,2.022,0.686,3.184,0.306
		c0.371-0.121,0.705-0.291,1.006-0.491c0.893-0.51,1.494-1.387,1.519-2.316c3.257-0.434,6.521-0.8,9.791-1.073
		c0.181,0.507,0.452,1.002,0.847,1.458c2.366,2.728,8.432,3.296,11.155,0.618c0.794-0.779,1.25-1.733,1.404-2.712
		c3.765-0.04,7.538,0.041,11.319,0.248c0.037,0.084,0.084,0.163,0.129,0.243c-0.009,0.104-0.024,0.208-0.025,0.311
		c-0.013,1.782,1.199,3.121,3.205,3.501c1.775,0.336,4.182,0.31,5.484-0.934c0.663-0.634,1.049-1.41,1.206-2.229
		c2.529,0.317,5.05,0.689,7.563,1.101c0.006,0.561,0.153,1.127,0.48,1.654c1.548,2.493,6.003,3.465,8.679,1.8
		c0.702-0.437,1.173-0.989,1.454-1.595c4.664,0.838,9.331,1.646,14.027,2.258c0.331,0.729,0.928,1.376,1.691,1.813
		c0.803,0.666,2.301,0.986,3.385,0.636c0.906-0.294,1.603-0.919,2.053-1.681c0.007-0.008,0.015-0.016,0.021-0.023
		c1.452,0.109,2.907,0.201,4.368,0.25c2.883,0.096,5.751,0.052,8.604-0.11c0.544,0.494,1.511,0.409,2.032-0.054
		c0.005,0.028,0.008,0.057,0.015,0.085c0.938,4.434,7.008,3.89,9.708,1.088c0.851-0.884,1.257-1.775,1.322-2.626
		c10.909-1.836,21.595-4.943,32.049-8.056c1.67-0.497,0.953-2.812-0.732-2.31c-10.465,3.115-21.107,6.24-32.01,8.054
		c-0.947-1.334-2.746-2.363-4.8-2.771c-3.649-0.723-7.702,1.105-8.1,4.207c-0.634,0.033-1.268,0.071-1.903,0.093
		c-3.311,0.11-6.586-0.009-9.845-0.256c-0.086-0.596-0.369-1.14-0.782-1.595c-0.123-0.165-0.257-0.324-0.418-0.467
		c-1.864-1.652-5.148-1.095-6.457,0.848c-0.08,0.12-0.148,0.243-0.209,0.367c-4.639-0.635-9.251-1.452-13.864-2.284
		c-0.356-1.226-1.286-2.36-2.603-2.987c-1.688-0.803-3.55-0.678-5.039,0.062c-0.893,0.179-1.642,0.625-2.185,1.222
		c-2.187-0.35-4.377-0.67-6.576-0.939c-0.702-0.086-1.408-0.146-2.112-0.224c-0.486-1.477-1.621-2.796-3.21-3.39
		c-2.5-0.934-5.786,0.389-6.661,2.552c-3.834-0.213-7.675-0.309-11.515-0.279C121.692,37.039,120.509,35.871,118.725,35.43z
		 M35.542,47.633c-0.005-0.007-0.008-0.014-0.014-0.021c-0.296-0.388-0.714-0.639-1.167-0.761c0.027-0.037,0.055-0.075,0.075-0.114
		c0.247-0.024,0.505-0.005,0.76,0.071c0.568,0.169,0.965,0.488,1.206,0.874C36.114,47.669,35.828,47.648,35.542,47.633z
		 M96.223,43.769c-0.298,0.159-0.649,0.266-1.008,0.322c-0.22-0.106-0.404-0.258-0.563-0.429c0.755,0.097,1.528-0.14,2.017-0.741
		c0.152-0.022,0.306-0.048,0.458-0.069C96.945,43.213,96.652,43.538,96.223,43.769z M204.251,44.54
		c-0.02-0.045-0.047-0.081-0.07-0.121c0.226,0,0.437-0.052,0.624-0.142c0.282,0.127,0.538,0.276,0.761,0.444
		c-0.389,0.056-0.777,0.104-1.167,0.154L204.251,44.54z M178.769,45.051c0.278-0.329,0.704-0.582,1.146-0.597
		c0.75-0.026,1.201,0.373,1.359,0.873C180.438,45.245,179.604,45.149,178.769,45.051z M178.372,47.958
		c0.1,0.039,0.179,0.094,0.287,0.125c0.582,0.169,1.161,0.184,1.691,0.085c0.017,0.085,0.033,0.169,0.058,0.254
		c-0.678,0.146-1.402,0.063-2.045-0.287C178.348,48.08,178.359,48.02,178.372,47.958z M142.009,41.771
		c-0.495,1.423-2.123,2.677-3.937,2.188c-0.402-0.108-0.714-0.298-0.966-0.524c1.502,0.291,3.129-0.031,4.139-1.218
		c0.131-0.153,0.241-0.321,0.34-0.496C141.727,41.736,141.867,41.756,142.009,41.771z M137.007,41.307
		c0.209,0.042,0.424,0.068,0.656,0.054c0.012-0.001,0.024-0.006,0.036-0.007c0.077,0.006,0.153,0.01,0.23,0.016
		c0.305,0.024,0.607,0.06,0.911,0.086c-0.357,0.358-0.929,0.572-1.463,0.531c-0.391-0.029-0.682-0.149-0.898-0.326
		c0.02-0.129,0.037-0.259,0.08-0.385C136.709,41.286,136.858,41.295,137.007,41.307z M136.692,38.395
		c0.051-0.066,0.104-0.127,0.156-0.185c0.558-0.443,1.242-0.766,1.972-0.855c1.003,0.053,1.732,0.892,1.968,1.89
		c-0.061-0.006-0.121-0.014-0.183-0.02c-0.063-0.12-0.181-0.223-0.377-0.271c-0.356-0.089-0.705-0.135-1.048-0.153
		C138.558,38.351,137.702,38.146,136.692,38.395z"/>
</g>
</svg>
