<?xml version="1.0" encoding="utf-8"?>
<!-- Generator: Adobe Illustrator 16.0.0, SVG Export Plug-In . SVG Version: 6.00 Build 0)  -->
<!DOCTYPE svg PUBLIC "-//W3C//DTD SVG 1.1//EN" "http://www.w3.org/Graphics/SVG/1.1/DTD/svg11.dtd">
<svg version="1.1" id="圖層_1" xmlns="http://www.w3.org/2000/svg" xmlns:xlink="http://www.w3.org/1999/xlink" x="0px" y="0px"
	 width="141.914px" height="243.841px" viewBox="0 0 141.914 243.841" enable-background="new 0 0 141.914 243.841"
	 xml:space="preserve">
<g>
	<g>
		<path fill-rule="evenodd" clip-rule="evenodd" fill="#A99292" d="M105.581,193.962c-13.919-10.617-29.1-23.672-42.68-33.424
			c-0.081,0.098-0.161,0.195-0.241,0.293c-1.271,2.348-3.882,4.803-5.777,7.314c-1.725,2.281-3.129,4.783-4.732,6.941
			c-1.697,2.285-3.568,4.238-5.05,6.434c-3.975,5.871-6.898,13.131-10.362,18.563c-0.217,0.004-0.731-0.668-1.268-0.551
			c-0.469,3.043,0.84,5.688,2.461,8.678c0.711,1.311,1.311,2.914,2.114,3.713c2.474,2.455,7.051,4.326,10.631,6.537
			c12.267,7.568,25.233,17.02,36.54,24.424c0.855-0.014,1.785,0.768,2.66,0.957c6.119-2.813,11.256-11.713,15.938-18.156
			c1.108-1.529,2.468-2.781,3.504-4.256c3.724-5.307,5.882-11.404,9.256-16.027c-0.818-2.611-5.442-2.162-5.067-4.912
			c-1.141,0.197-0.93-1.059-1.961-2.107C109.973,196.778,107.604,195.505,105.581,193.962z"/>
		<path fill-rule="evenodd" clip-rule="evenodd" fill="#FFFFFF" d="M63.91,162.601c15.481,12.93,30.922,25.441,46.282,37.127
			c-9.144,11.424-14.287,22.457-22.13,33.752c-16.492-10.34-33.353-24.51-49.743-33.818
			C45.549,187.517,52.972,174.655,63.91,162.601z M65.354,176.106c-3.18,6.135-11.538,15.953-12.581,22.154
			c1.026,0.369,2.073,0.936,3.022,0.518c3.084-7.365,7.747-14.889,12.555-22.424C67.354,175.136,65.895,175.063,65.354,176.106z
			 M62.927,194.306c-2.224,3.982-4.431,7.621-4.61,10.984c0.387,0.709,1.92,1.25,2.686,1.227
			c2.388-8.156,8.374-16.662,14.582-25.188c-0.271-0.709-1.545-1.594-2.175-1.545C69.184,184.468,65.615,189.493,62.927,194.306z"/>
		<path fill-rule="evenodd" clip-rule="evenodd" fill="#FFFFFF" d="M36.627,201.716c4.027,3,8.016,5.59,12.053,8.695
			c0.123,1.789,0.051,3.598,0.787,5.326c-2.659-1.898-6.123-2.629-8.306-4.869C38.598,208.241,37.839,204.411,36.627,201.716z"/>
		<path fill-rule="evenodd" clip-rule="evenodd" fill="#FFFFFF" d="M37.352,200.835c12.493,7.668,25.262,16.486,38.104,25.219
			c4.172,2.838,8.512,5.58,12.081,8.963c-3.634-2.061-7.923-5.041-12.124-8.012c-4.183-2.957-8.691-5.736-11.906-8.572
			c-4.127-1.967-7.885-4.906-11.949-7.625C46.799,207.624,42.309,204.54,37.352,200.835z"/>
		<path fill-rule="evenodd" clip-rule="evenodd" fill="#FFFFFF" d="M52.912,213.647c1.671,0.508,3.474,2.402,5.182,3.281
			c-0.725,1.51-0.286,2.91,0.413,4.283C54.637,220.188,52.906,216.53,52.912,213.647z"/>
		<path fill-rule="evenodd" clip-rule="evenodd" fill="#FFFFFF" d="M58.998,217.923c3.785,0.721,3.819,4.455,4.033,6.768
			C59.962,222.601,59.549,220.255,58.998,217.923z"/>
		<path fill-rule="evenodd" clip-rule="evenodd" fill="#FFFFFF" d="M64.179,221.204c7.033,4.262,14.196,9.869,21.294,14.824
			c0.25,1.193-0.184,3.168-0.027,3.92c-2.816-1.904-6.104-3.83-9.358-5.982c-3.222-2.133-7.21-4.344-9.438-6.789
			C65.358,225.763,64.674,222.677,64.179,221.204z"/>
		<path fill-rule="evenodd" clip-rule="evenodd" fill="#FFFFFF" d="M111.107,202.206c-6.988,11.844-14.797,23.768-23.285,35.756
			c0-1.916,2.617-4.623,4.559-7.33C98.758,221.733,102.846,211.464,111.107,202.206z"/>
		<path fill-rule="evenodd" clip-rule="evenodd" fill="#FFFFFF" d="M86.855,239.136c0.623,0.439,2.037,1.963,2.84,2.832
			C88.205,241.456,86.835,240.544,86.855,239.136z"/>
		<path fill-rule="evenodd" clip-rule="evenodd" fill="#FFFFFF" d="M115.875,205.394c-0.229,2.605-2.143,4.998-3.585,7.641
			c-1.319,2.416-2.624,5.236-4.266,7.572c-1.043,1.484-2.519,2.857-3.626,4.402c-4.066,5.672-8.073,12.451-13.028,16.123
			c-0.851-0.953,0.861-2.766,1.658-3.809c2.325-3.053,5.563-5.924,8.002-9.42c4.374-6.268,8.435-13.566,12.575-19.455
			C114.33,207.417,114.568,206.2,115.875,205.394z"/>
		<path fill-rule="evenodd" clip-rule="evenodd" fill="#FFFFFF" d="M60.664,186.286c-1.709,3.678-4.908,8.221-5.923,11.381
			C55.244,194.015,58.297,190.116,60.664,186.286z"/>
		<path fill-rule="evenodd" clip-rule="evenodd" fill="#FFFFFF" d="M73.684,181.241c0.142,1.531-1.842,3.037-2.7,4.182
			c-4.462,5.926-8.089,13.199-10.562,17.906C62.524,196.192,67.918,188.735,73.684,181.241z"/>
		<path fill-rule="evenodd" clip-rule="evenodd" fill="#FFFFFF" d="M50.123,211.351c0.439,0.363,0.883,0.727,1.321,1.088
			c-0.314,1.248-0.352,2.465-0.052,3.654C50.521,215.095,49.902,212.903,50.123,211.351z"/>
		<path fill-rule="evenodd" clip-rule="evenodd" fill="#FFFFFF" d="M112.402,203.028c-0.539,3.029-2.957,5.324-4.629,8.01
			c-1.668,2.684-3.278,5.398-5.162,8.066c-1.908,2.701-3.939,5.313-5.699,8.115c-2.338,3.73-3.744,7.41-7.287,11.244
			c4.773-5.301,8.625-11.941,13.332-18.582c3.801-5.365,7.334-10.758,10.914-15.646c-0.02,2.285-1.967,3.865-3.23,5.717
			c-3.514,5.148-6.768,11.533-10.516,16.957c-3.246,4.695-8.003,8.477-10.492,13.039c-2.08-1.01,0.289-2.635,0.883-3.463
			C98.115,225.858,105.208,213.661,112.402,203.028z"/>
	</g>
	<g>
		<path fill-rule="evenodd" clip-rule="evenodd" fill="#A99292" d="M47.389,72.558c1.865,0.607,4.979-2.737,6.847-4.184
			c2.247-1.74,4.804-3.188,7.036-4.563c2.403-1.483,4.235-2.967,6.845-4.563c2.061-1.261,6.003-3.999,7.985-3.613
			c1.143,0.222,2.719,2.45,4.185,3.802c1.603,1.479,3.255,2.565,4.563,3.614c5.138,4.116,6.768,8.542,11.79,11.979
			c1.228,0.842,3.71,2.822,4.753,2.852c1.405,0.043,4.303-2.105,6.276-3.041c2.552-1.21,4.376-2.345,5.894-3.423
			c9.502-6.743,16.273-14.149,23.959-22.818c1.227-1.383,4.238-3.826,4.375-5.134c0.234-2.271-1.871-2.818-3.043-4.374
			c2.204-2.379,0.537-7.751-0.57-10.268c1.76-2.588,0.398-5.054-0.571-6.655c-0.589-0.975-0.881-2.213-1.331-2.854
			c-1.762-2.508-6.364-5.291-10.27-6.844c-7.357-2.931-17.306-2.061-23.389,0.19C98.359,1.909,85.051-0.594,69.826,0.11
			c-4.873,8.44-7.656,17.708-12.549,26.051c-2.457,4.191-4.641,8.464-6.274,13.121c-1.636,4.658-3.672,9.332-4.564,14.452
			c0.534,1.225,1.933-0.973,1.521,0c-1.564,3.061-3.678,5.574-4.373,9.508c0.148,0.933,1.291,0.004,1.332,0.76
			C44.6,67.552,45.484,71.939,47.389,72.558z"/>
		<path fill-rule="evenodd" clip-rule="evenodd" fill="#FFFFFF" d="M70.589,1.251c13.409,0.344,25.827,1.68,29.663,11.599
			c-2.432,2.964-4.094,6.512-6.273,9.698c-2.195,3.203-4.707,5.924-6.656,9.317c-3.83,6.662-7.652,13.389-12.17,19.586
			c-4.886-5.896-20.453-3.838-26.43-0.381c2.104-9.426,5.775-17.563,10.076-25.29C63.204,17.868,66.097,9.281,70.589,1.251z"/>
		<path fill-rule="evenodd" clip-rule="evenodd" fill="#FFFFFF" d="M106.906,59.627c-6.727-5.592-19.07-10.055-31.185-6.653
			c4.659-6.342,8.563-12.254,12.741-19.776c1.855-3.345,4.151-5.618,6.845-9.509c1.962-2.832,3.966-8.022,6.655-9.508
			c1.973-1.089,5.477-1.526,7.986-1.71c5.021-0.369,11.111-0.193,15.402,1.52c2.42,0.967,7.66,4.114,9.128,6.085
			c0.521,0.698,1.59,2.997,1.521,3.803c-0.1,1.176-2.563,3.344-3.612,4.564C123.619,38.631,114.572,48.625,106.906,59.627z
			 M112.422,20.457c-4.086-0.184-9.201,0.028-10.459,2.473c4.65-1.295,15.123-1.648,19.016,0.379
			c1.113,0.58,1.911,2.283,3.232,1.332C123.5,21.364,117.314,20.677,112.422,20.457z M107.859,25.781
			c-3.444,0.16-7.635,0.551-8.559,2.281c6.862-0.221,18.405-1.568,23.199,1.522C122.586,25.045,113.088,25.538,107.859,25.781z"/>
		<path fill-rule="evenodd" clip-rule="evenodd" fill="#FFFFFF" d="M136.572,25.971c0.412-0.032,0.086,0.674,0.189,0.952
			c-0.316,0-0.634,0-0.951,0C135.938,26.48,136.442,26.414,136.572,25.971z"/>
		<path fill-rule="evenodd" clip-rule="evenodd" fill="#FFFFFF" d="M135.62,28.824c-4.552,5.451-9.821,10.225-14.071,15.973
			c-3.135,4.24-6.711,8.141-10.268,12.17c-1.114,1.261-2.066,3.08-3.805,3.613c8.591-11.44,17.755-22.308,27.384-32.708
			C135.374,27.929,135.2,28.672,135.62,28.824z"/>
		<path fill-rule="evenodd" clip-rule="evenodd" fill="#FFFFFF" d="M133.91,33.198c0.184,0.003,0.146,0.231,0.19,0.379
			c-2.393,6.702-7.33,11.76-11.601,16.734c-4.323,5.036-8.65,10.127-13.881,14.262c-0.24-1.026-1.234-1.303-1.522-2.282
			c0.225,0.219,0.673,0.216,1.142,0.19C117.099,53.022,124.783,42.388,133.91,33.198z"/>
		<path fill-rule="evenodd" clip-rule="evenodd" fill="#FFFFFF" d="M139.613,43.275c-10.65,12.802-21.338,25.566-38.029,32.326
			c-5.449-2.124-8.188-7.195-11.98-11.028c-3.742-3.782-8.561-6.271-12.551-9.889c4.324-0.438,8.465,0.853,11.79,2.853
			c2.389,1.437,5.372,3.535,6.655,5.324c1.91,2.666,2.711,6.099,5.326,8.177c1.535-0.047,1.593-1.575,2.852-1.901
			c0.073,1.447,0.739,2.304,1.141,3.422c11.172-9.807,21.172-21.802,32.135-31.185C138.33,41.515,138.972,42.396,139.613,43.275z"/>
		<path fill-rule="evenodd" clip-rule="evenodd" fill="#FFFFFF" d="M65.072,49.55c-4.496,1.46-8.785,3.131-13.31,4.563
			c-0.28-0.733-0.593-1.436-0.569-2.471C55.046,50.171,59.775,49.577,65.072,49.55z"/>
		<path fill-rule="evenodd" clip-rule="evenodd" fill="#FFFFFF" d="M72.68,51.642c-10.971,0.756-18.543,4.908-26.241,8.938
			c0.372-2.302,2.444-4.521,3.423-6.846c0.436,0.705,0.521,1.761,1.332,2.092c2.539-0.997,5.594-2.329,8.936-3.424
			C63.943,51.154,69.604,49.171,72.68,51.642z"/>
		<path fill-rule="evenodd" clip-rule="evenodd" fill="#FFFFFF" d="M72.49,53.163c-10.77,1.845-19.548,6.693-25.672,12.551
			c-0.004-1.146-0.059-2.341,0.191-3.232C54.119,57.991,61.627,53.9,72.49,53.163z"/>
		<path fill-rule="evenodd" clip-rule="evenodd" fill="#FFFFFF" d="M87.892,53.923c5.083-0.023,9.146,1.971,12.55,4.184
			c3.52,2.289,5.9,5.574,8.557,8.557c-1.055,1.352-2.339,2.478-3.23,3.993c-0.576-1.007-1.033-2.136-1.143-3.612
			C100.611,61.107,95.388,56.38,87.892,53.923z"/>
		<path fill-rule="evenodd" clip-rule="evenodd" fill="#FFFFFF" d="M73.63,54.494c0.17,0.645-0.808,0.589-1.14,0.761
			c-8.316,4.319-16.782,10.082-24.34,15.402c0.574-0.499-1.14-1.966-1.141-2.282c-0.003-1.125,3.008-3.661,3.611-4.184
			c2.785-2.406,6.102-4.306,10.27-6.084C65.086,56.317,69.299,55.175,73.63,54.494z"/>
		<path fill-rule="evenodd" clip-rule="evenodd" fill="#FFFFFF" d="M136.762,30.725c0.43,2.112,1.472,4.025,0.95,6.466
			c-0.44,2.058-3.925,4.147-5.515,5.703c-5.55,5.434-11.461,12.008-16.352,17.115c4.337-5.797,10.635-11.636,15.592-18.255
			c1.468-1.96,3.986-4.89,4.373-7.036C136.059,33.343,134.977,31.078,136.762,30.725z"/>
		<path fill-rule="evenodd" clip-rule="evenodd" fill="#FFFFFF" d="M89.983,56.207c5.097,1.938,9.868,5.851,12.55,10.838
			c-0.086,0.801-0.898,0.875-1.141,1.521c-2.244-1.748-2.943-4.622-4.563-6.846C95.084,59.326,92.321,58.002,89.983,56.207z"/>
	</g>
	<g>
		<path fill-rule="evenodd" clip-rule="evenodd" fill="#A99292" d="M70.145,156.573c1.104-0.607,0.508-2.914,1.521-3.613
			c1.443,1.408,1.819,3.885,4.184,4.375c1.141-0.969-0.016-2.506,0-3.994c6.443-0.469,12.426-0.094,17.493,1.332
			c0.983,0.275,1.723,1.369,2.853,0.949c1.053-1.139,0.68-2.537,0.571-4.182c-1.288-19.318-4.839-40.727-8.177-57.617
			c-1.436-1.16-4.818-0.746-7.037-0.57c-0.334-0.996-0.436-2.225-1.139-2.852c-1.922-0.084-3.57,0.105-5.135,0.379
			c-0.372-1.055,0.065-1.912-0.951-2.281c-0.699-0.256-0.091,0.246-0.76,0.379c-2.864,0.57-7.75,2.121-10.461,3.232
			c-0.828,0.242-0.844,0.057-1.52-0.189c-1.342,1.502-3.502,1.855-5.325,2.662c-3.702,1.643-7.249,3.211-10.647,5.516
			c-1.692,1.146-3.391,3.059-4.754,3.422c-0.812,0.215-1.844-0.063-2.662,0c-3.691,0.281-7.754,0.701-11.219,1.521
			c-2.59,0.613-5.037,1.813-7.606,2.473c-2.745,0.703-5.116,1.346-7.606,2.471c-2.219,1.004-4.848,1.906-6.274,3.994
			c-0.134,0.893,0.817,0.703,0.95,1.33c-0.799,0.914-1.61,1.814-2.092,3.043c0.941,2.314-2.445,3.768-0.381,6.275
			c-0.254,0.945-3.207,1.266-3.803,2.662c-0.738,1.732,1.14,4.686,1.902,6.846c2.542,7.213,4.479,10.898,7.797,17.494
			c2.977,5.92,5.791,14.256,9.126,20.346c1.899,3.467,3.108,1.592,6.085,0.191c1.669-0.785,3.119-1.533,4.564-1.713
			c6.834-5.525,14.334-10.385,21.487-15.592c0.561,0.258,1.177,0.238,1.521-0.189c-0.348-2.461,2.877-5.426,4.944-4.945
			c0.916,0.215,0.935,1.313,1.712,1.902c2.794-0.141,6.659,0.145,9.127,0.951C69.113,153.804,68.464,156.353,70.145,156.573z"/>
		<path fill-rule="evenodd" clip-rule="evenodd" fill="#FFFFFF" d="M81.553,140.601c-2.682,0.502-6.545-0.555-9.125,0.379
			c-3.764-15.25-6.068-31.963-9.889-47.156c3.453-0.811,6.393-2.096,9.697-2.662c0.363-0.063,0.416-0.371,0.952-0.191
			c1.15,0.391,1.413,4.254,1.71,5.705C77.607,109.919,80.916,127.321,81.553,140.601z"/>
		<path fill-rule="evenodd" clip-rule="evenodd" fill="#FFFFFF" d="M79.272,91.542c0.854,0.049,0.997,1.9,0.38,2.281
			c1.835,3.475,2.396,7.602,3.424,11.6c3.025,11.773,4.971,25.207,5.324,38.98c-4.211,0.252-9.463,0.713-15.021,0.76
			c-0.209-0.996-0.555-1.854-0.763-2.85c2.498-1.498,8.912,1.541,10.84-0.383c1.849-1.842-0.233-5.908-0.571-7.604
			c-0.689-3.461-0.971-7.273-1.521-11.029c-1.483-10.131-3.481-22.34-5.896-31.188C76.369,91.552,78.195,91.921,79.272,91.542z"/>
		<path fill-rule="evenodd" clip-rule="evenodd" fill="#FFFFFF" d="M73.758,152.011c-0.658,0.703-0.878-1.242-1.901-1.332
			c-1.083-0.096-1.357,0.975-1.901,1.332c-0.445-3.25-2.334-6.807-1.711-9.887c-0.038-0.725-0.807-0.717-0.953-1.334
			c-3.188-15.129-7.014-29.619-10.076-44.875c1.256-0.645,2.779-1.021,3.994-1.713C66.244,112.618,68.432,133.884,73.758,152.011z"
			/>
		<path fill-rule="evenodd" clip-rule="evenodd" fill="#FFFFFF" d="M81.934,94.394c1.775,0,3.55,0,5.326,0
			c3.682,18.566,6.144,38.352,7.795,58.947c-6.074-1.188-12.664-2.314-19.586-1.141c-0.436-1.91-0.986-3.705-1.711-5.324
			c4.689-1.225,13.465,1.387,16.924-1.521C90.311,126.581,86.316,109.788,81.934,94.394z"/>
		<path fill-rule="evenodd" clip-rule="evenodd" fill="#FFFFFF" d="M55.883,96.485c3.1,15.221,6.87,29.766,10.08,44.875
			c-4.754,0.064-7.988,1.646-11.6,2.852c-1.681-3.045-2.326-6.531-3.424-9.885c-3.104-9.502-6.609-19.742-9.699-29.664
			C45.494,101.308,50.376,98.583,55.883,96.485z"/>
		<path fill-rule="evenodd" clip-rule="evenodd" fill="#FFFFFF" d="M52.271,144.784c-8.333,2.76-15.743,6.441-22.628,10.648
			c-5.746-12.328-11.814-24.273-18.826-36.129c-0.826-1.398-2.869-4.002-2.662-4.754c0.335-1.207,4.104-2.797,6.086-3.613
			c2.359-0.971,5.163-1.611,7.416-2.281c2.762-0.822,5.159-1.863,7.416-2.283c2.944-0.547,6.203-1.043,9.127-1.33
			c2.963-0.291,2.834,2.09,3.613,5.133C44.938,122.382,49.004,133.054,52.271,144.784z"/>
		<path fill-rule="evenodd" clip-rule="evenodd" fill="#FFFFFF" d="M7.204,116.261c7.642,13.15,14.202,27.379,21.487,40.885
			c8-3.602,15.181-8.018,24.15-10.65c-6.039,3.279-13.013,5.621-17.494,10.459c-2.723,0.639-4.244,2.475-5.896,4.184
			c-10.037-11.322-15.181-27.539-23.198-40.885c0.14-0.705,0.448-1.564-0.569-1.52C6.178,117.897,6.736,117.126,7.204,116.261z"/>
		<path fill-rule="evenodd" clip-rule="evenodd" fill="#FFFFFF" d="M5.303,121.015c8.02,14.354,13.5,31.248,23.77,43.355
			c-1.422,0.189-2.393,1.756-3.424,1.711c-6.553-11.051-12.461-25.164-18.635-37.65C5.771,125.917,3.281,123.163,5.303,121.015z"/>
		<path fill-rule="evenodd" clip-rule="evenodd" fill="#FFFFFF" d="M4.543,125.958c0.16-0.033,0.179,0.074,0.189,0.191
			c3.153,6.969,6.424,13.508,9.697,20.918c2.309,5.221,4.416,10.516,7.227,15.781c0.849,1.592,1.901,4.207,3.042,4.563
			c1.625,0.51,4.032-1.127,5.514-1.9c7.384-3.854,11.589-12.549,20.347-15.023c0,1.207,0,2.41,0,3.615
			c-7.095,3.314-12.318,8.799-19.205,12.168c-2.847,1.393-5.293,3.85-8.747,4.564c-6.668-14.375-12.633-29.453-19.966-43.166
			C3.031,126.854,3.963,126.583,4.543,125.958z"/>
		<path fill-rule="evenodd" clip-rule="evenodd" fill="#FFFFFF" d="M66.531,143.073c-0.133,0.83,0.324,1.07,0.191,1.902
			c-3.52-0.041-6.658-0.33-10.078,0C59.4,143.8,62.695,143.167,66.531,143.073z"/>
		<path fill-rule="evenodd" clip-rule="evenodd" fill="#FFFFFF" d="M58.354,146.304c2.599-0.313,6.651-0.438,8.747,0.383
			c0.328,1.383,0.9,2.521,0.951,4.182c-1.893-0.521-4.667-0.941-6.844-0.568C61.38,147.843,59.628,147.313,58.354,146.304z"/>
		<path fill-rule="evenodd" clip-rule="evenodd" fill="#FFFFFF" d="M60.637,150.3c-1.313-0.498-1.082-1.791-2.282-2.094
			c-2.36-0.59-4.581,1.975-6.084,2.852C51.376,146.134,60.089,145.925,60.637,150.3z"/>
		<path fill-rule="evenodd" clip-rule="evenodd" fill="#FFFFFF" d="M1.689,128.052c6.295,12.275,13.162,26.564,17.494,40.123
			c-3.287-6.766-5.504-13.492-9.127-19.779C6.52,142.261,3.604,135.638,1.689,128.052z"/>
		<path fill-rule="evenodd" clip-rule="evenodd" fill="#FFFFFF" d="M42.002,153.341c-3.576,3.207-7.588,7.623-11.98,10.648
			C33.795,160.218,37.342,156.226,42.002,153.341z"/>
	</g>
</g>
</svg>
