<?xml version="1.0" encoding="utf-8"?>
<!-- Generator: Adobe Illustrator 16.0.0, SVG Export Plug-In . SVG Version: 6.00 Build 0)  -->
<!DOCTYPE svg PUBLIC "-//W3C//DTD SVG 1.1//EN" "http://www.w3.org/Graphics/SVG/1.1/DTD/svg11.dtd">
<svg version="1.1" xmlns="http://www.w3.org/2000/svg" xmlns:xlink="http://www.w3.org/1999/xlink" x="0px" y="0px"
	 width="131.766px" height="40.797px" viewBox="0 0 131.766 40.797" enable-background="new 0 0 131.766 40.797"
	 xml:space="preserve">
<g id="bg">
</g>
<g id="圖層_3">
	<g>
		<g>
			<path fill="#23923A" d="M22.906,8.453c1.854,0.313,2.781,0.809,2.781,1.484v0.188L25.5,11.234
				c0.125,0.24,0.188,0.428,0.188,0.563c0.406-0.26,0.776-0.391,1.109-0.391h1.109c0.25,0.053,0.375,0.184,0.375,0.391
				c0,0.438-0.927,0.928-2.781,1.469v2.219c-0.25,3.938-0.557,5.906-0.922,5.906h-0.734l-0.734-0.734
				c0,0.125-0.067,0.188-0.203,0.188l0.203,0.922v0.563h0.172c1.729,0,2.594-0.313,2.594-0.938h1.109
				c0.729,0.074,1.094,0.262,1.094,0.563c0,0.387-1.167,0.881-3.5,1.484l-0.375-0.188c-0.396,0.24-0.703,0.359-0.922,0.359v0.734
				c1.875,1.48,4.833,2.652,8.875,3.516c0,0.25,0.183,0.375,0.547,0.375v0.172c-0.364,0-0.547,0.131-0.547,0.391
				c0.125,0,0.188,0.059,0.188,0.172h-1.109v0.188h0.359v0.188c-1.188,0-1.927,0.121-2.219,0.359
				c-0.969-0.125-1.891-0.426-2.766-0.906c0,0.115-0.063,0.172-0.188,0.172c0-0.313-0.922-0.926-2.766-1.844
				c0-0.25-0.125-0.375-0.375-0.375v1.484c0,0.375-0.057,0.563-0.172,0.563l0.172,0.906v3.328c0,0.666-0.245,1.162-0.734,1.484H22
				v-0.359l-0.375,0.172h-0.188c-0.344,0-0.776-1.229-1.297-3.688h0.563l0.359,0.172l0.188-0.359v-0.375l-0.547,0.375v-0.188
				l0.188-1.109l-0.188-1.297c0-0.863,0.12-1.297,0.359-1.297c-0.114-0.229-0.172-0.41-0.172-0.547
				c-2.427,2.834-4.401,4.25-5.922,4.25c-1.989-0.238-3.719-0.859-5.188-1.859c-0.042-0.25-0.344-0.488-0.906-0.719
				c-1.969,1.719-3.942,2.578-5.922,2.578H2.766c-0.177,0-0.359-0.188-0.547-0.563v-0.359c1.24-0.166,2.776-1.15,4.609-2.953v-0.188
				c-1.813-1.363-2.734-2.166-2.766-2.406v-0.359c0-0.469,0.313-1.15,0.938-2.047v-0.359c-1.688,0.365-3.234,0.547-4.641,0.547
				L0,21.031c0.177-0.645,2.083-1.51,5.719-2.594c0.458,0,0.958-1.91,1.5-5.734c-0.375,0-0.688-0.551-0.938-1.656
				c0.188-0.488,0.37-0.734,0.547-0.734c2.104,0.615,3.156,1.412,3.156,2.391c0,0.5-0.495,2.105-1.484,4.813l0.375,0.188
				c1.354,0,2.339-0.613,2.953-1.844c0.219-0.125,0.469-0.188,0.75-0.188c0.479,0.512,0.719,1,0.719,1.469
				c0,1.293-0.984,4.25-2.953,8.875v0.188c1.219,0.646,1.833,1.078,1.844,1.297l0.938-0.188c0.198,0,0.688,0.615,1.469,1.844
				c0.646,0,1.573-0.922,2.781-2.766c0-0.176,0.37-0.547,1.109-1.109c0,0.115,0.058,0.172,0.172,0.172
				c0.5-0.613,0.75-0.984,0.75-1.109h-0.188l-2.406,0.391c-1.354-0.52-2.031-0.953-2.031-1.297v-0.75
				c0.427,0.5,1.104,0.75,2.031,0.75c2.594-0.375,3.891-0.688,3.891-0.938v-1.469l-1.656,0.188c-0.864-0.25-1.297-0.744-1.297-1.484
				l0.359,0.188v-0.375H17.75l0.188-0.922c0-0.281-0.063-0.531-0.188-0.75l0.188-0.359c-0.125-0.813-0.188-1.613-0.188-2.406
				c-0.156,0.156-1.021,0.281-2.594,0.375c-0.542,0-1.219-0.432-2.031-1.297h0.172c0.136,0,0.323,0.063,0.563,0.188
				c2.594-0.25,3.891-0.557,3.891-0.922v-1.844c0-0.281-0.067-0.531-0.203-0.75L17.75,10.5c-0.135-0.219-0.203-0.469-0.203-0.75
				c0.375,0.125,0.563,0.25,0.563,0.375l0.375-0.188c1.229,0,1.844,1.047,1.844,3.141h0.188c1.594,0,2.391-0.557,2.391-1.672v-0.172
				l-0.188-1.297c0.104-0.488,0.234-0.734,0.391-0.734l-0.203-0.359V8.453z M5.547,22.875v0.375c0.333,0,1.193,0.365,2.578,1.094
				c1.479-2.52,2.219-4.244,2.219-5.172c-1.844,0-3.135,0.803-3.875,2.406L5.547,22.875z M20.328,15.109l0.188,1.109h1.297
				l0.906,0.188l0.188-0.375V14C21.188,14.293,20.328,14.662,20.328,15.109z M20.516,18.078v0.906
				c0.042,0.262,0.167,0.391,0.375,0.391l1.828-0.203v-1.469h-1.828C20.641,17.734,20.516,17.859,20.516,18.078z"/>
			<path fill="#23923A" d="M57.656,7.172h0.75c1.969,1.012,2.953,2.365,2.953,4.063c3.073,0,4.609,0.49,4.609,1.469
				c0.136,0.219,0.203,0.469,0.203,0.75h-0.203l0.203,0.359c-0.438,1.762-1.672,3.24-3.703,4.438
				c-1.531,0.281-2.453,0.771-2.766,1.469h-0.391c-0.114,0-0.172-0.057-0.172-0.172c-1.114,0.375-2.042,0.803-2.781,1.281h-0.172
				c-0.75,0-1.245-0.426-1.484-1.281c0.49-0.176,0.734-0.359,0.734-0.547c-0.489-0.75-0.922-1.613-1.297-2.594
				c0.136,0,0.203-0.063,0.203-0.188c-0.177,0-0.364-0.188-0.563-0.563v-0.172c0.49,0,0.734-0.125,0.734-0.375
				c-0.198-1.479-0.875-2.219-2.031-2.219c0.469,1.262,1.089,3.85,1.859,7.766l-1.109,0.359c-1.364-1-2.047-2.104-2.047-3.313
				c-0.177,0-0.917,0.74-2.219,2.219h-0.734l-0.359-0.203c0.24,1.813,0.422,3.48,0.547,5c0,0.438-0.182,2.1-0.547,4.984L48.047,31
				c-0.114,2.146-0.359,3.75-0.734,4.813h-0.375c-0.979,0-2.151-1.354-3.516-4.063v-0.938l2.219,2.406h0.188
				c0.125-1.666,0.188-2.895,0.188-3.688v-1.859c-0.344,0-1.208,0.496-2.594,1.484l-1.297-0.375l-0.172,0.375
				c0.115,1.084,0.172,1.699,0.172,1.844c-0.114,0.5-0.354,0.75-0.719,0.75c-0.708,0-1.141-0.682-1.297-2.047v-1.281
				c0-4.438,0.49-7.766,1.469-9.984c0.844,0.344,1.401,0.771,1.672,1.281c1.25-0.604,2.604-0.906,4.063-0.906
				C47.552,18.938,47.74,19,47.875,19c0.604-0.719,0.906-1.338,0.906-1.859v-0.547c-2.292,0-6.047,0.615-11.266,1.844v0.375
				c0,0.387,0.308,1.803,0.922,4.25l-0.922,0.172c-0.854,0-1.474-1.172-1.859-3.516l0.188-1.094l-0.547-1.297
				c0.125-0.238,0.188-0.426,0.188-0.563c0.646,0.125,1.016,0.188,1.109,0.188c0.979-0.125,1.656-0.307,2.031-0.547l-0.188-1.859
				v-3.313L38.25,9.016h0.188c0.927,0,1.604,0.922,2.031,2.766c1.136,0,2.12,0.621,2.953,1.859v1.656h0.188
				c1.073,0,2.063-1.666,2.969-5c0.125,0,0.188-0.119,0.188-0.359h-0.188C46.37,9.813,46.058,9.75,45.641,9.75
				c-1.146,0-2.688,0.246-4.625,0.734l-1.094-1.094c1.083-1.113,2.933-1.672,5.547-1.672h0.547c1.948,0,3.183,0.49,3.703,1.469v0.75
				c0,0.959-0.682,2.434-2.047,4.422v0.391h2.781c-0.25-1.156-0.375-2.145-0.375-2.969c0.24-0.563,0.49-0.869,0.75-0.922h0.359
				c0.646,0.387,1.078,0.943,1.297,1.672c0.979-0.395,1.469-0.707,1.469-0.938c0-1.969,0.433-2.953,1.297-2.953
				c0,0.199,0.313,0.568,0.938,1.109c0,0.324,0.12,0.938,0.359,1.844h0.563l1.297-0.188v-1.109l-0.203-1.844h0.203
				c0-0.113-0.25-0.484-0.75-1.109V7.172z M40.469,13.641v2.406h0.75v-0.75h-0.375v-0.375l0.375-0.563v-0.172
				c0-0.176-0.188-0.359-0.563-0.547H40.469z M42.313,26.016v0.359h1.109c0.417,0,1.344-0.432,2.781-1.297v-1.281
				C43.609,24.318,42.313,25.059,42.313,26.016z M42.688,21.953v0.563l2.219-0.563c0.49,0.24,0.922,0.359,1.297,0.359v-1.484
				c0-0.176-0.188-0.359-0.563-0.547C43.672,20.844,42.688,21.402,42.688,21.953z M62.281,19.719h0.734
				c0.313,0.375,0.563,0.563,0.75,0.563v0.375c-0.604,0.574-2.823,1.25-6.656,2.031v0.375l0.906,0.172
				c0.281,0,0.531-0.057,0.75-0.172c1.188,0.24,2.172,0.609,2.953,1.109v0.734c0,0.553-0.37,1.168-1.109,1.844l-0.188,0.922h0.938
				c1.344,0.199,2.016,0.506,2.016,0.922v1.109C62.719,30.568,62.167,31,61.719,31v0.188c2.708,0.063,4.063,0.615,4.063,1.656
				c-0.239,0.615-0.609,0.922-1.109,0.922c-0.125,0-0.188-0.057-0.188-0.172l-0.906,0.172c-0.739,0-3.948,0.125-9.625,0.375
				c-0.385,0-0.813-0.615-1.281-1.844c0.188-0.457,0.802-0.707,1.844-0.75v-0.359c-0.614-0.844-0.922-1.645-0.922-2.406
				c0.24,0,0.359-0.119,0.359-0.359v-0.563h-0.359v-0.375c0-0.238,0.433-0.422,1.297-0.547l-0.188-0.359v-1.297
				c0-0.625,0.12-1.363,0.359-2.219l-2.391,0.359c-0.656,0-1.151-0.432-1.484-1.297L62.281,19.719z M56.547,29.531H56
				c0,0.646,0.37,1.262,1.109,1.844h1.094v-0.188h-0.547c1.729-1.104,2.594-2.088,2.594-2.953c-0.239-0.125-0.422-0.188-0.547-0.188
				C58.203,29.037,57.151,29.531,56.547,29.531z M56.547,17.703l0.188,0.922c1.115,0,1.672-0.494,1.672-1.484v-0.547
				C57.813,16.594,57.193,16.965,56.547,17.703z M56.547,25.641l0.188,0.922c1.115,0,1.672-0.494,1.672-1.484v-0.547
				C57.813,24.531,57.193,24.902,56.547,25.641z M56.734,13.453v1.297c0.906,0,1.396-0.188,1.469-0.563v-0.547h-0.547L56.734,13.453
				z M60.984,15.484v0.734c1.115-0.863,1.672-1.785,1.672-2.766h-1.125C61.167,13.453,60.984,14.131,60.984,15.484z"/>
			<path fill="#23923A" d="M79,6.984h0.922c0.313,0,0.625,0.615,0.938,1.844c1.719,0,2.578,0.25,2.578,0.75v0.188
				c-0.052,0.438-0.911,0.928-2.578,1.469c-0.219,0.406-0.469,1.09-0.75,2.047c4.188-0.656,6.281-1.15,6.281-1.484v-0.203h0.188
				c0.063,0,0.495,0.434,1.297,1.297c1.198-0.113,2.433-0.297,3.703-0.547c2.708,0.303,4.063,1.168,4.063,2.594
				c-0.646,1.709-1.76,3.25-3.344,4.625c-1.073,0.49-1.745,0.734-2.016,0.734c-1.364,0-2.047-0.494-2.047-1.484
				c-0.239,0.043-0.359,0.168-0.359,0.375c0,0.115,0.063,0.172,0.188,0.172l-0.188,0.391v1.656c0,0.24,0.183,0.359,0.547,0.359
				c2.865-0.979,4.531-1.469,5-1.469c0.24,0,0.359,0.188,0.359,0.563l0.375-0.203h0.188c0.979,0,1.469,0.496,1.469,1.484
				c0,1.875-0.552,3.6-1.656,5.172c2.24,2.344,4.026,3.516,5.359,3.516c0.74,0.375,1.109,0.809,1.109,1.297
				c-1.021,0.49-1.578,0.734-1.672,0.734c-1.552,0-3.828-1.109-6.828-3.328c-1.698,1.73-3.234,2.594-4.609,2.594
				c-0.188,1.104-0.438,1.656-0.75,1.656h-0.188c-0.083-0.615-0.266-0.922-0.547-0.922v0.375h-0.375
				c-0.177,0-0.359-0.182-0.547-0.547v-2.406c0-0.281-0.063-0.531-0.188-0.75c0.125-0.125,0.245-1.297,0.359-3.516l-0.172-0.359
				c0.208-1.666,0.391-5.363,0.547-11.094l-4.438,0.734c0,0.199,0.552,0.449,1.656,0.75c0.125,0.365,0.25,0.547,0.375,0.547
				l-0.188,0.375c0,0.125,0.063,0.188,0.188,0.188l-1.484,2.594c0,0.365,0.802,0.605,2.406,0.719v0.563
				c0,0.344-1.172,0.959-3.516,1.844l-0.359,0.563v0.734c1.104,0,1.656-0.369,1.656-1.109c2.104,0.168,3.156,0.418,3.156,0.75v0.359
				c0,0.459-1.484,1.262-4.453,2.406c0,0.699-0.057,1.131-0.172,1.297c0.115,0.23,0.172,0.412,0.172,0.547
				c0,0.375-0.057,0.809-0.172,1.297c0.115,1.156,0.172,2.266,0.172,3.328v0.734c0,0.281-0.057,0.525-0.172,0.734
				c0.115,0.24,0.172,0.428,0.172,0.563L79.75,36c-1.604-0.5-2.406-1.365-2.406-2.594c0.24-0.447,0.359-0.938,0.359-1.469v-3.891
				c-0.677,0-1.661,0.313-2.953,0.938c-0.614,0-1.229-0.432-1.844-1.297v-0.75c0-0.197,0.433-0.566,1.297-1.109v-0.172h0.734
				c0,0.375-0.245,0.563-0.734,0.563v0.172h0.188c2.208-0.738,3.313-1.229,3.313-1.469v-0.75c-1.146,0.365-2.13,0.547-2.953,0.547
				c-1.229,0-2.151-0.551-2.766-1.656c0-0.145,0.37-0.516,1.109-1.109l0.922,0.188h0.188c1.844-0.375,2.766-0.682,2.766-0.922
				c-1.708-1.645-2.63-2.816-2.766-3.516c-0.688,0.24-1.734,0.359-3.141,0.359l-1.484-1.281c0-0.906,1.849-1.582,5.547-2.031
				c1.969-0.957,2.953-1.879,2.953-2.766c-1.458,0.24-2.385,0.359-2.781,0.359c-0.302,0-0.729-0.432-1.281-1.297h-0.188
				c0-0.113,0.063-0.172,0.188-0.172L73.828,10.5v-0.375c0.375,0,0.808-0.063,1.297-0.188c0.24,0.125,0.427,0.188,0.563,0.188
				c1.188-0.488,2.047-0.734,2.578-0.734V9.203C78.266,7.725,78.511,6.984,79,6.984z M76.594,16.781
				c0.156,1.031,0.714,2.021,1.672,2.969c1.479-1.125,2.219-2.422,2.219-3.891v-0.188C79.933,15.672,78.636,16.043,76.594,16.781z
				 M86.578,26.578v1.844h0.188c0-1,0.063-1.801,0.188-2.406C86.703,26.016,86.578,26.203,86.578,26.578z M87.688,24.719v5.375
				c1.604-1.156,2.406-2.02,2.406-2.594c0-0.094-0.677-1.02-2.031-2.781H87.688z M88.984,15.484
				c-0.208-0.125-0.516-0.188-0.922-0.188c0,0.375-0.063,0.563-0.188,0.563l0.188,0.375l-0.188,0.734
				c0.365,0.865,0.917,1.297,1.656,1.297h0.188c1.24-0.906,1.859-1.895,1.859-2.969l-0.375-0.188
				C90.88,15.109,90.141,15.234,88.984,15.484z M89.344,23.625c1.375,0.865,2.24,1.297,2.594,1.297c0.5-0.988,0.75-1.672,0.75-2.047
				v-0.172h-0.203C90.391,23.027,89.344,23.334,89.344,23.625z"/>
			<path fill="#23923A" d="M112.141,14.703c2.146,0.906,3.219,2.209,3.219,3.906c-0.344,0.938-0.63,1.563-0.859,1.875v0.172
				l5.594,1.359v-0.188c2.417,0.906,6.089,1.59,11.016,2.047c0.438,0,0.656,0.334,0.656,1c-3.104,0.449-5.073,0.672-5.906,0.672
				c-0.135,0-0.203,0.063-0.203,0.188l-0.313-0.188c-0.333,0-0.5,0.063-0.5,0.188c-0.417,0-1.552-0.344-3.406-1.031
				c-5.563-1.688-9.344-2.531-11.344-2.531l-0.5-0.516v-1c0.823-0.344,1.328-0.516,1.516-0.516c1.636,0.115,2.542,0.172,2.719,0.172
				c0.229-0.375,0.344-0.719,0.344-1.031c-0.5-1.916-1.125-2.875-1.875-2.875l-0.656-0.844v-0.359
				C111.641,15.068,111.808,14.902,112.141,14.703z M121.625,25.391h0.313c0.625,0,1.594,0.449,2.906,1.344
				c2.219-0.332,3.797-0.5,4.734-0.5h0.156c0.563,0.293,0.844,0.516,0.844,0.672v0.688c0,0.406-2.031,0.969-6.094,1.688
				l-0.172,0.328c0,5.156-0.219,8.885-0.656,11.188h-0.859c-1.896,0-3.364-1.303-4.406-3.906h0.172
				c1.063,0.906,1.969,1.359,2.719,1.359c0.438-1.781,0.656-4.49,0.656-8.125l-0.313-0.172c-1.719,0.334-4.88,0.734-9.484,1.203
				c-0.76-0.322-1.213-0.666-1.359-1.031v-0.672c0-0.594,1.813-0.932,5.438-1.016c0.094,0,2-0.4,5.719-1.203v-0.656l-0.656-1.031
				L121.625,25.391z M114.844,10.984c0.365,0.24,0.651,0.359,0.859,0.359v0.328c0,0.553-0.114,0.828-0.344,0.828l-2.719,0.188
				c-0.667-0.26-1-0.488-1-0.688C111.641,11.324,112.708,10.984,114.844,10.984z M125.516,0c0.781,0,1.172,0.277,1.172,0.828
				l-0.172,0.359v0.5c-2.375,2.137-3.563,3.262-3.563,3.375l1.531-0.5c0.448,0.23,0.839,0.344,1.172,0.344v0.156
				c-0.469,0.563-1.135,0.965-2,1.203c0,0.105,0.052,0.156,0.156,0.156l-0.156,0.344c0.104,0.23,0.156,0.396,0.156,0.5
				c-1.26,1.418-2.385,2.49-3.375,3.219l0.328,0.188c0.927-0.791,1.943-1.188,3.047-1.188c0-0.125,0.058-0.188,0.172-0.188h0.5
				c0.938,0,1.505,2.09,1.703,6.266c-0.198,4.406-0.542,6.609-1.031,6.609h-0.5c-0.667-0.291-1-0.744-1-1.359
				c0-0.176,0.109-0.625,0.328-1.344h-0.328l-3.391,2.359l-1.188-1.172c0.438-0.947,0.656-1.859,0.656-2.734
				c0-0.082-0.052-0.416-0.156-1v-1.859c-0.677-0.281-1.016-0.734-1.016-1.359c0-0.176,0.391-0.629,1.172-1.359v-1.172h-0.156
				c-0.729,0.209-1.234,0.313-1.516,0.313h-0.172v-0.313c2.25-2.176,3.938-3.531,5.063-4.063l0.531-0.688
				c-4.406,1.699-6.661,2.547-6.766,2.547c-0.781,0.105-1.406,0.156-1.875,0.156c-0.521-0.332-0.859-0.5-1.016-0.5v-0.5
				c0-0.125,0.058-0.188,0.172-0.188l-0.172-0.313V7.438c3.25-0.572,5.167-1.25,5.75-2.031c0.24,0,0.359-0.113,0.359-0.344
				l-0.703,0.344c-2.479-1.104-3.719-2.119-3.719-3.047c0.229-0.447,0.344-0.785,0.344-1.016h0.5
				c1.656,1.512,3.016,2.531,4.078,3.063C123.229,1.469,124.922,0,125.516,0z M114.844,32.828h0.516
				c2.708,0.084,4.063,0.365,4.063,0.844v0.688c-0.396,0.563-1.531,0.844-3.406,0.844c-0.333,0-0.896-0.563-1.688-1.688
				C114.505,33.057,114.677,32.828,114.844,32.828z M121.109,10.844c0,0.771,0.224,1.156,0.672,1.156
				c0.438,0.125,0.891,0.188,1.359,0.188c0.677,0,1.016-0.4,1.016-1.203l-0.172-0.844L121.109,10.844z M121.438,17.094v0.688
				l-0.156,0.828h0.156l1.516-0.5v0.172c0.688-0.188,1.031-0.582,1.031-1.188v-1.188C122.516,16.699,121.667,17.094,121.438,17.094z
				 M122.125,14.563h1.688c0.229,0,0.344-0.119,0.344-0.359v-0.844C123.511,13.359,122.833,13.762,122.125,14.563z"/>
		</g>
	</g>
</g>
<g id="圖層_1">
</g>
</svg>
