<?xml version="1.0" encoding="utf-8"?>
<!-- Generator: Adobe Illustrator 16.0.0, SVG Export Plug-In . SVG Version: 6.00 Build 0)  -->
<!DOCTYPE svg PUBLIC "-//W3C//DTD SVG 1.1//EN" "http://www.w3.org/Graphics/SVG/1.1/DTD/svg11.dtd">
<svg version="1.1" xmlns="http://www.w3.org/2000/svg" xmlns:xlink="http://www.w3.org/1999/xlink" x="0px" y="0px"
	 width="128.703px" height="34.375px" viewBox="0 0 128.703 34.375" enable-background="new 0 0 128.703 34.375"
	 xml:space="preserve">
<g id="bg">
</g>
<g id="圖層_3">
	<g>
		<g>
			<path d="M11.375,2.078h0.188c0.281,0,0.479,0.308,0.594,0.922c-0.239,0.406-0.349,0.776-0.328,1.109l0.094,2.406
				c2.313-0.563,3.458-1.057,3.438-1.484c-0.021-0.51,0.136-1.313,0.469-2.406h0.734c0.011,0.323,0.328,0.511,0.953,0.563
				c0.146,0.615,0.281,0.922,0.406,0.922c0.542,0,1.453-0.182,2.734-0.547h0.188c0.177,0,0.375,0.183,0.594,0.547
				c-0.125,0-0.188,0.063-0.188,0.188c0.49,0.063,0.745,0.25,0.766,0.563l0.016,0.359c0.011,0.365-1.442,0.917-4.359,1.656
				l-0.719,0.938L17,8.734l0.391,0.547c0.25-0.125,0.922-0.244,2.016-0.359l0.203,0.359c-0.239,0.125-0.427,0.188-0.563,0.188
				l0.016,0.188c0.49,0,0.88,0.37,1.172,1.109c-1.354,0.334-2.021,0.703-2,1.109c2.042,4.99,3.261,7.761,3.656,8.313h0.188
				c1.052-3.697,1.781-5.547,2.188-5.547H25c0.167,0.011,0.422,0.318,0.766,0.922c-0.542,2.969-0.958,4.818-1.25,5.547
				c0.125,0,0.193,0.063,0.203,0.188c-0.156,0-0.505,0.615-1.047,1.844c0.208,0.573,1.12,1.865,2.734,3.875h0.188v-0.188
				c0.24-3.197,0.547-4.797,0.922-4.797c0.49,0,0.886,0.678,1.188,2.031c0,0.125-0.063,0.188-0.188,0.188
				c0.386,3.229,0.912,5.572,1.578,7.031l0.016,0.172c0.011,0.208-0.594,0.583-1.813,1.125c-1.364-1.031-3.177-3.131-5.438-6.297
				h-0.188c-2.354,3.072-4.073,4.609-5.156,4.609l-0.922,0.188c-0.239-0.125-0.427-0.188-0.563-0.188
				c0.011,0.125-0.047,0.188-0.172,0.188l-0.391-0.547v-0.188c3.156-2.875,4.906-5.338,5.25-7.391
				c-1.063-1.697-1.599-2.744-1.609-3.141c-0.604,0.198-0.896,0.631-0.875,1.297c0.24,0,0.37,0.245,0.391,0.734
				c-1.344,0.99-2.245,1.484-2.703,1.484l0.016,0.375c0.396,0.448,0.599,0.875,0.609,1.281c0.021,0.375-0.088,0.87-0.328,1.484h0.75
				c0.136,0.219,0.208,0.464,0.219,0.734c-0.625,0.99-2.073,1.791-4.344,2.406l0.016,0.375c0.031,0.864-0.078,1.297-0.328,1.297
				l0.203,0.359l0.047,0.938c-0.854,0.239-1.344,0.359-1.469,0.359c-0.75-0.271-1.141-0.891-1.172-1.859l-0.109-2.766l-0.25-1.109
				c-0.021-0.438,0.24-3.333,0.781-8.688l-0.016-0.172h-0.188l-0.625,2.766c0.011,0.24-0.109,0.359-0.359,0.359
				c0.125,0.25,0.193,0.438,0.203,0.563c0.011,0.281-0.401,0.776-1.234,1.484c0.011,0.271-0.042,0.516-0.156,0.734h0.188
				l0.891-0.734l0.016,0.359c-0.458,0.656-0.677,1.271-0.656,1.844c0.125,0,0.193,0.063,0.203,0.188
				c-0.292,0-0.63,0.865-1.016,2.594c-0.552,0.739-1.031,1.109-1.438,1.109l0.203,0.375c-0.625,0.489-1.292,0.734-2,0.734H4.391
				c-0.177,0-0.625-0.433-1.344-1.297h0.188l-0.203-0.359l-0.063-1.484C3,27.328,3.12,27.203,3.328,27.203
				c0.521,0.698,0.787,1.193,0.797,1.484c0.917,0,1.927-2.463,3.031-7.391c-0.323,0.115-1.37,1.776-3.141,4.984
				c-0.771,0.99-1.922,1.484-3.453,1.484c-0.167,0-0.354-0.188-0.563-0.563c1.427-1.489,2.537-3.025,3.328-4.609
				c-0.229,0.115-0.844,0.234-1.844,0.359l-0.578-0.734l-0.016-0.563c-0.01-0.271,0.953-0.76,2.891-1.469L3.766,20H3.578
				c-0.229,0.125-0.406,0.188-0.531,0.188c-0.281-0.625-0.542-0.938-0.781-0.938c1.344-3.447,1.995-5.724,1.953-6.828l0.531-0.375
				c0.573,0.24,0.891,0.49,0.953,0.75l0.125,3.328l0.922-0.188H7.5c0.24,0.031,0.365,0.151,0.375,0.359H7.328v0.188H8.25
				l0.453-2.594l-1.297-0.172l-0.016-0.547c-0.01-0.25,0.469-0.5,1.438-0.75c0.115-0.76,0.458-1.438,1.031-2.031L9.266,9.469
				c-1.354,0.375-2.703,0.563-4.047,0.563C4.115,9.938,3.547,9.506,3.516,8.734C3.63,8.495,3.683,8.308,3.672,8.172l0.391,0.188
				h0.547c3.302-0.354,4.938-0.969,4.906-1.844C9.401,3.558,10.021,2.078,11.375,2.078z M4.313,19.813
				c1.292-0.614,2.208-0.922,2.75-0.922L6.875,19.25l0.016,0.203h0.563c0.24,0,0.401-0.494,0.484-1.484H7.203
				C6.172,17.969,5.208,18.584,4.313,19.813z M11.656,9.281l0.016,0.547l0.25,1.297h0.188c0.219,0,0.886-0.244,2-0.734l-0.203-0.359
				c0.469-0.864,0.693-1.484,0.672-1.859V7.984C12.62,8.484,11.646,8.917,11.656,9.281z M13.016,24.422l-0.094,2.594h0.188
				c0.833-0.75,1.229-1.734,1.188-2.953h-0.188C13.609,24.303,13.245,24.422,13.016,24.422z M13.094,22.219
				c1.073-0.406,2.156-1.208,3.25-2.406l-0.016-0.172h-0.203c-2.094,0-3.114,0.609-3.063,1.828L13.094,22.219z M13.578,15.563
				l0.016,0.188c-0.083,1.281-0.12,2.021-0.109,2.219c0.615-0.25,1.037-0.375,1.266-0.375c0-0.146-0.266-0.822-0.797-2.031H13.578z
				 M13.859,13.172v0.172h0.172l1.266-0.734h0.359l0.406,0.188l-0.016-0.563h-0.203C14.511,12.547,13.849,12.859,13.859,13.172z
				 M16.125,14.281l0.016,0.359c0.344,1.729,0.74,2.594,1.188,2.594h0.375c-0.656-1.969-1.125-2.953-1.406-2.953H16.125z
				 M21.438,8.734h0.188c1.011,0.698,1.531,1.375,1.563,2.031L22.469,11.5c-1.364-0.125-2.067-0.739-2.109-1.844
				C20.339,9.042,20.698,8.734,21.438,8.734z"/>
			<path d="M46.422,0h0.406c0.136,0,0.203,0.068,0.203,0.203L47.453,0c1.646,0.553,2.469,1.516,2.469,2.891l5.547-1.031
				c0.969,0.823,1.453,1.303,1.453,1.438l-0.219,2.047h1.453v1.234C57,7.276,56.245,7.625,55.891,7.625l-2.266,6.156
				c0.271,0.459,0.406,0.808,0.406,1.047h-0.188l0.188,0.406v0.406c-2.739,1.053-4.109,1.678-4.109,1.875v0.609
				c0.031,0.271,0.172,0.406,0.422,0.406c3.969-1.281,5.958-2.104,5.969-2.469c-0.563-0.697-0.844-1.109-0.844-1.234h0.219
				c0.958,0.271,1.438,0.475,1.438,0.609l0.422-0.203h0.203l0.828,0.625c0,1.25-1.375,2.344-4.125,3.281
				c-2.583,1.125-4.031,1.813-4.344,2.063v1.234c0.354,0,1.318-0.135,2.891-0.406v0.188l0.422-0.188h0.609
				c2.615,0,3.922,0.688,3.922,2.063c-1.208,6.854-2.578,10.281-4.109,10.281l-1.453-0.203v0.203
				c-1.646-0.5-2.469-1.183-2.469-2.047c-1.51,0.677-2.474,1.016-2.891,1.016v-0.188l-0.391,0.188h-0.422
				c-0.271,0-0.406-0.209-0.406-0.625l-0.422,0.219h-0.203c-0.844-0.917-1.938-3.323-3.281-7.219c0-0.135,0.068-0.203,0.203-0.203
				c0.125,0,0.188-0.338,0.188-1.016h0.625c0.354,0.063,0.974,1.229,1.859,3.5c2.156-0.822,5.037-1.713,8.641-2.672
				c0.136,0.261,0.203,0.469,0.203,0.625c0.271,0,0.406-0.146,0.406-0.438v-0.797c-0.406,0-0.609-0.072-0.609-0.219L53,24.719
				c-0.667,0-1.692-0.072-3.078-0.219c-0.292,0-2.073,0.203-5.344,0.609l-0.203-0.391v-0.625l4.516-1.234v-0.422
				c-0.125,0-0.604-0.203-1.438-0.609c-1.729,0.542-3.036,0.813-3.922,0.813h-1.625c-1.104-0.135-1.656-0.614-1.656-1.438
				c0.573-0.552,1.125-0.828,1.656-0.828l0.391,0.609l5.359-1.625v-1.047l-0.203-0.406c-2.135,0.417-3.573,0.625-4.313,0.625
				c-0.198,0-0.406-0.208-0.625-0.625v-0.203c0-0.271,1.234-0.744,3.703-1.422c0.823-0.427,1.234-0.708,1.234-0.844v-1.031h-1.859
				c-0.302,0-0.573,0.073-0.813,0.219c-0.271-0.146-0.479-0.219-0.625-0.219c0,0.146-0.067,0.219-0.203,0.219
				c0-0.083-0.271-0.427-0.813-1.031v-0.609c0-0.364,1.375-0.781,4.125-1.25V10.5l-0.234-0.406
				c-0.969,0.406-2.891,0.678-5.766,0.813c-0.677,0-1.359-0.411-2.047-1.234V8.656c0-0.208,0.276-0.416,0.828-0.625l1.219,0.625
				c1,0,2.922-0.344,5.766-1.031V5.344c0-0.271-0.13-0.406-0.391-0.406C45.464,5.084,44.5,5.156,43.75,5.156h-0.219
				c-0.229,0-0.432-0.344-0.609-1.031c1.698-0.135,3-0.344,3.906-0.625c-0.271-1.322-0.406-2.078-0.406-2.266h0.219l-0.219-0.422V0z
				 M47.875,30.266h-0.609l-0.438-0.203c0,0.271-0.203,0.406-0.609,0.406c0.136,0.26,0.203,0.463,0.203,0.609l4.953-0.813
				l0.188,0.422v0.391c0,0.322-0.338,0.536-1.016,0.641v0.391c0.146,0,0.349,0.072,0.609,0.219c0.761,0,1.583-1.646,2.469-4.938
				v-0.625C50.344,29.099,48.427,30.266,47.875,30.266z M49.75,13.563V15h0.234c1.636,0,2.453-0.822,2.453-2.469
				C51.438,12.531,50.542,12.875,49.75,13.563z M50.109,4.531v1.031l0.234,1.016c2.25,0,3.62-0.75,4.109-2.25L54.859,3.5h-0.203
				L50.109,4.531z M50.109,9.469v1.438h0.234c1.636,0,2.453-0.822,2.453-2.469C51.797,8.438,50.901,8.781,50.109,9.469z"/>
			<path d="M71.078,6.469h0.297c0.886,0.625,1.328,1.615,1.328,2.969v0.594L73,10.469c0.729-0.197,1.224-0.297,1.484-0.297
				c0.615,0.573,0.958,0.969,1.031,1.188c-0.031,0.156-0.922,0.745-2.672,1.766c-0.094,0.542-0.141,0.99-0.141,1.344v0.875
				l0.141,0.75l2.969-1.047l0.734,0.891c-0.188,0.563-1.516,1.5-3.984,2.813c-0.104,0.521-0.156,0.818-0.156,0.891
				c0,0.928-0.094,3.683-0.281,8.266c-0.531,0.396-0.979,0.594-1.344,0.594h-0.141c-2.156-2.104-3.344-3.729-3.563-4.875h0.453
				c0.417,0,1.156,0.448,2.219,1.344h0.141c0.302-1,0.453-2.135,0.453-3.406v-1.641h-0.141c-0.125,0-0.672,0.1-1.641,0.297h-0.438
				c-0.781,0-1.172-0.396-1.172-1.188v-0.734c2.042-0.719,3.172-1.208,3.391-1.469v-2.813h-0.141c-0.25,0-1.042,0.151-2.375,0.453
				c-0.521,0-1.016-0.5-1.484-1.5c0.156-0.385,0.302-0.578,0.438-0.578h0.609c0.094,0,0.141,0.047,0.141,0.141
				c1.927-0.583,2.912-1.021,2.953-1.313C70.484,9.219,70.683,7.636,71.078,6.469z M83.203,4.844H83.5
				c0.49,0,0.828,1.234,1.016,3.703c-0.083,0.521-0.125,1.016-0.125,1.484v0.438l-0.156,0.297h0.156
				c0.375-0.291,0.667-0.438,0.875-0.438c0.458,0.188,1.146,0.281,2.063,0.281c0.104-0.125,0.156-0.369,0.156-0.734
				c-1.364-0.656-2.052-1.099-2.063-1.328c0.188,0,0.281-0.15,0.281-0.453c0.229,0,0.433,0.053,0.609,0.156l0.578-0.281
				c2.167,0.271,3.25,0.906,3.25,1.906c-0.198,0.313-0.297,0.558-0.297,0.734c0.198,0.031,0.297,0.131,0.297,0.297v0.313
				c-0.364,0-1.302,0.933-2.813,2.797c-1.188,1-2.417,1.641-3.688,1.922c-0.489,1.646-0.734,2.975-0.734,3.984
				c1.448-0.781,2.484-1.172,3.109-1.172h0.141c0.625,0,1.016,0.391,1.172,1.172c0,1.24-0.734,2.87-2.203,4.891v0.156
				c0,0.688,2.511,1.771,7.531,3.25l0.75,1.031v0.141l-0.297-0.141c-0.354,0-0.802,0.047-1.344,0.141l-1.313-0.141
				c-0.594,0-1.531,0.094-2.813,0.281c0-0.167-0.542-0.412-1.625-0.734c-0.573-0.469-1.313-1.208-2.219-2.219h-0.453
				c-1.688,1.479-3.067,2.219-4.141,2.219h-0.141c-0.531,0-0.88-0.193-1.047-0.578v-0.313c1.208,0,2.542-0.938,4-2.813
				c-2.667-2.219-4-3.447-4-3.688v-0.297c0.5,0,0.75-0.099,0.75-0.297c0.865,0.073,1.406,0.225,1.625,0.453
				c0.5-2.114,0.75-3.349,0.75-3.703h-0.156c-0.844,0.396-1.391,0.594-1.641,0.594h-0.438c-0.114,0-0.411-0.349-0.891-1.047
				c0-0.094,0.052-0.239,0.156-0.438c0-0.635-0.297-1.719-0.891-3.25c0-0.166-0.344-0.266-1.031-0.297l-1.047,0.156
				c0.458-1.021,1.5-2.75,3.125-5.188c0.156-0.781,0.599-1.567,1.328-2.359h0.141c1.083,0,1.625,0.542,1.625,1.625
				c-0.271,1.24-0.813,2.078-1.625,2.516c0,0.084-0.688,0.771-2.063,2.063v0.156c0.625,0,1.162,0.344,1.609,1.031
				c0.677-0.291,1.224-0.438,1.641-0.438c0.188,0.021,0.281,0.115,0.281,0.281v0.156c0,0.167-0.489,0.615-1.469,1.344
				c0.302,0.656,0.453,1.047,0.453,1.172h0.297c1.177,0,1.766-1.281,1.766-3.844c0.177,0,0.328-1.724,0.453-5.172h-0.156
				C82.755,5.438,82.953,4.844,83.203,4.844z M82.156,17.719V18l-0.578,2.672h0.297l0.141-0.75h-0.141
				c0.188-0.427,0.38-1.161,0.578-2.203H82.156z M82.313,22.891c0.636,0.594,0.979,0.891,1.031,0.891H83.5
				c1.083-1.625,1.625-2.708,1.625-3.25h-0.156C83.396,21.281,82.511,22.068,82.313,22.891z M84.234,11.656
				c0,0.053-0.052,0.693-0.156,1.922c0.146,0,0.495-0.349,1.047-1.047v-0.141c-0.406,0-0.651-0.244-0.734-0.734H84.234z"/>
			<path d="M120,1.953c0.208,0,0.75,0.047,1.625,0.141V1.953c0.979,0.553,1.469,0.995,1.469,1.328
				c-0.364,1.115-0.807,1.803-1.328,2.063c-0.167,0.542-0.854,1.334-2.063,2.375c-0.573,0.396-0.917,0.594-1.031,0.594v0.141h0.141
				c0.083,0,0.479-0.047,1.188-0.141c1.083,0.188,1.625,0.678,1.625,1.469c-2.614,0.99-5.427,1.484-8.438,1.484v0.141
				c2.563,0,3.844,0.25,3.844,0.75l0.75,0.141c0-0.697,0.688-1.094,2.063-1.188c2.104,0,3.537,0.495,4.297,1.484v0.578
				c-0.917,1.875-1.906,2.813-2.969,2.813v0.156c0.396,0.5,0.594,0.995,0.594,1.484h0.313c0.802,0,2.13-0.344,3.984-1.031
				c0.906,0,1.599-0.052,2.078-0.156c0.375,0.438,0.563,0.683,0.563,0.734h-0.281c0.188,0.406,0.281,0.703,0.281,0.891
				c-1.313,0.594-3.521,1.234-6.625,1.922v0.156c0,0.438,0.094,1.225,0.281,2.359l-0.281,0.734c0,0.104,0.042,0.156,0.125,0.156
				c-0.188,1.25-0.281,2.037-0.281,2.359c0.104,0,0.156,0.053,0.156,0.156c-0.208,0.031-0.313,0.131-0.313,0.297
				c0,4.135-0.495,6.203-1.484,6.203h-0.141c0-0.303-0.099-0.453-0.297-0.453l-0.141,0.313c-1.844-1.094-3.031-1.984-3.563-2.672
				l0.156-0.297c-0.896-0.885-1.536-1.328-1.922-1.328v-0.156h0.156c0.313,0,0.755,0.198,1.328,0.594
				c0-0.094,0.047-0.141,0.141-0.141c0.708,0.791,1.599,1.188,2.672,1.188c0.396-0.74,0.688-3.65,0.875-8.734
				c-2.302,0.886-6.094,1.678-11.375,2.375h-0.156c-0.521,0-1.01-0.396-1.469-1.188v-0.141c0-0.364,0.198-0.755,0.594-1.172
				l0.734,0.125c4.646-0.781,8.537-1.614,11.672-2.5l0.156-0.313v-1.172c-0.396,0-0.594-0.25-0.594-0.75h-0.156
				c-0.188,0.031-0.281,0.131-0.281,0.297v1.344c0,0.188-0.104,0.281-0.313,0.281h-0.578c-0.167,0-0.609-0.489-1.328-1.469
				c-2.792,2.167-4.417,3.25-4.875,3.25h-0.313c-0.542,0-1.031-0.344-1.469-1.031v-0.438c0.594-1.438,0.891-2.521,0.891-3.25h-0.156
				l0.156-0.313v-0.438h-0.297c-0.781,0-1.323-0.349-1.625-1.047l-0.313-0.281c0-0.531,0.839-0.927,2.516-1.188v-0.141
				c-0.479-0.51-0.719-0.953-0.719-1.328c0-0.677,0.24-1.072,0.719-1.188l0.75,0.156c1.573-0.208,2.359-0.359,2.359-0.453
				l0.297,0.141c2.063-0.166,3.094-0.359,3.094-0.578c-0.479-0.072-0.719-0.224-0.719-0.453c-0.656,0.303-1.104,0.453-1.344,0.453
				l0.734-0.891h-0.875c-0.198,0.031-0.297,0.131-0.297,0.297l-0.297-0.156h-0.891l-1.469,0.156
				c-0.792-0.791-1.188-1.333-1.188-1.625c0.333-0.688,0.578-1.031,0.734-1.031l0.75,0.141h0.281V5.063
				c-0.531,0-1.021-0.302-1.469-0.906c-0.396,0-0.594-0.094-0.594-0.281V3.281c2.396-0.5,4.813-0.896,7.25-1.188l0.281,0.156
				C118.755,2.053,119.302,1.953,120,1.953z M111.719,23.969v0.156l0.297-0.156c1.083,0.146,1.625,0.292,1.625,0.438
				c0.188-0.083,0.333-0.125,0.438-0.125c0.323,0.188,0.62,0.281,0.891,0.281h0.594c0.094,0,0.141-0.052,0.141-0.156
				c0.448,0.178,0.844,0.526,1.188,1.047c-0.375,0.792-1.114,1.188-2.219,1.188h-1.031l-0.891-0.156
				c-0.156,0.104-0.401,0.156-0.734,0.156h-0.156c-0.469,0-0.958-0.349-1.469-1.047h-0.141v-0.734
				C110.25,24.558,110.74,24.261,111.719,23.969z M112.75,13.625c0,0.104,0.047,0.25,0.141,0.438
				c-0.094,0.678-0.141,1.225-0.141,1.641v0.281h0.141c2.073-0.844,3.208-1.531,3.406-2.063c0-0.791-0.099-1.188-0.297-1.188
				C114.156,13.328,113.073,13.625,112.75,13.625z M115.563,4.609v0.453H116l0.297-0.156v0.156l0.297-0.156h0.594
				c0.781,0,1.422,0.35,1.922,1.047c0-0.364,0.198-0.813,0.594-1.344V4.031h-0.156C118.828,4.031,117.5,4.225,115.563,4.609z
				 M118.078,12.453c0.094,0.656,0.292,1.344,0.594,2.063c1.063-0.447,1.651-0.791,1.766-1.031c-0.563,0-0.911-0.047-1.047-0.141
				c-0.177,0.094-0.323,0.141-0.438,0.141c-0.333-0.688-0.578-1.031-0.734-1.031H118.078z"/>
		</g>
	</g>
</g>
<g id="圖層_1">
</g>
</svg>
