<?xml version="1.0" encoding="utf-8"?>
<!-- Generator: Adobe Illustrator 16.0.0, SVG Export Plug-In . SVG Version: 6.00 Build 0)  -->
<!DOCTYPE svg PUBLIC "-//W3C//DTD SVG 1.1//EN" "http://www.w3.org/Graphics/SVG/1.1/DTD/svg11.dtd">
<svg version="1.1" xmlns="http://www.w3.org/2000/svg" xmlns:xlink="http://www.w3.org/1999/xlink" x="0px" y="0px"
	 width="133.984px" height="31.047px" viewBox="0 0 133.984 31.047" enable-background="new 0 0 133.984 31.047"
	 xml:space="preserve">
<g id="圖層_1">
	<g>
		<g>
			<path fill="#2D8A3A" d="M1.109,13.109c1.375,0.678,2.791,1.234,4.25,1.672c0.614,0.637,0.922,1.193,0.922,1.672v0.734
				c0,0.637-0.37,1.434-1.109,2.391C5.057,19.787,5,20.1,5,20.516v1.656h0.359c1.322-1.313,3.416-3.713,6.281-7.203v0.922
				c0,0.865-1.292,3.699-3.875,8.5c-1.303,2.469-2.287,3.703-2.953,3.703c-1.479,0-2.219-0.928-2.219-2.781
				c-0.125,0-0.188-0.063-0.188-0.188v-0.359c0.677,0,1.291-2.219,1.844-6.656v-0.922c0-0.25-0.183-0.375-0.547-0.375L2.047,17
				C0.682,16.281,0,15.234,0,13.859L1.109,13.109z M3.328,4.438C5.9,5.168,7.625,6.152,8.5,7.391C8.375,8.131,8.192,8.5,7.953,8.5
				H7.219c-2.428,0-3.969-1.109-4.625-3.328c-0.25,0-0.375-0.119-0.375-0.359C2.625,4.563,2.994,4.438,3.328,4.438z M11.281,5.359
				c0.489,0.188,0.734,0.375,0.734,0.563l-0.188,1.281c0.614,1.137,1.166,2.434,1.656,3.891c-0.24,0.396-0.359,0.699-0.359,0.906
				h-0.547c-1.073,0-2.006-1.473-2.797-4.422C10.25,6.1,10.75,5.359,11.281,5.359z M20.328,0c3.322,1.428,4.984,2.719,4.984,3.875
				c2.708,0,4.063,0.684,4.063,2.047v0.172c0,0.928-1.725,2.037-5.172,3.328c0,0.74-0.433,1.109-1.297,1.109v0.188l-0.359-0.188
				c-0.25,0-0.433,0.74-0.547,2.219c0.114,0,0.172,0.063,0.172,0.188l7.578-1.297v0.188l0.922,1.109
				c-2.542,5.656-4.266,8.484-5.172,8.484c0,0.928-1.292,1.547-3.875,1.859c-0.615,0-0.922-0.188-0.922-0.563h-0.563
				c-0.292,0-1.156,0.313-2.594,0.938c-0.396,0-0.698-0.557-0.906-1.672c1.469-1.01,2.203-1.813,2.203-2.406h-0.188
				c-1.313,0.625-2.234,0.938-2.766,0.938l0.563,2.578c-0.136,0.406-0.386,0.652-0.75,0.734c0-0.363-0.12-0.547-0.359-0.547v0.375
				h-0.188c-0.781,0-1.584-2.344-2.406-7.031c0.219-2.822,0.588-4.234,1.109-4.234h0.375c0.177,0,0.359,0.184,0.547,0.547v0.172
				l-0.188,1.297c3.447-0.594,5.172-1.025,5.172-1.297c0-0.145,0.063-0.754,0.188-1.828c-2.844,0.24-4.443,0.359-4.797,0.359
				l-0.563-0.75c0-0.863,0.739-1.297,2.219-1.297c0.688-0.313,2.969-0.738,6.844-1.281c1.375-1.094,2.234-1.707,2.578-1.844V6.094
				l-0.359,0.188h-0.922c-4.803,0.99-7.573,1.484-8.313,1.484c-0.667,0-1.656-0.25-2.969-0.75V6.828
				c0-0.457,1.791-0.828,5.375-1.109c2.822-0.77,4.234-1.26,4.234-1.469c-0.334,0-1.688-1.297-4.063-3.891
				C19.958,0.234,20.328,0.115,20.328,0z M17.938,23.828c0.479,0.262,0.849,0.631,1.109,1.109v0.938
				c-1.104,3.072-2.771,4.609-5,4.609c-0.5-0.178-0.75-0.359-0.75-0.547V29.75c1.51-1.334,2.869-3.307,4.078-5.922H17.938z
				 M14.969,17c0.083,0.98,0.208,1.469,0.375,1.469c1.135-0.666,2.427-1.281,3.875-1.844v-0.563
				C16.385,16.387,14.969,16.699,14.969,17z M21.438,15.703c1,0.803,1.989,1.234,2.969,1.297c0,0.168-1.053,0.656-3.156,1.469
				l-0.359,0.563v0.547h0.172c0.166,0,0.781-0.182,1.844-0.547c0.135,0.24,0.203,0.422,0.203,0.547h0.359
				c1.76-2.25,2.682-3.848,2.766-4.797C23.036,14.969,21.438,15.277,21.438,15.703z M24.016,25.313h1.297
				c1.052,0,2.838,1.541,5.359,4.625v0.359c-0.198,0.5-0.631,0.75-1.297,0.75c0-0.344-0.984-0.838-2.953-1.484
				c-0.49-0.271-1.292-1.443-2.406-3.516l0.188-0.359L24.016,25.313z"/>
			<path fill="#2D8A3A" d="M47.719,6.453c0.666,0.23,1,0.453,1,0.672v0.984c-5.959,2.012-9.672,3.016-11.141,3.016h-0.172
				c-0.365,0-0.975-0.166-1.828-0.5l-0.828,0.156l-0.172-0.328v-0.172C38.067,9.531,42.447,8.256,47.719,6.453z M45.719,11.281
				c0.333,0.553,0.5,0.996,0.5,1.328c-1.011,0.699-3.058,1.365-6.141,2h-0.672c-1-0.219-1.725-0.328-2.172-0.328h-0.172v-0.5
				C40.604,12.668,43.489,11.834,45.719,11.281z M45.063,14.281l0.656,1v0.156c-1.198,0.844-2.917,1.563-5.156,2.156
				c-0.375,0-0.656,0.059-0.844,0.172c-1.428-0.541-2.141-0.932-2.141-1.172v-0.156c0.813,0,3.255-0.719,7.328-2.156H45.063z
				 M45.219,17.766c0.885,0,1.442,0.668,1.672,2c0.104,0,0.213,0.162,0.328,0.484c-0.906,1.762-1.406,2.652-1.5,2.672l0.188,0.344
				v0.656c-0.979,1.219-1.823,1.828-2.531,1.828h-0.141c-0.625,0-1.183-0.391-1.672-1.172v-0.156c0-0.395,0.604-1.447,1.813-3.156
				c0.125-0.197,0.188-0.416,0.188-0.656v-0.188h-0.188c-0.99,0.23-1.703,0.344-2.141,0.344h-0.672v0.156
				c0.447,2.219,0.672,3.496,0.672,3.828c-0.104,0.219-0.156,0.391-0.156,0.516h-0.516c-1.125,0-1.901-1.391-2.328-4.172
				c0-0.813-0.109-1.479-0.328-2c0.104-0.207,0.156-0.369,0.156-0.484c0.427,0,1.099,0.215,2.016,0.641
				C42.025,18.262,43.739,17.766,45.219,17.766z M40.891,4.953h0.188c1.479,0,2.416,0.443,2.813,1.328v0.172
				c0,0.168-0.172,0.34-0.516,0.516h-0.313C41.614,6.793,40.891,6.121,40.891,4.953z M56.188,0.125c0.114,0,0.172,0.059,0.172,0.172
				l0.828-0.172h0.516c0.885,0.512,1.328,1.516,1.328,3.016l1.172,0.156v0.5h-0.359l0.188,0.344v0.172
				c-0.709,0.209-1.151,0.313-1.328,0.313v1.656l1.141-0.156h0.359v1l-1.672,0.984c-0.115,0.199-0.229,0.703-0.344,1.516
				c0.822-0.166,1.932-0.613,3.328-1.344l0.844,0.172v0.656c0,0.574-1.391,1.246-4.172,2.016c0,0.99-0.276,1.484-0.828,1.484v0.172
				h0.172c0.947-0.219,1.557-0.328,1.828-0.328c1.072,0,1.791,0.828,2.156,2.484h-0.156l0.156,0.344v4.969l-0.156,0.359
				c0.114,0,0.281,0.053,0.5,0.156c0.989-0.104,1.599-0.156,1.828-0.156c0.781,0.053,1.172,0.381,1.172,0.984
				c-0.115,0-0.448,0.225-1,0.672c-0.104,0-0.553-0.057-1.344-0.172c-0.604,0.115-1.042,0.172-1.313,0.172
				c0,0.105,0.052,0.156,0.156,0.156l-0.156,0.844v0.156c0,0.105,0.052,0.156,0.156,0.156l-0.156,0.344v1.5
				c-0.24,3.438-0.631,5.156-1.172,5.156l-0.344-0.172c-0.209,0.115-0.37,0.172-0.484,0.172c-1.354-1.76-2.359-2.922-3.016-3.484
				V26.75h0.359c0.427,0,1.255,0.443,2.484,1.328l0.172-0.328c0.104-2.041,0.156-3.76,0.156-5.156c-1.115,0-3.219,0.443-6.313,1.328
				v0.656c0,0.406-0.058,0.906-0.172,1.5c0.114,0.199,0.172,0.422,0.172,0.672l-0.828,0.656h-0.172v-0.313
				c-0.219,0.021-0.328,0.125-0.328,0.313c-0.303,0-0.584-0.275-0.844-0.828c0.114-0.938,0.172-1.656,0.172-2.156
				c-0.615,0.219-1.558,0.328-2.828,0.328c0-0.219-0.334-0.379-1-0.484v-1l0.828-0.172c0.114,0,0.286,0.059,0.516,0.172
				c1.771-0.26,2.656-0.541,2.656-0.844c0.104-0.551,0.271-2.707,0.5-6.469c-0.146,0-0.428-0.338-0.844-1.016
				c0.406,0,1.682-0.385,3.828-1.156c-0.115-0.604-0.172-1.047-0.172-1.328l-5.969,1.656c-0.781-0.113-1.172-0.281-1.172-0.5v-0.5
				c0.146-0.25,1.307-0.641,3.484-1.172c0-0.135,0.391-0.297,1.172-0.484v-1.328l-1.5,0.156l-1.156-0.328V9.625
				c0-0.447,0.885-0.838,2.656-1.172V6.625l-2,0.172c-0.271-0.229-0.49-0.344-0.656-0.344v-0.5c0-0.135,0.885-0.52,2.656-1.156
				c0-0.447-0.109-1.113-0.328-2c0.354-0.219,0.682-0.328,0.984-0.328h0.344c0.219,0,0.604,0.615,1.156,1.844
				c1.322-0.344,2.104-0.625,2.344-0.844l-0.188-0.328V1.297c-0.438,0-0.656-0.166-0.656-0.5V0.641
				C56.025,0.641,56.188,0.469,56.188,0.125z M53.375,19.438v0.172c0,0.105,0.052,0.156,0.156,0.156
				c-0.209,0.428-0.313,1.037-0.313,1.828v0.5c0.197,0,0.854-0.109,1.969-0.328l-0.156-1.156v-1.172l-0.156-0.344L53.375,19.438z
				 M53.375,15.594c0.104,0.949,0.156,1.73,0.156,2.344c1-0.207,1.5-0.432,1.5-0.672l-0.156-1l0.156-0.313
				c-0.104-0.188-0.156-0.469-0.156-0.844C53.875,15.193,53.375,15.355,53.375,15.594z M54.203,6.125v1.672
				c1.322-0.385,1.984-0.66,1.984-0.828c0-0.145,0.057-0.703,0.172-1.672C55.578,5.297,54.859,5.574,54.203,6.125z M54.203,9.281
				v1.344h0.5l1.172-0.344v-0.5l0.156-0.828c-0.104,0-0.156-0.051-0.156-0.156C55.313,9.121,54.755,9.281,54.203,9.281z
				 M57.359,18.938v0.313c0,0.262,0.057,0.484,0.172,0.672c-0.115,0.199-0.172,0.428-0.172,0.688v0.813
				c1.447,0,2.172-0.391,2.172-1.172v-2.313C58.083,18.303,57.359,18.637,57.359,18.938z M57.531,14.109v2.844h0.172
				c1.322-0.156,1.984-0.438,1.984-0.844v-2.328h-0.656C58.75,13.781,58.25,13.891,57.531,14.109z"/>
			<path fill="#2D8A3A" d="M74.578,2.5c1.104,1.293,1.656,2.771,1.656,4.438l0.375,0.172c0.781-0.238,1.271-0.359,1.469-0.359
				c0,0.156,0.307,0.465,0.922,0.922c1.906-0.572,5.047-2.051,9.422-4.438c0.114,0,0.609-0.119,1.484-0.359
				c0,0.365,0.369,0.672,1.109,0.922l0.188,1.094v0.203C91.15,5.396,89.916,5.949,87.5,6.75v0.359
				c0.989,0.594,1.484,1.828,1.484,3.703v0.547c-0.49,0.063-0.734,0.25-0.734,0.563h0.172c1.563-1.395,2.609-2.875,3.141-4.438
				l0.563-0.375c1.229,0.48,1.844,1.281,1.844,2.406c-0.49,1.23-1.906,2.402-4.25,3.516h-0.359v1.094l0.188,0.391
				c1.104-0.125,2.208-0.375,3.313-0.75v0.188c1.271-0.613,2.072-0.922,2.406-0.922c1.239,0.563,1.859,1.115,1.859,1.656
				c-0.5,0.563-2.969,1.365-7.406,2.406c0,0.25-0.12,0.375-0.359,0.375c0,1.188,3.391,2.975,10.172,5.359V23
				c-0.375,0-0.563,0.131-0.563,0.391h0.359v0.172c0,0.25-0.365,0.496-1.094,0.734v-0.188l-0.391,0.188l-2.578-0.359l-0.375,0.172
				c-1.938-0.291-3.6-1.15-4.984-2.578h-0.359c0,4.678-0.25,7.016-0.75,7.016c-1.428,0-2.475-1.479-3.141-4.438l0.375-0.172h0.172
				c0.26,0.865,0.51,1.297,0.75,1.297c0.125-2.041,0.188-3.588,0.188-4.641h-0.188c-0.688,0.324-1.797,1.313-3.328,2.969
				c-1.021,0.49-1.761,0.734-2.219,0.734c-0.479-0.363-0.85-0.547-1.109-0.547v-0.359c1.906-1.457,3.63-3.188,5.172-5.188h-0.172
				c-1.365,0.49-2.292,0.734-2.781,0.734h-1.109c-0.667,0-1.156-0.307-1.469-0.922v-1.094c0-0.385,1.786-0.885,5.359-1.5
				c0-0.113,0.614-0.297,1.844-0.547v-1.844c0-0.447,0.244-0.941,0.734-1.484c-0.979-1.426-1.469-2.41-1.469-2.953V8.406
				c0-0.531,0.119-1.02,0.359-1.469h-0.172L83.25,8.047v0.359c0.697,0,1.38,1.605,2.047,4.813c-0.25,0.125-0.438,0.188-0.563,0.188
				c-1.854-0.822-2.781-2.238-2.781-4.25c0.125-0.25,0.188-0.438,0.188-0.563c-1.104,0.074-1.656,0.199-1.656,0.375
				c-0.74-0.094-1.109-0.281-1.109-0.563c-2.094,1.23-3.141,1.969-3.141,2.219c-0.125,1.262-0.188,2.246-0.188,2.953l0.375,0.188
				c1.01-0.238,2.114-0.672,3.313-1.297c0,0.5,0.313,0.75,0.938,0.75v0.547c-2.011,1.844-3.428,2.766-4.25,2.766
				c-0.5,0-0.813,3.271-0.938,9.813c0,1.469-0.609,2.203-1.828,2.203c-1.573-1.385-2.99-3.172-4.25-5.359V23
				c0.031-0.238,0.15-0.359,0.359-0.359c0.572,0,1.494,0.553,2.766,1.656c0.375,0,0.625-1.969,0.75-5.906h-0.188
				c-0.146,0-0.823,0.125-2.031,0.375c-1.365-0.125-2.047-0.619-2.047-1.484c0-0.781,1.422-1.52,4.266-2.219l0.188-0.938v-1.828
				l-0.188-0.938c-1.979,0.25-2.969,0.438-2.969,0.563c-1.104-0.416-1.656-1.035-1.656-1.859V9.891c0-0.197,1.172-0.504,3.516-0.922
				c0.864-0.5,1.297-0.807,1.297-0.922V6.188C73.739,3.73,74.109,2.5,74.578,2.5z"/>
			<path fill="#2D8A3A" d="M118.281,3.688c0.864,0,1.297,0.375,1.297,1.125c0,0.459-1.297,1.012-3.891,1.656
				c-1.563,0.824-4.641,1.684-9.234,2.578c-1.604-0.488-2.776-0.734-3.516-0.734V8.125c0-0.281,1.906-0.775,5.719-1.484
				C114.104,4.672,117.313,3.688,118.281,3.688z M115.875,9.234c0.364,0.615,0.547,1.109,0.547,1.484
				c0,0.594-2.771,1.334-8.313,2.219c-0.792-0.26-1.344-0.391-1.656-0.391h-0.75v-0.172
				C106.744,11.584,110.135,10.537,115.875,9.234z M114.953,12.547c0.489,0.438,0.734,1,0.734,1.688
				c-1.323,0.781-3.6,1.578-6.828,2.391c-1.156-0.613-2.021-0.984-2.594-1.109v-0.375C107.203,15.141,110.099,14.277,114.953,12.547
				z M114.953,16.625h0.359c1.021,0,1.76,0.984,2.219,2.953c-0.563,1.188-1.115,2.172-1.656,2.953l0.188,1.297
				c-1.198,1.406-2.245,2.209-3.141,2.406c-0.334,0-0.953-0.551-1.859-1.656v-0.375c0-0.488,0.739-1.656,2.219-3.5l0.188-0.938
				h-0.359c-0.146,0-0.828,0.125-2.047,0.375h-0.172l-0.938-0.188c0,0.24-0.063,0.359-0.188,0.359
				c0.375,1.324,0.688,2.865,0.938,4.625l-0.547,0.375h-0.391c-1.511,0-2.433-2.338-2.766-7.016
				c-0.125-0.25-0.188-0.438-0.188-0.563l0.375-0.188c0.416,0,1.094,0.309,2.031,0.922C111.688,17.24,113.599,16.625,114.953,16.625
				z M110.328,1.656c2.219,0.23,3.328,0.85,3.328,1.859v0.172c0,0.25-0.125,0.375-0.375,0.375h-0.922
				c-0.948,0-1.683-0.738-2.203-2.219C110.271,1.844,110.328,1.781,110.328,1.656z M131.578,6.281
				c1.604,0.49,2.406,0.922,2.406,1.297c-0.428,0.125-0.672,0.188-0.734,0.188l0.359,0.547c-0.344,0.375-1.511,0.684-3.5,0.922
				v0.188c0.364,0.449,0.547,0.881,0.547,1.297c0,0.344-0.615,1.943-1.844,4.797H129c2.833,0.553,4.25,1.418,4.25,2.594
				c0.375,0.125,0.563,0.496,0.563,1.109c-2.594,5.012-4.631,8.334-6.109,9.969c-1.094,0.865-2.266,1.297-3.516,1.297
				c-0.292-0.396-0.787-1.381-1.484-2.953l0.188-0.359c-0.49-2.104-0.734-3.588-0.734-4.453h-0.172l-2.234,0.75h-0.359v-0.563
				l-0.922,0.188h-0.188c3.041-2.729,5.01-5.072,5.906-7.031c-0.125-0.229-0.188-0.41-0.188-0.547c1.01,0,2.182-1.848,3.516-5.547
				h-0.172c-1.125,0.375-3.281,0.684-6.469,0.922c-1.365-0.416-2.047-1.088-2.047-2.016l0.188-0.391l0.922,0.188
				c3.313-0.77,5.099-1.26,5.359-1.469c0.125,0,0.188,0.059,0.188,0.172C128.442,6.646,130.474,6.281,131.578,6.281z
				 M122.703,22.719l-0.359-0.188c0.188,0.5,0.369,0.75,0.547,0.75c0-0.125,0.063-0.188,0.188-0.188
				c0,0.375,0.619,1.734,1.859,4.078h0.359c2.75-4.113,4.416-7.135,5-9.063l-2.594-0.563c0,0.125-0.063,0.188-0.188,0.188v-0.188
				c-0.344,0-1.948,1.605-4.813,4.813V22.719z M122.891,0.547h0.188c3.572,0.938,5.359,2.23,5.359,3.875
				c-0.178,0.99-0.609,1.484-1.297,1.484c-0.125-0.385-0.74-0.816-1.844-1.297c-1.354-1.197-2.031-1.875-2.031-2.031
				c0-0.979-0.188-1.469-0.563-1.469C122.828,0.859,122.891,0.672,122.891,0.547z"/>
		</g>
	</g>
</g>
<g id="footer">
</g>
<g id="header">
</g>
</svg>
