<?xml version="1.0" encoding="utf-8"?>
<!-- Generator: Adobe Illustrator 16.0.0, SVG Export Plug-In . SVG Version: 6.00 Build 0)  -->
<!DOCTYPE svg PUBLIC "-//W3C//DTD SVG 1.1//EN" "http://www.w3.org/Graphics/SVG/1.1/DTD/svg11.dtd">
<svg version="1.1" xmlns="http://www.w3.org/2000/svg" xmlns:xlink="http://www.w3.org/1999/xlink" x="0px" y="0px"
	 width="242.188px" height="54.918px" viewBox="0 0 242.188 54.918" enable-background="new 0 0 242.188 54.918"
	 xml:space="preserve">
<g id="bg">
</g>
<g id="圖層_1">
	<g>
		<g>
			<g>
				<path fill="#993333" d="M62.5,0c1.594,0,3.078,0.797,4.453,2.391L66.391,3.5c0.239,0.125,0.427,0.188,0.563,0.188
					c0,1.198-1.422,3.354-4.266,6.469l0.375,0.188h1.297c0.25,0,0.375-0.182,0.375-0.547h0.359v0.547h0.188
					c0-0.542,0.619-1.099,1.859-1.672c0.739-1.396,1.109-2.255,1.109-2.578l-0.938-0.188c0.041-0.239,0.166-0.359,0.375-0.359
					c0.239,0.115,0.427,0.172,0.563,0.172c0.229-0.114,0.411-0.172,0.547-0.172c0,0.146,0.677,0.391,2.031,0.734
					c0-0.125,0.063-0.188,0.188-0.188v0.359C73.817,4.276,75.604,2.125,76.375,0h0.188l0.547,0.375
					c0.208-0.125,0.453-0.188,0.734-0.188c0.625,0.49,0.938,1.287,0.938,2.391l-2.969,2.969v0.172H76
					c0.125,0,0.188-0.057,0.188-0.172c2.739,0.813,4.156,1.427,4.25,1.844V7.75c-0.24,0.5-0.428,0.75-0.563,0.75
					c-2.636,0-4.234-0.739-4.797-2.219l-1.656,1.109c0.489,0.896,0.734,1.88,0.734,2.953c1.989-0.313,3.219-0.682,3.688-1.109
					c2.094,0.542,3.141,0.974,3.141,1.297v0.375c0,0.167-0.49,0.406-1.469,0.719l-0.188,0.75l0.188,1.109h0.359
					c0.135,0,0.203-0.057,0.203-0.172c1.469,0.302,2.203,0.604,2.203,0.906c0,0.563-0.615,0.995-1.844,1.297v0.375
					c0,0.323,0.984,0.755,2.953,1.297v0.188c0,1.021-0.495,1.755-1.484,2.203c-1.604,0.542-2.526,0.974-2.766,1.297
					c-0.125,1.521-0.188,2.323-0.188,2.406h0.188c0.51,0,1.005,0.058,1.484,0.172l1.109-0.172c0.979,0.083,1.469,0.271,1.469,0.563
					v0.547c0,0.302-1.109,0.734-3.328,1.297c0,0.115-0.063,0.172-0.188,0.172v-0.172c-0.834,0.375-1.506,0.563-2.016,0.563
					c-1.49,0-2.234-0.563-2.234-1.688v-0.359c0-0.239,0.494-0.422,1.484-0.547v-2.047c-0.792,0.25-1.287,0.375-1.484,0.375
					c-0.823,0-1.313-0.614-1.469-1.844c0.125-0.375,0.244-0.563,0.359-0.563l-0.172-0.359c0.239-0.489,0.609-0.734,1.109-0.734
					v0.172l-0.188,0.375c0.125,0,0.188,0.063,0.188,0.188c0.833-0.375,1.322-0.563,1.469-0.563v-1.469l-0.172-0.375
					c-0.865,0.375-1.479,0.563-1.844,0.563c-0.375,0-0.563-0.188-0.563-0.563h-0.188c-0.24,2.094-0.359,4.438-0.359,7.031
					l-0.188,0.359l0.188,0.359l-0.188,0.75c0,0.125,0.063,0.188,0.188,0.188l-0.188,0.922v4.25c0,0.438,0.063,0.989,0.188,1.656
					l-0.563,0.75c-1.479-0.261-2.219-0.943-2.219-2.047l0.188-0.359c-0.125-0.219-0.188-0.469-0.188-0.75
					c0.125-0.229,0.188-0.412,0.188-0.547h-0.188l0.188-0.359l-0.375-0.75h0.375v-0.359l-0.188-0.938h0.188
					c0-0.114-0.063-0.172-0.188-0.172c0.25-1.802,0.494-4.641,0.734-8.516h-0.188l0.188-0.359v-2.594
					c-3.917,1.479-6.011,2.344-6.281,2.594c0,0.125-0.063,0.313-0.188,0.563l0.359,2.953h0.203c0.125,0,0.188-0.063,0.188-0.188
					c0.114,0,0.172,0.063,0.172,0.188l1.297-0.188c0.271,0,0.516,0.063,0.734,0.188c0.416-0.25,0.786-0.375,1.109-0.375h0.375
					c0,0.323,0.369,0.63,1.109,0.922l0.188,0.375c-0.209,0.552-0.641,1.047-1.297,1.484h-0.375c-0.761,0-1.745-0.745-2.953-2.234
					h-0.75v4.25l0.203,1.109c-0.219,0.625-0.526,0.938-0.922,0.938c-1.146,0-2.193-1.114-3.141-3.344l0.188-1.109l-0.75-1.281h0.188
					c0.156,0,0.713,0.74,1.672,2.219v-2.031c0-0.51-0.068-1.188-0.203-2.031c0.135-0.239,0.203-0.422,0.203-0.547
					c-0.136-0.5-0.203-0.932-0.203-1.297c-2.021,0.49-3.678,0.734-4.969,0.734l-0.75-1.297c0-0.364,1.974-0.917,5.922-1.656v-0.188
					c0-0.135-0.068-0.323-0.203-0.563c0.375-1.646,0.563-2.63,0.563-2.953c-0.156,0-0.834-0.245-2.031-0.734
					c-1.813,1.969-3.167,2.953-4.063,2.953h-0.375c-0.198,0-0.448-0.25-0.75-0.75l0.188-0.359c-0.24,0-0.359-0.12-0.359-0.359
					c0-0.125,0.057-0.188,0.172-0.188l-0.172-0.375v-0.375h0.172l0.391,0.188c1.677-1.146,3.703-3.239,6.078-6.281h-0.172
					c-3.167,0.74-4.891,1.109-5.172,1.109c-0.865,0-1.297-0.614-1.297-1.844c-0.125,0-0.188-0.13-0.188-0.391
					c0.239-0.239,0.609-0.359,1.109-0.359v0.188h0.375c0.781,0,3.057-0.495,6.828-1.484l-0.188-0.922H62.5V2.391l0.188-0.359
					c-0.219,0-0.464-0.552-0.734-1.656C62.317,0.25,62.5,0.125,62.5,0z M59.922,19.781l0.188,0.359
					c-0.25,0.042-0.375,0.162-0.375,0.359c0.333,0,0.646,0.313,0.938,0.938c-0.75,2.094-1.125,3.266-1.125,3.516
					c-0.406,0-0.714,0.058-0.922,0.172c-0.646-0.719-1.078-1.458-1.297-2.219C57.328,21.333,58.192,20.292,59.922,19.781z
					 M64.734,13.313v0.172c0.239,0.479,0.359,1.156,0.359,2.031h0.188c0.177,0,1.166-0.364,2.969-1.094v-0.203h-0.391v0.203
					C66.567,13.683,65.525,13.313,64.734,13.313z M65.656,12.922v0.203l2.594,0.547h0.906c0.281,0,0.531-0.063,0.75-0.188
					c0.958,0.156,1.572,0.339,1.844,0.547v-0.547c0-0.219-0.678-0.838-2.031-1.859c-0.428-0.729-0.734-1.094-0.922-1.094
					c-1.365,0.281-2.047,0.896-2.047,1.844C66.281,12.74,65.916,12.922,65.656,12.922z M69.156,10.156
					c0.313,0,1.234,0.188,2.766,0.563V8.672C70.578,8.672,69.656,9.167,69.156,10.156z M72.859,18.656
					c0,0.25-0.063,0.375-0.188,0.375c0,0.125,0.063,0.188,0.188,0.188c-0.25,1.594-0.375,3.563-0.375,5.906v0.922h0.188v-0.922
					l0.375,0.188v-0.188l-0.375-0.563l0.375-0.547h-0.188l0.359-0.734l-0.359-1.297c0.208,0,0.396-0.37,0.563-1.109l-0.375,0.188
					h-0.188v-0.734l0.188-0.375h-0.188l0.188-0.375v-0.922H72.859z M74.156,12.375l-0.188,1.297h0.188l-0.188,0.359v0.391
					c0.135,0,0.317,0.058,0.547,0.172l2.219-0.563V12.75l-0.359,0.172c-0.136,0-0.323-0.057-0.563-0.172l-1.094,0.172
					c-0.261,0-0.391-0.182-0.391-0.547H74.156z M79.328,15.703v2.219h0.188c0.572,0,1-0.182,1.281-0.547
					c-0.615-1.114-0.922-1.734-0.922-1.859C79.635,15.641,79.453,15.703,79.328,15.703z"/>
				<path fill="#993333" d="M99.453,10.609H100v0.266c0,1.021-0.678,1.656-2.031,1.906c0,0.177-0.183,0.266-0.547,0.266
					c-0.178-0.083-0.318-0.125-0.422-0.125c0,0.219-0.906,0.49-2.719,0.813l-1.891,0.672c-0.167-0.094-0.303-0.141-0.406-0.141
					c-0.334,0.167-0.787,0.302-1.359,0.406l-0.266-0.125c-0.771,0.177-1.271,0.266-1.5,0.266c-0.396-0.156-0.756-0.474-1.078-0.953
					c0.031-0.177,0.119-0.266,0.266-0.266h0.281l0.266,0.141c0-0.396,0.588-0.667,1.766-0.813c0.635-0.094,1.766-0.411,3.391-0.953
					c1.739-0.448,2.916-0.672,3.531-0.672C97.521,10.839,98.244,10.609,99.453,10.609z M98.906,13.453
					c0.364,0,0.682,0.229,0.953,0.688v0.266c-0.125,0.386-0.531,0.703-1.219,0.953c-0.99,0.365-1.49,0.636-1.5,0.813H97
					l-0.672-0.141c-0.511,0.469-1.234,0.875-2.172,1.219c-0.178-0.083-0.313-0.125-0.406-0.125
					c-0.615,0.542-1.428,0.813-2.438,0.813c-0.303-0.073-0.573-0.344-0.813-0.813c0-0.479,1.083-0.979,3.25-1.5
					C93.75,15.333,95.469,14.609,98.906,13.453z M99.047,15.766h0.406c0.125,0,0.349,0.224,0.672,0.672v0.281
					c0,0.427-0.995,1.011-2.984,1.75c0,0.438-0.859,0.938-2.578,1.5c-1.219,0.625-2.35,0.938-3.391,0.938L90.5,20.234v-0.547
					c0-0.26,0.719-0.438,2.156-0.531l-0.125-0.281c0.771-0.542,1.536-0.813,2.297-0.813c0-0.344,0.635-0.75,1.906-1.219
					c0.688-0.417,1.369-0.688,2.047-0.813C98.802,15.854,98.891,15.766,99.047,15.766z M100,20.094c1.125,0,1.755,0.823,1.891,2.469
					v0.125c-1.178,1.448-1.766,2.219-1.766,2.313c-0.542,0-0.854,0.63-0.938,1.891c-0.709,0.427-1.979,0.927-3.813,1.5h-0.547
					l-0.672-0.688l-0.688,0.406c-1.125,0-1.979-1.76-2.563-5.281l0.406-0.266h0.672l0.672,0.406
					c2.791-1.823,5.104-2.734,6.938-2.734C99.594,20.141,99.729,20.094,100,20.094z M93.875,8.172
					c2.729,0.156,4.094,0.563,4.094,1.219l0.125,0.547c-0.479,0.448-0.844,0.672-1.094,0.672c-1.594-0.125-2.906-0.62-3.938-1.484
					V8.578C93.156,8.308,93.427,8.172,93.875,8.172z M94.016,25c0,0.125,0.088,0.531,0.266,1.219h0.281
					c0.458-0.438,0.817-0.708,1.078-0.813c0.75-0.813,1.25-1.219,1.5-1.219L97,23.906c0.188-0.354,0.463-0.531,0.828-0.531v-0.141
					h-0.266C95.844,23.891,94.661,24.479,94.016,25z M108,2.328c0.822,0.583,1.364,1.219,1.625,1.906
					c-0.094,0.177-0.141,0.313-0.141,0.406c0.447,0.771,0.672,1.224,0.672,1.359l-0.125,0.813c0.114,1.146,0.203,1.781,0.266,1.906
					c0.479-0.458,1.203-0.729,2.172-0.813c0.813-0.542,1.219-0.906,1.219-1.094h0.406c1.313,0.313,2.266,0.813,2.859,1.5
					c-0.281,0.542-0.553,0.813-0.813,0.813c-1.053,0.625-1.646,0.938-1.781,0.938c-0.167-0.083-0.303-0.125-0.406-0.125
					c-0.261,0.302-0.891,0.615-1.891,0.938c0,0.136-0.542,0.318-1.625,0.547c-0.188,0.365-0.417,0.547-0.688,0.547l0.281,0.953
					c-0.188,0.031-0.281,0.12-0.281,0.266h0.281c0.229,0,1.313-0.271,3.25-0.813v-0.141h0.813c0.719,0.365,1.078,0.906,1.078,1.625
					c-1.229,0.875-2.354,1.375-3.375,1.5c0,0.115-0.276,0.25-0.828,0.406c-0.167-0.094-0.303-0.141-0.406-0.141l-0.125,0.266
					l-0.281-0.125c-0.834,0.354-1.959,0.672-3.375,0.953c-0.156-0.094-0.386-0.141-0.688-0.141c0,0.136-0.183,0.271-0.547,0.406
					l-0.266-0.141c-0.178,0.094-0.313,0.141-0.406,0.141c-0.719-0.177-1.078-0.719-1.078-1.625c0.166-0.489,0.844-0.854,2.031-1.094
					c0.719-0.177,1.078-0.489,1.078-0.938c0-0.094-0.042-0.141-0.125-0.141l0.125-0.672c0-0.188-0.089-0.281-0.266-0.281
					c-1.136,0.094-1.813,0.229-2.031,0.406c-1.084-0.25-2.078-0.792-2.984-1.625l0.266-0.406l0.688,0.141
					c0.354,0,1.208-0.182,2.563-0.547l0.688,0.141c0.313-0.542,0.766-0.813,1.359-0.813c-0.094-0.188-0.141-0.323-0.141-0.406
					l0.141-0.281c-0.094-0.177-0.141-0.313-0.141-0.406l0.141-0.813L106.906,7.5c0-0.177,0.094-0.542,0.281-1.094l-0.281-0.125
					c0.063-0.635,0.156-0.953,0.281-0.953l-0.141-0.281l0.141-0.531l-0.141-0.688l0.141-0.531c-0.094-0.156-0.141-0.391-0.141-0.703
					C107.411,2.417,107.729,2.328,108,2.328z M102.984,19.688c0.989,0,1.666,0.823,2.031,2.469v0.125
					c0,0.323-0.047,0.729-0.141,1.219c0.094,0.136,0.141,0.406,0.141,0.813c-0.229,0-0.365,0.183-0.406,0.547l0.125,0.813
					l-0.125,0.813c0.083,0.177,0.125,0.313,0.125,0.406c-0.178,0.031-0.266,0.125-0.266,0.281c0.094,0,0.141,0.042,0.141,0.125
					l-0.953,0.406v0.281h-0.813c-0.136,0-0.406-0.271-0.813-0.813v-0.141c0-0.094,0.047-0.141,0.141-0.141
					c0-0.094-0.047-0.141-0.141-0.141c0-0.219,0.088-0.849,0.266-1.891l-0.125-0.266c0.177-0.271,0.313-0.771,0.406-1.5
					c0-0.083-0.047-0.125-0.141-0.125C102.614,21.458,102.797,20.365,102.984,19.688z M106.094,18.203
					c0.635,0.886,0.953,1.38,0.953,1.484v0.141l-0.266,0.406c0.177,0,0.266,0.136,0.266,0.406c-0.094,0.177-0.141,0.313-0.141,0.406
					c0.271,0.094,0.406,0.365,0.406,0.813v0.156l-0.266,0.406l0.266,0.406l-0.125,0.266c0.083,0.156,0.125,0.339,0.125,0.547
					l-0.125,0.266c0.177,0,0.266,0.136,0.266,0.406l-0.266,0.547L107.453,25l-0.141,0.672c0.458,1.177,1.364,1.766,2.719,1.766
					l0.672-0.141h2.438c0.135,0,0.406-0.271,0.813-0.813c-0.136-1.469-0.359-2.328-0.672-2.578v-0.125h0.266
					c0.094,0,0.141,0.042,0.141,0.125c0.302-0.177,0.572-0.266,0.813-0.266c1.271,1.344,1.906,2.427,1.906,3.25
					c-0.178,0.094-0.318,0.141-0.422,0.141l0.297,0.406c-0.303,0.177-0.537,0.266-0.703,0.266l0.141,0.281v0.125l-1.484,0.813
					c0,0.188-0.094,0.281-0.281,0.281c-0.313-0.094-0.49-0.141-0.531-0.141l-1.219,0.266c-0.271-0.083-0.406-0.172-0.406-0.266
					l-0.281,0.141l-0.813-0.141l0.141,0.266c-0.094,0-0.141,0.047-0.141,0.141c-0.948-0.125-1.625-0.308-2.031-0.547l-0.266,0.141
					c-2.178-0.75-3.266-2.151-3.266-4.203l0.141-0.266c-0.094-0.167-0.141-0.349-0.141-0.547l0.281-0.141l-0.141-0.266
					c0-0.156,0.088-0.427,0.266-0.813l-0.125-0.266l0.125-0.281l-0.125-0.266c0.177-0.594,0.266-1.005,0.266-1.234
					c-0.094-0.177-0.141-0.313-0.141-0.406l0.281-0.141c-0.094-0.167-0.141-0.302-0.141-0.406c0.094-0.167,0.141-0.302,0.141-0.406
					c-0.094,0-0.141-0.047-0.141-0.141c0.177,0,0.266-0.088,0.266-0.266l-0.266-0.406C105.688,18.474,105.822,18.339,106.094,18.203
					z M109.891,18.609c1.072,0,1.708,0.677,1.906,2.031c0.052,0,0.188,0.271,0.406,0.813v0.141l-0.141,0.266
					c0.177,0.031,0.266,0.13,0.266,0.297v0.813l-0.266,0.406c0.177,0.021,0.266,0.109,0.266,0.266v0.141
					c0,0.115-0.225,0.339-0.672,0.672l0.141,0.266v0.141h-0.406l-0.281-0.141c-0.104,0.458-0.24,0.688-0.406,0.688
					c-0.719-0.406-1.078-1.219-1.078-2.438h0.125l-0.125-0.281c0.083-0.177,0.125-0.313,0.125-0.406
					c0-0.083-0.042-0.125-0.125-0.125c0-0.104,0.041-0.245,0.125-0.422c-0.084-0.896-0.125-1.578-0.125-2.047h0.125l-0.125-0.266
					v-0.406L109.891,18.609z M113.828,18.469c1.031,0,2.572,1.13,4.625,3.391c0.135,0,0.359,0.323,0.672,0.969
					c0,0.594-0.631,1.089-1.891,1.484c-0.813-1.135-1.948-2.542-3.406-4.219v-0.406c0.083,0,0.125-0.042,0.125-0.125
					c-0.136,0-0.313-0.182-0.531-0.547v-0.141C113.422,18.75,113.557,18.615,113.828,18.469z"/>
				<path fill="#993333" d="M139.016,2.406c2.51,0,4.057,0.734,4.641,2.203h0.547V5c-0.542,0-0.975,0.24-1.297,0.719l-1.844,0.188
					v0.563l0.188,0.922c0.771-0.188,2.063-0.682,3.875-1.484c0-0.604-0.25-0.906-0.75-0.906V4.609h0.188
					c0.385,0.011,1.005,0.261,1.859,0.75l0.359-0.188h0.375c0,0.208,0.307,0.521,0.922,0.938c0,0.771-1.604,1.625-4.813,2.563
					c-0.084,0.261-0.698,0.573-1.844,0.938c0,0.156,0.927,0.589,2.781,1.297c4.219,2.823,6.375,4.234,6.469,4.234
					c0,0.261,0.057,0.391,0.172,0.391c0,0.698-0.615,1.188-1.844,1.469c-2.053-0.875-3.531-1.859-4.438-2.953
					c-0.594,0-1.391-0.927-2.391-2.781c-0.198,0-0.448-0.12-0.75-0.359h-0.359c0,0.375-0.063,0.563-0.188,0.563
					c0.125,0.229,0.188,0.412,0.188,0.547l-0.188,2.578l0.188,0.375c-0.125,0.208-0.188,0.453-0.188,0.734v0.375h1.094
					c0.854,0,1.474,0.552,1.859,1.656v0.203c0,0.531-0.922,1.636-2.766,3.313h0.188c2.635-0.739,5.281-1.109,7.938-1.109
					c0.489,0.25,0.734,0.62,0.734,1.109c-0.803,0.438-3.266,1.115-7.391,2.031c0,0.125-0.058,0.188-0.172,0.188
					c0.114,0.219,0.234,0.771,0.359,1.656c0,3.573-0.678,5.359-2.031,5.359c-0.678,0.125-1.172,0.188-1.484,0.188
					c-1.563-0.406-2.854-1.271-3.875-2.594h-0.375v-0.359h0.188c0.927,0.5,1.791,0.75,2.594,0.75c1.604,0,2.406-0.5,2.406-1.5
					l0.359-1.094l-0.188-1.109v-0.375c-0.271,0-2.365,0.677-6.281,2.031c-0.781,0-1.396-0.677-1.844-2.031
					c-0.5-0.177-0.75-0.359-0.75-0.547c0.041-0.25,0.172-0.375,0.391-0.375c0.114,0,0.172,0.063,0.172,0.188l0.375-0.188
					l0.359,0.188c4.041-1.239,6.197-1.859,6.469-1.859l-0.188-0.359v-1.109c0.375,0,0.563-0.125,0.563-0.375
					c-0.24-0.125-0.428-0.188-0.563-0.188c0-0.104,0.25-0.474,0.75-1.109c-0.834,0.25-2.068,0.5-3.703,0.75l-0.734-1.469
					l-5.547,3.672c-1.479,0.625-2.526,0.938-3.141,0.938c-0.396-0.25-0.703-0.375-0.922-0.375v-0.375
					c0.906-0.333,1.891-0.885,2.953-1.656l0.375,0.188v-0.188c-0.125,0-0.188-0.063-0.188-0.188
					c3.635-2.729,6.531-5.688,8.688-8.875v-0.172c-5.678,1.719-9.006,2.578-9.984,2.578c-0.271-0.614-0.766-0.922-1.484-0.922
					v-0.188c2.697-1.104,4.984-1.969,6.859-2.594c3.688-0.646,5.531-1.255,5.531-1.828l0.547-0.563
					c-0.115-0.239-0.172-0.427-0.172-0.563l-5,2.406c-0.604-0.052-0.906-0.239-0.906-0.563h-0.203l-0.547,0.391H132l4.625-3.891
					c0-0.208,0.489-0.698,1.469-1.469V3.313c0-0.239-0.245-0.359-0.734-0.359V2.594h1.484
					C138.958,2.594,139.016,2.531,139.016,2.406z M137,16.438h0.547c0.531,0,1.021-0.12,1.469-0.359
					c-0.365-0.625-0.547-1.057-0.547-1.297h-0.172C138.141,14.781,137.708,15.333,137,16.438z"/>
				<path fill="#993333" d="M168.781,3.688c1.021,0.052,1.885,0.422,2.594,1.109c0,0.781-0.74,1.214-2.219,1.297
					c0.239,0,0.422,1.479,0.547,4.438h0.172c0.5-0.177,0.75-0.359,0.75-0.547c-0.125,0-0.188-0.063-0.188-0.188
					c0.188,0,1.052-0.063,2.594-0.188l0.359,0.188l0.375-0.188c0.739,0.281,1.109,0.526,1.109,0.734v0.359
					c-0.178,0-0.422,0.25-0.734,0.75l-4.625,2.219l-0.188,1.109v5.734c0,0.115-0.058,0.172-0.172,0.172
					c0,0.125,0.057,0.188,0.172,0.188c0,0.136-0.058,0.323-0.172,0.563l0.172,1.297c-0.115,0.646-0.172,1.011-0.172,1.094
					c0,0.136,0.057,0.323,0.172,0.563c-0.115,1.261-0.172,2.245-0.172,2.953V29c-0.5,0-0.75,0.188-0.75,0.563
					c-0.334,0-0.698-0.12-1.094-0.359v0.359c-0.656,0-1.156-1.787-1.5-5.359l0.75,0.547c0.125-1.438,0.188-2.479,0.188-3.125v-7.406
					l-2.781,0.938l-0.922-0.188c-0.792,0.24-1.344,0.359-1.656,0.359c-0.063-0.323-0.495-0.692-1.297-1.109
					c0-1.104,0.369-1.656,1.109-1.656c0.135,0,0.317,0.063,0.547,0.188c0.156,0,1.822-0.432,5-1.297V8.859l-0.188-1.828
					c0.125,0,0.188-0.067,0.188-0.203h-0.938c-0.115,0-0.172,0.068-0.172,0.203c-0.99-0.135-1.484-0.266-1.484-0.391l-0.359,0.188
					h-1.656c0-0.281-0.188-0.646-0.563-1.094V4.625c0-0.25,0.188-0.375,0.563-0.375c0.125,0,0.307,0.063,0.547,0.188
					C165.927,3.938,167.958,3.688,168.781,3.688z M175.25,11.094h1.094c1.604,0,2.406,1.412,2.406,4.234v0.375
					c0,0.865-0.428,1.297-1.281,1.297h-0.563c-0.646,0-1.073-1.542-1.281-4.625c-0.406-0.375-0.719-0.563-0.938-0.563v-0.172
					C174.688,11.464,174.875,11.281,175.25,11.094z M181.531,3.328c2.458,0,3.688,1.969,3.688,5.906c0,3.646-0.12,6.479-0.359,8.5
					c0,0.125,0.063,0.188,0.188,0.188c-0.125,1.052-0.188,1.854-0.188,2.406c0,1.49,0.063,4.323,0.188,8.5
					c-0.198,0.614-0.568,0.922-1.109,0.922c-1.313,0-3.225-1.292-5.734-3.875l0.375-0.188h1.281c0.375,0,1.119,0.183,2.234,0.547
					V11.094c0-4.281-0.495-6.563-1.484-6.844c-0.125-0.208-0.188-0.453-0.188-0.734C180.516,3.516,180.885,3.453,181.531,3.328z"/>
			</g>
		</g>
		<path fill="#98B3D0" d="M118.725,37.07c-1.769-0.438-3.67-0.259-5.27,0.4c-2.402,0.054-4.01,1.458-4.487,3.182
			c-3.601,0.291-7.192,0.683-10.768,1.188c-0.029,0.004-0.059,0.009-0.087,0.013c-0.372-0.525-0.945-0.945-1.743-1.141
			c-0.11-0.027-0.22-0.039-0.329-0.054c-1.016-0.445-2.17-0.689-3.17-0.063c-0.847,0.529-1.266,1.419-1.361,2.311
			c-3.506,0.606-6.998,1.27-10.487,1.945c-0.236-0.521-0.592-1-1.078-1.398c-1.548-1.268-3.817-1.284-5.75-0.728
			c-0.911,0.013-1.896,0.332-2.635,0.776c-1.423,0.855-2.435,2.167-2.628,3.604c-3.607,0.619-7.232,1.148-10.883,1.557
			c-0.003-0.006-0.003-0.012-0.006-0.018c-0.258-0.506-0.725-0.884-1.257-1.119c-1.016-0.714-2.525-0.831-3.605,0.074
			c-0.317,0.266-0.515,0.573-0.655,0.891c-0.268,0.202-0.499,0.439-0.662,0.719c-0.339,0.021-0.676,0.056-1.015,0.074
			c-3.839,0.206-7.69,0.248-11.538,0.143c-0.365-1.598-1.705-2.988-3.764-3.376c-1.92-0.362-3.63,0.39-4.608,1.62
			c-0.473,0.336-0.88,0.726-1.19,1.176c-2.164-0.207-4.322-0.461-6.469-0.77c-6.777-0.975-17.311-1.828-20.742-7.887
			c-0.784-1.383-3.163-0.17-2.382,1.209c2.681,4.733,8.732,6.437,14.248,7.57c4.86,0.999,9.797,1.738,14.766,2.223
			c0.115,0.937,0.592,1.848,1.353,2.51c2.412,2.1,6.633,1.326,8.231-1.171c0.149-0.233,0.264-0.474,0.361-0.717
			c4.289,0.119,8.521-0.015,12.721-0.315c0.552,1.085,1.863,1.78,3.343,1.573c0.738-0.103,1.404-0.417,1.91-0.856
			c0.359-0.195,0.613-0.506,0.702-0.911c0.058-0.115,0.1-0.232,0.139-0.353c3.821-0.419,7.622-0.958,11.417-1.574
			c1.999,3.76,9.502,2.555,11.43-0.714c0.26-0.44,0.434-0.917,0.525-1.407c2.059-0.387,4.121-0.78,6.189-1.172
			c1.495-0.283,2.992-0.542,4.49-0.794c0.221,0.725,0.821,1.188,1.582,1.403c0.906,0.507,2.023,0.685,3.184,0.306
			c0.371-0.121,0.705-0.291,1.007-0.491c0.893-0.51,1.493-1.387,1.519-2.316c3.257-0.434,6.52-0.8,9.791-1.074
			c0.18,0.507,0.451,1.002,0.847,1.458c2.365,2.728,8.431,3.296,11.155,0.619c0.793-0.78,1.25-1.734,1.404-2.712
			c3.764-0.04,7.537,0.041,11.318,0.248c0.038,0.083,0.085,0.163,0.131,0.243c-0.01,0.104-0.025,0.208-0.026,0.31
			c-0.013,1.782,1.198,3.121,3.204,3.501c1.775,0.336,4.183,0.31,5.484-0.934c0.664-0.633,1.049-1.409,1.207-2.229
			c2.529,0.317,5.05,0.689,7.563,1.101c0.006,0.56,0.153,1.126,0.479,1.654c1.549,2.493,6.004,3.465,8.68,1.8
			c0.701-0.437,1.172-0.989,1.453-1.594c4.665,0.838,9.332,1.646,14.028,2.257c0.331,0.73,0.928,1.376,1.691,1.812
			c0.803,0.666,2.301,0.987,3.384,0.636c0.907-0.293,1.604-0.919,2.054-1.68c0.007-0.008,0.015-0.016,0.021-0.024
			c1.452,0.109,2.906,0.202,4.367,0.25c2.883,0.096,5.752,0.052,8.605-0.11c0.543,0.494,1.51,0.409,2.031-0.054
			c0.006,0.028,0.009,0.057,0.016,0.084c0.938,4.433,7.008,3.89,9.707,1.088c0.852-0.883,1.258-1.775,1.323-2.625
			c10.909-1.836,21.595-4.944,32.049-8.056c1.669-0.497,0.952-2.812-0.733-2.31c-10.464,3.116-21.107,6.241-32.01,8.054
			c-0.946-1.334-2.746-2.363-4.799-2.77c-3.65-0.723-7.702,1.105-8.1,4.207c-0.635,0.033-1.268,0.071-1.904,0.093
			c-3.309,0.11-6.586-0.008-9.844-0.255c-0.086-0.596-0.369-1.14-0.783-1.596c-0.122-0.165-0.256-0.323-0.417-0.466
			c-1.864-1.653-5.149-1.095-6.457,0.847c-0.081,0.12-0.149,0.243-0.209,0.367c-4.638-0.635-9.251-1.452-13.864-2.284
			c-0.357-1.226-1.286-2.36-2.604-2.987c-1.688-0.803-3.549-0.677-5.038,0.062c-0.893,0.179-1.642,0.625-2.185,1.222
			c-2.187-0.349-4.377-0.669-6.576-0.939c-0.703-0.086-1.408-0.146-2.112-0.224c-0.486-1.476-1.621-2.796-3.21-3.389
			c-2.5-0.934-5.786,0.388-6.662,2.552c-3.834-0.213-7.674-0.309-11.514-0.28C121.692,38.68,120.508,37.512,118.725,37.07z
			 M35.541,49.274c-0.004-0.007-0.008-0.014-0.014-0.021c-0.297-0.388-0.714-0.639-1.167-0.761c0.027-0.038,0.054-0.076,0.075-0.115
			c0.247-0.024,0.504-0.005,0.76,0.071c0.568,0.169,0.965,0.488,1.205,0.874C36.113,49.31,35.828,49.289,35.541,49.274z
			 M96.223,45.409c-0.298,0.159-0.65,0.266-1.008,0.322c-0.22-0.107-0.404-0.257-0.563-0.429c0.756,0.097,1.527-0.14,2.017-0.741
			c0.153-0.022,0.306-0.047,0.458-0.069C96.945,44.854,96.652,45.179,96.223,45.409z M204.25,46.181
			c-0.02-0.044-0.046-0.081-0.069-0.121c0.226,0,0.437-0.052,0.624-0.142c0.282,0.127,0.538,0.276,0.76,0.445
			c-0.388,0.055-0.777,0.103-1.166,0.154L204.25,46.181z M178.769,46.692c0.278-0.33,0.704-0.582,1.146-0.597
			c0.75-0.026,1.201,0.373,1.359,0.874C180.438,46.886,179.604,46.791,178.769,46.692z M178.372,49.599
			c0.1,0.039,0.179,0.093,0.286,0.125c0.582,0.169,1.162,0.184,1.692,0.085c0.017,0.084,0.033,0.169,0.058,0.253
			c-0.678,0.146-1.402,0.063-2.045-0.287C178.348,49.721,178.359,49.66,178.372,49.599z M142.009,43.412
			c-0.495,1.423-2.123,2.677-3.937,2.188c-0.402-0.108-0.715-0.298-0.967-0.525c1.503,0.292,3.129-0.03,4.14-1.217
			c0.131-0.153,0.241-0.321,0.339-0.496C141.727,43.377,141.867,43.396,142.009,43.412z M137.007,42.947
			c0.208,0.042,0.423,0.068,0.656,0.054c0.012-0.001,0.024-0.006,0.036-0.007c0.076,0.006,0.153,0.01,0.23,0.016
			c0.305,0.024,0.607,0.059,0.911,0.086c-0.358,0.359-0.929,0.572-1.462,0.531c-0.392-0.029-0.684-0.149-0.9-0.326
			c0.02-0.129,0.037-0.258,0.081-0.384C136.709,42.927,136.857,42.936,137.007,42.947z M136.692,40.035
			c0.051-0.066,0.103-0.127,0.155-0.185c0.559-0.443,1.242-0.766,1.973-0.855c1.002,0.052,1.732,0.891,1.968,1.889
			c-0.062-0.006-0.122-0.014-0.183-0.019c-0.063-0.121-0.181-0.223-0.377-0.272c-0.356-0.089-0.705-0.134-1.049-0.153
			C138.557,39.991,137.702,39.786,136.692,40.035z"/>
	</g>
</g>
<g id="圖層_2">
</g>
<g id="sam">
</g>
<g id="header">
</g>
</svg>
