<?xml version="1.0" encoding="utf-8"?>
<!-- Generator: Adobe Illustrator 16.0.0, SVG Export Plug-In . SVG Version: 6.00 Build 0)  -->
<!DOCTYPE svg PUBLIC "-//W3C//DTD SVG 1.1//EN" "http://www.w3.org/Graphics/SVG/1.1/DTD/svg11.dtd">
<svg version="1.1" id="圖層_1" xmlns="http://www.w3.org/2000/svg" xmlns:xlink="http://www.w3.org/1999/xlink" x="0px" y="0px"
	 width="24px" height="24px" viewBox="0 0 24 24" enable-background="new 0 0 24 24" xml:space="preserve">
<g>
	<circle fill="#4ECD00" cx="12" cy="12" r="12"/>
	<path fill="#FFFFFF" d="M11.833,4.648c-6.192,0-8.558,4.234-8.558,7.432c0,2.477,1.567,4.074,3.19,5.175
		c1.519,1.027,3.926,1.501,4.498,1.66s0.371,0.974,0.287,1.705c-0.086,0.731-0.148,1.396,2.805-0.541
		c2.951-1.937,6.668-5.016,6.668-8.317C20.725,8.459,17.326,4.648,11.833,4.648z M8.932,13.98h-2.84V9.767h1.109v3.176h1.73V13.98z
		 M10.366,13.98H9.311V9.767h1.055V13.98z M14.629,13.992h-1.141l-1.462-2.32v2.32h-1.135V9.767h1.128l1.469,2.338V9.767h1.141
		V13.992z M17.961,13.992h-2.875V9.758h2.822v0.905h-1.766v0.673h1.641v0.862h-1.641v0.837h1.818V13.992z"/>
</g>
</svg>
