<?xml version="1.0" encoding="utf-8"?>
<!-- Generator: Adobe Illustrator 16.0.0, SVG Export Plug-In . SVG Version: 6.00 Build 0)  -->
<!DOCTYPE svg PUBLIC "-//W3C//DTD SVG 1.1//EN" "http://www.w3.org/Graphics/SVG/1.1/DTD/svg11.dtd">
<svg version="1.1" xmlns="http://www.w3.org/2000/svg" xmlns:xlink="http://www.w3.org/1999/xlink" x="0px" y="0px" width="140px"
	 height="164.355px" viewBox="0 0 140 164.355" enable-background="new 0 0 140 164.355" xml:space="preserve">
<g id="圖層_1">
</g>
<g id="footer">
	<g>
		<g>
			<g>
				<path fill="#EB8F00" d="M13.186,156.803h4.194v1.52H7.191v-1.52h4.156v-1.344H6.633V153.9h4.714v-1.418h1.838v1.418h4.739v1.559
					h-4.739V156.803z M7.724,159.211h9.188v5.145h-1.749v-0.697H9.46v0.697H7.724V159.211z M15.163,160.668H9.46v1.533h5.703
					V160.668z"/>
				<path fill="#EB8F00" d="M25.542,154.459c-0.084-0.424-0.313-1.023-0.685-1.801l1.559-0.215c0.295,0.625,0.527,1.297,0.696,2.016
					h1.09v1.064c-0.153,0.564-0.439,1.232-0.862,2.002c0.566,0.354,1.064,0.713,1.495,1.076l-0.938,1.279
					c-0.296-0.379-0.562-0.67-0.798-0.873v5.348h-1.572v-4.664c-0.262,0.432-0.688,0.887-1.28,1.369l-0.558-1.801
					c0.642-0.387,1.237-0.945,1.787-1.672c0.558-0.734,0.888-1.334,0.988-1.799h-2.622v-1.33H25.542z M28.114,160.098h2.851v-1.508
					h-2.04v-1.457h2.04v-1.369h-2.483v-1.508h1.141c-0.262-0.508-0.566-0.988-0.913-1.445l1.584-0.393
					c0.507,0.828,0.829,1.441,0.964,1.838h1.089c0.448-0.541,0.773-1.158,0.976-1.852l1.635,0.395
					c-0.321,0.625-0.621,1.109-0.9,1.457h1.357v1.508h-2.737v1.369h2.306v1.457h-2.306v1.508h2.964v1.52h-2.964v2.738h-1.711v-2.738
					h-2.851V160.098z"/>
			</g>
			<g>
				<path fill="#AB8046" d="M65.855,152.949v1.584h-4.435v4.055h4.802v1.598h-4.815v4.168h-1.824v-4.156h-4.917v-1.609h4.904v-4.055
					h-4.536v-1.584H65.855z M57.087,154.699c0.591,0.811,1.153,1.76,1.686,2.85l-1.559,0.85c-0.54-1.258-1.064-2.26-1.571-3.002
					L57.087,154.699z M64.133,154.674l1.418,0.822c-0.54,1.107-1.199,2.117-1.976,3.029l-1.445-1.102
					C62.874,156.738,63.541,155.822,64.133,154.674z"/>
				<path fill="#AB8046" d="M78.655,156.004c-0.27,0.549-0.519,1.021-0.747,1.42h5.702v1.52h-1.622
					c-0.364,1.047-0.955,1.955-1.774,2.725c1.208,0.389,2.344,0.781,3.408,1.178l-1.039,1.459c-0.515-0.254-1.25-0.572-2.205-0.951
					c-0.962-0.381-1.453-0.57-1.47-0.57c-1.453,0.887-3.543,1.393-6.272,1.521l-0.659-1.699c2.053,0,3.7-0.189,4.942-0.57
					c-0.837-0.287-2.002-0.65-3.497-1.09c0.641-0.76,1.148-1.428,1.52-2.002h-2.89v-1.52h3.853c0.481-0.693,0.818-1.318,1.014-1.877
					L78.655,156.004z M83.218,153.686v2.926h-1.724v-1.469h-7.287v1.469h-1.723v-2.926h4.397c-0.161-0.381-0.373-0.762-0.633-1.141
					l1.964-0.141c0.236,0.432,0.435,0.857,0.595,1.281H83.218z M76.971,158.943c-0.304,0.498-0.63,0.977-0.977,1.432
					c0.677,0.186,1.504,0.436,2.484,0.748c0.701-0.6,1.242-1.326,1.622-2.18H76.971z"/>
			</g>
			<g>
				<path fill="#E0364A" d="M113.318,158.957l-0.355,0.57h2.915v1.217h-11.937v-1.217h2.952l-0.355-0.57h-1.317v-2.764h9.376v2.764
					H113.318z M110.873,152.393v0.596h4.587v1.229h-4.587v0.406h4.081v1.203h-10.087v-1.203h4.08v-0.406h-4.587v-1.229h4.587v-0.596
					H110.873z M105.082,161.111h9.656v3.244h-1.812v-0.369h-6.032v0.369h-1.812V161.111z M112.925,162.264h-6.032v0.57h6.032
					V162.264z M112.812,157.309h-5.804v0.533h5.804V157.309z M108.338,158.957l0.393,0.57h2.332l0.456-0.57H108.338z"/>
				<path fill="#E0364A" d="M125.421,159.412l-1.204,0.166l-0.063-0.609c-0.752,0.137-1.563,0.225-2.433,0.268l-0.317-1.332
					l0.329,0.014c0.617-0.66,1.09-1.264,1.419-1.813c-0.414,0.076-0.874,0.139-1.38,0.189l-0.241-1.291h0.38
					c0.431-0.787,0.739-1.635,0.926-2.547l1.546,0.354c-0.296,0.836-0.664,1.576-1.104,2.219l0.558-0.076
					c0.153-0.279,0.288-0.584,0.406-0.912l1.077,0.494v-1.154h1.204c0.194-0.355,0.325-0.697,0.392-1.025l1.497,0.113
					c-0.084,0.305-0.212,0.609-0.381,0.912h1.293v1.635l0.215-0.012c0.431-0.787,0.739-1.635,0.926-2.547l1.546,0.354
					c-0.246,0.701-0.592,1.424-1.04,2.168l0.52-0.064c0.127-0.227,0.258-0.52,0.394-0.873l1.33,0.672
					c-0.566,1.273-1.301,2.34-2.205,3.191l0.862-0.051l-0.114-0.658l1.064-0.152c0.193,0.76,0.342,1.551,0.442,2.369l-1.191,0.166
					l-0.063-0.609c-0.608,0.111-1.412,0.203-2.408,0.279l-0.279-1.064v0.951h-1.191v0.709h5.005v1.279h-3.395
					c0.887,0.635,2.095,1.049,3.624,1.242l-0.66,1.609c-2.01-0.607-3.535-1.547-4.574-2.813v3.193h-1.635v-3.193
					c-0.22,0.498-0.798,1.018-1.735,1.559c-0.93,0.549-1.846,0.949-2.75,1.203l-0.76-1.584c0.582-0.059,1.258-0.225,2.026-0.494
					c0.761-0.262,1.255-0.508,1.483-0.734h-3.294v-1.279h5.03v-0.711h-1.115L125.421,159.412z M125.32,155.055
					c-0.499,1.029-1.221,1.98-2.167,2.85l0.875-0.051l-0.114-0.658l1.064-0.152c0.143,0.549,0.257,1.129,0.342,1.736V155.055z
					 M127.867,154.598h-1.089v1.053h1.089V154.598z M126.778,157.918h1.089v-1.154h-1.089V157.918z M129.324,155.422v2.508
					l0.19-0.012c0.515-0.559,0.958-1.158,1.331-1.799c-0.304,0.066-0.735,0.125-1.292,0.176L129.324,155.422z"/>
			</g>
		</g>
		<g>
			
				<linearGradient id="SVGID_2_" gradientUnits="userSpaceOnUse" x1="479.2344" y1="-7998.4878" x2="525.6123" y2="-7998.4878" gradientTransform="matrix(-0.7071 -0.7071 0.7071 -0.7071 6093.9521 -5254.6069)">
				<stop  offset="0" style="stop-color:#E46D7B"/>
				<stop  offset="1" style="stop-color:#E0364A"/>
			</linearGradient>
			<polygon fill="url(#SVGID_2_)" points="76.399,72.096 82.958,78.654 115.753,45.859 82.958,13.066 76.399,19.625 102.635,45.859 
							"/>
			
				<linearGradient id="SVGID_4_" gradientUnits="userSpaceOnUse" x1="3790.7793" y1="217.4297" x2="3725.9238" y2="217.4297" gradientTransform="matrix(0.7071 0.7071 -0.7071 0.7071 -2433.8926 -2765.4165)">
				<stop  offset="0" style="stop-color:#80C199"/>
				<stop  offset="0.0761" style="stop-color:#7AB68F"/>
				<stop  offset="0.2736" style="stop-color:#6C9E7A"/>
				<stop  offset="0.4839" style="stop-color:#638D6C"/>
				<stop  offset="0.7138" style="stop-color:#5D8363"/>
				<stop  offset="1" style="stop-color:#5B8060"/>
			</linearGradient>
			<polygon fill="url(#SVGID_4_)" points="76.452,6.559 69.893,0 24.034,45.859 69.893,91.719 76.452,85.16 37.151,45.859 			"/>
			
				<linearGradient id="SVGID_6_" gradientUnits="userSpaceOnUse" x1="497.707" y1="-8007.7251" x2="525.6133" y2="-8007.7251" gradientTransform="matrix(-0.7071 -0.7071 0.7071 -0.7071 6093.9521 -5254.6069)">
				<stop  offset="0" style="stop-color:#C09862"/>
				<stop  offset="1" style="stop-color:#AB8046"/>
			</linearGradient>
			<polygon fill="url(#SVGID_6_)" points="63.209,58.904 69.896,65.592 89.626,45.859 69.896,26.129 63.209,32.814 76.254,45.859 
							"/>
			
				<linearGradient id="SVGID_8_" gradientUnits="userSpaceOnUse" x1="516.3887" y1="-8017.0645" x2="525.6133" y2="-8017.0645" gradientTransform="matrix(-0.7071 -0.7071 0.7071 -0.7071 6093.9521 -5254.6069)">
				<stop  offset="0" style="stop-color:#F0AE2C"/>
				<stop  offset="1" style="stop-color:#EB8F00"/>
			</linearGradient>
			<polygon fill="url(#SVGID_8_)" points="56.687,39.338 63.209,45.859 56.687,52.383 50.165,45.859 			"/>
		</g>
		<g>
			<g>
				<g>
					<path fill="#5B8060" d="M7.892,138.291H0v-10.594h2.305v8.605h5.587V138.291z"/>
					<path fill="#5B8060" d="M20.363,132.988c0,0.76-0.163,1.475-0.488,2.146s-0.77,1.256-1.333,1.752
						c-0.563,0.494-1.219,0.885-1.967,1.172c-0.748,0.287-1.544,0.432-2.389,0.432c-0.845,0-1.644-0.145-2.397-0.432
						c-0.752-0.287-1.41-0.678-1.974-1.172c-0.563-0.496-1.007-1.076-1.333-1.744c-0.325-0.668-0.487-1.387-0.487-2.154
						c0-0.77,0.162-1.49,0.487-2.162c0.326-0.672,0.77-1.256,1.333-1.75c0.564-0.496,1.222-0.885,1.974-1.168
						c0.753-0.283,1.552-0.424,2.397-0.424c0.844,0,1.641,0.141,2.389,0.424c0.748,0.283,1.404,0.674,1.967,1.174
						c0.563,0.5,1.007,1.084,1.333,1.75C20.2,131.5,20.363,132.219,20.363,132.988z M18.102,132.988
						c0-0.486-0.103-0.945-0.308-1.373c-0.205-0.43-0.484-0.805-0.84-1.127c-0.356-0.322-0.772-0.58-1.25-0.77
						c-0.477-0.189-0.984-0.285-1.519-0.285c-0.546,0-1.058,0.096-1.535,0.285c-0.478,0.189-0.894,0.447-1.25,0.77
						c-0.355,0.322-0.635,0.697-0.84,1.127c-0.205,0.428-0.307,0.887-0.307,1.373c0,0.477,0.102,0.932,0.307,1.365
						s0.485,0.811,0.84,1.133c0.356,0.324,0.772,0.58,1.25,0.77c0.477,0.189,0.988,0.285,1.535,0.285
						c0.535,0,1.042-0.096,1.519-0.285c0.478-0.189,0.894-0.445,1.25-0.77c0.355-0.322,0.635-0.699,0.84-1.133
						S18.102,133.465,18.102,132.988z"/>
					<path fill="#5B8060" d="M30.442,135.254c0,0.443-0.101,0.852-0.299,1.229c-0.2,0.375-0.465,0.697-0.795,0.967
						c-0.331,0.27-0.713,0.48-1.146,0.631c-0.432,0.15-0.887,0.225-1.363,0.225l-4.711-0.014v-10.607h4.201
						c0.505,0,0.975,0.068,1.407,0.205s0.81,0.336,1.13,0.598c0.321,0.26,0.572,0.578,0.751,0.953c0.18,0.377,0.27,0.799,0.27,1.268
						c0,0.396-0.098,0.781-0.291,1.152c-0.195,0.373-0.453,0.686-0.774,0.941c0.253,0.115,0.479,0.262,0.679,0.438
						c0.199,0.178,0.37,0.375,0.51,0.59c0.141,0.219,0.248,0.447,0.321,0.691C30.406,134.762,30.442,135.008,30.442,135.254z
						 M27.656,130.746c0-0.256-0.053-0.477-0.16-0.662c-0.107-0.186-0.251-0.342-0.431-0.465c-0.18-0.123-0.387-0.217-0.62-0.279
						c-0.233-0.061-0.476-0.092-0.729-0.092h-1.327v2.918c0.243,0.008,0.462,0.012,0.656,0.012s0.418,0,0.671,0
						c0.253,0,0.496-0.025,0.729-0.078c0.233-0.055,0.44-0.139,0.62-0.252c0.18-0.115,0.323-0.264,0.431-0.445
						C27.603,131.221,27.656,131.002,27.656,130.746z M28.094,135.135c0-0.221-0.046-0.424-0.138-0.609
						c-0.093-0.186-0.219-0.342-0.38-0.471s-0.345-0.227-0.554-0.299c-0.209-0.07-0.436-0.105-0.678-0.105
						c-0.331-0.01-0.657-0.012-0.978-0.006c-0.321,0.004-0.646,0.006-0.977,0.006v2.93h1.692c0.243,0,0.486-0.025,0.729-0.078
						c0.244-0.055,0.459-0.141,0.65-0.26c0.189-0.119,0.342-0.27,0.459-0.451C28.035,135.611,28.094,135.393,28.094,135.135z"/>
					<path fill="#5B8060" d="M39.836,135.506c0,0.398-0.095,0.777-0.285,1.135c-0.189,0.357-0.455,0.674-0.794,0.947
						c-0.341,0.275-0.744,0.494-1.211,0.656c-0.467,0.164-0.982,0.246-1.546,0.246c-0.506,0-0.961-0.027-1.364-0.08
						s-0.783-0.137-1.137-0.252c-0.355-0.113-0.695-0.262-1.022-0.443c-0.325-0.182-0.663-0.4-1.013-0.656l1.604-1.473
						c0.467,0.354,0.923,0.604,1.371,0.75c0.447,0.146,0.933,0.219,1.459,0.219c0.214,0,0.416-0.029,0.605-0.086
						c0.19-0.059,0.355-0.135,0.496-0.232c0.141-0.098,0.252-0.213,0.335-0.346c0.083-0.133,0.124-0.277,0.124-0.438
						c0-0.168-0.034-0.318-0.102-0.449c-0.068-0.133-0.189-0.262-0.364-0.385c-0.176-0.125-0.419-0.25-0.729-0.379
						c-0.312-0.127-0.71-0.271-1.196-0.432c-0.428-0.141-0.839-0.303-1.232-0.482c-0.394-0.182-0.739-0.4-1.036-0.656
						c-0.297-0.258-0.535-0.559-0.714-0.902c-0.18-0.346-0.27-0.752-0.27-1.221c0-0.451,0.1-0.865,0.299-1.246
						c0.199-0.379,0.472-0.705,0.817-0.975c0.344-0.27,0.748-0.479,1.21-0.629s0.96-0.227,1.495-0.227
						c0.895,0,1.648,0.105,2.261,0.318c0.613,0.213,1.157,0.521,1.634,0.928l-1.576,1.445c-0.291-0.256-0.618-0.453-0.978-0.59
						c-0.359-0.137-0.783-0.205-1.269-0.205c-0.224,0-0.43,0.031-0.62,0.094c-0.189,0.061-0.353,0.143-0.489,0.244
						s-0.246,0.221-0.328,0.357c-0.083,0.139-0.124,0.281-0.124,0.432c0,0.168,0.039,0.32,0.116,0.457s0.209,0.27,0.394,0.398
						s0.43,0.256,0.737,0.385s0.688,0.268,1.145,0.418c0.584,0.186,1.084,0.389,1.503,0.609c0.417,0.221,0.758,0.465,1.021,0.73
						c0.263,0.264,0.458,0.563,0.584,0.895C39.772,134.717,39.836,135.092,39.836,135.506z"/>
					<path fill="#5B8060" d="M53.211,138.291h-2.48l-1.08-2.121h-5.66l-1.094,2.121h-2.479l5.514-10.607h1.765L53.211,138.291z
						 M48.763,134.459l-1.94-3.818l-1.97,3.818H48.763z"/>
					<path fill="#5B8060" d="M64.078,138.291h-2.217l-5.266-7.439v7.439h-2.217v-10.607h2.538l4.945,6.922v-6.922h2.217V138.291z"/>
					<path fill="#5B8060" d="M77.001,136.342c-0.33,0.371-0.69,0.691-1.079,0.961c-0.39,0.271-0.795,0.494-1.218,0.67
						c-0.423,0.178-0.855,0.309-1.298,0.393c-0.443,0.082-0.883,0.125-1.32,0.125c-0.866,0-1.678-0.141-2.437-0.424
						c-0.758-0.283-1.419-0.672-1.984-1.168c-0.563-0.494-1.011-1.078-1.341-1.75c-0.331-0.672-0.496-1.396-0.496-2.174
						c0-0.76,0.163-1.475,0.488-2.143c0.326-0.666,0.773-1.248,1.342-1.744c0.569-0.494,1.232-0.885,1.991-1.172
						c0.759-0.287,1.57-0.432,2.437-0.432c1.001,0,1.913,0.186,2.735,0.557s1.519,0.867,2.093,1.484l-1.529,1.42
						c-0.437-0.539-0.926-0.926-1.47-1.16s-1.15-0.352-1.821-0.352c-0.553,0-1.073,0.092-1.558,0.277
						c-0.485,0.188-0.91,0.441-1.274,0.764c-0.363,0.322-0.65,0.699-0.859,1.127c-0.209,0.428-0.313,0.887-0.313,1.373
						c0,0.494,0.104,0.957,0.313,1.385c0.208,0.43,0.495,0.807,0.859,1.135c0.364,0.326,0.788,0.582,1.273,0.768
						c0.485,0.186,1.004,0.279,1.558,0.279c0.523,0,1.019-0.088,1.484-0.266c0.465-0.176,0.883-0.41,1.252-0.703v-1.02h-2.393
						v-1.752h4.565V136.342z"/>
					<path fill="#5B8060" d="M94.081,136.342c-0.33,0.371-0.69,0.691-1.078,0.961c-0.39,0.271-0.796,0.494-1.219,0.67
						c-0.423,0.178-0.855,0.309-1.298,0.393c-0.443,0.082-0.882,0.125-1.32,0.125c-0.866,0-1.678-0.141-2.437-0.424
						c-0.758-0.283-1.419-0.672-1.984-1.168c-0.563-0.494-1.011-1.078-1.341-1.75c-0.331-0.672-0.496-1.396-0.496-2.174
						c0-0.76,0.163-1.475,0.489-2.143c0.326-0.666,0.773-1.248,1.342-1.744c0.569-0.494,1.233-0.885,1.991-1.172
						c0.759-0.287,1.57-0.432,2.437-0.432c1.001,0,1.913,0.186,2.735,0.557s1.519,0.867,2.093,1.484l-1.529,1.42
						c-0.437-0.539-0.926-0.926-1.47-1.16s-1.15-0.352-1.821-0.352c-0.553,0-1.073,0.092-1.558,0.277
						c-0.485,0.188-0.91,0.441-1.274,0.764c-0.363,0.322-0.65,0.699-0.859,1.127c-0.209,0.428-0.313,0.887-0.313,1.373
						c0,0.494,0.104,0.957,0.313,1.385c0.208,0.43,0.495,0.807,0.859,1.135c0.364,0.326,0.788,0.582,1.274,0.768
						c0.484,0.186,1.004,0.279,1.557,0.279c0.523,0,1.019-0.088,1.484-0.266c0.466-0.176,0.883-0.41,1.252-0.703v-1.02h-2.393
						v-1.752h4.565V136.342z"/>
					<path fill="#5B8060" d="M104.598,138.291h-2.49l-0.829-2.414c-0.087-0.264-0.196-0.508-0.327-0.729s-0.289-0.41-0.473-0.57
						c-0.185-0.158-0.405-0.283-0.662-0.371c-0.257-0.088-0.56-0.133-0.909-0.133h-0.844v4.217h-2.231v-10.594l4.601-0.014
						c0.495,0,0.957,0.076,1.383,0.232c0.427,0.154,0.796,0.369,1.106,0.643c0.31,0.273,0.554,0.596,0.728,0.967
						c0.175,0.373,0.262,0.775,0.262,1.207c0,0.311-0.053,0.611-0.16,0.902s-0.256,0.561-0.449,0.809
						c-0.193,0.248-0.423,0.467-0.689,0.656c-0.265,0.191-0.558,0.334-0.876,0.432c0.367,0.123,0.667,0.303,0.898,0.537
						s0.415,0.514,0.551,0.842c0.067,0.15,0.13,0.301,0.188,0.451c0.059,0.15,0.119,0.307,0.182,0.471
						c0.063,0.164,0.13,0.34,0.203,0.529c0.072,0.191,0.151,0.4,0.239,0.631c0.106,0.291,0.206,0.541,0.299,0.748
						C104.391,137.949,104.491,138.133,104.598,138.291z M101.652,130.879c0-0.248-0.051-0.473-0.153-0.676
						c-0.103-0.203-0.241-0.381-0.416-0.531s-0.382-0.268-0.62-0.352c-0.238-0.084-0.494-0.125-0.765-0.125h-1.634v3.301h1.634
						c0.271,0,0.527-0.037,0.765-0.111c0.238-0.076,0.445-0.184,0.62-0.326c0.175-0.141,0.313-0.311,0.416-0.51
						C101.601,131.35,101.652,131.127,101.652,130.879z"/>
					<path fill="#5B8060" d="M117.931,132.988c0,0.76-0.163,1.475-0.488,2.146s-0.77,1.256-1.333,1.752
						c-0.563,0.494-1.22,0.885-1.967,1.172c-0.748,0.287-1.544,0.432-2.389,0.432s-1.644-0.145-2.397-0.432
						c-0.752-0.287-1.411-0.678-1.974-1.172c-0.563-0.496-1.008-1.076-1.333-1.744c-0.326-0.668-0.487-1.387-0.487-2.154
						c0-0.77,0.162-1.49,0.487-2.162c0.325-0.672,0.77-1.256,1.333-1.75c0.563-0.496,1.222-0.885,1.974-1.168
						c0.753-0.283,1.552-0.424,2.397-0.424s1.641,0.141,2.389,0.424c0.748,0.283,1.404,0.674,1.967,1.174
						c0.563,0.5,1.007,1.084,1.333,1.75C117.768,131.5,117.931,132.219,117.931,132.988z M115.669,132.988
						c0-0.486-0.102-0.945-0.307-1.373c-0.205-0.43-0.484-0.805-0.84-1.127c-0.356-0.322-0.772-0.58-1.25-0.77
						c-0.477-0.189-0.983-0.285-1.52-0.285c-0.546,0-1.057,0.096-1.534,0.285c-0.478,0.189-0.894,0.447-1.25,0.77
						c-0.355,0.322-0.636,0.697-0.84,1.127c-0.205,0.428-0.307,0.887-0.307,1.373c0,0.477,0.102,0.932,0.307,1.365
						c0.204,0.434,0.484,0.811,0.84,1.133c0.356,0.324,0.772,0.58,1.25,0.77c0.477,0.189,0.988,0.285,1.534,0.285
						c0.536,0,1.042-0.096,1.52-0.285c0.478-0.189,0.894-0.445,1.25-0.77c0.355-0.322,0.635-0.699,0.84-1.133
						S115.669,133.465,115.669,132.988z"/>
					<path fill="#5B8060" d="M129.92,127.684v5.754c0,0.709-0.116,1.367-0.35,1.977c-0.233,0.609-0.571,1.143-1.013,1.598
						c-0.443,0.455-0.983,0.813-1.62,1.074c-0.637,0.26-1.363,0.391-2.181,0.391c-0.797,0-1.517-0.127-2.159-0.385
						c-0.641-0.256-1.188-0.607-1.641-1.053c-0.452-0.447-0.8-0.973-1.043-1.578c-0.243-0.605-0.364-1.258-0.364-1.957v-5.82h2.261
						v5.834c0,0.406,0.063,0.789,0.189,1.146c0.126,0.359,0.311,0.67,0.555,0.936c0.243,0.266,0.547,0.475,0.911,0.629
						c0.365,0.156,0.781,0.232,1.247,0.232c0.496,0,0.927-0.072,1.291-0.219c0.365-0.145,0.667-0.348,0.905-0.609
						c0.238-0.262,0.417-0.568,0.539-0.922c0.122-0.354,0.183-0.742,0.183-1.166v-5.861H129.92z"/>
					<path fill="#5B8060" d="M140,131.25c0,0.504-0.105,0.975-0.314,1.412c-0.21,0.438-0.495,0.818-0.855,1.141
						c-0.361,0.322-0.785,0.574-1.272,0.756c-0.487,0.182-1.004,0.271-1.549,0.271h-1.93v3.461h-2.261v-10.594h4.193
						c0.545,0,1.062,0.09,1.549,0.271c0.487,0.182,0.911,0.43,1.271,0.748c0.361,0.318,0.646,0.695,0.855,1.127
						C139.895,130.277,140,130.746,140,131.25z M137.739,131.223c0-0.273-0.056-0.529-0.167-0.768s-0.265-0.447-0.459-0.623
						c-0.195-0.178-0.423-0.318-0.686-0.426c-0.263-0.105-0.545-0.158-0.846-0.158h-1.502v4.004h1.502
						c0.301,0,0.583-0.055,0.846-0.166c0.262-0.109,0.49-0.258,0.686-0.443c0.194-0.186,0.348-0.4,0.459-0.643
						C137.683,131.756,137.739,131.498,137.739,131.223z"/>
				</g>
				<g>
					<path fill="#5B8060" d="M2.689,119.811c-0.023,1.295-0.207,2.414-0.55,3.354l-2.115-0.379c0.469-0.973,0.738-2,0.808-3.078
						L2.689,119.811z M3.652,111.781l1.341,0.412c-0.413,0.734-1.015,1.467-1.805,2.201c0.561,0,0.985-0.035,1.272-0.104
						c0.458-0.48,0.854-1.055,1.187-1.721l2.184,0.791c-1.238,1.789-2.574,3.131-4.007,4.025l1.806-0.189l-0.327-0.859l1.531-0.311
						c0.516,1.078,0.888,2.104,1.117,3.078l-1.754,0.344L6.06,118.83c-1.742,0.322-3.497,0.551-5.262,0.688l-0.481-2.08l0.979-0.033
						c0.252-0.162,0.579-0.42,0.981-0.775l0.602-0.533c-0.023,0.082-0.716,0.18-2.081,0.293l-0.413-1.959h0.653
						c0.757-0.814,1.307-1.697,1.651-2.648H0.952v-4.471h14.703v4.471H9.757l1.513,0.498c-0.229,0.492-0.459,0.895-0.688,1.203
						h1.754c-0.172-0.344-0.407-0.727-0.705-1.152l1.926-0.533c0.332,0.494,0.59,1.057,0.773,1.686h1.806v1.668h-2.149v0.912h1.857
						v1.531h-1.857v0.961h1.857v1.514h-1.857v0.998h2.287v1.701h-5.898v0.482H8.364v-6.793c-0.183,0.266-0.413,0.51-0.688,0.74
						l-0.98-1.908c1.169-0.941,2.046-2.109,2.631-3.508H3.652z M3.103,109.029v1.049H5.32v-1.049H3.103z M3.343,123.01
						c0.011-0.252,0.018-0.592,0.018-1.016c0-0.824-0.035-1.547-0.104-2.166l1.719-0.086c0.195,0.916,0.31,1.949,0.344,3.096
						L3.343,123.01z M6.283,122.699c-0.138-0.951-0.373-1.932-0.705-2.939l1.634-0.242c0.436,0.975,0.728,1.898,0.877,2.77
						L6.283,122.699z M7.178,109.029v1.049h2.235v-1.049H7.178z M12.113,116.063v-0.912h-1.72v0.912H12.113z M12.113,118.555v-0.961
						h-1.72v0.961H12.113z M12.113,121.066v-0.998h-1.72v0.998H12.113z M13.54,110.078v-1.049h-2.287v1.049H13.54z"/>
					<path fill="#5B8060" d="M54.832,115.238"/>
					<path fill="#5B8060" d="M58.7,107.053v1.342h6.174v1.84h-3.938c1.111,0.963,2.596,1.633,4.453,2.012l-0.963,2.08
						c-0.905-0.264-1.954-0.797-3.146-1.598c-1.181-0.814-2.035-1.617-2.563-2.408v4.127H56.5v-4.127
						c-0.539,0.836-1.375,1.639-2.511,2.408c-1.135,0.756-2.189,1.289-3.164,1.598l-1.102-2.063
						c0.757-0.148,1.611-0.441,2.563-0.877c0.952-0.436,1.583-0.826,1.892-1.17h-3.921v-1.84H56.5v-1.342L58.7,107.053z"/>
					<path fill="#5B8060" d="M57.55,122.479l-1.41-1.771c0.693-0.414,1.404-1.004,2.134-1.771c0.74-0.758,1.217-1.371,1.428-1.84
						l0,0l0.004-1.857h0.331l0,0h2.134l0,0h3.245v1.857h-2.874c0.893,1.467,1.981,2.584,3.262,3.354l-1.27,1.977
						c-0.905-0.803-1.693-1.834-2.363-3.094v3.92h-2.134V119.4C59.59,120.488,58.761,121.514,57.55,122.479z"/>
					<path fill="#5B8060" d="M82.287,109.115c-1.513,2.201-3.903,3.979-7.171,5.33l-1.169-2.441
						c1.445-0.412,2.838-1.078,4.179-1.996c1.353-0.916,2.368-1.896,3.044-2.939h2.184c1.881,2.477,4.242,4.105,7.085,4.885
						l-1.1,2.492C86.712,113.426,84.361,111.648,82.287,109.115z M77.008,120.568v-6.123h2.441v6.123h2.459v-8.926h2.476v3.422
						h4.178v2.115h-4.178v3.389h5.675v2.166H74.342v-2.166H77.008z"/>
					<path fill="#5B8060" d="M102.348,111.488h-3.37v-1.754h2.321c-0.39-0.654-0.819-1.25-1.29-1.789l2.132-0.635
						c0.641,0.916,1.129,1.725,1.461,2.424h0.533v-2.684h2.115v2.684h1.238v-2.684h2.116v2.684h0.464
						c0.677-0.734,1.187-1.564,1.531-2.494l2.132,0.809c-0.275,0.539-0.682,1.1-1.22,1.686h2.218v1.754h-3.215
						c-0.138,0.391-0.368,0.791-0.688,1.203h3.508v1.686h-6.259v0.791h5.881v1.549h-5.881v0.877h6.758v1.752h-4.402
						c1.089,0.734,2.608,1.244,4.557,1.531l-0.877,2.064c-2.694-0.643-4.706-1.836-6.036-3.578v3.887h-2.424v-3.869
						c-1.067,1.674-3.073,2.855-6.019,3.543l-0.964-2.166c1.984-0.242,3.52-0.713,4.608-1.412h-4.402v-1.752h6.776v-0.877h-5.898
						v-1.549h5.898v-0.791h-6.277v-1.686h3.595C102.83,112.303,102.624,111.9,102.348,111.488z M105.34,112.691h2.975
						c0.344-0.4,0.597-0.803,0.757-1.203h-4.299C105.002,111.9,105.191,112.303,105.34,112.691z"/>
					<path fill="#5B8060" d="M130.044,114.326h9.459v1.719h-9.562v-0.859h-0.516v6.018c0,1.229-0.475,1.84-1.427,1.84h-1.187
						l-0.344-1.941l0.653,0.051c0.39,0,0.585-0.184,0.585-0.551v-0.359h-1.754v3.008h-1.771v-8.064h-0.567v-2.975h0.43v-4.832h5.468
						v4.832h0.533V114.326z M128.256,114.498v-0.654h-2.838v0.654H128.256z M127.912,109.115h-2.271v3.096h0.499v-2.443h1.771
						V109.115z M125.951,116.818h1.754v-0.74h-1.754V116.818z M125.951,118.898h1.754v-0.738h-1.754V118.898z M127.912,112.211
						v-1.188h-0.602v1.188H127.912z M131.901,121.289c-0.092-0.332-0.229-0.703-0.413-1.117h-0.842v-3.525h8.203v3.525h-0.809
						c-0.08,0.275-0.223,0.648-0.43,1.117h1.995v1.738h-9.87v-1.738H131.901z M139.089,107.945v5.779h-8.771v-5.779h2.15v-0.895
						h1.823v0.895h0.722v-0.895h1.789v0.895H139.089z M132.916,110.199v-0.844h-0.809v0.844H132.916z M132.916,112.313v-0.945
						h-0.809v0.945H132.916z M136.802,117.971h-4.127v0.859h4.127V117.971z M133.621,120.172c0.161,0.355,0.293,0.729,0.396,1.117
						h1.547c0.173-0.344,0.31-0.717,0.414-1.117H133.621z M135.1,110.199v-0.844h-0.877v0.844H135.1z M134.223,111.367v0.945h0.877
						v-0.945H134.223z M137.318,110.199v-0.844h-0.929v0.844H137.318z M137.318,112.313v-0.945h-0.929v0.945H137.318z"/>
					<path fill="#5B8060" d="M40.755,111.162v-2.1h-8.633c0.229-0.619,0.43-1.242,0.602-1.873l-2.304-0.225
						c-0.115,0.447-0.35,1.146-0.705,2.098h-4.316v2.1h3.336c-0.333,0.768-0.917,1.674-1.754,2.717s-1.565,1.799-2.183,2.27
						l1.375,2.27l1.375-1.615v5.33h2.271v-6.156h2.63v7.273h2.408v-7.273h2.697v6.156h2.27v-2.383c0-0.016,0.002-0.027,0.002-0.043
						v-5.777h-4.969v-1.908h-2.408v1.908h-2.613c0.677-1.031,1.157-1.955,1.444-2.768H40.755z"/>
					<path fill="#5B8060" d="M55.701,117.508v-0.412v-1.857h-6.012v1.857h2.926c-0.199,0.447-0.644,1.02-1.333,1.719
						c-0.69,0.699-1.348,1.215-1.971,1.549l1.493,1.943c1.261-0.941,2.083-2.014,2.468-3.217v4.162h2.429v-1.934v-1.814V117.508z"/>
				</g>
			</g>
		</g>
	</g>
</g>
<g id="header">
</g>
</svg>
