<?xml version="1.0" encoding="utf-8"?>
<!-- Generator: Adobe Illustrator 16.0.0, SVG Export Plug-In . SVG Version: 6.00 Build 0)  -->
<!DOCTYPE svg PUBLIC "-//W3C//DTD SVG 1.1//EN" "http://www.w3.org/Graphics/SVG/1.1/DTD/svg11.dtd">
<svg version="1.1" id="圖層_1" xmlns="http://www.w3.org/2000/svg" xmlns:xlink="http://www.w3.org/1999/xlink" x="0px" y="0px"
	 width="30px" height="30px" viewBox="0 0 30 30" enable-background="new 0 0 30 30" xml:space="preserve">
<g>
	<g>
		<g>
			<path fill="#E83B37" d="M14.541,20.11c-0.858,0-1.553,0.715-1.553,1.573c0,0.837,0.674,1.572,1.553,1.572
				c0.877,0,1.572-0.735,1.572-1.572C16.113,20.825,15.398,20.11,14.541,20.11z"/>
			<path fill="#E83B37" d="M14.807,8.203c-2.758,0-4.023,1.634-4.023,2.736c0,0.797,0.674,1.165,1.225,1.165
				c1.104,0,0.654-1.573,2.736-1.573c1.021,0,1.839,0.449,1.839,1.389c0,1.104-1.144,1.736-1.817,2.309
				c-0.593,0.511-1.369,1.348-1.369,3.104c0,1.062,0.286,1.368,1.123,1.368c1.002,0,1.205-0.449,1.205-0.837
				c0-1.063,0.021-1.675,1.145-2.554c0.551-0.429,2.287-1.817,2.287-3.737S17.42,8.203,14.807,8.203z"/>
			<path fill="#E83B37" d="M15,0C6.71,0,0,6.709,0,15v13.828C0,29.476,0.524,30,1.172,30H15c8.29,0,15-6.709,15-15
				C30,6.71,23.291,0,15,0z M15,27.656H2.344V15C2.344,8.005,8.004,2.344,15,2.344c6.994,0,12.656,5.66,12.656,12.656
				C27.656,21.995,21.996,27.656,15,27.656z"/>
		</g>
	</g>
</g>
</svg>
