<?xml version="1.0" encoding="utf-8"?>
<!-- Generator: Adobe Illustrator 16.0.0, SVG Export Plug-In . SVG Version: 6.00 Build 0)  -->
<!DOCTYPE svg PUBLIC "-//W3C//DTD SVG 1.1//EN" "http://www.w3.org/Graphics/SVG/1.1/DTD/svg11.dtd">
<svg version="1.1" id="圖層_1" xmlns="http://www.w3.org/2000/svg" xmlns:xlink="http://www.w3.org/1999/xlink" x="0px" y="0px"
	 width="16px" height="66px" viewBox="0 0 16 66" enable-background="new 0 0 16 66" xml:space="preserve">
<g>
	<path fill="#2D8A3A" d="M8,40c-4.411,0-8,3.563-8,7.942v10.115C0,62.437,3.589,66,8,66s8-3.563,8-7.942V47.942
		C16.001,43.563,12.412,40,8,40z M14.999,58.058c0,3.831-3.139,6.947-6.998,6.947c-3.86,0-6.999-3.117-6.999-6.947V47.942
		c0-3.831,3.139-6.947,6.998-6.947c3.86,0,6.998,3.117,6.998,6.947L14.999,58.058L14.999,58.058z"/>
</g>
</svg>
