<?xml version="1.0" encoding="utf-8"?>
<!-- Generator: Adobe Illustrator 16.0.0, SVG Export Plug-In . SVG Version: 6.00 Build 0)  -->
<!DOCTYPE svg PUBLIC "-//W3C//DTD SVG 1.1//EN" "http://www.w3.org/Graphics/SVG/1.1/DTD/svg11.dtd">
<svg version="1.1" id="圖層_1" xmlns="http://www.w3.org/2000/svg" xmlns:xlink="http://www.w3.org/1999/xlink" x="0px" y="0px"
	 width="16px" height="66px" viewBox="0 0 16 66" enable-background="new 0 0 16 66" xml:space="preserve">
<path fill="#2D8A3A" d="M8,46.375c-0.551,0-1,0.448-1,1v2c0,0.552,0.449,1,1,1s1-0.448,1-1v-2C9,46.823,8.551,46.375,8,46.375z"/>
<path fill="#2D8A3A" d="M8,30L8,30c-0.276,0-0.5-0.221-0.5-0.494V0.494C7.5,0.221,7.724,0,8,0l0,0c0.276,0,0.5,0.221,0.5,0.494
	v29.012C8.5,29.779,8.276,30,8,30z"/>
</svg>
