<?xml version="1.0" encoding="utf-8"?>
<!-- Generator: Adobe Illustrator 16.0.0, SVG Export Plug-In . SVG Version: 6.00 Build 0)  -->
<!DOCTYPE svg PUBLIC "-//W3C//DTD SVG 1.1//EN" "http://www.w3.org/Graphics/SVG/1.1/DTD/svg11.dtd">
<svg version="1.1" xmlns="http://www.w3.org/2000/svg" xmlns:xlink="http://www.w3.org/1999/xlink" x="0px" y="0px" width="151px"
	 height="151px" viewBox="0 0 151 151" enable-background="new 0 0 151 151" xml:space="preserve">
<g id="圖層_3">
</g>
<g id="圖層_1">
	<g>
		<g opacity="0.5">
			<path fill="#FFFFFF" d="M150.5,143c0,4.125-3.375,7.5-7.5,7.5H8c-4.125,0-7.5-3.375-7.5-7.5V8c0-4.125,3.375-7.5,7.5-7.5h135
				c4.125,0,7.5,3.375,7.5,7.5V143z"/>
			<path fill="none" stroke="#165790" stroke-linejoin="round" stroke-miterlimit="10" d="M150.5,143c0,4.125-3.375,7.5-7.5,7.5H8
				c-4.125,0-7.5-3.375-7.5-7.5V8c0-4.125,3.375-7.5,7.5-7.5h135c4.125,0,7.5,3.375,7.5,7.5V143z"/>
		</g>
		<g>
			<path fill="none" stroke="#165790" stroke-linejoin="round" stroke-miterlimit="10" d="M150.5,143c0,4.125-3.375,7.5-7.5,7.5H8
				c-4.125,0-7.5-3.375-7.5-7.5V8c0-4.125,3.375-7.5,7.5-7.5h135c4.125,0,7.5,3.375,7.5,7.5V143z"/>
		</g>
		<g>
			
				<rect x="34.206" y="19.25" fill="#FFFFFF" stroke="#165790" stroke-width="0.6876" stroke-miterlimit="10" width="42.706" height="9.97"/>
			
				<rect x="34.206" y="29.22" fill="#FFFFFF" stroke="#165790" stroke-width="0.6876" stroke-miterlimit="10" width="42.706" height="9.971"/>
			
				<rect x="34.206" y="39.19" fill="#FFFFFF" stroke="#165790" stroke-width="0.6876" stroke-miterlimit="10" width="42.706" height="9.971"/>
			
				<rect x="34.206" y="49.161" fill="#FFFFFF" stroke="#165790" stroke-width="0.6876" stroke-miterlimit="10" width="42.706" height="9.971"/>
			
				<rect x="106.824" y="89.042" fill="#FFFFFF" stroke="#165790" stroke-width="0.6876" stroke-miterlimit="10" width="9.97" height="42.708"/>
			
				<rect x="96.854" y="89.042" fill="#FFFFFF" stroke="#165790" stroke-width="0.6876" stroke-miterlimit="10" width="9.97" height="42.708"/>
			
				<rect x="86.882" y="89.042" fill="#FFFFFF" stroke="#165790" stroke-width="0.6876" stroke-miterlimit="10" width="9.973" height="42.708"/>
			
				<rect x="76.912" y="89.042" fill="#FFFFFF" stroke="#165790" stroke-width="0.6876" stroke-miterlimit="10" width="9.97" height="42.708"/>
			
				<rect x="34.206" y="59.132" fill="#FFFFFF" stroke="#165790" stroke-width="0.6876" stroke-miterlimit="10" width="42.706" height="9.97"/>
			
				<rect x="34.206" y="69.102" fill="#FFFFFF" stroke="#165790" stroke-width="0.6876" stroke-miterlimit="10" width="42.706" height="9.972"/>
			
				<rect x="34.206" y="79.073" fill="#FFFFFF" stroke="#165790" stroke-width="0.6876" stroke-miterlimit="10" width="42.706" height="9.969"/>
			
				<rect x="34.206" y="89.042" fill="#FFFFFF" stroke="#165790" stroke-width="0.6876" stroke-miterlimit="10" width="42.706" height="42.708"/>
			<g>
				<g>
					<g>
						<path fill="#2F699C" d="M52.187,65.445c0,0,0,17.884,0,35.767l0.005,0.906l0.026,1.164l0.026,1.162
							c0.075,0.374,0.112,0.757,0.177,1.132c0.063,0.769,0.407,1.459,0.641,2.177c0.114,0.362,0.346,0.67,0.519,1.004
							c0.201,0.317,0.348,0.671,0.604,0.948c1.802,2.398,4.648,3.915,7.538,4.014c0.728,0.017,1.449,0.032,2.165,0.048
							c0.533,0.002,1.061,0.003,1.583,0.005c1.009,0,1.995,0,2.956,0c1.921,0,3.737,0,5.414,0c2.519,0,4.198,0,4.198,0v5.147
							l8.522-8.521l-8.522-8.522v5.147c0,0-1.679,0-4.198,0c-3.156,0-6.839,0-10.784,0c-1.275,0.044-2.567-0.612-3.356-1.681
							c-0.373-0.545-0.657-1.175-0.716-1.848c-0.046-0.334-0.06-0.67-0.05-1.008v-1.275c0-17.883,0-35.767,0-35.767H52.187z"/>
					</g>
				</g>
			</g>
		</g>
	</g>
</g>
<g id="圖層_4">
</g>
<g id="圖層_2">
</g>
</svg>
