<?xml version="1.0" encoding="utf-8"?>
<!-- Generator: Adobe Illustrator 16.0.0, SVG Export Plug-In . SVG Version: 6.00 Build 0)  -->
<!DOCTYPE svg PUBLIC "-//W3C//DTD SVG 1.1//EN" "http://www.w3.org/Graphics/SVG/1.1/DTD/svg11.dtd">
<svg version="1.1" xmlns="http://www.w3.org/2000/svg" xmlns:xlink="http://www.w3.org/1999/xlink" x="0px" y="0px" width="151px"
	 height="151px" viewBox="0 0 151 151" enable-background="new 0 0 151 151" xml:space="preserve">
<g id="圖層_3">
</g>
<g id="圖層_1">
	<g>
		<g opacity="0.5">
			<path fill="#FFFFFF" d="M150.5,143c0,4.125-3.375,7.5-7.5,7.5H8c-4.125,0-7.5-3.375-7.5-7.5V8c0-4.125,3.375-7.5,7.5-7.5h135
				c4.125,0,7.5,3.375,7.5,7.5V143z"/>
			<path fill="none" stroke="#165790" stroke-linejoin="round" stroke-miterlimit="10" d="M150.5,143c0,4.125-3.375,7.5-7.5,7.5H8
				c-4.125,0-7.5-3.375-7.5-7.5V8c0-4.125,3.375-7.5,7.5-7.5h135c4.125,0,7.5,3.375,7.5,7.5V143z"/>
		</g>
		<g>
			<path fill="none" stroke="#165790" stroke-linejoin="round" stroke-miterlimit="10" d="M150.5,143c0,4.125-3.375,7.5-7.5,7.5H8
				c-4.125,0-7.5-3.375-7.5-7.5V8c0-4.125,3.375-7.5,7.5-7.5h135c4.125,0,7.5,3.375,7.5,7.5V143z"/>
		</g>
		<g>
			<polygon fill="#FFFFFF" stroke="#165790" stroke-width="0.7759" stroke-miterlimit="10" points="100.18,19.25 100.086,19.25 
				50.914,19.25 50.82,19.25 49.836,30.5 51.898,30.5 99.102,30.5 101.164,30.5 			"/>
			<polygon fill="#FFFFFF" stroke="#165790" stroke-width="0.7759" stroke-miterlimit="10" points="101.164,30.5 99.102,30.5 
				51.898,30.5 49.836,30.5 48.852,41.75 52.883,41.75 98.117,41.75 102.148,41.75 			"/>
			<polygon fill="#FFFFFF" stroke="#165790" stroke-width="0.7759" stroke-miterlimit="10" points="102.148,41.75 98.117,41.75 
				52.883,41.75 48.852,41.75 47.867,53 53.867,53 97.133,53 103.133,53 			"/>
			<polygon fill="#FFFFFF" stroke="#165790" stroke-width="0.7759" stroke-miterlimit="10" points="103.133,53 97.133,53 53.867,53 
				47.867,53 46.883,64.25 54.852,64.25 96.148,64.25 104.117,64.25 			"/>
			<polygon fill="#FFFFFF" stroke="#165790" stroke-width="0.7759" stroke-miterlimit="10" points="104.117,64.25 96.148,64.25 
				54.852,64.25 46.883,64.25 45.898,75.5 55.836,75.5 95.164,75.5 105.102,75.5 			"/>
			<polygon fill="#FFFFFF" stroke="#165790" stroke-width="0.7759" stroke-miterlimit="10" points="105.102,75.5 95.164,75.5 
				55.836,75.5 45.898,75.5 44.914,86.75 56.82,86.75 94.18,86.75 106.086,86.75 			"/>
			<polygon fill="#FFFFFF" stroke="#165790" stroke-width="0.7759" stroke-miterlimit="10" points="106.086,86.75 94.18,86.75 
				56.82,86.75 44.914,86.75 43.93,98 57.805,98 93.195,98 107.07,98 			"/>
			<polygon fill="#FFFFFF" stroke="#165790" stroke-width="0.7759" stroke-miterlimit="10" points="107.07,98 93.195,98 57.805,98 
				43.93,98 42.945,109.25 58.789,109.25 92.211,109.25 108.055,109.25 			"/>
			<polygon fill="#FFFFFF" stroke="#165790" stroke-width="0.7759" stroke-miterlimit="10" points="108.055,109.25 92.211,109.25 
				58.789,109.25 42.945,109.25 41.961,120.5 59.771,120.5 91.227,120.5 109.036,120.5 			"/>
			<polygon fill="#FFFFFF" stroke="#165790" stroke-width="0.7759" stroke-miterlimit="10" points="109.036,120.5 91.227,120.5 
				59.771,120.5 41.961,120.5 40.977,131.75 60.755,131.75 90.242,131.75 110.021,131.75 			"/>
			<g>
				<line fill="#FFFFFF" x1="75.5" y1="88.075" x2="75.5" y2="61.936"/>
				<g>
					<g>
						<polygon fill="#2F699C" points="80.258,88.075 80.258,76.746 80.258,73.955 87.518,73.955 75.501,61.936 63.482,73.955 
							70.741,73.955 70.741,76.746 70.741,88.075 						"/>
					</g>
				</g>
			</g>
		</g>
	</g>
</g>
<g id="圖層_4">
</g>
<g id="圖層_2">
</g>
</svg>
