<?xml version="1.0" encoding="utf-8"?>
<!-- Generator: Adobe Illustrator 16.0.0, SVG Export Plug-In . SVG Version: 6.00 Build 0)  -->
<!DOCTYPE svg PUBLIC "-//W3C//DTD SVG 1.1//EN" "http://www.w3.org/Graphics/SVG/1.1/DTD/svg11.dtd">
<svg version="1.1" id="圖層_1" xmlns="http://www.w3.org/2000/svg" xmlns:xlink="http://www.w3.org/1999/xlink" x="0px" y="0px"
	 width="30px" height="29.994px" viewBox="0 0 30 29.994" enable-background="new 0 0 30 29.994" xml:space="preserve">
<g>
	<g>
		<path fill="#E83B37" d="M14.732,13.275c-0.246-0.067-0.497-0.104-0.761-0.104c-1.575,0-2.857,1.282-2.857,2.857
			c0,1.576,1.282,2.857,2.857,2.857s2.857-1.281,2.857-2.857c0-0.264-0.036-0.521-0.104-0.76l7.959-7.959l1.288,0.172L30,3.452
			l-3.047-0.404L26.548,0L22.52,4.028l0.172,1.288L14.732,13.275z"/>
		<path fill="#E83B37" d="M14.278,10.541l2.354-2.354c-2.889-0.981-6.218-0.319-8.518,1.986c-3.23,3.231-3.23,8.48,0,11.712
			c3.232,3.231,8.48,3.231,11.713,0c2.305-2.306,2.967-5.629,1.986-8.523l-2.355,2.354c0.086,1.509-0.447,3.048-1.6,4.2
			c-2.146,2.146-5.629,2.146-7.775,0c-2.146-2.146-2.146-5.629,0-7.774C11.236,10.988,12.77,10.455,14.278,10.541z"/>
		<path fill="#E83B37" d="M23.844,11.338c1.932,4.06,1.214,9.057-2.146,12.417c-4.268,4.268-11.184,4.268-15.451,0
			c-4.269-4.268-4.269-11.185,0-15.452c3.359-3.36,8.357-4.071,12.416-2.146l2.251-2.25C15.578,0.847,8.649,1.595,4.094,6.15
			c-5.458,5.457-5.458,14.3,0,19.751c5.457,5.457,14.299,5.457,19.75,0c4.557-4.557,5.305-11.485,2.244-16.82L23.844,11.338z"/>
	</g>
</g>
</svg>
