<?xml version="1.0" encoding="utf-8"?>
<!-- Generator: Adobe Illustrator 16.0.0, SVG Export Plug-In . SVG Version: 6.00 Build 0)  -->
<!DOCTYPE svg PUBLIC "-//W3C//DTD SVG 1.1//EN" "http://www.w3.org/Graphics/SVG/1.1/DTD/svg11.dtd">
<svg version="1.1" id="圖層_1" xmlns="http://www.w3.org/2000/svg" xmlns:xlink="http://www.w3.org/1999/xlink" x="0px" y="0px"
	 width="100.001px" height="22.001px" viewBox="0 0 100.001 22.001" enable-background="new 0 0 100.001 22.001"
	 xml:space="preserve">
<g>
	<path fill="#E4A955" d="M100.001,11c0,6.075-4.926,11.001-11,11.001h-78C4.926,22.001,0,17.075,0,11l0,0C0,4.926,4.926,0,11.001,0
		h78C95.075,0,100.001,4.926,100.001,11L100.001,11z"/>
	<g>
		<path fill="#FFFFFF" d="M19.411,18.449c-4.281,0-7.75-3.469-7.75-7.75c0-4.279,3.469-7.75,7.75-7.75c4.279,0,7.75,3.471,7.75,7.75
			C27.161,14.98,23.69,18.449,19.411,18.449z M24.265,9.053c0.195-0.195,0.195-0.512,0-0.707l-0.707-0.707
			c-0.195-0.195-0.512-0.195-0.707,0l-4.689,4.689l-2.189-2.189c-0.195-0.195-0.512-0.195-0.707,0l-0.707,0.707
			c-0.195,0.195-0.195,0.512,0,0.707l3.25,3.25c0.195,0.195,0.512,0.195,0.707,0L24.265,9.053z"/>
	</g>
	<g>
		<path fill="#FFFFFF" d="M47.778,17.129H33.856v-0.75h2.484V7.496h3.313c0.182-0.348,0.387-0.854,0.617-1.516H34.13V5.23h6.414
			c0.25-0.77,0.416-1.338,0.5-1.703l0.797,0.18c-0.193,0.75-0.332,1.258-0.414,1.523h6.125v0.75h-6.383
			c-0.115,0.318-0.313,0.824-0.594,1.516h4.727v8.883h2.477V17.129z M44.435,9.754v-1.5h-7.25v1.5H44.435z M44.435,11.949v-1.492
			h-7.25v1.492H44.435z M44.435,14.168v-1.5h-7.25v1.5H44.435z M44.435,16.379v-1.5h-7.25v1.5H44.435z"/>
		<path fill="#FFFFFF" d="M58.479,5.801h-2.961v1.328h2.453v5.906h-2.453v1.391h2.742v0.766h-2.742v2.305h-0.734v-2.305h-3.313
			v-0.766h3.313v-1.391h-2.477V7.129h2.477V5.801h-3.008V5.035h3.008V3.48h0.734v1.555h2.961V5.801z M54.784,9.66V7.902h-1.68V9.66
			H54.784z M54.784,12.223v-1.781h-1.68v1.781H54.784z M57.167,9.66V7.902h-1.648V9.66H57.167z M57.167,12.223v-1.781h-1.648v1.781
			H57.167z M65.425,13.613c0,0.584-0.051,1.242-0.152,1.973c-0.102,0.732-0.246,1.189-0.434,1.371
			c-0.188,0.183-0.386,0.273-0.594,0.273c-0.089,0-0.225,0.008-0.406,0.023c-0.183,0.016-0.32,0.023-0.414,0.023
			c-0.74,0-1.086-0.416-1.039-1.25l0.477-8.625h-1.82c-0.089,2.547-0.348,4.555-0.777,6.023s-1.057,2.82-1.879,4.055l-0.703-0.477
			c1.682-2.391,2.513-5.59,2.492-9.602h-1.547V6.59h1.578c0.047-0.854,0.07-1.58,0.07-2.18c0-0.332-0.006-0.633-0.016-0.898h0.844
			L61.042,6.59h2.672c-0.354,5.934-0.531,9.148-0.531,9.648c0,0.146,0.06,0.219,0.18,0.219c0.047,0,0.126,0.008,0.238,0.02
			c0.111,0.014,0.196,0.02,0.254,0.02c0.172,0,0.302-0.043,0.391-0.133c0.088-0.088,0.17-0.441,0.246-1.063
			c0.075-0.619,0.121-1.277,0.137-1.977L65.425,13.613z"/>
		<path fill="#FFFFFF" d="M82.962,17.16H69.056v-0.797h6.578v-2.258h-5.539v-0.781h5.539v-1.68h0.828v1.68h5.43v0.781h-5.43v2.258
			h6.5V17.16z M77.571,8.184h-2.289v3.617h-0.82V8.184h-2.141c-0.119,1.584-0.883,2.93-2.289,4.039L69.36,11.66
			c1.328-1.051,2.045-2.211,2.148-3.477h-2.352V7.371h2.398c0.053-0.957,0.078-1.828,0.078-2.609h-2V3.98h7.727v0.781h-2.078v2.609
			h2.289V8.184z M74.462,7.371V4.762h-2c0,0.631-0.031,1.5-0.094,2.609H74.462z M79.47,9.66h-0.813V4.316h0.813V9.66z
			 M82.243,10.973c0,0.303-0.086,0.551-0.258,0.746s-0.364,0.32-0.578,0.375c-0.213,0.055-0.614,0.082-1.203,0.082
			c-0.313,0-0.7-0.008-1.164-0.023l-0.352-0.875c0.537,0.047,1.037,0.07,1.5,0.07c0.443,0,0.722-0.014,0.836-0.043
			c0.115-0.027,0.21-0.109,0.285-0.246c0.076-0.135,0.113-0.291,0.113-0.469V3.613h0.82V10.973z"/>
	</g>
</g>
</svg>
