<?xml version="1.0" encoding="utf-8"?>
<!-- Generator: Adobe Illustrator 16.0.0, SVG Export Plug-In . SVG Version: 6.00 Build 0)  -->
<!DOCTYPE svg PUBLIC "-//W3C//DTD SVG 1.1//EN" "http://www.w3.org/Graphics/SVG/1.1/DTD/svg11.dtd">
<svg version="1.1" id="圖層_1" xmlns="http://www.w3.org/2000/svg" xmlns:xlink="http://www.w3.org/1999/xlink" x="0px" y="0px"
	 width="100.001px" height="22.002px" viewBox="0 0 100.001 22.002" enable-background="new 0 0 100.001 22.002"
	 xml:space="preserve">
<g>
	<path fill="#D34E5C" d="M100,11.001c0,6.075-4.926,11.001-11,11.001H11.001C4.926,22.002,0,17.076,0,11.001l0,0
		C0,4.926,4.926,0,11.001,0H89C95.074,0,100,4.926,100,11.001L100,11.001z"/>
	<g>
		<path fill="#FFFFFF" d="M19.411,18.449c-4.281,0-7.75-3.469-7.75-7.75c0-4.28,3.469-7.75,7.75-7.75c4.279,0,7.75,3.47,7.75,7.75
			C27.161,14.98,23.69,18.449,19.411,18.449z M24.265,9.053c0.195-0.195,0.195-0.512,0-0.707l-0.707-0.707
			c-0.195-0.195-0.512-0.195-0.707,0l-4.689,4.689l-2.189-2.189c-0.195-0.195-0.512-0.195-0.707,0l-0.707,0.707
			c-0.195,0.195-0.195,0.512,0,0.707l3.25,3.25c0.195,0.195,0.512,0.195,0.707,0L24.265,9.053z"/>
	</g>
	<g>
		<path fill="#FFFFFF" d="M35.489,8.973c-0.162,0.594-0.461,1.245-0.898,1.953l-0.688-0.32c0.416-0.661,0.715-1.281,0.898-1.859
			L35.489,8.973z M38.802,8.239l-0.656,0.266c-0.031-0.213-0.084-0.388-0.156-0.523c-1.1,0.255-2.344,0.43-3.734,0.523l-0.156-0.688
			c0.541-0.266,1.143-0.674,1.805-1.227C35.2,6.653,34.64,6.689,34.224,6.7l-0.141-0.563c0.875-0.594,1.68-1.435,2.414-2.523
			l0.641,0.383c-0.693,0.901-1.334,1.568-1.922,2c0.566-0.021,1.07-0.057,1.508-0.109c0.531-0.51,0.893-0.88,1.086-1.109
			l0.641,0.383c-0.855,0.948-1.836,1.797-2.945,2.547c1-0.125,1.736-0.237,2.211-0.336c-0.027-0.125-0.107-0.323-0.242-0.594
			l0.641-0.258C38.396,7.015,38.624,7.588,38.802,8.239z M46.724,14.637c-0.037,1.037-0.154,1.734-0.352,2.09
			c-0.199,0.357-0.488,0.576-0.871,0.656c-0.383,0.081-1.012,0.121-1.887,0.121h-1.547l-0.289-0.758l1.828,0.031
			c0.891,0,1.422-0.017,1.594-0.051c0.172-0.033,0.313-0.16,0.426-0.379c0.111-0.219,0.184-0.555,0.215-1.008H34.864l0.883-2.43
			h9.648v-0.945H34.677v-0.718h11.516v2.367h-9.805l-0.383,1.023H46.724z M36.981,10.653l-0.742,0.141
			c-0.012-0.698-0.074-1.31-0.188-1.836l0.703-0.148C36.905,9.497,36.981,10.111,36.981,10.653z M38.677,10.458l-0.773,0.18
			c-0.109-0.578-0.285-1.172-0.523-1.781l0.719-0.188C38.337,9.304,38.53,9.9,38.677,10.458z M43.106,5.02h-4.414V4.395h1.852
			c-0.074-0.239-0.186-0.489-0.336-0.75l0.734-0.227c0.098,0.183,0.244,0.508,0.438,0.977h1.727V5.02z M42.724,6.364H39.06V5.739
			h3.664V6.364z M42.724,7.661H39.06V7.036h3.664V7.661z M42.606,10.543h-3.484V8.348h3.484V10.543z M41.856,9.903v-0.93h-1.969
			v0.93H41.856z M44.481,8.911c-0.125,0.563-0.359,1.117-0.703,1.664l-0.719-0.227c0.385-0.672,0.629-1.206,0.734-1.602
			L44.481,8.911z M47.747,8.254l-0.656,0.25L46.927,7.95l-3.594,0.398l-0.164-0.609c0.65-0.364,1.281-0.817,1.891-1.359
			c-0.734,0.078-1.285,0.125-1.648,0.141l-0.164-0.523c0.816-0.729,1.484-1.518,2-2.367l0.656,0.336
			c-0.387,0.599-0.896,1.206-1.531,1.82c0.51-0.016,0.984-0.052,1.422-0.109c0.395-0.401,0.752-0.797,1.07-1.188l0.625,0.406
			c-0.99,1.115-1.957,2.005-2.898,2.672c0.645-0.031,1.346-0.106,2.102-0.227c-0.074-0.208-0.16-0.406-0.258-0.594l0.672-0.242
			C47.392,7.057,47.606,7.64,47.747,8.254z M45.825,10.559l-0.75-0.039c0.031-0.276,0.047-0.549,0.047-0.82
			c0-0.271-0.016-0.552-0.047-0.844L45.81,8.84c0.035,0.25,0.055,0.534,0.055,0.852C45.864,9.963,45.851,10.252,45.825,10.559z
			 M47.653,10.364l-0.711,0.156c-0.074-0.427-0.254-0.981-0.539-1.664L47.106,8.7C47.388,9.299,47.569,9.854,47.653,10.364z"/>
		<path fill="#FFFFFF" d="M58.479,5.801h-2.961v1.328h2.453v5.906h-2.453v1.391h2.742v0.766h-2.742v2.305h-0.734v-2.305h-3.313
			v-0.766h3.313v-1.391h-2.477V7.129h2.477V5.801h-3.008V5.036h3.008V3.481h0.734v1.555h2.961V5.801z M54.784,9.661V7.903h-1.68
			v1.758H54.784z M54.784,12.223v-1.781h-1.68v1.781H54.784z M57.167,9.661V7.903h-1.648v1.758H57.167z M57.167,12.223v-1.781
			h-1.648v1.781H57.167z M65.425,13.613c0,0.584-0.051,1.242-0.152,1.973c-0.102,0.732-0.246,1.189-0.434,1.371
			c-0.188,0.183-0.386,0.273-0.594,0.273c-0.089,0-0.224,0.008-0.406,0.023s-0.32,0.023-0.414,0.023
			c-0.739,0-1.086-0.416-1.039-1.25l0.477-8.625h-1.82c-0.089,2.547-0.348,4.554-0.777,6.023s-1.056,2.82-1.879,4.055l-0.703-0.477
			c1.683-2.391,2.513-5.59,2.492-9.601h-1.547V6.59h1.578c0.047-0.854,0.07-1.581,0.07-2.18c0-0.333-0.005-0.633-0.016-0.898h0.844
			L61.042,6.59h2.672c-0.354,5.933-0.531,9.148-0.531,9.648c0,0.146,0.06,0.219,0.18,0.219c0.047,0,0.126,0.008,0.238,0.02
			c0.112,0.014,0.196,0.02,0.254,0.02c0.172,0,0.302-0.043,0.391-0.133c0.089-0.088,0.171-0.441,0.246-1.063
			c0.075-0.619,0.121-1.277,0.137-1.977L65.425,13.613z"/>
		<path fill="#FFFFFF" d="M82.963,17.16H69.057v-0.797h6.578v-2.258h-5.539v-0.781h5.539v-1.679h0.828v1.679h5.43v0.781h-5.43v2.258
			h6.5V17.16z M77.572,8.184h-2.289v3.617h-0.82V8.184h-2.141c-0.121,1.583-0.883,2.93-2.289,4.039l-0.672-0.562
			c1.328-1.052,2.043-2.211,2.148-3.477h-2.352V7.372h2.398c0.051-0.958,0.078-1.828,0.078-2.609h-2V3.981h7.727v0.781h-2.078v2.609
			h2.289V8.184z M74.463,7.372V4.762h-2c0,0.63-0.031,1.5-0.094,2.609H74.463z M79.471,9.661h-0.813V4.317h0.813V9.661z
			 M82.244,10.973c0,0.302-0.086,0.551-0.258,0.746s-0.365,0.32-0.578,0.375c-0.215,0.055-0.615,0.082-1.203,0.082
			c-0.313,0-0.701-0.008-1.164-0.023l-0.352-0.875c0.535,0.047,1.035,0.07,1.5,0.07c0.441,0,0.721-0.014,0.836-0.043
			c0.113-0.028,0.209-0.11,0.285-0.246c0.074-0.135,0.113-0.292,0.113-0.469V3.614h0.82V10.973z"/>
	</g>
</g>
</svg>
