<?xml version="1.0" encoding="utf-8"?>
<!-- Generator: Adobe Illustrator 16.0.0, SVG Export Plug-In . SVG Version: 6.00 Build 0)  -->
<!DOCTYPE svg PUBLIC "-//W3C//DTD SVG 1.1//EN" "http://www.w3.org/Graphics/SVG/1.1/DTD/svg11.dtd">
<svg version="1.1" xmlns="http://www.w3.org/2000/svg" xmlns:xlink="http://www.w3.org/1999/xlink" x="0px" y="0px"
	 width="27.102px" height="27.125px" viewBox="0 0 27.102 27.125" enable-background="new 0 0 27.102 27.125" xml:space="preserve">
<g id="bg">
</g>
<g id="圖層_1">
	<g>
		<g>
			<path fill="#FF3333" d="M13.551,27.125C6.064,27.125,0,21.055,0,13.563S6.064,0,13.551,0s13.551,6.07,13.551,13.563
				S21.037,27.125,13.551,27.125z M13.551,24.5c6.038,0,10.929-4.895,10.929-10.938S19.589,2.625,13.551,2.625
				S2.622,7.52,2.622,13.563S7.513,24.5,13.551,24.5z M19.873,14.875l-9.617,5.523c-0.869,0.482-1.951-0.143-1.951-1.148V7.875
				c0-1.012,1.088-1.629,1.951-1.148l9.617,5.852C20.769,13.082,20.769,14.377,19.873,14.875z"/>
		</g>
		<g>
			<path fill="#FF3333" d="M13.551,27.125C6.064,27.125,0,21.055,0,13.563S6.064,0,13.551,0s13.551,6.07,13.551,13.563
				S21.037,27.125,13.551,27.125z M13.551,24.5c6.038,0,10.929-4.895,10.929-10.938S19.589,2.625,13.551,2.625
				S2.622,7.52,2.622,13.563S7.513,24.5,13.551,24.5z M19.873,14.875l-9.617,5.523c-0.869,0.482-1.951-0.143-1.951-1.148V7.875
				c0-1.012,1.088-1.629,1.951-1.148l9.617,5.852C20.769,13.082,20.769,14.377,19.873,14.875z"/>
		</g>
	</g>
</g>
</svg>
