<?xml version="1.0" encoding="utf-8"?>
<!-- Generator: Adobe Illustrator 16.0.0, SVG Export Plug-In . SVG Version: 6.00 Build 0)  -->
<!DOCTYPE svg PUBLIC "-//W3C//DTD SVG 1.1//EN" "http://www.w3.org/Graphics/SVG/1.1/DTD/svg11.dtd">
<svg version="1.1" id="圖層_1" xmlns="http://www.w3.org/2000/svg" xmlns:xlink="http://www.w3.org/1999/xlink" x="0px" y="0px"
	 width="24px" height="24px" viewBox="0 0 24 24" enable-background="new 0 0 24 24" xml:space="preserve">
<g>
	<circle fill="#F0EFEF" cx="12" cy="12" r="12"/>
	<g>
		<path fill="#999999" d="M4.818,12.41c0-0.238,0.086-0.436,0.258-0.592s0.377-0.234,0.615-0.234c0.234,0,0.438,0.077,0.609,0.231
			s0.258,0.353,0.258,0.595c0,0.227-0.082,0.421-0.246,0.583s-0.375,0.243-0.633,0.243c-0.238,0-0.441-0.079-0.609-0.237
			S4.818,12.645,4.818,12.41z"/>
		<path fill="#999999" d="M10.871,12.41c0-0.238,0.086-0.436,0.258-0.592s0.377-0.234,0.615-0.234c0.234,0,0.438,0.077,0.609,0.231
			s0.258,0.353,0.258,0.595c0,0.227-0.082,0.421-0.246,0.583s-0.375,0.243-0.633,0.243c-0.238,0-0.441-0.079-0.609-0.237
			S10.871,12.645,10.871,12.41z"/>
		<path fill="#999999" d="M16.924,12.41c0-0.238,0.086-0.436,0.258-0.592s0.377-0.234,0.615-0.234c0.234,0,0.438,0.077,0.609,0.231
			s0.258,0.353,0.258,0.595c0,0.227-0.082,0.421-0.246,0.583s-0.375,0.243-0.633,0.243c-0.238,0-0.441-0.079-0.609-0.237
			S16.924,12.645,16.924,12.41z"/>
	</g>
</g>
</svg>
