<?xml version="1.0" encoding="utf-8"?>
<!-- Generator: Adobe Illustrator 16.0.0, SVG Export Plug-In . SVG Version: 6.00 Build 0)  -->
<!DOCTYPE svg PUBLIC "-//W3C//DTD SVG 1.1//EN" "http://www.w3.org/Graphics/SVG/1.1/DTD/svg11.dtd">
<svg version="1.1" id="圖層_1" xmlns="http://www.w3.org/2000/svg" xmlns:xlink="http://www.w3.org/1999/xlink" x="0px" y="0px"
	 width="196.922px" height="34.563px" viewBox="0 0 196.922 34.563" enable-background="new 0 0 196.922 34.563"
	 xml:space="preserve">
<g>
	<g>
		<path fill="#943332" d="M6.469,3.25h0.75L7.016,3.609v0.359c0.99,0,1.484,1.053,1.484,3.156c0.094,0.74,0.219,1.109,0.375,1.109
			c0.979-0.5,1.656-0.75,2.031-0.75l0.172,0.938h0.391l0.359-0.188c0.24,0.406,0.359,0.777,0.359,1.109
			c-1.5,0.865-2.666,1.418-3.5,1.656L8.5,11.734c0,0.137,0.063,0.203,0.188,0.203L8.5,12.844v2.047
			c1.521-0.363,2.813-0.916,3.875-1.656h0.375v0.359l-0.172,0.359l0.359,0.188c0.219-0.125,0.463-0.188,0.734-0.188v0.563
			c-0.354,0.75-2.203,1.922-5.547,3.516v0.172l0.188,0.938c-0.125,0.48-0.188,0.906-0.188,1.281h0.188
			c-0.281,0.865-0.463,1.297-0.547,1.297l0.359,0.75l-0.172,0.359l0.172,0.734c-0.094,0.5-0.213,0.75-0.359,0.75
			c0.125,0.23,0.188,0.412,0.188,0.547c0,0.375-0.125,0.871-0.375,1.484l0.188,1.109c0,1.354-0.432,2.031-1.297,2.031l-0.75,0.188
			c-1.178-0.802-2.834-2.713-4.969-5.734c0.031-0.25,0.15-0.375,0.359-0.375c0.906,0,2.078,0.684,3.516,2.047h0.188l0.547-6.297
			L5,19.141c-0.375,0.24-1.303,0.484-2.781,0.734c-0.459,0-1.016-0.426-1.672-1.281v-0.938c0-0.354,1.604-0.906,4.813-1.656v-3.703
			H5.172c-0.531,0-1.453,0.184-2.766,0.547l-0.359-0.172c-0.25,0.115-0.438,0.172-0.563,0.172C0.494,11.99,0,11.5,0,11.375v-0.734
			c0-0.25,0.369-0.375,1.109-0.375c0,0.115,0.063,0.172,0.188,0.172c2.834-0.5,4.25-1.109,4.25-1.828
			c0-0.75,0.057-1.125,0.172-1.125c-0.115-0.229-0.172-0.41-0.172-0.547C5.693,4.512,6,3.281,6.469,3.25z M21.625,7.672L22,7.859
			c0.115,0,0.172-0.063,0.172-0.188c1.854,0.25,2.781,0.746,2.781,1.484c-0.135,0-0.318,0.063-0.547,0.188l0.172,0.375v0.172
			c-0.865,0.043-1.297,0.168-1.297,0.375c-0.115,0-0.172-0.063-0.172-0.188l-2.219,0.563c0.24,3.043,0.359,5.443,0.359,7.203h-0.188
			l0.188,0.359c0,0.137-0.063,0.324-0.188,0.563c0.125,1.605,0.25,2.406,0.375,2.406l-0.188,0.922v1.281
			c0,0.521-0.063,1.203-0.188,2.047l0.188,0.359l-0.188,1.109v1.297c0,0.125,0.063,0.188,0.188,0.188l-0.188,0.359
			c0.125,0.844,0.188,1.526,0.188,2.047v0.188c-0.135,0-0.318,0.058-0.547,0.172l-0.375-0.172c-0.406,0.24-0.775,0.359-1.109,0.359
			c-1.938-0.927-4.219-2.896-6.844-5.906v-0.359l0.203-0.391c3.344,1.855,5.131,2.781,5.359,2.781c0-0.125,0.057-0.188,0.172-0.188
			c0.125-4.27,0.188-7.348,0.188-9.234v-6.469l-3.703,0.563c-1.229-0.385-1.844-0.879-1.844-1.484l0.188-0.375V9.719
			C14.135,9.344,17.031,8.662,21.625,7.672z"/>
		<path fill="#943332" d="M43.719,3.703c0,0.137,0.063,0.203,0.188,0.203c0-0.135,0.057-0.203,0.172-0.203
			c0.625,0.887,0.938,1.443,0.938,1.672c-0.531,1.219-0.963,3.188-1.297,5.906c-0.563,1.73-1.24,2.594-2.031,2.594L40.766,13.5
			c-0.521,0.219-1.072,0.59-1.656,1.109c0,0.125,0.063,0.188,0.188,0.188c-0.25,2.781-0.438,4.318-0.563,4.609l0.188,0.391
			c0,0.834-0.125,2.246-0.375,4.234h0.188c0,0.125-0.063,0.188-0.188,0.188l0.188,2.219v1.297l0.734,1.297
			c-0.322,1.719-0.693,2.578-1.109,2.578c-1.344,0-2.016-2.344-2.016-7.031c0.115-3.656,0.172-6.734,0.172-9.234
			c-0.25-0.979-0.494-1.469-0.734-1.469l0.172-0.375v-0.172l-0.359-0.563v-0.188h0.359v0.359h0.188c0.25,0,0.375-0.119,0.375-0.359
			v-0.375c0-0.113-0.057-0.172-0.172-0.172c0.24-0.406,0.359-0.775,0.359-1.109v-0.375c0-0.207-0.25-0.947-0.75-2.219l0.75-0.563
			h0.359l-0.359,0.563h0.188c0.615,0,0.922-0.738,0.922-2.219c-0.125,0-0.188,0.063-0.188,0.188l-1.844-0.188h-0.734L34.297,5
			c0.99,0,1.672-0.125,2.047-0.375c0.115,0,0.172,0.063,0.172,0.188l4.797-0.906l0.375,0.172
			C42.344,3.828,43.021,3.703,43.719,3.703z M39.469,6.469v1.297c0.625,0,1.178,0.309,1.656,0.922l0.188-0.359V6.672
			c0-0.25-0.119-0.375-0.359-0.375C40.275,6.412,39.781,6.469,39.469,6.469z M39.469,9.984v1.109c1.104,0,1.656-0.551,1.656-1.656
			C40.094,9.803,39.541,9.984,39.469,9.984z M50,14.984c0.5,0.188,0.75,0.371,0.75,0.547v0.188h-0.563l0.75,0.734
			c0,0.25-0.188,0.375-0.563,0.375c0.563,1.23,0.932,1.844,1.109,1.844c0.666-0.113,1.219-0.172,1.656-0.172h0.203
			c0.115,0.74,0.297,1.109,0.547,1.109c0,0.262-0.865,1.059-2.594,2.391c0.125,3.98,0.188,6.693,0.188,8.141
			c-0.084,1.594-0.328,2.391-0.734,2.391h-0.922c0-0.489-0.25-0.734-0.75-0.734v-0.75c-0.24-1.094-0.359-1.828-0.359-2.203
			l0.359-0.188c-0.24-3.938-0.484-5.906-0.734-5.906c-2.219,0.375-3.328,1.047-3.328,2.016c-0.344,2.719-0.896,4.078-1.656,4.078
			h-0.375c-0.531,0-0.963-0.738-1.297-2.219c-0.115,0-0.172-0.063-0.172-0.188h0.172l0.375,0.188
			c0.125-1.322,0.244-2.125,0.359-2.406c-1.053,0-1.666-0.369-1.844-1.109c-0.115,0-0.172-0.063-0.172-0.188
			c0-0.51,0.24-1,0.719-1.469l0.391,0.172h1.094c0.25,0,0.438-0.738,0.563-2.219c-0.25,0-0.375-0.057-0.375-0.172l-0.922,0.172
			h-0.75c-0.229-0.031-0.719-0.582-1.469-1.656c0-0.27,2.588-1.072,7.766-2.406C48.756,15.105,49.615,14.984,50,14.984z
			 M45.766,20.891c1.844-0.301,2.766-0.797,2.766-1.484c0.125-0.229,0.188-0.41,0.188-0.547c-0.094-0.5-0.219-0.75-0.375-0.75
			l0.188-0.359v-0.359c-1.729,0.48-2.594,1.031-2.594,1.656C45.822,20.121,45.766,20.734,45.766,20.891z M47.781,4.078
			c0.99,0.313,1.484,0.746,1.484,1.297c-0.125,1.084-0.188,1.699-0.188,1.844c0.104,0.5,0.229,0.75,0.375,0.75
			c1.553-0.5,2.719-0.75,3.5-0.75h0.938v0.359l-0.188,0.391l0.734,0.172v0.375c-2.5,0.74-4.35,1.418-5.547,2.031
			c0.125,0.178,0.188,0.543,0.188,1.094c2.219-0.363,3.453-0.547,3.703-0.547c0.24,0.5,0.609,0.75,1.109,0.75v0.188
			c0,0.406-1.725,1.266-5.172,2.578h-0.75c-0.271,0-0.578-0.676-0.922-2.031c0-0.363,0.182-0.547,0.547-0.547v-0.391
			c-0.229,0-0.6-0.426-1.109-1.281L47.781,4.078z M53.703,2.047c0.125,0,0.188,0.059,0.188,0.172l1.297-0.172h0.734
			c1.459,0,2.318,1.475,2.578,4.422h-0.188c0.104,0.5,0.234,0.75,0.391,0.75L58.5,8.516c0.135,2.844,0.203,4.318,0.203,4.422
			c-0.135,0.25-0.203,0.438-0.203,0.563l0.203,0.375c-0.135,0.209-0.203,0.453-0.203,0.734c0,0.125,0.068,0.188,0.203,0.188
			c0,0.125-0.068,0.188-0.203,0.188c0.281,7.762,0.531,11.641,0.75,11.641l-0.188,0.359v0.375c0,0.625,0.119,1.365,0.359,2.219
			c-0.24,0-0.359,0.188-0.359,0.563h-1.484l-0.172-0.75h-0.203v0.375c-0.563-0.406-1.053-1.391-1.469-2.953
			c-0.865-1.25-1.297-2.113-1.297-2.594h0.375c0.084,0,0.578,0.496,1.484,1.484l-0.188-0.938v-8.125c0-0.27-0.063-0.516-0.188-0.734
			c0.125-0.219,0.188-0.469,0.188-0.75v-0.359c0-0.125-0.063-0.188-0.188-0.188l0.188-0.375v-1.656c0-0.125-0.063-0.188-0.188-0.188
			l0.188-0.359v-0.188l-0.563-6.281l0.188-0.375C55.65,4.449,55.406,4.078,55,4.078c-0.719,0-2.26,0.184-4.625,0.547
			c-0.646,0-1.197-0.369-1.656-1.109h-0.188V3.156c0.553,0,0.922-0.063,1.109-0.188L50,3.156
			C51.646,2.855,52.881,2.484,53.703,2.047z"/>
		<path fill="#943332" d="M69.781,13.125c0.447,0,0.875,0.865,1.281,2.594l-0.172,0.359c0,0.125,0.057,0.188,0.172,0.188
			c0,0.125-0.057,0.313-0.172,0.563c0.115,1.605,0.172,2.896,0.172,3.875c-0.156,1.469-0.396,2.203-0.719,2.203h-0.203
			c-1.229-1.135-1.844-2.547-1.844-4.234v-1.125h0.359v-0.906C68.656,14.787,69.031,13.615,69.781,13.125z M85.297,15.531
			c2.344,1.531,3.516,3.625,3.516,6.281c0.125,0,0.188,0.125,0.188,0.375c-0.584,1.719-1.078,2.578-1.484,2.578h-1.469
			c-0.459,0-1.016,0.246-1.672,0.734c-0.334,0-0.703-0.119-1.109-0.359c-0.104,0-0.6,0.059-1.484,0.172
			c-2.416-0.613-4.078-1.473-4.984-2.578c-0.99-1.625-1.484-3.473-1.484-5.547v-0.734l0.203-0.375
			c1.229,0.469,1.844,1.271,1.844,2.406c0.416,1.719,1.459,3.074,3.125,4.063c0.459,0.24,0.953,0.359,1.484,0.359
			c2.844,0,4.266-0.551,4.266-1.656v-0.906c0-0.738-0.563-2.281-1.688-4.625C85.047,15.719,85.297,15.656,85.297,15.531z
			 M80.875,11.281c1.771,0.73,2.756,1.094,2.953,1.094l0.359-0.172v0.375c0.406-0.25,0.713-0.375,0.922-0.375l0.188,0.375v0.188
			c-1.084,1.219-2.006,1.828-2.766,1.828c-0.646-0.113-1.266-0.172-1.859-0.172c0,0.115-0.063,0.172-0.188,0.172
			c-0.365-0.447-0.547-0.875-0.547-1.281c0-0.125,0.063-0.188,0.188-0.188l-0.188-0.359v-0.75
			C80,11.766,80.313,11.521,80.875,11.281z M91.016,9.063c0.303,0,0.865,0.553,1.688,1.656c0.979,1.313,1.469,2.297,1.469,2.953
			v0.922c0,0.188-0.432,0.621-1.297,1.297c-0.615,0-1.234-0.551-1.859-1.656c-1.219-1.572-1.828-2.926-1.828-4.063
			C89.188,9.609,89.797,9.24,91.016,9.063z"/>
		<path fill="#943332" d="M113.938,7.109h0.375c0,0.375,0.734,1.422,2.203,3.141c2.26-0.738,4.297-1.291,6.109-1.656
			c1.875,0,2.922,1.293,3.141,3.875v0.188c-0.125,0.219-0.188,0.465-0.188,0.734h0.188c0,0.125-0.063,0.188-0.188,0.188l0.188,0.922
			c0,0.512-0.125,1.25-0.375,2.219l0.375,0.75l-0.375,0.734l0.188,0.359l-0.188,0.75c0,0.115,0.063,0.172,0.188,0.172l-0.188,0.938
			v1.656c0,3.449-0.615,5.172-1.844,5.172l-0.922,0.188c-2.447-0.625-4.234-1.729-5.359-3.313v-0.203
			c0.656,0,1.025-0.182,1.109-0.547c1.385,0.865,2.369,1.297,2.953,1.297c0.865-0.301,1.297-1.047,1.297-2.234l0.188-2.203
			c-2.959-0.469-4.438-1.27-4.438-2.406c-0.219,0-0.588-0.738-1.109-2.219c-2.322,3.084-4.416,4.625-6.281,4.625h-0.188
			c-0.447,0-1-0.25-1.656-0.75h-0.188v0.375c0,1.48-0.125,2.219-0.375,2.219l0.188,0.359c-0.178,0.865-0.422,1.297-0.734,1.297
			h-0.188c-1.104-0.238-1.656-0.541-1.656-0.906c0-0.281,0.057-0.531,0.172-0.75c-0.115-0.363-0.24-0.547-0.375-0.547l0.203-2.219
			v-2.781c0-1.229-0.131-2.457-0.391-3.688l0.188-1.109l-0.547-0.938v-0.172h0.359V11h0.188c0.447-0.375,0.881-0.563,1.297-0.563
			h0.203c0.959,0,1.51,2.896,1.656,8.688h0.172l0.188-0.922c0.375,0,0.563,0.059,0.563,0.172c2.094,0,3.881-1.785,5.359-5.359
			h-0.563c-0.135,0-0.813,0.125-2.031,0.375c-0.865,0-1.975-0.244-3.328-0.734c0-0.979,1.053-1.469,3.156-1.469
			c0.678-0.125,1.166-0.188,1.469-0.188v-0.203c-0.459-0.613-0.828-1.535-1.109-2.766V7.672
			C113.318,7.672,113.625,7.484,113.938,7.109z M117.813,12.094v0.203c1.709,2.803,3.375,4.828,5,6.078h0.172l0.203-0.906v-0.375
			l-0.375-0.563v-0.922h0.172v0.563h0.203v-0.375c0-0.125-0.068-0.188-0.203-0.188l0.203-1.297v-2.578l-0.203-0.938L122.625,11
			l-0.375-0.203L117.813,12.094z"/>
		<path fill="#943332" d="M143.297,6.703l0.391,0.203c0.229-0.135,0.406-0.203,0.531-0.203c1.031,0.334,1.584,0.891,1.656,1.672
			l0.016,0.188c0.115,1.125-0.656,2.047-2.313,2.766c-2.291,2.719-4.188,4.078-5.688,4.078l-0.219-0.375l-0.031-0.359l4.813-7.219
			L143.297,6.703z M146.969,11.891c1,0,1.697,0.797,2.094,2.391l0.156,1.484c0.01,0.137-0.047,0.203-0.172,0.203
			c0.01,0.115,0.078,0.172,0.203,0.172c-0.229,2.365-0.334,5.631-0.313,9.797h0.172l-0.469,0.922c-1.344,0-2.693-0.619-4.047-1.859
			c-1.291,1.105-2.635,1.906-4.031,2.406c-0.74,0-1.135-0.244-1.188-0.734l-0.031-0.375L139,26.5h-0.188l-0.031-0.391
			c-0.104-1.041,0.635-1.656,2.219-1.844c0.572-0.363,0.854-0.609,0.844-0.734h-0.188c0.01,0.115-0.047,0.172-0.172,0.172
			l-0.063-0.719v-1.859l-0.359,0.188l-0.375-0.188l-0.344,0.188c-0.688-0.082-1.234-0.578-1.641-1.484
			c-0.072-0.645,0.787-1.322,2.578-2.031c0-1.563,0.037-2.422,0.109-2.578c-0.146-0.219-0.234-0.469-0.266-0.75l0.344-0.188h0.188
			c0.969,0,1.74,0.865,2.313,2.594c0.678,0.125,1.172,0.188,1.484,0.188c0.063,0.668-0.484,1.406-1.641,2.219l0.016,0.188
			c0.041,0.406,0.088,1.453,0.141,3.141h0.172c1.688-0.488,2.51-0.922,2.469-1.297c0.135-2.406,0.203-4.807,0.203-7.203h-0.172
			l0.141-0.375c-0.031-0.238-0.166-0.359-0.406-0.359h-1.297c-0.01-0.135-0.088-0.322-0.234-0.563
			C145.469,12.199,146.178,11.891,146.969,11.891z M153.516,7.094c1.75,0.281,2.646,0.652,2.688,1.109l-0.141,0.359l0.219,0.375
			c0,1.012-0.406,1.871-1.219,2.578c-2.01,2.969-3.4,4.453-4.172,4.453l-0.953-0.203l-0.063-0.547c1.354-2.531,2.021-3.885,2-4.063
			c0.271-0.188,0.719-1.238,1.344-3.156c-0.135-0.229-0.213-0.41-0.234-0.547L153.516,7.094z M152.234,16.516
			c2.396,0.459,3.631,1.074,3.703,1.844c0.115,0,0.178,0.063,0.188,0.188c-0.041,0.615-0.443,0.922-1.203,0.922l-3.422-0.922
			c-0.406-0.457-0.631-0.891-0.672-1.297C151.297,16.762,151.766,16.516,152.234,16.516z M158.75,11.516
			c2.135,0.344,3.26,1.084,3.375,2.219l0.016,0.188c0.072,0.803,0.031,1.668-0.125,2.594h0.203
			c-0.479,3.771-1.141,7.031-1.984,9.781h0.188c-0.5,1.98-1.26,2.969-2.281,2.969c-3.447-1.156-5.271-2.697-5.469-4.625
			c0.209-0.125,0.447-0.188,0.719-0.188c0.063,0.563,1.172,1.115,3.328,1.656c1.365-2.26,2.328-5.52,2.891-9.781
			c0.156-0.801,0.225-1.354,0.203-1.656L159.641,13l-0.938-0.188c-1.115,0.24-2.459,0.359-4.031,0.359l-0.219-0.359
			C155.631,11.949,157.063,11.516,158.75,11.516z"/>
		<path fill="#943332" d="M173.453,6.641c2.104,4.406,3.275,7.184,3.516,8.328c-0.396,0.25-0.766,0.375-1.109,0.375H175.5
			c-1.938-1.926-3.172-3.963-3.703-6.109C172.109,7.506,172.662,6.641,173.453,6.641z M176.797,18.109
			c0.916,0,1.469,1.109,1.656,3.328l-0.188,1.094v0.563c0,0.375,0.063,0.563,0.188,0.563l-0.188,0.922v3.875
			c0,0.125,0.063,0.188,0.188,0.188L178.266,29c0.125,1.084,0.188,1.703,0.188,1.859c0,0.928-0.313,1.667-0.938,2.219h-0.359
			c-0.615-0.322-0.922-0.567-0.922-0.734c-0.25-3.802-0.375-8.484-0.375-14.047C176.275,18.297,176.588,18.234,176.797,18.109z
			 M195.078,4.438h0.734c0.344,0,0.713,0.678,1.109,2.031l-5.531,5.734c2.344,1.469,3.516,2.637,3.516,3.5
			c0,0.865-0.74,1.297-2.219,1.297l-6.469-5.719v-0.188c0-0.25,0.182-0.375,0.547-0.375l2.969,0.563
			c1.969-2.344,2.953-3.703,2.953-4.078H192.5l-10.359,2.594c0.375,0.449,0.563,0.881,0.563,1.297
			c-1.322,4.188-2.984,6.281-4.984,6.281h-0.922c0-0.125-0.063-0.313-0.188-0.563c1.229,0,2.766-2.275,4.609-6.828
			c-1.916,0.49-3.516,0.734-4.797,0.734l-0.188-0.375v-0.188c0.479-0.531,2.447-1.141,5.906-1.828c0-0.594,3.697-1.828,11.094-3.703
			C193.881,4.5,194.494,4.438,195.078,4.438z M184.172,13.672h0.922c0.375,0,0.688,0.559,0.938,1.672v0.172
			c-0.74,0.803-1.109,1.234-1.109,1.297V17c0.197,0,0.875-0.182,2.031-0.547v0.172l0.375-0.172h2.578
			c2.344,0,3.516,1.043,3.516,3.125c0.125,0,0.188,0.188,0.188,0.563l-0.188,0.734c0,0.137,0.063,0.324,0.188,0.563
			c-0.125,0.668-0.188,1.219-0.188,1.656v0.563c0,0.281,0.063,0.527,0.188,0.734l-0.188,0.375c0,0.115,0.063,0.172,0.188,0.172
			l-0.188,1.297v5.734c0,1.729-0.307,2.594-0.922,2.594c-2.469-0.989-3.703-1.911-3.703-2.766c-2.271,0.563-3.443,0.928-3.516,1.094
			l-0.359-0.188h-1.109c-0.271,0-0.516,0.063-0.734,0.188c-0.656,0-1.275-0.614-1.859-1.844l0.359-0.75l1.688,0.203
			c0.719,0,2.01-0.067,3.875-0.203l0.906,0.203c0.25-0.135,0.438-0.203,0.563-0.203c0.656,1.115,1.4,1.672,2.234,1.672v-0.172
			c0.115-1.271,0.172-2.26,0.172-2.969v-2.781c0-0.113,0.063-0.172,0.188-0.172l-0.188-0.375v-0.375
			c0-0.125,0.063-0.188,0.188-0.188l-0.188-0.359c0-0.125,0.063-0.188,0.188-0.188l-0.188-0.359v-0.563
			c0-0.125,0.063-0.188,0.188-0.188l-0.188-0.359v-2.969c0-0.938-0.244-1.488-0.734-1.656h-1.672c-0.115,0-0.172-0.063-0.172-0.188
			c-1.521,0.375-2.572,0.563-3.156,0.563v0.188l0.563,0.719v1.125h2.203c0.75,0.49,1.125,0.98,1.125,1.469
			c0,1.043-0.615,2.459-1.844,4.25l1.109,1.484v0.922c0,0.25-0.131,0.375-0.391,0.375c-0.76-0.094-1.494-0.4-2.203-0.922
			c-1.25,0.854-2.24,1.281-2.969,1.281h-0.734c-0.178,0-0.365-0.188-0.563-0.563l-0.906,0.203h-0.188V29
			c2.146-0.895,3.375-1.691,3.688-2.391c-0.604-1.113-1.469-1.672-2.594-1.672c0-0.281-0.119-0.52-0.359-0.719l0.359-0.75h-1.094
			v-0.547h0.547l0.938,0.172c0.74-2.344,1.229-3.635,1.469-3.875c0.125,0,0.188-0.063,0.188-0.188c-0.781,0-1.703-0.057-2.766-0.172
			c-0.125,0.365-0.494,0.547-1.109,0.547v-0.375c0-0.238,0.74-0.609,2.219-1.109c-0.125-0.238-0.188-0.422-0.188-0.547l-0.563,0.375
			h-0.359c0-0.197,0.672-0.879,2.016-2.047c0-0.219,0.131-0.52,0.391-0.906c-0.125-0.219-0.188-0.469-0.188-0.75
			C183.484,13.797,183.85,13.672,184.172,13.672z M183.813,0h0.172c1.063,0,2.484,1.355,4.266,4.063v0.75
			c0,0.188-0.25,0.371-0.75,0.547c-1.844-0.125-2.766-0.369-2.766-0.734c0.24-0.301,0.359-0.551,0.359-0.75
			c-0.854-1.844-1.281-2.947-1.281-3.313V0z M184.375,23.656c0.053,0,0.416,0.309,1.094,0.922c0.947-1.582,1.443-2.629,1.484-3.141
			l-0.375-0.188h-0.547C184.928,22.178,184.375,22.98,184.375,23.656z"/>
	</g>
</g>
</svg>
