<?xml version="1.0" encoding="utf-8"?>
<!-- Generator: Adobe Illustrator 16.0.0, SVG Export Plug-In . SVG Version: 6.00 Build 0)  -->
<!DOCTYPE svg PUBLIC "-//W3C//DTD SVG 1.1//EN" "http://www.w3.org/Graphics/SVG/1.1/DTD/svg11.dtd">
<svg version="1.1" id="圖層_1" xmlns="http://www.w3.org/2000/svg" xmlns:xlink="http://www.w3.org/1999/xlink" x="0px" y="0px"
	 width="242.188px" height="50.074px" viewBox="0 0 242.188 50.074" enable-background="new 0 0 242.188 50.074"
	 xml:space="preserve">
<g>
	<g>
		<g>
			<path fill="#943332" d="M162.328,8.828c0.125,0,0.188,0.058,0.188,0.172l0.906-0.172h1.484c0.906,0,1.401,0.188,1.484,0.563
				h-0.563V9.75l0.938,0.375v0.922c-0.197,0-0.447,0.12-0.75,0.359h-0.734c-0.114,0-0.172-0.058-0.172-0.172l-0.391,0.172h-0.359
				c-4.844,0-9.833,0.683-14.969,2.047c-1.927,0.489-4.021,0.859-6.281,1.109c-1.604-0.406-2.406-1.146-2.406-2.219
				c0.125-0.864,0.308-1.297,0.547-1.297H142c0.198,0,0.448,0.25,0.75,0.75C151.729,10.192,158.256,9.203,162.328,8.828z"/>
			<path fill="#943332" d="M182.047,1.328h0.453c0.271,1.479,0.662,2.219,1.172,2.219l0.156,0.297c0,1.011-2.317,3.672-6.953,7.984
				c-1.552,1.386-2.682,2.078-3.391,2.078c-0.104-0.208-0.156-0.354-0.156-0.438l7.984-11.109V2.078h-0.297V1.469L182.047,1.328z
				 M179.828,11.391c0.792,1.386,1.188,2.614,1.188,3.688v4.578c-0.177,2.073-0.474,3.109-0.891,3.109h-0.891
				c-0.489-1.104-0.734-1.745-0.734-1.922V20.25c0-1.438,0.053-3.656,0.156-6.656h0.141l-0.141-0.297v-0.438
				C178.823,11.88,179.214,11.391,179.828,11.391z M187.359,4.141h0.172c0,0.333,0.49,0.729,1.469,1.188l0.141,0.719V7.25
				c0,1.104-0.833,2.531-2.5,4.281c4.406-1.583,7.016-2.375,7.828-2.375c0,0.083,0.589,0.38,1.766,0.891l0.156,0.297
				c0,2.313-0.938,6.354-2.813,12.125c-0.104,0-0.156,0.099-0.156,0.297h-0.281c-0.239-0.198-0.438-0.297-0.594-0.297
				c-0.188,0.094-0.333,0.141-0.438,0.141l-1.188-1.328c-0.166,0-0.51-0.786-1.031-2.359h-0.297
				c-1.219,1.864-2.354,2.797-3.406,2.797h-0.734c-0.416-0.479-0.911-0.719-1.484-0.719v-0.156c0-0.198,0.594-0.489,1.781-0.875
				c0.459-0.323,1.787-2.396,3.984-6.219l0.156-0.734l-3.406,1.172l-1.031-2.063c-1.146,0.896-1.885,1.344-2.219,1.344h-0.297
				c-0.5-0.333-0.75-0.536-0.75-0.609c0.115-0.188,0.172-0.333,0.172-0.438c-0.208-0.104-0.359-0.156-0.453-0.156v-0.141
				c1.303,0,3.026-2.266,5.172-6.797l-0.156-0.609C187.078,4.333,187.225,4.141,187.359,4.141z M188.25,0h0.313
				c2.469,1.114,3.844,1.901,4.125,2.359c2.553,2.614,4.672,4.339,6.359,5.172c0,0.479,1.234,1.125,3.703,1.938h0.141v0.297
				c0,0.792-0.489,1.38-1.469,1.766v0.141h-0.75c-1.041,0-2.766-1.13-5.172-3.391c-0.364,0-1.099-0.745-2.203-2.234
				c-1.521-1.427-2.708-2.802-3.563-4.125C188.745,0.849,188.25,0.208,188.25,0z M191.953,12.266l0.156,0.313v0.891
				c0,1.208-0.541,2.729-1.625,4.563v0.297c0,0.333,0.245,0.776,0.734,1.328v0.156h0.281c0.99-3.052,1.683-5.714,2.078-7.984h-0.156
				C193.381,11.828,192.891,11.974,191.953,12.266z"/>
			<path fill="#943332" d="M222.281,0.422c2.479,0.594,3.729,1.083,3.75,1.469c-0.271,1.021-1.328,2.192-3.172,3.516
				c-0.364,0.406-0.541,0.714-0.531,0.922c0.781,1.813,1.375,2.734,1.781,2.766c4.188-0.864,6.881-1.297,8.078-1.297
				c0.896,0,1.475,0.62,1.734,1.859c0.625,0.302,0.959,0.917,1,1.844c-0.208,0.125-0.453,0.188-0.734,0.188
				c-1.5-0.489-2.557-0.734-3.172-0.734c-4.177,0.156-6.255,0.589-6.234,1.297l0.016,0.172c0.281,7.021-0.75,10.531-3.094,10.531
				h-2.031c-2.844,0-4.813-1.542-5.906-4.625h0.188c1.553,1.239,3.115,1.859,4.688,1.859h0.734c1.24,0,1.99-1.292,2.25-3.875
				c0.25,0,0.328-1.172,0.234-3.516c-5.771,1.239-8.828,1.859-9.172,1.859c-1.614-0.292-2.427-0.667-2.438-1.125l-0.016-0.172
				c0.678-0.583,4.203-1.636,10.578-3.156c0.729-0.323,1.089-0.567,1.078-0.734l-0.016-0.563c-0.458-0.739-1.025-1.109-1.703-1.109
				c-1.219,0.906-2.422,1.589-3.609,2.047c-0.5-0.188-0.755-0.37-0.766-0.547l-0.016-0.391l4.063-4.984l-0.016-0.375h-2.594
				c-0.625-0.302-0.953-0.792-0.984-1.469C216.886,1.578,218.896,1.026,222.281,0.422z"/>
		</g>
	</g>
	<path fill="#96B0CA" d="M118.725,32.227c-1.769-0.438-3.67-0.259-5.27,0.4c-2.402,0.054-4.01,1.458-4.487,3.183
		c-3.601,0.29-7.192,0.682-10.768,1.188c-0.029,0.004-0.059,0.01-0.088,0.014c-0.371-0.525-0.944-0.945-1.742-1.141
		c-0.11-0.027-0.22-0.038-0.329-0.054c-1.015-0.445-2.17-0.689-3.17-0.063c-0.847,0.529-1.266,1.419-1.361,2.312
		c-3.506,0.606-6.998,1.27-10.487,1.944c-0.236-0.521-0.592-1-1.078-1.398c-1.548-1.268-3.817-1.283-5.75-0.728
		c-0.911,0.014-1.896,0.332-2.635,0.775c-1.423,0.855-2.436,2.168-2.628,3.604c-3.607,0.619-7.232,1.149-10.883,1.558
		c-0.003-0.006-0.003-0.012-0.006-0.018c-0.258-0.507-0.725-0.885-1.257-1.119c-1.016-0.715-2.525-0.83-3.605,0.074
		c-0.317,0.266-0.515,0.573-0.655,0.891c-0.268,0.203-0.499,0.439-0.662,0.719c-0.339,0.021-0.675,0.057-1.015,0.074
		c-3.839,0.206-7.691,0.248-11.538,0.144c-0.365-1.599-1.705-2.988-3.764-3.377c-1.92-0.362-3.63,0.39-4.608,1.62
		c-0.473,0.336-0.88,0.726-1.19,1.176c-2.164-0.207-4.322-0.461-6.469-0.77c-6.777-0.975-17.311-1.828-20.743-7.887
		c-0.783-1.383-3.162-0.17-2.381,1.209c2.681,4.733,8.732,6.438,14.248,7.57c4.86,0.999,9.797,1.738,14.766,2.223
		c0.115,0.937,0.592,1.848,1.353,2.51c2.412,2.1,6.633,1.326,8.231-1.172c0.149-0.232,0.264-0.473,0.361-0.717
		c4.289,0.118,8.521-0.015,12.721-0.315c0.553,1.085,1.863,1.78,3.343,1.573c0.738-0.104,1.405-0.416,1.91-0.855
		c0.359-0.195,0.612-0.507,0.702-0.911c0.058-0.114,0.1-0.232,0.139-0.354c3.821-0.419,7.622-0.958,11.417-1.573
		c1.999,3.76,9.502,2.555,11.43-0.714c0.259-0.44,0.434-0.918,0.525-1.407c2.059-0.387,4.121-0.78,6.189-1.172
		c1.495-0.283,2.992-0.542,4.49-0.794c0.221,0.726,0.821,1.188,1.582,1.403c0.906,0.508,2.023,0.686,3.184,0.306
		c0.371-0.121,0.705-0.291,1.007-0.491c0.893-0.51,1.493-1.387,1.519-2.316c3.257-0.434,6.52-0.8,9.791-1.073
		c0.18,0.507,0.452,1.003,0.847,1.458c2.365,2.728,8.431,3.296,11.155,0.619c0.793-0.78,1.25-1.734,1.404-2.713
		c3.765-0.039,7.537,0.041,11.318,0.248c0.038,0.084,0.085,0.164,0.13,0.244c-0.009,0.104-0.024,0.208-0.025,0.31
		c-0.013,1.782,1.198,3.121,3.204,3.501c1.775,0.336,4.183,0.31,5.484-0.934c0.664-0.634,1.049-1.41,1.207-2.229
		c2.529,0.317,5.05,0.689,7.563,1.101c0.006,0.561,0.153,1.127,0.479,1.654c1.549,2.493,6.004,3.465,8.68,1.8
		c0.701-0.437,1.172-0.989,1.454-1.595c4.664,0.838,9.331,1.646,14.027,2.258c0.331,0.73,0.928,1.376,1.691,1.813
		c0.803,0.666,2.301,0.986,3.385,0.636c0.906-0.293,1.603-0.919,2.053-1.68c0.007-0.009,0.015-0.017,0.021-0.024
		c1.452,0.109,2.906,0.201,4.367,0.25c2.883,0.096,5.752,0.052,8.605-0.109c0.543,0.493,1.51,0.408,2.031-0.055
		c0.006,0.028,0.009,0.057,0.015,0.085c0.938,4.434,7.009,3.89,9.708,1.088c0.852-0.884,1.258-1.774,1.323-2.626
		c10.909-1.836,21.595-4.943,32.049-8.056c1.669-0.497,0.952-2.812-0.733-2.31c-10.464,3.115-21.107,6.24-32.01,8.054
		c-0.946-1.334-2.746-2.363-4.799-2.77c-3.65-0.724-7.702,1.104-8.1,4.206c-0.635,0.033-1.268,0.071-1.904,0.093
		c-3.31,0.11-6.586-0.009-9.844-0.256c-0.086-0.596-0.369-1.14-0.783-1.595c-0.122-0.165-0.256-0.324-0.417-0.467
		c-1.864-1.652-5.149-1.094-6.457,0.848c-0.081,0.121-0.149,0.243-0.209,0.367c-4.639-0.635-9.251-1.452-13.864-2.284
		c-0.357-1.226-1.286-2.36-2.604-2.987c-1.688-0.803-3.549-0.678-5.038,0.062c-0.893,0.179-1.642,0.625-2.185,1.222
		c-2.187-0.35-4.377-0.67-6.576-0.939c-0.703-0.086-1.408-0.146-2.112-0.224c-0.486-1.476-1.621-2.796-3.21-3.39
		c-2.5-0.934-5.786,0.389-6.662,2.552c-3.834-0.213-7.674-0.309-11.514-0.279C121.692,33.836,120.508,32.669,118.725,32.227z
		 M35.541,44.431c-0.005-0.007-0.008-0.015-0.014-0.021c-0.297-0.388-0.714-0.639-1.167-0.76c0.027-0.038,0.054-0.076,0.075-0.115
		c0.247-0.024,0.504-0.005,0.76,0.071c0.568,0.169,0.964,0.488,1.205,0.874C36.114,44.466,35.828,44.445,35.541,44.431z
		 M96.223,40.565c-0.298,0.159-0.65,0.267-1.008,0.322c-0.22-0.107-0.404-0.258-0.563-0.429c0.755,0.097,1.527-0.14,2.017-0.741
		c0.152-0.022,0.306-0.048,0.458-0.069C96.945,40.011,96.652,40.335,96.223,40.565z M204.25,41.337
		c-0.02-0.045-0.046-0.081-0.069-0.121c0.226,0,0.437-0.052,0.623-0.142c0.283,0.128,0.539,0.276,0.761,0.444
		c-0.388,0.056-0.777,0.104-1.166,0.154L204.25,41.337z M178.769,41.848c0.278-0.329,0.704-0.582,1.146-0.597
		c0.75-0.025,1.201,0.373,1.359,0.874C180.438,42.042,179.604,41.946,178.769,41.848z M178.372,44.755
		c0.1,0.039,0.179,0.094,0.287,0.125c0.581,0.169,1.161,0.184,1.691,0.086c0.017,0.084,0.033,0.168,0.058,0.253
		c-0.678,0.146-1.402,0.063-2.045-0.287C178.348,44.877,178.359,44.816,178.372,44.755z M142.009,38.568
		c-0.495,1.423-2.123,2.677-3.937,2.188c-0.402-0.108-0.714-0.298-0.967-0.524c1.503,0.291,3.13-0.031,4.14-1.218
		c0.131-0.153,0.241-0.321,0.339-0.496C141.727,38.533,141.867,38.553,142.009,38.568z M137.007,38.104
		c0.208,0.042,0.423,0.068,0.656,0.054c0.012-0.001,0.024-0.006,0.036-0.007c0.076,0.006,0.153,0.01,0.23,0.016
		c0.305,0.024,0.607,0.06,0.911,0.086c-0.358,0.358-0.929,0.572-1.463,0.531c-0.391-0.029-0.683-0.149-0.899-0.326
		c0.02-0.129,0.037-0.259,0.081-0.384C136.709,38.083,136.857,38.093,137.007,38.104z M136.692,35.191
		c0.051-0.065,0.103-0.127,0.155-0.185c0.559-0.443,1.242-0.766,1.973-0.855c1.002,0.053,1.732,0.892,1.968,1.89
		c-0.062-0.006-0.122-0.014-0.183-0.02c-0.063-0.12-0.181-0.223-0.377-0.271c-0.356-0.089-0.705-0.134-1.049-0.153
		C138.557,35.147,137.702,34.942,136.692,35.191z"/>
</g>
</svg>
