<?xml version="1.0" encoding="utf-8"?>
<!-- Generator: Adobe Illustrator 16.0.0, SVG Export Plug-In . SVG Version: 6.00 Build 0)  -->
<!DOCTYPE svg PUBLIC "-//W3C//DTD SVG 1.1//EN" "http://www.w3.org/Graphics/SVG/1.1/DTD/svg11.dtd">
<svg version="1.1" id="圖層_1" xmlns="http://www.w3.org/2000/svg" xmlns:xlink="http://www.w3.org/1999/xlink" x="0px" y="0px"
	 width="134.859px" height="29.75px" viewBox="0 0 134.859 29.75" enable-background="new 0 0 134.859 29.75" xml:space="preserve">
<g>
	<g>
		<path fill="#943332" d="M12.469,0c1.115,0.699,1.697,1.871,1.75,3.516c-0.063,0.605-0.084,1.193-0.063,1.766l0.031,0.953
			l0.125-0.016c0.178-0.01,0.713-0.145,1.609-0.406l-0.141-0.25l0.266-0.156l0.938-0.078c1,0.053,1.506,0.234,1.516,0.547
			l0.016,0.547c0.021,0.5-1.271,0.965-3.875,1.391L14.25,7.859l0.078,2.563c1.104-0.447,2.041-0.703,2.813-0.766l0.953-0.078
			c0.822,0.375,1.25,0.969,1.281,1.781l0.063,1.891h0.125l1.359,0.016l-1.109-0.859l-0.016-0.266c1.24-0.551,2.49-0.969,3.75-1.25
			l-0.063-1.766c-0.875,0.344-1.459,0.531-1.75,0.563l-0.406,0.031c-1.438-0.156-2.162-0.369-2.172-0.641l-0.016-0.141
			c-0.01-0.322,1.459-0.891,4.406-1.703l-0.094-2.703c-0.322,0.021-0.734-0.129-1.234-0.453c-0.396,0.043-0.672-0.113-0.828-0.469
			c-0.01-0.27,0.615-0.457,1.875-0.563c0.094,0,0.229,0.037,0.406,0.109c0.166-0.104,0.297-0.16,0.391-0.172
			c1.438-0.113,2.188,0.682,2.25,2.391c0.021,5.563,0.057,9.037,0.109,10.422l-0.094,1.234c2.709,0.072,4.068,0.322,4.078,0.75
			l0.016,0.547c0.021,0.48-0.146,0.809-0.5,0.984l-0.266,0.016c-0.969-0.188-2.1-0.316-3.391-0.391l-0.656,0.594l-0.953,0.078
			c-0.385-0.426-1.381-0.572-2.984-0.438l-2.969,0.25c-0.291,0.021-0.859,0.428-1.703,1.219l-0.672,0.188
			c-0.428,0.031-1.338-0.207-2.734-0.719L0.297,22L0,21.625v-0.281h0.125l5.094-1.234c-0.447,0.031-0.719-1.301-0.813-4
			C4.166,9.434,4.443,4.531,5.234,1.406c0.76-0.063,1.275,0.572,1.547,1.906l0.063,1.75c0.5-0.041,0.99-0.26,1.469-0.656
			c1.709-0.053,2.568,0.105,2.578,0.469l0.031,0.672c0.01,0.428-1.369,0.949-4.141,1.563l0.109,2.969
			C7.525,9.85,8.416,9.641,9.563,9.453c0.729,0.053,1.1,0.203,1.109,0.453l0.016,0.672c-0.135,0.646-1.203,1.053-3.203,1.219
			c0.01,0.084-0.209,0.146-0.656,0.188l0.078,2.156c1.344-0.469,2.234-0.719,2.672-0.75l0.125-0.016
			c0.813-0.072,1.234,0.256,1.266,0.984c-0.322,0.48-0.766,0.74-1.328,0.781v0.141l0.266-0.031c1.521-0.363,2.275-0.65,2.266-0.859
			c0.104-0.01,0.244,0.025,0.422,0.109c1.834-0.521,3.26-0.822,4.281-0.906l0.281-0.016c0.26-0.02,0.369-0.619,0.328-1.797
			l-0.016-0.797c-0.01-0.188-0.104-0.27-0.281-0.25c-1.969,0.5-2.932,1.256-2.891,2.266l-0.406,0.297L13.5,13.328
			c-0.834-0.457-1.271-1.234-1.313-2.328l-0.109-3.109l-0.688-0.625c0.531-0.094,0.791-0.291,0.781-0.594
			c-0.031-0.801-0.021-2.973,0.031-6.516L12.469,0z M9.172,21.141l0.406-0.031c1.365,0.574,2.057,1.057,2.078,1.453l0.031,0.672
			c0.084,2.332-1.469,4.359-4.656,6.078l-0.266,0.016l-0.813-0.063c-0.594,0.322-0.947,0.484-1.063,0.484l-0.281-0.375
			c0.959-0.844,2.244-2.621,3.859-5.328c0.5-1.26,0.74-2.094,0.719-2.5L9.172,21.141z M7.109,16.156l0.031,1.078
			c0.021,0.48,0.094,1.244,0.219,2.297c3.469-0.645,5.438-0.99,5.906-1.031v-0.125c-0.604-0.688-0.943-1.385-1.016-2.094
			l-1.344,0.109c-0.678,0.053-1.5-0.197-2.469-0.75C7.541,15.787,7.1,15.959,7.109,16.156z M13.313,16.063
			c0.053,0.541,0.484,1.271,1.297,2.188c1.26-0.094,1.885-0.322,1.875-0.688c0.322-0.988,0.475-1.771,0.453-2.344l-0.141,0.016
			L13.313,16.063z M21.594,13.344l0.016,0.141c0.354-0.031,0.541,0.182,0.563,0.641c-0.365,0.387-0.719,0.594-1.063,0.625
			L19.5,14.875c-0.146,0.012-0.385,0.934-0.719,2.766l3.641-0.297v-0.125c-0.385-0.479-0.578-0.828-0.578-1.047l0.266-0.156
			L22.375,16c0.322-0.031,0.734,0.115,1.234,0.438l-0.031-0.813c-0.021-0.625-0.01-1.619,0.031-2.984
			C22.547,13.09,21.875,13.324,21.594,13.344z M19.969,20.391c2.365-0.188,4.494,1.449,6.391,4.906
			c0.291,0.865,0.443,1.438,0.453,1.719l0.031,0.672c-0.313,0.572-0.525,0.865-0.641,0.875l-0.672,0.047
			c-1.021,0.082-1.74-1.031-2.156-3.344c-1.271-2.229-2.541-3.797-3.813-4.703C19.729,20.459,19.865,20.402,19.969,20.391z"/>
		<path fill="#943332" d="M45.938,1.469h0.719c2.25,0.178,3.416,0.672,3.5,1.484c0.094,0.918-0.6,3.809-2.078,8.672
			c2.469,3.406,5.35,6.859,8.641,10.359c1.209,0.563,3.385,1.359,6.531,2.391l0.016,0.188c0.063,0.625-0.646,0.938-2.125,0.938
			c-3.375,0-5.443-0.375-6.203-1.125c-1.781-1.719-4.303-5.229-7.563-10.531c-0.021-0.24-0.156-0.359-0.406-0.359
			c-0.781,1.553-1.678,3.027-2.688,4.422c-0.5,1.115-0.813,1.672-0.938,1.672h-0.172c0.01-0.738,0.219-1.109,0.625-1.109
			l-0.234-0.375c0.125,0,0.182-0.063,0.172-0.188h-0.188c-0.969,1.469-1.438,2.334-1.406,2.594c0.26,0.041,0.4,0.162,0.422,0.359
			l0.031,0.203c0.021,0.24-0.1,0.359-0.359,0.359l-0.203-0.359l0.125-0.375c-0.365,0-0.516,0.309-0.453,0.922h0.188
			c-1.822,3.209-3.318,4.813-4.484,4.813c-0.916,0-1.432-0.188-1.547-0.563L35.828,25.5c2.084-1.863,4.109-4.885,6.078-9.063
			c3.146-5.551,4.859-9.863,5.141-12.938c-0.156,0-0.766-0.551-1.828-1.656l0.344-0.188l0.406,0.188L45.938,1.469z"/>
		<path fill="#943332" d="M77.953,1.656c2.594,0.24,3.891,0.605,3.891,1.094c0.24,0.459,0.359,0.953,0.359,1.484
			c0,0.199-0.859,0.875-2.578,2.031v0.75c0.854,0,1.281,0.797,1.281,2.391c0.094,0.5,0.219,0.75,0.375,0.75
			c2.219-0.365,3.328-0.734,3.328-1.109l-0.188-0.375c0.135,0,0.318-0.057,0.547-0.172c0,0.156,0.313,0.459,0.938,0.906V9.219
			l-0.375-1.281c0.344,0.041,1.328,0.84,2.953,2.391c1.979-0.854,3.766-1.281,5.359-1.281c2.709,0.584,4.063,1.506,4.063,2.766
			c-0.291,0.604-1.275,1.777-2.953,3.516v0.188c0.865,0.781,1.297,1.209,1.297,1.281v0.188c0,0.406-0.74,0.719-2.219,0.938h-1.469
			c-0.125,0-0.188,0.057-0.188,0.172c-0.678-0.24-1.172-0.672-1.484-1.297l-0.359-0.172c0.094-0.719,0.953-1.891,2.578-3.516
			l0.563-0.922V12c-0.135,0-0.322-0.063-0.563-0.188c-2.219,0.5-3.447,0.75-3.688,0.75c-0.25-0.301-0.375-0.551-0.375-0.75
			c-0.25,0.041-0.375,0.166-0.375,0.375l2.406,6.281c-0.365,0-0.547,0.188-0.547,0.563h-0.203c-0.24,0-0.359-0.188-0.359-0.563
			l-0.359,0.172h-0.375c-1.115-1.957-2.104-4.541-2.969-7.75c0-0.125-0.057-0.188-0.172-0.188c-1.094,0.459-2.76,1.016-5,1.672
			l0.188,2.203v2.406c1.24,0.25,1.979,0.375,2.219,0.375l0.188-0.375L83.5,15.875h0.188c1.604,1.438,2.406,2.24,2.406,2.406v0.75
			c0,0.365-0.557,0.668-1.672,0.906c-0.584,0-1.631-0.182-3.141-0.547l-0.188,0.359v5.922c0,0.178-0.182,0.359-0.547,0.547
			c-1.219,0-2.141-0.797-2.766-2.391c-0.625-2.395-0.938-3.938-0.938-4.625c-0.365,0-1.406,0.746-3.125,2.234l-0.938,0.172
			c-0.365,0-0.854-0.188-1.469-0.563c0-0.51,0.428-0.881,1.281-1.109c3.697-3.875,5.547-6.094,5.547-6.656
			c-0.125,0-0.188-0.057-0.188-0.172c0,0.459-1.975,0.828-5.922,1.109c-0.322-0.082-0.932-0.578-1.828-1.484
			c1.25,0,4.203-0.676,8.859-2.031v-0.547c0-0.125-0.057-0.188-0.172-0.188c0-0.125,0.057-0.188,0.172-0.188l-0.172-1.844V6.641
			c-0.99,0.49-1.672,0.734-2.047,0.734c-0.979-0.238-1.469-0.484-1.469-0.734c1.896-1.01,3.125-2.176,3.688-3.5
			c-0.584-0.625-0.953-0.938-1.109-0.938V1.656z M77.781,17.922v1.109c0,0.365,0.182,1.1,0.547,2.203h0.359v-2.594l0.203-0.359
			L77.781,17.922z"/>
		<path fill="#943332" d="M125.875,2.094c0.396,0.135,0.594,0.26,0.594,0.375l0.969-0.172c1.178,0.344,1.766,0.859,1.766,1.547
			c-0.678,2.043-2.104,3.803-4.281,5.281c-0.146,0.031-0.537,0.621-1.172,1.766c1.031,0,2.068,0.906,3.109,2.719
			c1.428-0.395,3.703-0.723,6.828-0.984c0.781,0.574,1.172,1.094,1.172,1.563c-3.969,0.656-6.51,1.303-7.625,1.938l0.203,0.984
			v2.547c-0.375,5.447-1.213,8.172-2.516,8.172c-1.885,0-3.709-1.359-5.469-4.078v-1.172h0.391c0,0.156,0.385,0.547,1.156,1.172
			l-0.188,0.375v0.203c0.385,0,0.578,0.131,0.578,0.391l0.391-0.203h0.203v0.203l-0.203,0.391l0.969,0.203h0.797
			c0.594,0,1.109-2.734,1.547-8.203h-0.172c-3.709,1.563-5.729,2.344-6.063,2.344c-0.197,0-0.984-0.197-2.359-0.594h-0.375
			c0.969,0.646,1.484,1.168,1.547,1.563c0,0.959-0.838,1.484-2.516,1.578h-0.391c-0.553,0-1.463-0.266-2.734-0.797
			c-0.553,1.303-1.328,1.953-2.328,1.953c-1.334,0-2.443-1.166-3.328-3.5c0.125-0.26,0.188-0.457,0.188-0.594
			c1.041,1.041,1.76,1.563,2.156,1.563v0.203h-0.391V21h0.594l0.578-0.766v-0.969c-1.428-2.113-2.141-3.869-2.141-5.266
			c0.125-0.363,0.188-1.146,0.188-2.344c-1.26,0.646-2.172,1.23-2.734,1.75h-0.375c-1.563,0-2.344-0.838-2.344-2.516
			c2.385-1.563,4.01-2.344,4.875-2.344c0.906-0.27,1.359-0.729,1.359-1.375V6.969c0-0.957-0.26-2.385-0.781-4.281
			c0.656,0.387,0.984,0.844,0.984,1.375h0.188V3.641h0.391c0.656,1.23,1.109,2.469,1.359,3.719c1.822-0.291,2.734-0.813,2.734-1.563
			c0-0.832,0.193-1.285,0.578-1.359c0.271,0.041,0.406,0.172,0.406,0.391c-0.135,0.219-0.203,0.48-0.203,0.781l0.391,0.188
			c0.031-0.25,0.162-0.375,0.391-0.375c0.219,0.303,0.416,0.818,0.594,1.547c-0.365,0.969-1.021,3.703-1.969,8.203
			c-0.385,0.053-0.578,1.281-0.578,3.688c0.646,0.396,1.166,0.594,1.563,0.594h0.578c0.135,0,0.4-0.52,0.797-1.563l-0.203-0.391
			v-0.391c0-0.875,2.275-1.65,6.828-2.328c0-0.24,0.709-0.438,2.125-0.594V14c0-0.863-0.838-1.584-2.516-2.156
			c-0.271-0.822-0.406-1.338-0.406-1.547c1.709-2.666,2.75-4.488,3.125-5.469c-1.166,0-2.4-0.254-3.703-0.766V3.844l0.203-0.375
			h-0.781V3.266c0.041-0.25,0.172-0.375,0.391-0.375c0.146,0,0.338,0.059,0.578,0.172C123.557,2.781,125.053,2.459,125.875,2.094z
			 M110.094,10.469c-0.135,2.293-0.203,3.662-0.203,4.109c0,0.199,0.125,0.787,0.375,1.766h0.203c1.166-4.303,1.75-6.707,1.75-7.219
			C110.803,9.656,110.094,10.104,110.094,10.469z"/>
	</g>
</g>
</svg>
