<?xml version="1.0" encoding="utf-8"?>
<!-- Generator: Adobe Illustrator 16.0.0, SVG Export Plug-In . SVG Version: 6.00 Build 0)  -->
<!DOCTYPE svg PUBLIC "-//W3C//DTD SVG 1.1//EN" "http://www.w3.org/Graphics/SVG/1.1/DTD/svg11.dtd">
<svg version="1.1" id="圖層_1" xmlns="http://www.w3.org/2000/svg" xmlns:xlink="http://www.w3.org/1999/xlink" x="0px" y="0px"
	 width="242.187px" height="52.246px" viewBox="0 0 242.187 52.246" enable-background="new 0 0 242.187 52.246"
	 xml:space="preserve">
<g>
	<g>
		<g>
			<path fill="#943332" d="M164.844,11c0.125,0,0.188,0.058,0.188,0.172L165.938,11h1.484c0.906,0,1.401,0.188,1.484,0.563h-0.563
				v0.359l0.938,0.375v0.922c-0.198,0-0.448,0.12-0.75,0.359h-0.734c-0.114,0-0.172-0.058-0.172-0.172l-0.391,0.172h-0.359
				c-4.844,0-9.833,0.683-14.969,2.047c-1.927,0.489-4.021,0.859-6.281,1.109c-1.604-0.406-2.406-1.146-2.406-2.219
				c0.125-0.864,0.308-1.297,0.547-1.297h0.75c0.198,0,0.448,0.25,0.75,0.75C154.245,12.364,160.771,11.375,164.844,11z"/>
			<path fill="#943332" d="M183.5,5.172h0.375c1.479,1.094,2.219,1.708,2.219,1.844v1.656c0,1.594-0.984,3.323-2.953,5.188v0.188
				c4.594-1.636,7.672-2.625,9.234-2.969c0,0.219,0.739,0.589,2.219,1.109l0.188,0.375v0.563c0,1.844-0.313,3.63-0.938,5.359
				l0.188,0.359c-1.104,3.948-2.026,6.906-2.766,8.875h-0.375l-0.547-0.359l-0.375,0.172c-1.354-0.678-2.339-2.156-2.953-4.438
				h-0.188c-1.823,2.344-3.609,3.516-5.359,3.516c-0.354-0.74-0.969-1.109-1.844-1.109c0-0.125,0.984-0.677,2.953-1.656l4.25-7.031
				l0.188-0.922c-1.229,0.364-2.646,0.859-4.25,1.484v-0.188c-0.406,0.239-0.714,0.359-0.922,0.359
				c-0.989-0.114-1.484-0.547-1.484-1.297h-0.172c-0.813,0.261-1.37,0.391-1.672,0.391h-1.109c-0.281,0-0.526-0.433-0.734-1.297
				h-0.375l-0.922,0.188l-0.188-0.391c2.979,0,5.442-2.214,7.391-6.641c0.614-0.917,0.922-1.656,0.922-2.219V5.172z M185.172,0
				c3.177,1.458,4.776,2.323,4.797,2.594c3.573,3.594,6.219,5.75,7.938,6.469c1.261,1.104,3.547,2.089,6.859,2.953
				c0.781,0,1.214,0.183,1.297,0.547v0.188c-0.375,0-0.563,0.125-0.563,0.375h0.359v0.547c0,0.313-0.614,0.62-1.844,0.922
				c-0.302,0-1.349-0.12-3.141-0.359v0.188c-1.823,0-3.797-1.114-5.922-3.344c-1.219-0.583-2.942-2.308-5.172-5.172
				c-0.406,0-1.391-1.104-2.953-3.313c-0.614-0.917-1.167-1.536-1.656-1.859V0z M189.609,14.969v1.672
				c0,1.583-0.683,3.37-2.047,5.359c0,0.375,0.308,1.047,0.922,2.016h0.563c1.114-3.719,1.911-6.917,2.391-9.594h-0.172
				C190.359,14.786,189.808,14.969,189.609,14.969z"/>
			<path fill="#943332" d="M226.296,1.938c1.469,0.573,2.203,1.802,2.203,3.688l-0.188,1.109v0.75
				c0.813-0.375,1.678-0.563,2.594-0.563h1.109c1.781,0,2.828,1.234,3.141,3.703V11c0,1.802-1.291,5.989-3.875,12.563
				c-1.094,1.479-2.02,2.219-2.781,2.219h-0.375c-2.582-1.229-3.875-2.708-3.875-4.438c-0.354-0.614-0.598-0.922-0.734-0.922
				c-2.625,3.198-4.656,4.797-6.094,4.797v-0.188l-0.938,0.391l-0.172-0.391l0.359-0.547h-0.188
				c-0.426,0.125-0.672,0.188-0.734,0.188h-0.172v-0.188c1.824,0,4.225-3.078,7.203-9.234l1.109-3.703h-0.188
				c-1.729,0.292-2.713,0.542-2.953,0.75c-0.135,0-0.203-0.067-0.203-0.203c-0.926,0.136-1.541,0.323-1.844,0.563h-0.359
				c-1.354,0-2.344-0.984-2.969-2.953c-0.229-0.021-0.41-0.453-0.547-1.297c0.531,0,1.334,0.433,2.406,1.297h0.359l1.297-0.188
				v0.188c3.949-0.771,5.922-1.266,5.922-1.484l0.734-2.031c-0.125,0-0.188-0.058-0.188-0.172c0.365,0,0.547-0.683,0.547-2.047
				V3.609c0-0.625-0.244-0.938-0.734-0.938V2.5C225.296,2.125,225.671,1.938,226.296,1.938z M224.608,19.5l2.797,3.328l0.719,0.188
				c1.115-1.021,2.1-2.938,2.953-5.75l0.391-0.359l-0.188-0.359c0.865-2.708,1.297-5.177,1.297-7.406
				c-0.135,0-0.203-0.058-0.203-0.172c-3.447,0.781-5.172,1.458-5.172,2.031c-0.729,2.656-1.65,5.489-2.766,8.5H224.608z"/>
		</g>
	</g>
	<path fill="#96B0CA" d="M118.725,34.397c-1.769-0.438-3.67-0.258-5.27,0.4c-2.403,0.055-4.01,1.459-4.487,3.183
		c-3.602,0.29-7.193,0.683-10.769,1.188c-0.028,0.004-0.058,0.01-0.087,0.014c-0.371-0.525-0.945-0.945-1.742-1.141
		c-0.111-0.027-0.22-0.039-0.329-0.055c-1.016-0.445-2.17-0.688-3.171-0.063c-0.846,0.53-1.265,1.42-1.361,2.313
		c-3.506,0.605-6.998,1.27-10.486,1.944c-0.236-0.521-0.592-1-1.079-1.398c-1.548-1.269-3.817-1.284-5.749-0.728
		c-0.911,0.014-1.896,0.331-2.635,0.775c-1.424,0.855-2.436,2.168-2.629,3.604c-3.606,0.618-7.231,1.148-10.883,1.558
		c-0.002-0.006-0.002-0.013-0.006-0.019c-0.257-0.506-0.725-0.884-1.256-1.118c-1.016-0.715-2.525-0.831-3.605,0.074
		c-0.317,0.266-0.516,0.572-0.656,0.891c-0.267,0.202-0.498,0.439-0.662,0.719c-0.338,0.021-0.675,0.057-1.014,0.074
		c-3.839,0.206-7.691,0.248-11.539,0.143c-0.365-1.598-1.705-2.988-3.763-3.376c-1.921-0.362-3.63,0.39-4.608,1.619
		c-0.473,0.337-0.881,0.726-1.191,1.177c-2.164-0.207-4.322-0.461-6.469-0.77c-6.776-0.975-17.311-1.828-20.742-7.887
		c-0.783-1.383-3.162-0.171-2.381,1.209c2.681,4.732,8.732,6.437,14.248,7.57c4.859,0.998,9.797,1.738,14.766,2.223
		c0.115,0.936,0.592,1.848,1.352,2.51c2.412,2.1,6.633,1.325,8.232-1.172c0.148-0.232,0.264-0.474,0.361-0.717
		c4.289,0.118,8.521-0.016,12.721-0.315c0.552,1.085,1.863,1.78,3.342,1.573c0.739-0.104,1.405-0.416,1.911-0.856
		c0.358-0.195,0.612-0.506,0.702-0.91c0.057-0.115,0.1-0.233,0.139-0.354c3.821-0.419,7.622-0.958,11.417-1.573
		c1.999,3.76,9.501,2.555,11.429-0.715c0.26-0.439,0.435-0.918,0.525-1.406c2.06-0.387,4.122-0.78,6.189-1.172
		c1.496-0.283,2.992-0.542,4.49-0.795c0.222,0.726,0.822,1.189,1.583,1.404c0.905,0.507,2.022,0.685,3.184,0.306
		c0.371-0.121,0.705-0.292,1.007-0.491c0.893-0.51,1.493-1.388,1.518-2.316c3.258-0.434,6.521-0.801,9.791-1.073
		c0.181,0.507,0.452,1.002,0.848,1.458c2.365,2.728,8.431,3.296,11.154,0.619c0.794-0.781,1.25-1.734,1.404-2.713
		c3.765-0.04,7.538,0.041,11.318,0.248c0.039,0.084,0.086,0.163,0.131,0.243c-0.01,0.104-0.025,0.208-0.025,0.31
		c-0.014,1.783,1.198,3.121,3.204,3.502c1.775,0.336,4.183,0.309,5.484-0.935c0.663-0.634,1.049-1.409,1.206-2.229
		c2.529,0.317,5.051,0.688,7.564,1.101c0.006,0.561,0.152,1.127,0.479,1.654c1.548,2.492,6.003,3.465,8.679,1.8
		c0.702-0.437,1.173-0.989,1.454-1.595c4.664,0.838,9.331,1.646,14.028,2.258c0.33,0.729,0.928,1.375,1.691,1.813
		c0.803,0.665,2.301,0.986,3.384,0.635c0.907-0.293,1.603-0.919,2.054-1.68c0.006-0.008,0.014-0.016,0.021-0.023
		c1.452,0.109,2.906,0.201,4.367,0.25c2.883,0.096,5.751,0.051,8.604-0.11c0.544,0.493,1.511,0.409,2.032-0.054
		c0.005,0.028,0.009,0.057,0.015,0.084c0.938,4.434,7.008,3.891,9.708,1.088c0.851-0.883,1.257-1.774,1.323-2.625
		c10.908-1.836,21.594-4.943,32.049-8.057c1.668-0.496,0.951-2.811-0.734-2.31c-10.463,3.116-21.107,6.241-32.01,8.055
		c-0.945-1.335-2.746-2.363-4.799-2.771c-3.649-0.723-7.701,1.105-8.1,4.207c-0.634,0.033-1.268,0.071-1.903,0.092
		c-3.31,0.111-6.586-0.008-9.845-0.255c-0.086-0.596-0.369-1.14-0.782-1.596c-0.122-0.165-0.257-0.323-0.417-0.466
		c-1.865-1.652-5.149-1.095-6.457,0.848c-0.081,0.12-0.149,0.243-0.209,0.367c-4.639-0.635-9.252-1.453-13.865-2.285
		c-0.356-1.225-1.285-2.359-2.603-2.986c-1.688-0.803-3.55-0.678-5.038,0.062c-0.893,0.179-1.643,0.624-2.186,1.222
		c-2.186-0.35-4.377-0.67-6.576-0.939c-0.702-0.086-1.408-0.146-2.111-0.225c-0.486-1.476-1.621-2.795-3.21-3.389
		c-2.501-0.934-5.786,0.389-6.662,2.552c-3.834-0.213-7.675-0.309-11.515-0.28C121.692,36.008,120.508,34.84,118.725,34.397z
		 M35.541,46.602c-0.005-0.007-0.009-0.014-0.014-0.021c-0.297-0.389-0.714-0.639-1.167-0.761c0.027-0.038,0.054-0.075,0.074-0.114
		c0.248-0.024,0.505-0.006,0.76,0.07c0.568,0.17,0.965,0.489,1.206,0.875C36.113,46.638,35.827,46.616,35.541,46.602z
		 M96.222,42.737c-0.297,0.159-0.649,0.266-1.008,0.322c-0.219-0.107-0.404-0.258-0.563-0.43c0.756,0.098,1.528-0.139,2.018-0.74
		c0.152-0.023,0.305-0.048,0.457-0.07C96.944,42.182,96.651,42.507,96.222,42.737z M204.25,43.509
		c-0.02-0.045-0.046-0.081-0.069-0.121c0.225,0,0.436-0.052,0.623-0.142c0.283,0.127,0.539,0.275,0.761,0.444
		c-0.388,0.056-0.777,0.104-1.167,0.154L204.25,43.509z M178.769,44.02c0.277-0.33,0.703-0.582,1.146-0.597
		c0.75-0.026,1.201,0.373,1.359,0.873C180.438,44.214,179.603,44.118,178.769,44.02z M178.372,46.927
		c0.1,0.038,0.178,0.093,0.286,0.125c0.582,0.168,1.161,0.184,1.692,0.085c0.016,0.085,0.033,0.169,0.057,0.253
		c-0.678,0.146-1.402,0.064-2.045-0.286C178.347,47.049,178.358,46.987,178.372,46.927z M142.009,40.74
		c-0.496,1.423-2.123,2.677-3.938,2.188c-0.402-0.108-0.714-0.298-0.966-0.525c1.503,0.292,3.13-0.03,4.14-1.217
		c0.131-0.153,0.24-0.321,0.339-0.496C141.726,40.705,141.866,40.724,142.009,40.74z M137.007,40.274
		c0.208,0.043,0.423,0.068,0.656,0.055c0.012-0.001,0.023-0.006,0.035-0.007c0.077,0.006,0.154,0.009,0.23,0.016
		c0.305,0.024,0.607,0.059,0.912,0.086c-0.358,0.358-0.93,0.572-1.463,0.531c-0.391-0.03-0.683-0.149-0.899-0.326
		c0.02-0.13,0.037-0.259,0.081-0.385C136.708,40.255,136.857,40.264,137.007,40.274z M136.692,37.363
		c0.051-0.066,0.102-0.128,0.155-0.185c0.558-0.443,1.242-0.766,1.972-0.855c1.003,0.053,1.732,0.891,1.969,1.89
		c-0.062-0.006-0.122-0.014-0.184-0.02c-0.063-0.12-0.18-0.224-0.377-0.272c-0.355-0.088-0.705-0.134-1.048-0.152
		C138.557,37.319,137.702,37.113,136.692,37.363z"/>
</g>
</svg>
