<?xml version="1.0" encoding="utf-8"?>
<!-- Generator: Adobe Illustrator 16.0.0, SVG Export Plug-In . SVG Version: 6.00 Build 0)  -->
<!DOCTYPE svg PUBLIC "-//W3C//DTD SVG 1.1//EN" "http://www.w3.org/Graphics/SVG/1.1/DTD/svg11.dtd">
<svg version="1.1" id="圖層_1" xmlns="http://www.w3.org/2000/svg" xmlns:xlink="http://www.w3.org/1999/xlink" x="0px" y="0px"
	 width="113.169px" height="72.957px" viewBox="0 0 113.169 72.957" enable-background="new 0 0 113.169 72.957"
	 xml:space="preserve">
<path opacity="0.35" fill-rule="evenodd" clip-rule="evenodd" fill="#939293" d="M105.837,40.043c0.105-0.952,1.9-0.213,1.783-1.389
	c-0.91-1.864-3.438-2.11-5.154-3.171c2.281-2.689-2.111-4.289-3.766-5.548c0.467-0.722,0.934-1.445,1.189-2.379
	c-0.697-1.153-1.928-1.771-3.568-1.982c1.52-1.816,0.875-4.424-0.793-5.549c-2.035,0.42-3.703,0.531-5.549-0.198
	c-2.643-1.045-5.471-2.99-8.125-4.559C73.884,10.562,66.39,4.521,58.072,0.799c0.055-0.517-0.074-0.852-0.596-0.792
	c-0.311,0.085-0.17,0.623-0.793,0.397c-0.439,0.695,0.148,1.192-0.199,1.981c-2.023,3.473-3.145,5.993-5.746,8.324
	c-5.484,4.913-14.271,5.297-18.035,11.101c-5.752,0.684-10.494-0.871-17.443-0.398c-2.715,0.187-4.961,0.896-7.332,1.784
	c-2.867,1.073-8.088,3.576-3.369,5.351c-1.268,1.046-2.457,2.17-2.973,3.966c0.43,1.021,1.736,1.167,2.576,1.784
	c-1.406,1.765-3.092,3.252-3.766,5.746c0.682,1.167,2.771,0.927,3.766,1.785C2.695,43.4,0.467,44.211,0,46.782
	c9.094,9.468,25.301,15.082,36.865,22.792c1.609,1.075,3.783,3.155,5.152,3.369c0.617,0.098,1.189-0.369,1.783-0.396
	c0.322-0.014,0.869,0.385,1.189,0.396c2.486,0.098,5.938-1.05,8.521-1.98c7.773-2.805,13.577-8.209,18.233-13.281
	c2.041,1.172,4.625,0.414,6.344-0.792c0.957-0.672,1.338-1.839,2.377-2.181c1.332-0.436,3.332-0.186,4.955-0.396
	c5.02-0.647,8.916-1.528,13.279-2.973c5.697-1.885,11.066-3.086,14.469-7.331C111.522,41.888,108.251,41.395,105.837,40.043z
	 M101.476,33.7c-4.455,6.614-11.213,13.53-20.018,14.866c7.635-3.794,12.787-10.072,16.646-17.641
	C99.032,32.049,100.224,32.904,101.476,33.7z M95.728,26.765c0.959,0.295,1.912,0.598,2.775,0.99
	c-4.938,8.475-10.238,16.585-20.414,19.819c-0.225-0.037-0.111-0.198,0-0.198C85.876,42.414,91.429,35.215,95.728,26.765z
	 M48.557,14.477c4.074-2.75,7.549-7.161,9.117-12.686c9.132,4.39,16.456,10.738,25.368,16.054c3.701,2.208,6.957,4.653,12.289,4.36
	C90.243,33.5,83.216,42.857,71.944,47.971c-4.773-5.548-10.378-10.51-16.054-15.063c-5.666-4.548-11.68-9.471-20.414-10.703
	C38.207,17.563,44.316,17.34,48.557,14.477z M29.729,23.395c14.766-0.622,23.141,9.175,31.514,16.648
	c3.501,3.126,6.829,5.457,9.116,9.514c-3.639,1.614-8.038,2.908-13.079,2.973c-6.359,0.083-13.434-2.255-18.434,0.99
	c-5.434-3.724-8.957-9.363-13.873-13.674c-2.887-2.532-6.41-4.487-9.514-6.938c-3.123-2.465-6.369-4.934-10.307-6.144
	C9.811,21.818,20.365,23.789,29.729,23.395z M66.593,52.926c-6.815,4.083-19.351,2.45-26.954,5.748
	c-1.684-1.817-3.234-3.769-4.955-5.55c1.354-0.385,1.99,2.741,3.566,2.974c1.744,0.255,4.414-2.396,6.344-2.775
	c1.598-0.313,3.889-0.124,5.748,0C56.131,53.711,62.256,54.581,66.593,52.926z M3.568,32.116c0.277-1.507,1.256-2.311,2.377-2.973
	c10.91,5.673,19.418,13.746,27.551,22.196c0.172,0.346,0.66,0.765,0,0.397c-3.104-1.863-5.582-4.223-8.127-6.738
	c-5.344-5.287-12.066-8.504-19.025-12.29C5.1,32.83,4.385,32.421,3.568,32.116z M53.314,69.178
	c-1.947,0.705-4.715,1.737-6.342,1.587c-1.543-0.145-2.861-1.893-4.559-0.398C29.033,62.342,14.156,55.814,1.586,46.979
	c0.861-1.977,2.174-3.505,3.963-4.558c3.395,1.638,6.354,3.632,9.314,5.946c2.865,2.235,6.291,3.699,9.117,5.944
	c5.596,4.447,10.646,9.561,16.848,13.279c1.238-0.292,2.004-1.731,3.369-2.18c3.852-1.263,8.135-0.846,12.09-1.386
	c4.143-0.567,8.187-2.105,11.296-4.56C64.446,62.827,59.268,67.023,53.314,69.178z M68.179,55.7
	c-2.547,2.99-6.423,5.554-11.495,6.541c-4.961,0.967-11.377,0.22-15.064,2.774C34.5,61.4,29.168,55.582,22.793,51.142
	c-1.607-1.117-3.49-1.843-5.154-2.972c-4.545-3.087-9.26-7.26-15.459-8.919c1.012-1.698,2.057-3.361,3.568-4.56
	c6.006,2.135,12.104,6.35,16.848,10.308c1.619,1.354,2.783,3.071,4.359,4.359c1.65,1.35,4,2.193,5.352,3.567
	c1.672,1.701,2.684,4.049,4.359,5.748c0.527,0.767-0.365,1.782,0.396,2.379c2.607,0.228,5.018-1.568,7.928-2.181
	c5.676-1.195,12.477-1.239,17.838-2.774c2.69-0.771,4.64-2.089,6.737-3.172C70.413,54.088,68.769,55.008,68.179,55.7z
	 M68.972,58.476c-0.225-0.561,1.262-1.111,1.387-1.981C70.933,57.405,69.315,57.824,68.972,58.476z M69.765,52.529
	c0.26-0.399,0.648-0.671,1.188-0.792C70.761,52.206,70.606,52.712,69.765,52.529z M71.351,55.7c0.217-2.835,4.213-1.038,6.738-1.782
	C77.378,56.101,73.208,57.645,71.351,55.7z M76.7,52.134c11.096-2.316,19.52-7.306,24.775-15.459
	c1.318,0.663,2.738,1.224,3.963,1.979c-0.221,1.572-2.145,1.063-3.172,1.389c-0.152,0.879,0.658,0.797,0.99,1.189
	C97.243,47.703,88.974,51.919,76.7,52.134z M91.368,51.34c5.262-2.204,9.777-5.15,13.08-9.314c2.035,0.607,3.826,1.459,5.748,2.182
	C105.401,47.442,97.229,49.982,91.368,51.34z"/>
</svg>
