<?xml version="1.0" encoding="utf-8"?>
<!-- Generator: Adobe Illustrator 16.0.0, SVG Export Plug-In . SVG Version: 6.00 Build 0)  -->
<!DOCTYPE svg PUBLIC "-//W3C//DTD SVG 1.1//EN" "http://www.w3.org/Graphics/SVG/1.1/DTD/svg11.dtd">
<svg version="1.1" xmlns="http://www.w3.org/2000/svg" xmlns:xlink="http://www.w3.org/1999/xlink" x="0px" y="0px"
	 width="199.922px" height="28.328px" viewBox="0 0 199.922 28.328" enable-background="new 0 0 199.922 28.328"
	 xml:space="preserve">
<g id="圖層_1">
	<g>
		<g>
			<path d="M23.641,9.5c0.5,0,1.151,0.434,1.953,1.297c0,0.105-0.057,0.156-0.172,0.156c0.115,0.574,0.172,0.902,0.172,0.984
				c0,1.469-0.594,3.865-1.781,7.188c0.094,0,0.141,0.053,0.141,0.156c-0.25,0.053-0.682,1.031-1.297,2.938
				c-1.198,2.168-2.177,3.25-2.938,3.25c-0.364,0-0.635,0.057-0.813,0.172c-0.948,0-1.974-1.031-3.078-3.094
				c0-0.281-0.114-0.666-0.344-1.156c-3.438,0.969-5.391,1.621-5.859,1.953H8.469l0.156-0.797c-0.104,0-0.156-0.057-0.156-0.172
				l-0.328,0.172H7.828v-1.328c0.323,0,0.808-0.213,1.453-0.641c-0.208-3.344-0.37-5.359-0.484-6.047
				c-0.323,0-1.734,0.553-4.234,1.656c0,0.25,0.38,3.074,1.141,8.469l-0.313,0.172H4.078c0-0.447-0.109-0.672-0.328-0.672
				l-0.328,0.172c-0.438-0.635-0.875-3.082-1.313-7.344h0.172l-0.813-3.922C0.667,12.262,0.177,11.396,0,10.469l0.313,0.172h0.172
				v-0.344c1.958,0.875,3.271,2.078,3.938,3.609c0.365,0,3.13-0.875,8.297-2.625C17.636,10.094,21.276,9.5,23.641,9.5z
				 M11.406,13.906l0.484,4.063c-0.114,0.574-0.172,1.125-0.172,1.656h0.172c1.136-0.688,1.792-2.76,1.969-6.219l-0.328-0.172
				L11.406,13.906z M16.141,12.594c0.083,0.428,0.188,0.641,0.313,0.641l-0.141,0.813v0.172c0,0.24,0.047,0.459,0.141,0.656
				c-0.427,2.168-0.859,3.527-1.297,4.078c0,0.219,0.058,0.328,0.172,0.328c1.313-0.094,1.969-0.26,1.969-0.5
				c0.531,0.146,0.797,0.527,0.797,1.141c-1.094,0.459-1.641,0.787-1.641,0.984c0.531,1.043,1.13,1.746,1.797,2.109h0.172
				c1.011-0.625,2.479-4.041,4.406-10.25c0-0.332,0.058-0.719,0.172-1.156c-0.114,0-0.172-0.057-0.172-0.172
				C20.172,11.771,17.943,12.156,16.141,12.594z"/>
			<path d="M45.891,1.734l2.781,1.469l-0.188,0.375c0.323,0.959,0.568,1.949,0.734,2.969l-0.188,0.359v0.734l0.359,0.563
				c1.729-0.375,4.318-0.625,7.766-0.75l0.938,0.188v0.563h-0.734v0.188c0.115,0,0.297,0.059,0.547,0.172
				c0.229-0.113,0.412-0.172,0.547-0.172l0.188,0.359v0.375c0,0.168-0.182,0.35-0.547,0.547c-1.406-0.238-2.391-0.359-2.953-0.359
				c-4.073,0.25-6.109,0.621-6.109,1.109v1.297c0,0.271,0.063,0.516,0.188,0.734c-0.125,0.209-0.188,0.453-0.188,0.734v0.547
				c0,0.125,0.063,0.188,0.188,0.188l-0.547,3.328l0.172,0.375c-0.239,0.793-0.359,1.344-0.359,1.656s0.063,0.809,0.188,1.484
				c-0.375,3.938-0.932,5.906-1.672,5.906h-0.188c-0.542,0-0.906-5.234-1.094-15.703l-0.203-0.359l-2.203,0.547
				c-0.885-0.125-1.38-0.188-1.484-0.188c-1.271,0.125-2.01,0.25-2.219,0.375v-0.188c-0.479,0.24-1.161,0.359-2.047,0.359
				c-0.854,0-1.463-0.301-1.828-0.906c0.115,0,0.172-0.063,0.172-0.188l0.375,0.188c1.417-0.5,4.563-1.182,9.438-2.047V7.641
				c0-0.125,0.058-0.188,0.172-0.188l-0.172-0.359V4.141l0.359-0.563V3.391c-0.864-0.604-1.297-0.973-1.297-1.109V1.922
				C45.333,1.922,45.703,1.859,45.891,1.734z"/>
			<path d="M94.734,21.656c0.49,0,0.802,0.734,0.938,2.203c-0.531,0.5-1.031,0.75-1.5,0.75c-2.146-0.563-5.474-0.742-9.984-0.539
				c-4.51,0.203-9.208,0.676-14.094,1.414c-2.219,0-3.328-0.801-3.328-2.406c0.219,0,0.526-0.188,0.922-0.563
				c0.615,0.043,0.922,0.168,0.922,0.375l1.297-0.172h0.563c0.115,0,0.172,0.059,0.172,0.172
				C86.703,21.246,94.734,20.834,94.734,21.656z M73.047,2.938c0.802,0.73,1.234,1.094,1.297,1.094h0.734
				c2.386,0,4.974-0.238,7.766-0.719v0.172c0.688-0.238,1.677-0.359,2.969-0.359l1.281,1.109v0.188c-0.25,0-0.375,0.059-0.375,0.172
				c0.125,0.24,0.188,0.428,0.188,0.563c-1.292,0.449-3.573,0.818-6.844,1.109c0,0.115-0.922,0.303-2.766,0.563
				c-0.125,0-0.188-0.066-0.188-0.203l-1.844,0.203h-0.734c-1.01,0-1.692-1.172-2.047-3.516L73.047,2.938z M85.25,11.797
				c0.886,0.375,1.438,0.563,1.656,0.563v0.734h-0.547l0.172,0.375v0.547c-0.271,0-3.411,0.615-9.422,1.844
				c-0.375,0.137-1.234,0.203-2.578,0.203h-0.938c-0.364,0-0.734-0.682-1.109-2.047c0.5-0.113,0.75-0.359,0.75-0.734h0.188
				c2.146,0,4.979-0.363,8.5-1.094C83.151,11.928,84.261,11.797,85.25,11.797z"/>
			<path d="M108.813,3.391c1.167,0,1.969,0.684,2.406,2.047c0,0.615-1.234,2.465-3.703,5.547v0.172
				c0.99,1.438,1.484,2.918,1.484,4.438l0.563-0.375c0.479,0.094,0.719,0.219,0.719,0.375l0.938-0.188h1.109
				c0.24,0.043,0.359,0.168,0.359,0.375v0.188c0,0.125-0.057,0.188-0.172,0.188l0.172,0.359v0.563L109,17.813
				c0,0.281-0.063,0.531-0.188,0.75c0.125,0.668,0.188,1.219,0.188,1.656v0.188c0.604,0,1.594-0.613,2.969-1.844h0.906l0.203,0.906
				v0.203c-3.229,2.605-5.385,4.449-6.469,5.531l-2.969,1.297l-0.375-0.188h-0.172c-0.125,0-0.188,0.063-0.188,0.188
				c-0.313-0.031-0.745-0.463-1.297-1.297v-0.734c0-2.469-0.25-4.316-0.75-5.547c0-0.125,0.063-0.188,0.188-0.188
				c-0.239-1.416-0.359-2.275-0.359-2.578c0.115,0,0.172-0.063,0.172-0.188c-0.239,0-0.359-0.125-0.359-0.375l0.188-0.375
				l1.656,0.75c0.375,3.25,0.683,5.156,0.922,5.719l-0.172,0.375v0.375c0.073,0.74,0.255,1.109,0.547,1.109l2.969-1.484
				l-0.188-1.297v-0.188c0-1.094,0.063-1.828,0.188-2.203c-0.125-1.082-0.188-2.01-0.188-2.781v-2.031
				c0-0.676-0.557-1.479-1.672-2.406c0-0.479,1.047-2.322,3.141-5.531h-0.375c-0.552,0-1.536,0.121-2.953,0.359
				c-0.864-0.125-1.297-0.307-1.297-0.547c0.125,0,0.188-0.063,0.188-0.188c-0.125,0-0.188-0.063-0.188-0.188
				C104.724,3.949,106.573,3.391,108.813,3.391z M118.25,5.797c0.802,0.125,1.417,0.309,1.844,0.547
				c-0.125,0.25-0.188,0.438-0.188,0.563c0.24,0.406,0.359,0.781,0.359,1.125c0,0.137-1.229,1.609-3.688,4.422h0.734
				c0.761,0,1.933-0.613,3.516-1.844c0.125,0,0.313-0.063,0.563-0.188c0.636,0.188,1.245,0.559,1.828,1.109l-0.172,0.375
				l0.359,0.734l-0.359,0.172H122.5c-0.625,0-0.938-0.119-0.938-0.359c-1.864,1.365-3.156,2.047-3.875,2.047l0.188,0.359v0.188
				l-0.563-0.375h-0.359c-0.25,0-0.375,0.184-0.375,0.547c0,5.053-1.109,8.563-3.328,10.531h-0.922
				c-0.302,0-0.609-0.734-0.922-2.203l0.734,0.375c1.354-2.426,2.031-5.51,2.031-9.25c-0.271,0-0.453-0.244-0.547-0.734h-0.547
				c0-1.332,0.552-2.316,1.656-2.953c1.479-1.541,2.219-2.406,2.219-2.594h-0.203c-0.333,0-1.5,0.184-3.5,0.547
				c-0.344-0.395-0.588-0.885-0.734-1.469C114.37,6.719,116.281,6.162,118.25,5.797z M117.5,1.172c1.261,0,2.308,1.053,3.141,3.156
				v0.188c0,0.656-0.245,1.084-0.734,1.281h-0.188c-0.854,0-1.281-0.369-1.281-1.109c0.115,0,0.172-0.057,0.172-0.172
				c-1.125-0.938-1.864-1.619-2.219-2.047h-0.188V2.281l0.188-0.359h-0.547C115.844,1.652,116.396,1.402,117.5,1.172z
				 M118.609,14.672c1.479,0,2.219,1.297,2.219,3.891c-0.573,3.449-1.25,5.172-2.031,5.172v0.188l-0.359-0.188h-1.125
				c0-0.666-0.245-1.16-0.734-1.484c1.24,0,1.859-1.359,1.859-4.078c0.115,0,0.172-0.057,0.172-0.172l-0.172-1.109v-0.563h0.359
				C118.672,15.59,118.609,15.037,118.609,14.672z M121.75,15.406h0.188c1.354,0,2.031,2.094,2.031,6.281
				c0,2.105,0.37,3.156,1.109,3.156c1.333-0.27,2.318-0.891,2.953-1.859c0.365-1.416,0.547-2.338,0.547-2.766l0.391,0.188h0.172
				v-2.953c0.042-0.25,0.167-0.375,0.375-0.375h0.359c0.552,0,1.052,1.662,1.5,4.984l-0.203,0.375l0.203,1.109v0.188
				c0,1.771-1.234,2.818-3.703,3.141c-0.25,0-0.682,0.119-1.297,0.359c-1.656,0-2.891-0.494-3.703-1.484
				c-0.739-1.51-1.109-3.291-1.109-5.344c0-0.135,0.063-0.322,0.188-0.563c-0.125-0.207-0.188-0.453-0.188-0.734v-1.484
				l-0.359-0.547v-0.188c0.49,0,0.734-0.188,0.734-0.563L121.75,15.406z"/>
			<path d="M147.734,0.063c1.469,0,2.203,1.047,2.203,3.141c0.167,0,0.292,1.234,0.375,3.703l1.297-0.188V6.531
				c-0.614-0.094-0.922-0.281-0.922-0.563h0.547c2.833,0.313,4.25,0.625,4.25,0.938c0,0.199,0.125,0.381,0.375,0.547l-0.188,0.375
				c0.125,0.24,0.188,0.422,0.188,0.547l-5.734,1.484c0,0.74-0.063,1.109-0.188,1.109l0.188,0.359v2.594
				c2.49,2.668,4.646,4.271,6.469,4.813c4.188,1.449,6.281,2.434,6.281,2.953c-0.25,0.303-0.375,0.547-0.375,0.734
				c-4.75-0.613-7.276-1.104-7.578-1.469c-1.281-0.582-2.323-1.385-3.125-2.406l-1.484-1.297h-0.188v4.813
				c0,1.24-0.063,2.777-0.188,4.609c0.125,0.459,0.188,1.01,0.188,1.656h-1.672c-0.635-0.281-1.25-1.203-1.844-2.766
				c-0.854-1.447-1.281-2.613-1.281-3.5c0.604,0,1.406,0.678,2.406,2.031v-0.375c0-0.551,0.058-2.395,0.172-5.531
				c-0.114,0-0.172-0.063-0.172-0.188h0.172l-0.172-0.375v-0.922l0.172-1.109c-0.114-0.188-0.172-0.557-0.172-1.109h-0.391
				c-3.521,5.178-6.109,7.766-7.766,7.766h-0.547c-0.198,0-0.442-0.369-0.734-1.109c0.969-0.082,2.511-1.75,4.625-5
				c1.073-1.563,1.813-2.484,2.219-2.766l2.391-2.766h-0.734c-0.458,0-2.063,0.428-4.813,1.281
				c-2.521-1.082-3.932-1.941-4.234-2.578V8.75c0.115,0,0.172,0.063,0.172,0.188l0.375-0.188c0.719,0.375,1.333,0.563,1.844,0.563
				c1.448-0.27,2.808-0.703,4.078-1.297c0.115,0,0.172,0.063,0.172,0.188c1.948-0.5,3.063-0.75,3.344-0.75
				c0-0.125-0.067-0.188-0.203-0.188l0.203-0.906V4.875c0-0.676-0.067-1.535-0.203-2.578c0.136-0.25,0.203-0.438,0.203-0.563
				c0-0.113-0.25-0.484-0.75-1.109c0.031-0.25,0.151-0.375,0.359-0.375v0.375h0.188C147.531,0.49,147.599,0.303,147.734,0.063z
				 M149.016,22.063c0,0.865-0.063,1.359-0.188,1.484c0.125,0.199,0.188,0.5,0.188,0.906h0.188l0.188-1.656h-0.188l0.188-0.375
				C149.391,22.184,149.266,22.063,149.016,22.063z"/>
			<path d="M180.25,8.281h0.547v0.266c0,1.021-0.677,1.656-2.031,1.906c0,0.178-0.182,0.266-0.547,0.266
				c-0.177-0.082-0.317-0.125-0.422-0.125c0,0.219-0.906,0.49-2.719,0.813l-1.891,0.672c-0.167-0.094-0.302-0.141-0.406-0.141
				c-0.333,0.168-0.786,0.303-1.359,0.406l-0.266-0.125c-0.771,0.178-1.271,0.266-1.5,0.266c-0.396-0.156-0.755-0.473-1.078-0.953
				c0.031-0.176,0.12-0.266,0.266-0.266h0.281l0.266,0.141c0-0.395,0.589-0.666,1.766-0.813c0.636-0.094,1.766-0.41,3.391-0.953
				c1.74-0.447,2.917-0.672,3.531-0.672C178.318,8.512,179.042,8.281,180.25,8.281z M179.703,11.125c0.365,0,0.683,0.23,0.953,0.688
				v0.266c-0.125,0.387-0.531,0.703-1.219,0.953c-0.989,0.365-1.489,0.637-1.5,0.813h-0.141l-0.672-0.141
				c-0.51,0.469-1.234,0.875-2.172,1.219c-0.177-0.082-0.313-0.125-0.406-0.125c-0.614,0.543-1.427,0.813-2.438,0.813
				c-0.302-0.072-0.573-0.344-0.813-0.813c0-0.479,1.083-0.979,3.25-1.5C174.547,13.006,176.266,12.281,179.703,11.125z
				 M179.844,13.438h0.406c0.125,0,0.349,0.225,0.672,0.672v0.281c0,0.428-0.995,1.012-2.984,1.75c0,0.438-0.859,0.938-2.578,1.5
				c-1.219,0.625-2.349,0.938-3.391,0.938l-0.672-0.672v-0.547c0-0.26,0.719-0.438,2.156-0.531l-0.125-0.281
				c0.771-0.541,1.537-0.813,2.297-0.813c0-0.344,0.636-0.75,1.906-1.219c0.688-0.416,1.37-0.688,2.047-0.813
				C179.599,13.527,179.688,13.438,179.844,13.438z M180.797,17.766c1.125,0,1.755,0.824,1.891,2.469v0.125
				c-1.177,1.449-1.766,2.219-1.766,2.313c-0.542,0-0.854,0.631-0.938,1.891c-0.708,0.428-1.979,0.928-3.813,1.5h-0.547
				l-0.672-0.688l-0.688,0.406c-1.125,0-1.979-1.76-2.563-5.281l0.406-0.266h0.672l0.672,0.406c2.792-1.822,5.104-2.734,6.938-2.734
				C180.391,17.813,180.526,17.766,180.797,17.766z M174.672,5.844c2.729,0.156,4.094,0.563,4.094,1.219l0.125,0.547
				c-0.479,0.449-0.844,0.672-1.094,0.672c-1.594-0.125-2.906-0.619-3.938-1.484V6.25C173.953,5.98,174.224,5.844,174.672,5.844z
				 M174.813,22.672c0,0.125,0.089,0.531,0.266,1.219h0.281c0.458-0.438,0.818-0.707,1.078-0.813c0.75-0.813,1.25-1.219,1.5-1.219
				l-0.141-0.281c0.188-0.354,0.464-0.531,0.828-0.531v-0.141h-0.266C176.641,21.563,175.458,22.152,174.813,22.672z M188.797,0
				c0.823,0.584,1.365,1.219,1.625,1.906c-0.094,0.178-0.141,0.313-0.141,0.406c0.448,0.771,0.672,1.225,0.672,1.359l-0.125,0.813
				c0.115,1.146,0.203,1.781,0.266,1.906c0.479-0.457,1.203-0.729,2.172-0.813c0.813-0.541,1.219-0.906,1.219-1.094h0.406
				c1.313,0.313,2.266,0.813,2.859,1.5c-0.281,0.543-0.552,0.813-0.813,0.813c-1.052,0.625-1.646,0.938-1.781,0.938
				c-0.167-0.082-0.302-0.125-0.406-0.125c-0.26,0.303-0.891,0.615-1.891,0.938c0,0.137-0.542,0.318-1.625,0.547
				c-0.188,0.365-0.417,0.547-0.688,0.547l0.281,0.953c-0.188,0.031-0.281,0.121-0.281,0.266h0.281c0.229,0,1.313-0.27,3.25-0.813
				V9.906h0.813c0.719,0.365,1.078,0.906,1.078,1.625c-1.229,0.875-2.354,1.375-3.375,1.5c0,0.115-0.276,0.25-0.828,0.406
				c-0.167-0.094-0.302-0.141-0.406-0.141l-0.125,0.266l-0.281-0.125c-0.833,0.355-1.958,0.672-3.375,0.953
				c-0.156-0.094-0.385-0.141-0.688-0.141c0,0.137-0.182,0.271-0.547,0.406l-0.266-0.141c-0.177,0.094-0.313,0.141-0.406,0.141
				c-0.719-0.176-1.078-0.719-1.078-1.625c0.167-0.488,0.844-0.854,2.031-1.094c0.719-0.176,1.078-0.488,1.078-0.938
				c0-0.094-0.042-0.141-0.125-0.141l0.125-0.672c0-0.188-0.088-0.281-0.266-0.281c-1.135,0.094-1.813,0.23-2.031,0.406
				c-1.083-0.25-2.078-0.791-2.984-1.625l0.266-0.406l0.688,0.141c0.354,0,1.208-0.182,2.563-0.547l0.688,0.141
				c0.313-0.541,0.766-0.813,1.359-0.813c-0.094-0.188-0.141-0.322-0.141-0.406l0.141-0.281c-0.094-0.176-0.141-0.313-0.141-0.406
				l0.141-0.813l-0.281-0.125c0-0.176,0.094-0.541,0.281-1.094l-0.281-0.125C187.766,3.318,187.859,3,187.984,3l-0.141-0.281
				l0.141-0.531L187.844,1.5l0.141-0.531c-0.094-0.156-0.141-0.391-0.141-0.703C188.208,0.09,188.526,0,188.797,0z M183.781,17.359
				c0.99,0,1.667,0.824,2.031,2.469v0.125c0,0.324-0.047,0.73-0.141,1.219c0.094,0.137,0.141,0.406,0.141,0.813
				c-0.229,0-0.364,0.184-0.406,0.547l0.125,0.813l-0.125,0.813c0.083,0.178,0.125,0.313,0.125,0.406
				c-0.177,0.031-0.266,0.125-0.266,0.281c0.094,0,0.141,0.043,0.141,0.125l-0.953,0.406v0.281h-0.813
				c-0.135,0-0.406-0.271-0.813-0.813v-0.141c0-0.094,0.047-0.141,0.141-0.141c0-0.094-0.047-0.141-0.141-0.141
				c0-0.219,0.089-0.848,0.266-1.891l-0.125-0.266c0.177-0.27,0.313-0.77,0.406-1.5c0-0.082-0.047-0.125-0.141-0.125
				C183.412,19.131,183.594,18.037,183.781,17.359z M186.891,15.875c0.636,0.887,0.953,1.381,0.953,1.484V17.5l-0.266,0.406
				c0.177,0,0.266,0.137,0.266,0.406c-0.094,0.178-0.141,0.313-0.141,0.406c0.271,0.094,0.406,0.365,0.406,0.813v0.156l-0.266,0.406
				l0.266,0.406l-0.125,0.266c0.083,0.156,0.125,0.34,0.125,0.547l-0.125,0.266c0.177,0,0.266,0.137,0.266,0.406l-0.266,0.547
				l0.266,0.141l-0.141,0.672c0.458,1.178,1.365,1.766,2.719,1.766l0.672-0.141h2.438c0.136,0,0.406-0.27,0.813-0.813
				c-0.135-1.469-0.359-2.328-0.672-2.578v-0.125h0.266c0.094,0,0.141,0.043,0.141,0.125c0.302-0.176,0.573-0.266,0.813-0.266
				c1.271,1.344,1.906,2.428,1.906,3.25c-0.177,0.094-0.317,0.141-0.422,0.141l0.297,0.406c-0.302,0.178-0.536,0.266-0.703,0.266
				l0.141,0.281v0.125l-1.484,0.813c0,0.188-0.094,0.281-0.281,0.281c-0.313-0.094-0.489-0.141-0.531-0.141L193,27
				c-0.271-0.084-0.406-0.172-0.406-0.266l-0.281,0.141l-0.813-0.141L191.641,27c-0.094,0-0.141,0.047-0.141,0.141
				c-0.948-0.125-1.625-0.307-2.031-0.547l-0.266,0.141c-2.177-0.75-3.266-2.15-3.266-4.203l0.141-0.266
				c-0.094-0.166-0.141-0.348-0.141-0.547l0.281-0.141l-0.141-0.266c0-0.156,0.089-0.426,0.266-0.813l-0.125-0.266l0.125-0.281
				l-0.125-0.266c0.177-0.594,0.266-1.004,0.266-1.234c-0.094-0.176-0.141-0.313-0.141-0.406l0.281-0.141
				c-0.094-0.166-0.141-0.301-0.141-0.406c0.094-0.166,0.141-0.301,0.141-0.406c-0.094,0-0.141-0.047-0.141-0.141
				c0.177,0,0.266-0.088,0.266-0.266l-0.266-0.406C186.484,16.146,186.62,16.012,186.891,15.875z M190.688,16.281
				c1.073,0,1.708,0.678,1.906,2.031c0.052,0,0.188,0.271,0.406,0.813v0.141l-0.141,0.266c0.177,0.031,0.266,0.131,0.266,0.297
				v0.813l-0.266,0.406c0.177,0.021,0.266,0.109,0.266,0.266v0.141c0,0.115-0.224,0.34-0.672,0.672l0.141,0.266v0.141h-0.406
				l-0.281-0.141c-0.104,0.459-0.239,0.688-0.406,0.688c-0.719-0.406-1.078-1.219-1.078-2.438h0.125l-0.125-0.281
				c0.083-0.176,0.125-0.313,0.125-0.406c0-0.082-0.042-0.125-0.125-0.125c0-0.104,0.042-0.244,0.125-0.422
				c-0.083-0.895-0.125-1.578-0.125-2.047h0.125l-0.125-0.266v-0.406L190.688,16.281z M194.625,16.141
				c1.031,0,2.573,1.131,4.625,3.391c0.136,0,0.359,0.324,0.672,0.969c0,0.594-0.63,1.09-1.891,1.484
				c-0.813-1.135-1.948-2.541-3.406-4.219v-0.406c0.083,0,0.125-0.041,0.125-0.125c-0.135,0-0.313-0.182-0.531-0.547v-0.141
				C194.219,16.422,194.354,16.287,194.625,16.141z"/>
		</g>
	</g>
</g>
<g id="footer">
</g>
<g id="header">
</g>
</svg>
