<?xml version="1.0" encoding="utf-8"?>
<!-- Generator: Adobe Illustrator 16.0.0, SVG Export Plug-In . SVG Version: 6.00 Build 0)  -->
<!DOCTYPE svg PUBLIC "-//W3C//DTD SVG 1.1//EN" "http://www.w3.org/Graphics/SVG/1.1/DTD/svg11.dtd">
<svg version="1.1" id="圖層_1" xmlns="http://www.w3.org/2000/svg" xmlns:xlink="http://www.w3.org/1999/xlink" x="0px" y="0px"
	 width="196.422px" height="34px" viewBox="0 0 196.422 34" enable-background="new 0 0 196.422 34" xml:space="preserve">
<g>
	<g>
		<path fill="#2F853A" d="M8.594,2.641c1.031,0.313,2.625,1.98,4.781,5l1.281-0.188h2.031L18,7.641l0.078,1.109
			c-0.198,0.584-1.683,1.449-4.453,2.594c0.094,1.344-0.479,3.684-1.719,7.016c0.135,0.23,0.208,0.412,0.219,0.547
			c-0.198,0-0.428,0.246-0.688,0.734l0.063,0.938c3.646,4.063,6.25,6.094,7.813,6.094c4.594,1.719,7.052,2.578,7.375,2.578
			l0.078,1.109c-0.553,0-0.917,0.063-1.094,0.188c-2.344-0.24-4.078-0.359-5.203-0.359c-0.615,0-0.912,0.119-0.891,0.359
			c-0.656-0.24-1.156-0.359-1.5-0.359l-1.109,0.172c-0.042-0.188-2.344-2.344-6.906-6.469c-2.5,3.449-4.85,5.172-7.047,5.172H1.719
			c-0.303,0-0.859-0.119-1.672-0.359L0,28.141c2.666-0.426,4.958-2.15,6.875-5.172c-0.011-0.125,0.244-0.738,0.766-1.844
			c-1-2.02-2.797-4.057-5.391-6.109H2.063L2,14.297l1.281-0.375c-0.906-0.51-1.37-0.941-1.391-1.297
			c-0.24,0-0.381-0.307-0.422-0.922l1.047-0.922c0.406,0,0.849,0.188,1.328,0.563h0.547c1.219-0.375,3.344-0.875,6.375-1.5
			c0.802-0.676,1.197-1.109,1.188-1.297C9.692,7.734,8.469,6.016,8.281,3.391L8.266,3.188C8.505,3.188,8.614,3.006,8.594,2.641z
			 M9.141,13c-0.261-0.125-0.453-0.188-0.578-0.188c-0.636,0.012-1.959,0.443-3.969,1.297c-0.25-0.125-0.438-0.188-0.563-0.188
			H3.844l0.016,0.188c1.156,0.053,2.896,1.287,5.219,3.703l1.313-5.375h-0.188L9.141,13z"/>
		<path fill="#2F853A" d="M37.453,6.75H38c0.281,0,0.531,0.059,0.75,0.172c0.229-0.113,0.411-0.172,0.547-0.172
			c1.354,0.281,2.031,0.652,2.031,1.109v1.844c-1.563,1.699-2.854,2.871-3.875,3.516v0.922l-0.359-0.188h-0.188
			c-0.865,0.521-1.297,0.891-1.297,1.109c1.729,0.324,2.594,0.881,2.594,1.672c0,0.365,0.057,0.547,0.172,0.547l-0.172,0.359
			c0,0.137,0.057,0.203,0.172,0.203l-0.172,0.359c0.114,0.678,0.172,1.172,0.172,1.484l-0.172,0.734h0.172
			c-0.854,3.531-1.281,6.059-1.281,7.578v0.375c0,0.209-0.313,0.391-0.938,0.547c0-0.5-0.12-0.75-0.359-0.75h-0.188
			c0,0.375-0.125,0.563-0.375,0.563h-0.188c0-0.303-0.183-0.609-0.547-0.922l1.297-9.609c-0.125-0.238-0.188-0.426-0.188-0.563
			h0.188l-0.188-0.359c0.125-0.238,0.188-0.422,0.188-0.547l-1.109-0.75H34.5c-0.886,0.615-1.563,0.922-2.031,0.922
			c-0.625-0.375-1.058-0.563-1.297-0.563c0,0.137-0.063,0.203-0.188,0.203v-0.203c0-0.113,0.063-0.172,0.188-0.172l-0.188-0.375
			c0-0.219,0.432-0.588,1.297-1.109v0.375l-0.188,0.375h0.188c1.146-1.27,1.947-2.322,2.406-3.156
			c-0.125-0.207-0.188-0.453-0.188-0.734C36.469,9.121,37.453,7.521,37.453,6.75z M46.516,5.078
			c1.458,0.563,2.442,1.609,2.953,3.141v0.188c-0.125,1.719-0.188,2.828-0.188,3.328c0.739-0.406,1.109-0.957,1.109-1.656
			l0.922,0.188L51.5,9.875l0.375,0.203c0.114,0,0.172-0.066,0.172-0.203c0.458,0,1.072,0.5,1.844,1.5
			c0,1.209-1.537,2.625-4.609,4.25c-0.74,0.531-1.109,1.824-1.109,3.875c0.125,0.23,0.188,0.412,0.188,0.547
			c-0.125,2.043-0.188,3.584-0.188,4.625c0.781,0.49,1.766,0.734,2.953,0.734c4.063-0.197,6.094-0.813,6.094-1.844
			c0.864-2.957,1.609-6.588,2.234-10.891h0.172c0.864,1.418,1.297,2.521,1.297,3.313h0.188c-0.125,0.887-0.188,1.375-0.188,1.469
			c0,2.719,0.313,5.25,0.938,7.594c-1.25,1.334-3.167,2.193-5.75,2.578c-0.334,0-1.256,0.184-2.766,0.547V28l-0.359,0.172h-0.188
			c-0.375,0-0.563-0.057-0.563-0.172l-0.922,0.172h-0.188c-2.615,0-4.401-0.922-5.359-2.766c0-0.094-0.063-0.463-0.188-1.109h0.188
			l-0.359-0.734c0.239-1.031,0.422-2.141,0.547-3.328h-0.188c0.25-0.625,0.375-1.551,0.375-2.781c-1.271,0.5-2.073,0.75-2.406,0.75
			c0-0.238-0.308-0.359-0.922-0.359v-0.391l0.359-0.547h-0.359v-0.359c2.583-0.5,3.875-1.791,3.875-3.875
			c0.364-2.219,0.547-4.375,0.547-6.469c-0.167-0.01-0.406-0.322-0.719-0.938V5.078z"/>
		<path fill="#2F853A" d="M76.813,1.578c0.604,1.105,1.036,1.656,1.297,1.656l-0.188-0.922c0.041-0.25,0.166-0.375,0.375-0.375
			h0.188c0.688,0,1.119,1.234,1.297,3.703c0.969-0.125,1.771-0.432,2.406-0.922h1.297c0,0.188,0.119,0.434,0.359,0.734
			c-0.125,0-0.188,0.063-0.188,0.188c0.25,0.043,0.375,0.162,0.375,0.359c-0.313,0.375-1.729,0.934-4.25,1.672v2.031
			c0.552,0,0.922,0.063,1.109,0.188V9.703c0.125,0,0.188,0.063,0.188,0.188l0.906-0.188c1.364,0.625,2.047,1.365,2.047,2.219v0.734
			c-0.625,0.043-0.938,0.23-0.938,0.563c0.51,0.438,1.067,1.605,1.672,3.5c0.989,0,1.484,0.371,1.484,1.109
			c0,0.5-0.063,0.75-0.188,0.75l-1.109,0.547l0.188,2.219v0.75c1.947,1.23,5.025,2.396,9.234,3.5c0,0.137,0.063,0.324,0.188,0.563
			c-1.313,0.365-2.297,0.547-2.953,0.547h-0.391l-1.094-0.188c-0.49,0.25-1.167,0.375-2.031,0.375c-0.261,0-1.188-0.676-2.781-2.031
			h-0.172v0.547c0,0.365-0.063,0.547-0.188,0.547l0.188,0.938c0,3.688-0.37,5.531-1.109,5.531c-0.313,0-0.87-0.119-1.672-0.359
			c0-0.531-0.308-2.006-0.922-4.422v-0.563h-0.359c-0.656,1.479-1.646,2.219-2.969,2.219c-0.729-0.291-1.094-0.541-1.094-0.75
			c0.01-0.416,0.5-0.969,1.469-1.656l3.141-6.469h0.172c0,0.125,0.063,0.188,0.188,0.188l0.203-0.375v-0.359l-2.406,0.359
			c-0.303-0.395-0.49-0.947-0.563-1.656c0.125,0,0.188-0.063,0.188-0.188c-0.49,0-0.734-0.125-0.734-0.375l0.359-0.188v0.188
			l0.375-0.188c0.291,0,0.786,0.188,1.484,0.563l1.297-0.375c-0.261-1.416-0.391-2.4-0.391-2.953h0.188
			c-0.24-0.625-0.359-1.119-0.359-1.484c0.114-0.488,0.359-0.734,0.734-0.734v-0.188c-1.178-0.844-1.917-1.332-2.219-1.469h-0.359
			l-0.188,0.359v0.203c0,2.625-0.433,4.219-1.297,4.781c-0.344,0-0.771-0.426-1.281-1.281c0-0.125,0.057-0.188,0.172-0.188
			l-0.172-0.922v-0.188l0.172-1.844l-2.406,2.766c0.406,1.605,0.775,2.406,1.109,2.406c1.01,0,1.688,0.434,2.031,1.297v0.547
			c-1.49,0.459-2.354,0.891-2.594,1.297v1.672c0.563,0,0.938,0.063,1.125,0.188c0.239-0.125,0.427-0.188,0.563-0.188
			c0,0.209,0.427,0.574,1.281,1.094c0.489,0.959,0.734,1.578,0.734,1.859v0.359l-1.297,0.188c-0.146,0-0.698-0.551-1.656-1.656
			l-0.75-0.375v0.375c0,0.918,0.063,3.074,0.188,6.469l-0.547,0.359l-0.359-0.172c0,0.24-0.125,0.359-0.375,0.359
			c-0.615,0-1.234-0.922-1.859-2.766c-0.313,0-0.553-0.557-0.719-1.672c-1.354,1.355-2.469,2.031-3.344,2.031
			c-0.365-0.447-0.547-0.879-0.547-1.297c2.531-2.416,4.01-4.441,4.438-6.078h-0.188l-2.594,0.547
			c-0.948-0.313-1.5-0.682-1.656-1.109h0.375v-0.375c-0.386,0-0.756-0.307-1.109-0.922v-0.375l0.922,0.75h1.109
			c1.552,0,2.906-0.432,4.063-1.297v-0.375l-0.188-1.094l0.188-0.391c-0.125-0.363-0.25-0.547-0.375-0.547l0.188-0.359l-0.375-0.563
			v-0.188c0-0.895,0.494-1.635,1.484-2.219l2.578-4.063v0.359h0.188c0-0.113,0.067-0.297,0.203-0.547h-0.391L73.5,9.156
			c-0.875,0-1.49-0.369-1.844-1.109h0.172l-0.172-0.375V7.484c4.052-0.656,6.078-1.207,6.078-1.656V4.719
			c0-0.916-0.428-1.9-1.281-2.953L76.813,1.578z M71.828,26.344c0.552,0.49,0.859,0.734,0.922,0.734h0.188l-0.188-1.844
			C72.313,25.465,72.005,25.834,71.828,26.344z M81.438,26.891l0.75,0.563h0.172v-2.406l0.188-0.375h-0.188l0.188-0.375v-0.172
			c-0.281,0.053-0.714,0.975-1.297,2.766H81.438z"/>
		<path fill="#2F853A" d="M106.5,1.672c0.979,0.449,1.469,1.309,1.469,2.578c0,0.637-0.058,1.865-0.172,3.688
			c0,1.156,0.984,2.146,2.953,2.969c0.156,0,0.713,0.553,1.672,1.656l-1.5,1.297c-1.896-0.738-2.938-1.109-3.125-1.109
			c-0.74,6.105-1.109,12.512-1.109,19.219l-0.547,0.375h-0.375c-0.271-0.021-0.641-0.635-1.109-1.844
			c0.239-5.625,0.359-10.676,0.359-15.156l-0.359-0.188h-0.188c-0.49,0-0.917,1.234-1.281,3.703h-0.563l-1.484-1.484
			c0.239-4.813,0.672-7.219,1.297-7.219h0.188c0.188,0,0.494,0.559,0.922,1.672L103.906,12c1.114-1.104,1.672-4.113,1.672-9.031
			C105.724,2.105,106.031,1.672,106.5,1.672z M120.547,0c0.781,0.375,1.458,0.934,2.031,1.672c-0.125,1.043-0.188,1.902-0.188,2.578
			v0.188l0.375,0.547l-0.188,0.375h0.734v1.281c-0.979,0.094-1.469,0.281-1.469,0.563V8.5h2.406v0.734
			c-1.667,0.865-2.594,1.297-2.781,1.297V12c1.697-0.363,3.484-0.854,5.359-1.469v-0.188c0-0.238-0.188-0.359-0.563-0.359V9.797
			l0.188-0.375c1.813,0.584,2.734,1.016,2.766,1.297v0.188c-1.178,0.959-3.761,1.943-7.75,2.953
			c-0.219,0.271-0.406,0.824-0.563,1.656h-0.922c-0.167-0.01-0.412-0.316-0.734-0.922c-3.115,0.99-5.146,1.484-6.094,1.484
			c-0.428,0-0.74-0.494-0.938-1.484c0.25-0.125,0.438-0.188,0.563-0.188c0.364,0.125,0.547,0.256,0.547,0.391
			c3.572-1.156,5.359-1.838,5.359-2.047v-1.297h-0.172c-0.594,0.365-1.521,0.547-2.781,0.547h-0.922
			c-0.156,0-0.464-0.301-0.922-0.906v-0.188h0.375l-0.188-0.375v-0.375c0.614,0.125,0.922,0.25,0.922,0.375
			c1.697-0.738,2.625-1.109,2.781-1.109v0.188c0.864,0,1.297-0.738,1.297-2.219h-0.188c-0.188,0-1.115,0.184-2.781,0.547
			c-0.865-0.207-1.297-0.76-1.297-1.656c0.719-0.363,2.197-0.916,4.438-1.656c0.25-0.531,0.375-1.516,0.375-2.953l-0.375-0.563
			V0.734L120.547,0z M124.422,14.969c1.229,0,1.844,0.928,1.844,2.781c0,0.438,0.063,0.99,0.188,1.656
			c0,0.115-0.063,0.172-0.188,0.172l0.188,2.234v5.906c0,3.25-0.37,5.344-1.109,6.281c-1.594,0-3.256-1.234-4.984-3.703h0.188
			c1.906,0.74,2.953,1.109,3.141,1.109c0-0.865,0.119-1.725,0.359-2.578h-0.188l0.188-0.375v-3.328
			c-0.563,0.375-2.281,0.809-5.156,1.297c0,0.178-0.188,0.365-0.563,0.563c0,0.125,0.063,0.188,0.188,0.188
			c-0.125,2.344-0.37,3.516-0.734,3.516h-0.563l-1.109-0.938c0-0.197,0.063-0.938,0.188-2.219c0-1.426-0.125-3.457-0.375-6.094
			l0.375-4.063c-0.125,0-0.188-0.063-0.188-0.188l0.734-0.563c0.729,0,1.286,0.928,1.672,2.781c3.563-0.781,5.474-1.275,5.734-1.484
			c0-0.145,0.057-0.76,0.172-1.844h-0.563c-0.24,0-1.225,0.246-2.953,0.734c-0.209-0.125-0.448-0.188-0.719-0.188
			C120.188,16.262,121.599,15.709,124.422,14.969z M118.516,22.172v1.297h1.469c1.458,0,2.813-0.182,4.063-0.547
			c0.135-1.531,0.203-2.332,0.203-2.406h-0.203C120.724,21.621,118.88,22.172,118.516,22.172z"/>
		<path fill="#2F853A" d="M157.859,1.578c1.239,0,1.859,0.184,1.859,0.547l-0.375,0.563l0.188,0.906
			c-0.667,0.5-1.225,0.75-1.672,0.75c-0.292,0-0.906-0.25-1.844-0.75c-1.073,0-1.813,0.621-2.219,1.859
			c-3.011,2.293-4.672,3.771-4.984,4.438c1.635-0.863,2.807-1.297,3.516-1.297h0.563l1.281,0.188v0.375l0.188,1.094
			c0,0.865-1.725,2.902-5.172,6.109v0.172c3.572-1.301,5.359-2.531,5.359-3.688l0.922-0.188h0.188c0.781,0,1.828,1.053,3.141,3.156
			v0.719c-0.219,0-0.406,0.313-0.563,0.938c-0.542,0-1.464-0.613-2.766-1.844h-0.375c-0.719,0-1.584,0.615-2.594,1.844l0.188,1.109
			H152.5l0.188,0.359v7.406L152.5,27.25h0.188l-0.188,0.391c0,0.365,0.063,0.547,0.188,0.547l-0.188,0.922v2.031l-0.359,1.281
			c-0.625,0-0.938-0.24-0.938-0.719l-0.359,0.172h-0.75c0-0.115-0.672-0.729-2.016-1.844c-0.625-0.896-0.938-1.453-0.938-1.672
			c0.125-0.229,0.188-0.41,0.188-0.547c-0.125,0-0.188-0.057-0.188-0.172h0.375c0.063,0,0.739,0.371,2.031,1.109l0.188-0.391v-0.547
			c0-0.113-0.063-0.172-0.188-0.172l0.188-0.391v-0.172c0-1.135,0.063-2.734,0.188-4.797l-0.188-0.391
			c0.125-0.207,0.188-0.447,0.188-0.719v-0.391l-0.188-2.203c-1.604,0.49-3.209,0.859-4.813,1.109
			c-0.49-0.104-0.734-0.229-0.734-0.375l0.188-0.922l-0.547,0.375h-0.188v-0.188c0-0.707,1.229-1.879,3.688-3.516
			c1.625-1.645,2.677-2.816,3.156-3.516h-0.188c-1.323,0.615-3.234,1.234-5.734,1.859c-0.74-0.166-1.109-0.354-1.109-0.563
			l0.375-0.734l-0.75,0.359l-0.172-0.359v-0.188l6.469-6.094h-0.188c-4.834,1.605-8.287,3.016-10.359,4.234v0.188
			c-1.479,0-2.219-0.551-2.219-1.656h-0.172l0.172-0.359V8.047l-0.172-0.375l0.359-0.188l0.563,0.375h0.188
			C147.869,3.672,154.641,1.578,157.859,1.578z M142.906,23.375h0.359c0.916,0.146,1.406,0.396,1.469,0.75v1.656
			c-0.323,0-0.688,0.74-1.094,2.219l-0.375,0.188h-0.188c-0.531,0-0.964-0.863-1.297-2.594v-0.547
			C141.781,24.359,142.156,23.803,142.906,23.375z M145.484,10.625v0.188c1.271-0.875,2.255-1.734,2.953-2.578
			C146.635,9.484,145.65,10.281,145.484,10.625z M158.797,21.172h0.359c1.125,0,2.297,1.594,3.516,4.781v0.203
			c0,0.156-0.308,0.465-0.922,0.922c0-0.145-0.495-0.391-1.484-0.734c-1.469-1.385-2.203-2.682-2.203-3.891
			C158.354,21.6,158.599,21.172,158.797,21.172z"/>
		<path fill="#2F853A" d="M181.641,5.359v0.188l0.375-0.188h0.359c0.666,0,1.099,0.246,1.297,0.734v0.391
			c0,0.563-1.167,2.469-3.5,5.719h0.359c0.385,0,1.307-0.182,2.766-0.547c0.989,0.418,1.484,1.09,1.484,2.016
			c-0.198,1.168-1.12,3.387-2.766,6.656c-0.5,0-1.609,0.922-3.328,2.766c-1.656,1.605-3.073,2.406-4.25,2.406h-0.922
			c-0.292-0.238-0.725-0.359-1.297-0.359v-0.375c1.938,0,4.156-1.91,6.656-5.734v-0.359c-1.104-1.229-1.906-1.906-2.406-2.031
			c-0.979,1.105-1.964,1.656-2.953,1.656l-0.203-0.734l2.969-3.891c0-0.479,0.864-2.078,2.594-4.797V8.5
			c-2.886,0.99-4.74,1.484-5.563,1.484c-0.594,0-1.203-0.432-1.828-1.297c0.771,0,2.369-0.613,4.797-1.844
			C178.322,6.344,180.109,5.85,181.641,5.359z M178.125,14.781c0.125,0,0.188,0.063,0.188,0.188c-0.365,0-0.734,0.371-1.109,1.109
			h0.75c0.281,0,0.525-0.057,0.734-0.172c0.521,0.146,1.135,0.453,1.844,0.922c0-0.406,0.313-1.457,0.938-3.156h-0.391
			C179.547,13.672,178.563,14.043,178.125,14.781z M186.813,9.984h0.375c0.344,0.438,1.021,0.746,2.031,0.922
			c0.594,1.012,0.963,2.184,1.109,3.516c-0.563,2.584-1.12,3.875-1.672,3.875c-0.854,0-1.469-1.109-1.844-3.328
			c0.125-0.219,0.188-0.463,0.188-0.734h-0.188L187,13.859v-1.844l-0.188-1.297c0.25,0,0.375-0.119,0.375-0.359h-0.375V9.984z
			 M191.063,2.781h0.188l2.594,1.109l0.359-0.188c1.239,0,1.859,1.662,1.859,4.984c0,1.209,0.057,1.828,0.172,1.859
			c-0.115,0.23-0.172,0.412-0.172,0.547l0.172,2.969c0,0.115-0.058,0.172-0.172,0.172l0.172,0.734
			c-0.115,3.396-0.172,5.74-0.172,7.031c0.021,0.73,0.141,1.094,0.359,1.094c-0.125,0.928-0.245,3.516-0.359,7.766l-0.563,0.375
			c-3.334-0.666-5.672-1.775-7.016-3.328v-0.188c0.031-0.238,0.15-0.359,0.359-0.359c1.479,0.49,2.281,0.734,2.406,0.734
			c0.063,0,0.313-0.063,0.75-0.188c0.396,0.25,0.766,0.375,1.109,0.375h0.172c0-0.197,0.063-0.938,0.188-2.219
			c-0.125-5.531-0.188-8.672-0.188-9.422h0.188l-0.188-0.375v-2.203l-0.172-1.109c0-0.125,0.057-0.188,0.172-0.188l-0.172-2.219
			V7.031c0-2.02-0.62-3.254-1.859-3.703c-0.125,0-0.188-0.063-0.188-0.188V2.781z"/>
	</g>
</g>
</svg>
