<?xml version="1.0" encoding="utf-8"?>
<!-- Generator: Adobe Illustrator 16.0.0, SVG Export Plug-In . SVG Version: 6.00 Build 0)  -->
<!DOCTYPE svg PUBLIC "-//W3C//DTD SVG 1.1//EN" "http://www.w3.org/Graphics/SVG/1.1/DTD/svg11.dtd">
<svg version="1.1" xmlns="http://www.w3.org/2000/svg" xmlns:xlink="http://www.w3.org/1999/xlink" x="0px" y="0px"
	 width="129.969px" height="35.109px" viewBox="0 0 129.969 35.109" enable-background="new 0 0 129.969 35.109"
	 xml:space="preserve">
<g id="bg">
</g>
<g id="圖層_3">
	<g>
		<g>
			<path fill="#23923A" d="M8.906,6.172h0.156c1.416,0.156,3.031,1.339,4.844,3.547c1.021-0.229,1.828-0.344,2.422-0.344
				c1.197,0.553,1.797,0.933,1.797,1.141c0.031,0.219,0.135,0.328,0.313,0.328c-0.198,0.49-0.412,0.761-0.641,0.813l-0.641-0.172
				l-3.891,1.453c-0.594,0-0.917,0.438-0.969,1.313c-0.178,0.636-0.5,0.953-0.969,0.953v0.188h0.156
				c4.25-1.083,6.625-1.734,7.125-1.953c1.719,0.219,2.578,0.49,2.578,0.813c0,0.209,0.057,0.313,0.172,0.313
				c0,0.563-1.459,1.104-4.375,1.625c-0.386,0.469-0.928,2.464-1.625,5.984c-0.156,0.011-0.422,0.604-0.797,1.781
				c3.469,3.667,5.625,5.5,6.469,5.5c1.021,0.219,1.828,0.328,2.422,0.328h0.5l0.313,0.141c-0.115,0.219-0.172,0.385-0.172,0.5
				c0.114,0.208,0.172,0.369,0.172,0.484c-0.115,0-0.172,0.052-0.172,0.156c0.114,0,0.172,0.052,0.172,0.156
				c-0.479,0.333-0.859,0.5-1.141,0.5l-0.313-0.172c-0.104,0-0.156,0.057-0.156,0.172l-0.813-0.172h-0.328
				c-0.104,0-0.156,0.057-0.156,0.172l-0.328-0.172h-1.297c-0.104,0-0.156,0.057-0.156,0.172c-2.053-0.625-3.459-1.433-4.219-2.422
				c0-0.303-0.808-1.166-2.422-2.594h-0.313c-2.99,2.802-5.365,4.203-7.125,4.203c-0.698-0.104-1.234-0.266-1.609-0.484l0.156-0.328
				v-0.313c-0.438-0.115-0.818-0.172-1.141-0.172v-0.156c2.802,0,5.505-1.781,8.109-5.344v-0.328
				c-1.084-1.688-2.167-2.974-3.25-3.859C6.38,21.506,5.458,22.417,5,22.656c-1.469,1.834-2.703,2.75-3.703,2.75
				c-0.428-0.156-0.641-0.317-0.641-0.484c0.104-0.188,0.156-0.406,0.156-0.656C0.271,24.266,0,24.162,0,23.953
				c1.031-0.197,3.025-2.411,5.984-6.641c0.104,0,0.697-0.807,1.781-2.422H7.438c-0.396,0.25-0.99,0.464-1.781,0.641v-0.141
				c-0.438,0.146-0.761,0.412-0.969,0.797c-0.969-0.072-1.453-0.182-1.453-0.328l-0.813,0.484c-1.292-0.364-1.938-1.063-1.938-2.094
				c0-0.76,0.646-1.141,1.938-1.141c1.344-0.322,4.208-1.13,8.594-2.422L8.563,6.313L8.906,6.172z M10.359,16.188
				c-0.761,1.011-1.141,1.766-1.141,2.266c0.239,0.021,1.266,0.99,3.078,2.906h0.172L13.594,17h-0.156
				c-0.156,0.104-0.756,0.209-1.797,0.313c-0.646-0.104-0.969-0.26-0.969-0.469c0-0.281,0.219-0.447,0.656-0.5v-0.156h-0.172
				c-0.178,0.104-0.391,0.156-0.641,0.156C10.516,16.24,10.463,16.188,10.359,16.188z"/>
			<path fill="#23923A" d="M34.984,16.859h0.359c2.219,1.386,3.328,2.37,3.328,2.953c0.25,0.448,0.375,0.938,0.375,1.469
				c0,2.115-0.683,3.719-2.047,4.813c2.844,0.604,5.25,1.219,7.219,1.844c2.938,0.864,5.463,1.484,7.578,1.859
				c3.344-0.261,5.432-0.391,6.266-0.391c0.521,0,1.572,0.13,3.156,0.391c0.229-0.136,0.411-0.203,0.547-0.203
				c0.479,0.375,0.786,0.563,0.922,0.563v0.359c0,0.396-1.229,0.708-3.688,0.938c-2.792,0.864-4.828,1.416-6.109,1.656
				c-0.49-0.094-0.734-0.214-0.734-0.359l-0.359,0.172h-0.375c-5.261-1.354-9.698-2.709-13.313-4.063l-0.359,0.188l-4.063-0.938
				c-0.125,0-0.188,0.063-0.188,0.188c-1.053-0.239-1.672-0.359-1.859-0.359c-0.229,0.115-0.412,0.172-0.547,0.172
				c0-0.063-0.37-0.489-1.109-1.281c0-0.989,0.802-1.484,2.406-1.484l0.922,0.375c1.729,0,2.896-0.927,3.5-2.781h-0.172
				c0.375-0.802,0.563-1.661,0.563-2.578v-0.375c-0.021-0.177-0.823-0.849-2.406-2.016l-0.188-0.938L34.984,16.859z M35.703,10.391
				c1.677,0,2.729,0.672,3.156,2.016c0,1.011-0.683,1.933-2.047,2.766l-0.359-0.547c0.125-0.844,0.188-1.521,0.188-2.031v-0.188
				c-1.104-0.646-1.656-1.26-1.656-1.844h0.359l0.359,0.188V10.391z M53.094,2.063C53.291,2.188,53.594,2.25,54,2.25v0.375h-0.359
				v0.172c0.739,0,1.109,0.433,1.109,1.297c-0.021,0.646-1.5,1.881-4.438,3.703c0.739,0.428,1.109,0.979,1.109,1.656
				c-0.49,0.74-0.734,1.234-0.734,1.484l0.359-0.188h1.656c1.489,0,2.234,2.646,2.234,7.938c0,1.011,0.057,1.813,0.172,2.406
				c0,0.125-0.058,0.188-0.172,0.188l0.172,0.75c0,3.073-0.428,4.609-1.281,4.609L53.641,27c-1.281-0.646-2.203-1.688-2.766-3.125
				v-0.188l0.359-0.188h0.922v-3.516c-1.229,0.542-1.844,1.406-1.844,2.594c0,1.969-0.188,2.953-0.563,2.953l-0.922,0.188
				c-0.729-0.447-1.094-1.188-1.094-2.219v-1.297h-0.203c-0.928,0-1.479,0.928-1.656,2.781v0.359h0.188
				c-0.219,0.99-0.651,1.484-1.297,1.484c-1.104-0.416-1.656-1.094-1.656-2.031c0.114-1.822,0.172-3.057,0.172-3.703h0.188
				l-0.188-0.359v-0.188c0-0.281,0.063-0.525,0.188-0.734c-0.24-0.458-0.359-0.953-0.359-1.484c0.291-0.979,0.474-1.469,0.547-1.469
				l-0.188-0.938v-2.578c0-0.375-0.183-0.869-0.547-1.484c0.239-0.563,0.484-0.869,0.734-0.922c1.135,0,1.875,0.615,2.219,1.844
				h0.359c1.594-0.75,2.396-1.489,2.406-2.219c0.177-0.01,0.427-0.317,0.75-0.922c-2.219-0.291-3.328-0.604-3.328-0.938V7.984
				c0-0.281,0.989-0.713,2.969-1.297c1.719-1.375,2.578-2.114,2.578-2.219h-0.188c-1.729,0-4.625,1.109-8.688,3.328
				c-0.115,0-0.172-0.063-0.172-0.188l-0.391,0.188l-0.719-0.359c0,0.115-0.063,0.172-0.188,0.172l-0.75-0.734V6.5
				c0-0.125,0.125-0.614,0.375-1.469l-0.188-0.938c0.552,0,1.104,0.37,1.656,1.109C47.567,3.109,51.146,2.063,53.094,2.063z
				 M46.234,14.266c0.135,0.844,0.203,1.521,0.203,2.031h0.547l0.938-0.188v-2.594C46.974,13.516,46.411,13.766,46.234,14.266z
				 M46.234,20.359c0.916,0,1.416-0.182,1.5-0.547v-0.938h-0.203C46.666,19.25,46.234,19.745,46.234,20.359z M50.5,12.781v0.734
				l0.188,2.219h1.656c0-0.239,0.063-0.359,0.188-0.359l-0.188-0.922v-1.484c0-0.177-0.183-0.364-0.547-0.563L50.5,12.781z
				 M50.688,17.766v1.109c0.864-0.396,1.297-0.885,1.297-1.469h0.359v-0.188h-0.359C51.359,17.584,50.927,17.766,50.688,17.766z"/>
			<path fill="#23923A" d="M69.281,4.016c3.281,1.136,4.922,2.35,4.922,3.641v0.391l-1.078,0.359
				c-3.053-1.063-4.578-2.349-4.578-3.859L69.281,4.016z M76.063,10.797v0.531c0,0.281-0.917,2.292-2.75,6.031
				c0,0.761-0.678,1.62-2.031,2.578h-0.703c-1.229-0.791-1.844-2.322-1.844-4.594c0-0.844,0.484-1.516,1.453-2.016
				c0.375,0.865,0.563,1.475,0.563,1.828h0.188C73.677,12.25,75.385,10.797,76.063,10.797z M78.625,0
				c1.135,0,1.797,0.975,1.984,2.922v0.531l6.797-1.828h1.641c0.813,0,1.359,0.49,1.641,1.469h0.188v0.359
				c-2.479,2.448-4.558,3.979-6.234,4.594l-0.531,0.719l0.172,0.375c0.125,0,0.188-0.063,0.188-0.188
				c1.614,0.115,4.291,1.334,8.031,3.656c0.26,0.667,0.391,1.037,0.391,1.109c-0.115,0.729-0.308,1.094-0.578,1.094l-1.266-0.188
				v0.188c-1.573-0.458-3.578-1.619-6.016-3.484c-1.136-0.489-1.933-0.734-2.391-0.734c0,0.438-0.734,1.292-2.203,2.563
				c1.219-0.114,2.13-0.172,2.734-0.172c1.01,0,1.682,0.787,2.016,2.359l-0.156,0.375c0.229,1,0.588,4.292,1.078,9.875
				c0.125,0,0.188,0.131,0.188,0.391l-0.188,0.891l0.188,0.938c0,0.729-0.422,1.094-1.266,1.094c0-0.125-0.063-0.188-0.188-0.188
				v0.359h-0.563c0-0.303-0.245-0.791-0.734-1.469v-0.188h-0.188c0,0.531-0.24,1.141-0.719,1.828v0.188L83,29.25h0.172
				c0.677,0,1.536,0.614,2.578,1.844c1.344,1.188,2.016,2.166,2.016,2.938v0.344c-0.209,0.489-0.641,0.734-1.297,0.734h-0.172
				c-0.948,0-2.594-1.526-4.938-4.578c-1.344,1.864-2.625,2.906-3.844,3.125h-0.547c-0.198,0-0.443-0.245-0.734-0.734
				c0-0.188,0.661-0.859,1.984-2.016c1.354-1.719,2.031-2.75,2.031-3.094c-2.448,0.958-4.1,1.438-4.953,1.438
				c0-0.115-0.058-0.172-0.172-0.172v0.172c-1.209-0.417-1.813-1.208-1.813-2.375v-0.188c0.281-0.604,0.885-1.271,1.813-2h0.172
				l0.188,1.094v1.281c0.791-0.25,1.286-0.375,1.484-0.375c-0.604-0.469-0.906-0.953-0.906-1.453l0.172-1.828
				c-0.178,0-0.354-0.182-0.531-0.547V22.5c0.594-0.458,0.891-1.313,0.891-2.563h-0.172c-0.479,0-0.719-0.182-0.719-0.547v-0.219
				l0.172-0.344c-0.261,0-0.391-0.119-0.391-0.359v-0.188c0.344-0.614,0.838-0.922,1.484-0.922v-0.172l0.172-1.844L75.484,15
				c0-0.385,0.859-1.244,2.578-2.578c2.469-2.594,3.994-4.906,4.578-6.938c-0.125-0.219-0.188-0.469-0.188-0.75
				c-0.844,0.125-1.396,0.245-1.656,0.359c-0.229-0.114-0.412-0.172-0.547-0.172c-0.928,1.823-1.781,2.734-2.563,2.734l-0.547-0.719
				c0.614-2.333,0.922-3.791,0.922-4.375V2l-0.188-1.828C77.938,0.172,78.188,0.115,78.625,0z M77.875,26.141h0.344
				c1.938-0.604,3.166-0.906,3.688-0.906c0,0.125,0.063,0.188,0.188,0.188c0-0.094,0.057-0.463,0.172-1.109h0.188
				c0.541,0.5,0.844,0.75,0.906,0.75h0.188l-0.375-3.672c-0.834,0.656-2.229,1.391-4.188,2.203L77.875,26.141z M79.156,13.891
				l-0.172,0.375c0.114,1.709,0.234,2.625,0.359,2.75c1.344-0.125,2.016-0.25,2.016-0.375c1.114,0.479,1.781,0.719,2,0.719v-0.172
				l-0.188-2.922c-0.667,0-1.521,0.058-2.563,0.172C79.797,14.073,79.313,13.891,79.156,13.891z M78.984,19.938v0.906
				c0.583,0,1.802-0.422,3.656-1.266c0.229,0.115,0.406,0.172,0.531,0.172v-2.016c-0.573,0.761-1.912,1.375-4.016,1.844
				L78.984,19.938z M84.469,4.375l0.563,1.297c0.938-0.531,1.479-0.963,1.625-1.297V4.188h-0.188
				C85.396,4.313,84.729,4.375,84.469,4.375z"/>
			<path fill="#23923A" d="M113.516,7.969c0.75,0.25,1.125,0.495,1.125,0.734v0.563c-0.125,0.365-0.5,0.547-1.125,0.547
				c0,0.209,0.432,0.459,1.297,0.75c5.041-1.354,7.88-2.031,8.516-2.031h0.734c0.239,0.031,0.359,0.151,0.359,0.359v0.375
				c-0.49,1.156-0.854,2.511-1.094,4.063c0,0.125,0.057,0.188,0.172,0.188l-0.172,0.922v0.734l0.734,0.563v0.188
				c-0.25,0.615-0.438,0.922-0.563,0.922c0,2.542,1.359,5.313,4.078,8.313h0.172c0.719-2.833,1.213-4.25,1.484-4.25
				c0.489,0,0.734,1.047,0.734,3.141v2.406c0,0.636-0.188,1.006-0.563,1.109h-0.172c-1.417-0.208-2.834-1.067-4.25-2.578
				c-1.469-1.697-2.453-4.104-2.953-7.219c-2.188,0.979-3.422,1.469-3.703,1.469v4.063l-0.172,0.391
				c0.177,0,0.359,0.183,0.547,0.547v0.922h-0.375v0.188c0.25,0.303,0.375,0.553,0.375,0.75c-0.125,1.844-0.37,2.766-0.734,2.766
				l-1.5-1.297c-0.24-1.031-0.359-2.141-0.359-3.328l0.359-0.734c-0.115-1.26-0.172-2.25-0.172-2.969v-0.547l-0.922,0.188h-1.484
				c-0.156,0-0.464-0.313-0.922-0.938v-0.719l3.328-0.563v-5.734l-1.844,0.375c-0.771,0-1.391-0.802-1.859-2.406h-0.359
				c-4.24,1.719-7.323,2.578-9.25,2.578c-1.844-0.396-2.766-0.697-2.766-0.906v-0.188h0.188
				C101.697,11.672,106.067,10.438,113.516,7.969z M111.5,12.969c0.364,0.604,0.547,1.037,0.547,1.297
				c-1.281,0.865-3.683,1.537-7.203,2.016c-0.803-0.239-1.604-0.359-2.406-0.359c0-0.5,2.953-1.484,8.859-2.953H111.5z
				 M110.75,15.922c0.5,0.511,0.75,1,0.75,1.469c-3.167,1.354-5.261,2.031-6.281,2.031c-1.24-0.604-1.984-0.906-2.234-0.906
				c0-0.375,1.052-0.688,3.156-0.938C108.682,16.475,110.219,15.922,110.75,15.922z M110.938,19.422
				c0.916,0,1.594,0.928,2.031,2.781l-1.469,2.594l0.188,1.094c-1.219,1.24-2.084,1.859-2.594,1.859h-0.563
				c-0.178,0-0.609-0.432-1.297-1.297v-0.188c0-0.479,0.619-1.525,1.859-3.141c0.125-0.219,0.188-0.463,0.188-0.734l-0.375-0.188
				c-0.865,0.25-1.354,0.375-1.469,0.375c-0.094,0-0.464-0.063-1.109-0.188v0.188c0,0.448,0.182,1.859,0.547,4.234l-0.547,0.375
				c-1.49,0-2.417-2.219-2.781-6.656l0.375-0.188c0.447,0,1,0.25,1.656,0.75C107.88,19.979,109.666,19.422,110.938,19.422z
				 M106.5,6.297h0.188c1.271,0,2.255,0.5,2.953,1.5v0.172c0,0.188-0.183,0.375-0.547,0.563h-0.188
				C107.302,8.334,106.5,7.589,106.5,6.297z M117.406,11.859v0.359c0.614,0,0.922,0.74,0.922,2.219V15l-0.172,0.922
				c0.114,0.209,0.172,0.516,0.172,0.922v0.547c1.291-0.26,2.463-0.688,3.516-1.281c0-0.364-0.188-0.547-0.563-0.547v-0.391
				c0.5,0,0.75-1.661,0.75-4.984c0.125,0,0.188-0.063,0.188-0.188h-0.188C119.625,10.656,118.083,11.276,117.406,11.859z"/>
		</g>
	</g>
</g>
<g id="圖層_1">
</g>
</svg>
