<?xml version="1.0" encoding="utf-8"?>
<!-- Generator: Adobe Illustrator 16.0.0, SVG Export Plug-In . SVG Version: 6.00 Build 0)  -->
<!DOCTYPE svg PUBLIC "-//W3C//DTD SVG 1.1//EN" "http://www.w3.org/Graphics/SVG/1.1/DTD/svg11.dtd">
<svg version="1.1" xmlns="http://www.w3.org/2000/svg" xmlns:xlink="http://www.w3.org/1999/xlink" x="0px" y="0px"
	 width="132.891px" height="31.031px" viewBox="0 0 132.891 31.031" enable-background="new 0 0 132.891 31.031"
	 xml:space="preserve">
<g id="圖層_1">
	<g>
		<g>
			<path fill="#2D8A3A" d="M7.656,8.453c0.458,0.334,1.068,0.574,1.828,0.719c0.292,0.406,0.537,0.891,0.734,1.453l-0.188,1.094
				v0.75c0,0.125,0.063,0.188,0.188,0.188c-0.292,2.094-1.63,4.465-4.016,7.109c-1.885,1.73-3.104,2.709-3.656,2.938
				c-1.094,0-1.641-0.369-1.641-1.109H0.719c-0.229,0.125-0.411,0.188-0.547,0.188L0,21.422c1.417,0,3.484-2.859,6.203-8.578
				C6.797,10.063,7.281,8.6,7.656,8.453z M12.453,14.516h0.188v0.828l0.406-0.203h0.203c0.417,0,0.755,0.672,1.016,2.016
				l-0.203,1.219l0.203,0.422c-0.531,1.063-1.276,2.953-2.234,5.672c2.854-0.906,4.281-1.854,4.281-2.844
				c-0.156-0.25-0.234-0.453-0.234-0.609c0-0.75,0.615-1.291,1.844-1.625c0.636,0,1.38,0.746,2.234,2.234
				c0,0.48,0.271,1.152,0.813,2.016c0.531,1.396,0.797,2.344,0.797,2.844v1.641c-0.531,0.021-0.797,0.15-0.797,0.391
				c-1.635-0.625-2.453-1.303-2.453-2.031l-0.781-0.797c-2.604,1.885-5.385,2.828-8.344,2.828c-1.021,0-1.828-0.744-2.422-2.234
				c0-0.875,0.672-2.291,2.016-4.25c0.948-2.135,1.828-4.432,2.641-6.891L12.453,14.516z M12.609,4.266l0.375-0.031
				c0.031,0.719,0.229,1.109,0.594,1.172l0.172-0.016l-0.016-0.344c0.729,0.406,1.558,1.348,2.484,2.82
				c0.927,1.475,3.636,4.217,8.125,8.227c1.823,1.574,3.516,2.563,5.078,2.969c0.011,0.344,0.136,0.512,0.375,0.5
				c-0.198,0.678-0.422,1.021-0.672,1.031c-1.031,0.053-3.177-0.463-6.438-1.547c-3.604-3.041-5.945-5.377-7.023-7.008
				c-1.078-1.629-2.07-3.715-2.977-6.258l-0.219-0.844C12.573,4.74,12.62,4.516,12.609,4.266z"/>
			<path fill="#2D8A3A" d="M53.047,0c0.292,0,0.849,0.553,1.672,1.656v0.359c0,1.449-1.114,2.865-3.344,4.25L50.078,7.75h0.203
				c0.229,0,1.953-0.613,5.172-1.844c0.615,0.5,0.922,0.809,0.922,0.922v0.359c0,0.678-1.911,1.73-5.734,3.156
				c-0.239,0.146-0.792,0.881-1.656,2.203v0.188c1.896,2.146,4.177,4.303,6.844,6.469l1.656-0.359c0.979,0,1.531,0.678,1.656,2.031
				c2.708,0.803,4.063,1.418,4.063,1.844h0.375v0.359c0,0.199-0.245,0.449-0.734,0.75c-0.385,0-2.109-0.119-5.172-0.359
				c-1.364,2.084-2.599,3.125-3.703,3.125l-1.297-0.547l2.594-3.328c-0.542-0.613-0.974-0.922-1.297-0.922
				c-0.667,0-1.281,0.99-1.844,2.969l-1.844,3.313h0.359l8.688-0.547c0,0.219,0.433,0.709,1.297,1.469l0.188,1.109l-0.922,0.563
				h-0.375c-0.792,0-1.531-0.313-2.219-0.938h-1.656c-0.125,0-0.188,0.068-0.188,0.203c-0.125,0-0.188-0.068-0.188-0.203
				c-1.771,0.166-2.88,0.354-3.328,0.563c-0.114,0-0.172-0.063-0.172-0.188l-9.25,0.734v-0.172l-0.375,0.172h-0.922
				c-0.677,0-1.536,0.063-2.578,0.188c-0.5-0.178-0.75-0.359-0.75-0.547l0.188-0.375c-0.125,0-0.188-0.057-0.188-0.172
				c3.25-1,4.974-1.5,5.172-1.5v-0.172c-0.739-1.863-1.354-3.65-1.844-5.359h-0.375c-1.583,1.219-3.489,2.203-5.719,2.953h-0.188
				c-0.739-0.313-1.109-0.744-1.109-1.297c4.75-2.645,8.693-6.588,11.828-11.828l-0.547-0.359c-0.313,0-1.979,0.74-5,2.219v-0.188
				c-1.563,0.74-2.484,1.109-2.766,1.109c-0.292,0-0.661-0.188-1.109-0.563c1.094-1.5,2.511-2.541,4.25-3.125
				c1.604-0.656,3.078-1.77,4.422-3.344c-1.719-1.438-2.578-2.479-2.578-3.125V5.172c0.083-0.738,0.271-1.109,0.563-1.109h0.359
				c0.594,0,1.578,0.803,2.953,2.406l0.563,0.359h0.188c2.74-2.488,4.464-4.645,5.172-6.469C52.125,0.234,52.433,0.115,53.047,0z
				 M43.25,20.875c0.99,1.324,1.792,3.787,2.406,7.391h0.922c0.99-0.156,1.484-0.525,1.484-1.109
				c-0.771-1.135-1.323-2.432-1.656-3.891c-0.198,0-0.448-0.244-0.75-0.734v-0.922c0.531,0,0.901-0.432,1.109-1.297
				c0.125,0,0.188-0.063,0.188-0.188c0.813,0.375,1.365,0.563,1.656,0.563c1.792-0.416,2.781-0.785,2.969-1.109
				c0-0.238-1.297-1.656-3.891-4.25c-0.271,0.074-1.317,1.428-3.141,4.063C44.453,19.391,44.021,19.887,43.25,20.875z
				 M48.984,23.266v2.594h0.188c0.365,0,0.797-1.109,1.297-3.328c-0.125,0-0.188-0.057-0.188-0.172
				C49.49,22.672,49.058,22.975,48.984,23.266z"/>
			<path fill="#2D8A3A" d="M71.328,13.969h0.563c2.49,0.584,3.766,1.625,3.828,3.125l-0.547,0.375
				c-0.854-0.738-1.547-1.109-2.078-1.109c-1.489-0.188-2.239-0.432-2.25-0.734l-0.016-0.563
				C70.87,14.334,71.037,13.969,71.328,13.969z M74.172,6c0.011,0.406,1.271,1.209,3.781,2.406l0.422,1.109l-0.516,0.938
				c-1.667-0.738-3.359-1.359-5.078-1.859c-0.396-0.469-0.604-1.02-0.625-1.656C72.594,6.48,73.266,6.168,74.172,6z M87.156,3.047
				h0.734c2.24,0.219,3.386,1.021,3.438,2.406c0.021,0.469-0.88,1.084-2.703,1.844c-0.479,0.365-0.713,0.615-0.703,0.75
				c0.979,0,1.484,0.371,1.516,1.109c0.042,1.105,0.802,1.656,2.281,1.656c0.833,0.209,1.651,0.578,2.453,1.109h0.188v0.188
				c0.011,0.125-0.047,0.188-0.172,0.188l0.203,0.375v0.188c0.021,0.459-1.563,0.949-4.75,1.469
				c-1.104,2.855-1.838,4.391-2.203,4.609c-0.239,0.125-0.427,0.188-0.563,0.188l0.016,0.203c0.667-0.135,1.156-0.203,1.469-0.203
				c0.823,0,2.734-0.063,5.734-0.188c0.396,0.125,0.901,0.496,1.516,1.109l-0.156,0.375c0.115,0.219,0.177,0.469,0.188,0.75
				c-1.271,0.781-2.156,1.641-2.656,2.578L93,23.938c0.281,0,0.594,0.309,0.938,0.922l0.031,0.938
				c0.021,0.365-2.167,0.979-6.563,1.844C87.417,27.881,87.297,28,87.047,28c-1.438,0-2.656-2.707-3.656-8.125l0.891-0.75
				c0.375,0,0.88,0.188,1.516,0.563c0.49-0.094,0.734-0.213,0.734-0.359c-0.271-0.406-0.411-0.719-0.422-0.938
				c0.219,0,0.604-1.172,1.156-3.516h-0.203c-3.104,0.262-5.067,0.391-5.891,0.391c-1.438,3.865-2.422,7.006-2.953,9.422
				l-0.672,1.281l0.391,0.547c-0.292,0.803-0.588,1.234-0.891,1.297H76.5c-1.604-0.219-2.432-0.891-2.484-2.016
				c0.396-1.656,2.183-4.863,5.359-9.625l0.344-0.734c-0.667,0-1.109-0.244-1.328-0.734l-0.016-0.188
				c1.136-0.363,2.047-0.734,2.734-1.109l0.734,0.172c1.281-0.113,3.12-0.484,5.516-1.109l-0.078-2.203l-0.234-1.109
				c0.115-0.219,0.167-0.469,0.156-0.75c-0.875,0.531-1.974,0.965-3.297,1.297l-0.188-0.359l-0.016-0.375
				c2.729-2.707,4.089-4.188,4.078-4.438c-0.146-0.363-0.531-0.547-1.156-0.547l-0.016-0.547h0.938V3.234h-0.375L87.156,3.047z
				 M87.359,22.094l-0.922-0.188l0.016,0.188c0.281,1.105,0.433,1.906,0.453,2.406h0.75c0.688-0.26,1.75-1.25,3.188-2.969
				L87.359,22.094z"/>
			<path fill="#2D8A3A" d="M121.781,5.359c1.115,0.418,1.672,0.725,1.672,0.922c0,0.865-0.984,1.297-2.953,1.297
				c-3.438,0.928-5.167,1.48-5.188,1.656v0.359l0.188,0.938c1.688-0.5,3.229-0.75,4.625-0.75h0.547c1.365,0,2.047,0.684,2.047,2.047
				c-0.531,2.156-1.516,4-2.953,5.531c-0.573,1.23-1.807,1.844-3.703,1.844c-0.739,0.387-1.109,0.699-1.109,0.938h-0.188
				l0.188,0.359v0.75c0,0.115-0.063,0.172-0.188,0.172c0.125,0.219,0.188,0.469,0.188,0.75l1.484-0.375
				c0,0.25,0.37,0.375,1.109,0.375c0,0.615-0.802,1.537-2.406,2.766v0.734h0.172c1.104-0.238,1.849-0.359,2.234-0.359l0.359,0.922
				c-1.864,1.303-3.901,2.35-6.109,3.141c-0.438,0-0.927-0.244-1.469-0.734c0.094-0.959,0.344-1.635,0.75-2.031
				c-1.229,0-1.844-0.432-1.844-1.297c0-0.719,1.104-1.457,3.313-2.219c0-0.125,0.063-0.188,0.188-0.188l-0.188-0.922v-1.281
				c-0.073,0-0.875-0.066-2.406-0.203c-0.427,0.137-0.672,0.203-0.734,0.203c-0.938-0.656-1.614-2.26-2.031-4.813v-0.188
				c0.125-1.051,0.188-1.854,0.188-2.406h-0.188c0.125-0.207,0.188-0.516,0.188-0.922h0.172c1,0.324,1.5,1.125,1.5,2.406
				c0.479,2.459,1.276,3.688,2.391,3.688c0.208,0.125,0.516,0.188,0.922,0.188l0.188-0.359v-1.109
				c-1.104-0.656-1.656-1.338-1.656-2.047v-0.188h0.359l1.297-0.172v-1.297h-2.406c-0.729-0.26-1.094-0.754-1.094-1.484
				c2.458-0.52,3.688-0.947,3.688-1.281V9.594c-0.208,0-3.104,0.746-8.688,2.234h-0.172c-0.979,0-1.661-0.369-2.047-1.109v-0.188
				c0.386,0,3.646-0.922,9.781-2.766c0.865-0.125,1.297-0.375,1.297-0.75c0.25,0.125,0.438,0.188,0.563,0.188
				C117.521,6.184,120.229,5.568,121.781,5.359z M113.484,0.547c2.208,0.803,3.313,1.787,3.313,2.953c0,0.99-1.906,1.73-5.719,2.219
				c-0.427-0.238-1.042-0.422-1.844-0.547V4.984c0.448-0.457,2.167-1.316,5.156-2.578V2.203l-1.094-1.469
				C113.422,0.734,113.484,0.672,113.484,0.547z M115.313,12.938v1.297h0.188l0.375-0.203c0.938,0.324,1.433,0.631,1.484,0.922
				c0,0.418-0.739,0.975-2.219,1.672c-0.125,0.209-0.188,0.453-0.188,0.734v0.188h0.188c1.229-0.613,1.844-1.166,1.844-1.656h0.922
				c0.99-1.854,1.484-2.969,1.484-3.344v-0.359C117.026,12.688,115.667,12.938,115.313,12.938z M126.594,9.047h0.375
				c1.104,0,1.656,0.434,1.656,1.297v0.188c0,0.98-0.307,2.578-0.922,4.797c0.125,0,0.188,0.063,0.188,0.188
				c0.552-0.25,1.354-0.375,2.406-0.375h0.906c0.125,0,0.188-0.063,0.188-0.188c0.636,0,1.136,0.559,1.5,1.672
				c-0.01,0.375-0.26,0.99-0.75,1.844l0.188,0.375c-0.125,0.24-0.188,0.428-0.188,0.563h0.188c-0.864,2.865-1.542,4.834-2.031,5.906
				l0.188,0.359C129.745,27.891,129,29,128.25,29c-0.739,0-1.349-0.678-1.828-2.031c0-0.125,0.058-0.188,0.172-0.188
				c-0.25-1.594-0.438-3.129-0.563-4.609c0.167,0,0.479,0.553,0.938,1.656c0.365,0,0.547,0.553,0.547,1.656h0.188
				c1.229-3.969,1.844-6.494,1.844-7.578h-0.172c-1.656,0-2.641,0.5-2.953,1.5c-0.906,2.949-1.651,4.855-2.234,5.719h-0.172v-0.359
				h-0.188c-0.917,3.572-1.906,5.359-2.969,5.359c0,0.146-0.245,0.266-0.734,0.359c-0.614-0.156-0.922-0.338-0.922-0.547
				c1.646-2.166,3.063-5.807,4.25-10.922c-0.833-0.229-1.391-0.656-1.672-1.281v-0.188c0-1.051,0.433-1.604,1.297-1.656
				c0.25,0.115,0.438,0.172,0.563,0.172v-0.172l0.375,0.172c0.386,0,0.938-1.473,1.656-4.422
				C125.755,11.641,126.063,10.777,126.594,9.047z"/>
		</g>
	</g>
</g>
<g id="footer">
</g>
<g id="header">
</g>
</svg>
