<?xml version="1.0" encoding="utf-8"?>
<!-- Generator: Adobe Illustrator 16.0.0, SVG Export Plug-In . SVG Version: 6.00 Build 0)  -->
<!DOCTYPE svg PUBLIC "-//W3C//DTD SVG 1.1//EN" "http://www.w3.org/Graphics/SVG/1.1/DTD/svg11.dtd">
<svg version="1.1" id="圖層_1" xmlns="http://www.w3.org/2000/svg" xmlns:xlink="http://www.w3.org/1999/xlink" x="0px" y="0px"
	 width="24px" height="24px" viewBox="0 0 24 24" enable-background="new 0 0 24 24" xml:space="preserve">
<g>
	<circle fill="#999999" cx="12" cy="12" r="12"/>
	<path fill="#FFFFFF" d="M13.8,20.304H7.604c-1.432,0-2.596-1.164-2.596-2.595V8.918c0-1.431,1.164-2.595,2.596-2.595H13.8
		c1.432,0,2.596,1.164,2.596,2.595v8.791C16.396,19.14,15.231,20.304,13.8,20.304z M7.604,7.621c-0.716,0-1.298,0.582-1.298,1.297
		v8.791c0,0.715,0.582,1.297,1.298,1.297H13.8c0.716,0,1.298-0.582,1.298-1.297V8.918c0-0.715-0.582-1.297-1.298-1.297H7.604z
		 M18.99,16.087V6.291c0-1.432-1.164-2.596-2.595-2.596H9.194c-0.359,0-0.649,0.291-0.649,0.648c0,0.359,0.29,0.649,0.649,0.649
		h7.201c0.715,0,1.297,0.582,1.297,1.298v9.796c0,0.358,0.291,0.649,0.649,0.649S18.99,16.445,18.99,16.087z"/>
</g>
</svg>
