<?xml version="1.0" encoding="utf-8"?>
<!-- Generator: Adobe Illustrator 16.0.0, SVG Export Plug-In . SVG Version: 6.00 Build 0)  -->
<!DOCTYPE svg PUBLIC "-//W3C//DTD SVG 1.1//EN" "http://www.w3.org/Graphics/SVG/1.1/DTD/svg11.dtd">
<svg version="1.1" xmlns="http://www.w3.org/2000/svg" xmlns:xlink="http://www.w3.org/1999/xlink" x="0px" y="0px" width="45px"
	 height="45px" viewBox="0 0 45 45" enable-background="new 0 0 45 45" xml:space="preserve">
<g id="圖層_3">
	<g>
		<path fill="#FFFFFF" stroke="#2C903A" stroke-miterlimit="10" d="M22.5,0.5L22.5,0.5c12.15,0,22,9.85,22,22l0,0
			c0,12.15-9.85,22-22,22l0,0c-12.15,0-22-9.85-22-22l0,0C0.5,10.35,10.35,0.5,22.5,0.5z"/>
		<g>
			<g>
				<path fill="#2C903A" d="M31.042,32.265h-3.158l-1.735-4.92h-7.417l-1.651,4.92h-3.158l6.986-18.908h3.194L31.042,32.265z
					 M25.347,24.916l-2.584-7.458c-0.096-0.27-0.191-0.745-0.287-1.429h-0.084c-0.072,0.562-0.171,1.029-0.299,1.403l-2.572,7.483
					H25.347z"/>
			</g>
		</g>
		<g>
			<text transform="matrix(0.98 0 0 1 23.3623 19.0146)" fill="#2C903A" font-family="'MicrosoftJhengHeiBold'" font-size="20">+</text>
		</g>
	</g>
</g>
<g id="圖層_1">
</g>
<g id="圖層_4">
	<g>
	</g>
</g>
<g id="圖層_2">
</g>
</svg>
