<?xml version="1.0" encoding="utf-8"?>
<!-- Generator: Adobe Illustrator 16.0.0, SVG Export Plug-In . SVG Version: 6.00 Build 0)  -->
<!DOCTYPE svg PUBLIC "-//W3C//DTD SVG 1.1//EN" "http://www.w3.org/Graphics/SVG/1.1/DTD/svg11.dtd">
<svg version="1.1" xmlns="http://www.w3.org/2000/svg" xmlns:xlink="http://www.w3.org/1999/xlink" x="0px" y="0px"
	 width="186.996px" height="59.452px" viewBox="0 0 186.996 59.452" enable-background="new 0 0 186.996 59.452"
	 xml:space="preserve">
<g id="bg">
</g>
<g id="圖層_1">
</g>
<g id="圖層_2">
</g>
<g id="sam">
</g>
<g id="header">
	<g>
		<g>
			<path fill-rule="evenodd" clip-rule="evenodd" fill="#221E1F" d="M174.543,10.896l1.789-2.5c0.109-0.152,0.074-0.278-0.078-0.278
				l-6.605,0.002c0.01-0.01,0.021-0.02,0.029-0.032l1.105-1.544c0.068-0.094,0.045-0.171-0.049-0.171l-2.947,0.003
				c-0.094,0-0.227,0.077-0.293,0.171l-1.105,1.544c-0.008,0.01-0.012,0.02-0.016,0.029l-5.203,0.002v3.056l12.896-0.005
				C174.219,11.174,174.434,11.049,174.543,10.896z"/>
			<path fill-rule="evenodd" clip-rule="evenodd" fill="#221E1F" d="M175.688,13.381l4.48-0.002v1.04v0.564l-4.854,0.002
				c-0.152,0-0.367,0.125-0.477,0.278l-1.789,2.5c-0.109,0.153-0.074,0.278,0.08,0.278l13.326-0.005V14.98l-4.18,0.001
				c0-0.453,0-1.002,0-1.604l4.18-0.002v-3.056l-4.182,0.003c0-1.659-0.002-3.21-0.002-3.949h-2.109l0.002,3.95l-2.289,0.002
				c-0.152,0-0.367,0.125-0.477,0.278l-1.791,2.5C175.5,13.256,175.535,13.381,175.688,13.381z"/>
			<path fill-rule="evenodd" clip-rule="evenodd" fill="#221E1F" d="M171.59,15.425l1.789-2.5c0.109-0.152,0.072-0.278-0.078-0.278
				l-12.131,0.006v3.056l9.943-0.005C171.266,15.703,171.48,15.578,171.59,15.425z"/>
			<path fill-rule="evenodd" clip-rule="evenodd" fill="#221E1F" d="M169.424,19.757l1.789-2.5c0.109-0.152,0.074-0.277-0.078-0.277
				l-9.965,0.005v3.056l7.777-0.005C169.1,20.035,169.314,19.91,169.424,19.757z"/>
			<path fill-rule="evenodd" clip-rule="evenodd" fill="#221E1F" d="M169.188,21.82l-0.125,0h-3.297v0.004l-0.25,0
				c-0.15,0-0.361,0.124-0.469,0.273l-1.758,2.457c-0.109,0.15-0.074,0.273,0.076,0.273l2.65-0.003
				c0.342,1.338,0.607,5.95,0.775,10.435h1.354c0.01-1.677,0.021-3.104,0.039-3.592c0.035-1.037,0.078-2.153,0.17-3.285
				c0.088-1.095,0.195-1.973,0.338-2.764c0.131-0.728,0.303-1.462,0.467-2.172c0.084-0.365,0.17-0.73,0.25-1.096
				c0.023-0.109,0.031-0.221,0.037-0.328c0.004-0.045,0.008-0.09,0.012-0.135l0.006-0.067h-0.273L169.188,21.82z"/>
			<path fill-rule="evenodd" clip-rule="evenodd" fill="#221E1F" d="M186.715,20.249L186.715,20.249h-0.129h-0.053
				c-0.02-0.044-0.063-0.074-0.135-0.074h-4.357l-0.008-0.01l-0.008,0.01h-1.197c-0.162,0-0.387,0.131-0.502,0.292l-1.883,2.63
				c-0.115,0.161-0.078,0.292,0.084,0.292h1.121c0.273,0,0.244-0.049,0.088,0.167c-1.213,1.661-2.211,3.456-3.061,5.344
				c-0.098,0.22-0.098,0.182,0.129,0.139c0.76-0.145,1.592-0.165,2.326-0.044c2.012,0.334,2.74,2.408,0.758,3.239
				c-0.613,0.256-1.268,0.381-1.896,0.405c-3.699,0.144-4.543-3.495-3.686-6.411c0.365-1.238,1.037-2.4,1.91-3.399
				c0.777-0.889,1.693-1.705,2.615-2.475c0.221-0.186,0.309-0.191-0.021-0.189l-2.236,0.009h-3.699c-0.16,0-0.385,0.131-0.5,0.292
				l-1.883,2.63c-0.117,0.161-0.078,0.292,0.082,0.292h2.943c0.234,0,0.154,0.023,0.049,0.207c-0.424,0.733-0.826,1.477-1.141,2.26
				c-2.195,5.48,1.191,10.491,6.965,9.195c1.857-0.417,3.424-1.6,3.787-3.517c0.373-1.958-0.676-4.103-2.83-4.587
				c-0.271-0.061-0.258-0.026-0.193-0.317c0.152-0.692,0.59-1.755,1.098-2.933c0.082-0.191,0.129-0.279,0.172-0.292v-0.003h0.012
				c0,0,0.01-0.001,0.014,0h2.061c0.34,1.526,0.678,7.389,0.844,11.855h1.379c0.01-1.707-0.057-4.492-0.039-4.988
				c0.035-1.055,0.08-2.191,0.172-3.344c0.092-1.114,0.199-2.008,0.344-2.812c0.135-0.741,0.309-1.488,0.477-2.21
				c0.086-0.372,0.172-0.743,0.254-1.116c0.025-0.111,0.031-0.224,0.039-0.334c0.004-0.046,0.006-0.092,0.01-0.137l0.008-0.068
				H186.715z"/>
			<path fill-rule="evenodd" clip-rule="evenodd" fill="#221E1F" d="M165.949,32.251l-2.648,0.003
				c-0.344-1.339-0.609-5.95-0.775-10.435h-1.355c-0.01,1.677-0.021,3.104-0.037,3.592c-0.035,1.037-0.08,2.153-0.17,3.285
				c-0.09,1.095-0.197,1.973-0.34,2.764c-0.131,0.728-0.301,1.461-0.465,2.172c-0.086,0.365-0.172,0.729-0.252,1.096
				c-0.023,0.109-0.031,0.22-0.037,0.328c-0.004,0.045-0.006,0.091-0.012,0.135l-0.006,0.067h0.275l0.002,0l0.125,0h3.295
				l0.002-0.005l0.25,0c0.15,0,0.359-0.123,0.469-0.273l1.758-2.457C166.135,32.374,166.1,32.251,165.949,32.251z"/>
		</g>
		<path fill="#221E1F" d="M80.955,42.073h1.063c-0.355-0.713-1.035-2.156-1.379-2.894c-0.047-0.09-0.096-0.179-0.133-0.271
			c-0.021-0.048-0.043-0.096-0.063-0.144c-0.012-0.024-0.02-0.041-0.02-0.041c-1.104-2.632-2.451-5.114-4.502-7.151
			c-3.08-3.061-6.779-4.703-11.139-4.791c-1.762-0.035-6.143,0.288-6.182,0.387c-0.791,2.007-1.566,4.026-2.375,6.058
			c0.459-0.092,0.736-0.154,1.014-0.202c1.84-0.315,3.67-0.777,5.525-0.912c4.549-0.33,8.723,0.908,12.49,3.465
			c2.123,1.439,3.945,3.187,5.242,5.434C80.697,41.355,80.854,41.705,80.955,42.073z"/>
		<path fill-rule="evenodd" clip-rule="evenodd" fill="#221E1F" d="M81.836,5.784L65.719,5.792c-0.227,0-0.547,0.187-0.711,0.415
			l-2.67,3.73c-0.162,0.228-0.109,0.415,0.119,0.415l16.115-0.008c0.229,0,0.549-0.187,0.711-0.415l2.67-3.73
			C82.117,5.971,82.064,5.784,81.836,5.784z"/>
		<path fill-rule="evenodd" clip-rule="evenodd" fill="#221E1F" d="M76.699,15.825l-11.633,0.008c-0.227,0-0.547,0.187-0.711,0.415
			l-2.67,3.73c-0.162,0.228-0.109,0.415,0.117,0.415l11.633-0.008c0.227,0,0.547-0.187,0.711-0.415l2.67-3.729
			C76.98,16.011,76.928,15.825,76.699,15.825z"/>
		<path fill-rule="evenodd" clip-rule="evenodd" fill="#221E1F" d="M54.848,19.63l-10.23,0.003c0.055-1.139,0.121-2.279,0.199-3.417
			c0.205-2.951,0.4-5.901,1.16-8.781c0.229-0.865,0.355-1.757,0.545-2.712h-5.566c-0.002,0.002-0.002,0.004-0.002,0.007
			l-0.857,0.001c-0.229,0-0.549,0.187-0.711,0.415l-2.672,3.73c-0.162,0.228-0.109,0.414,0.119,0.414l3.617-0.005
			c0.488,0.971,0.625,2.038,0.775,3.088c0.344,2.412,0.615,4.831,0.758,7.262l-7.744,0.003c-0.227,0-0.547,0.187-0.711,0.415
			l-2.67,3.73c-0.164,0.228-0.111,0.414,0.117,0.414l11.15-0.004c0.039,1.732,0.08,3.464,0.121,5.196
			c0.004,0.231,0.055,11.987,0.066,12.653h1.881c0.057-2.06,0.141-10.765,0.158-12.714c0.016-1.712,0.049-3.424,0.098-5.135
			l7.135-0.003c0.229,0,0.549-0.186,0.711-0.414l2.672-3.73C55.129,19.817,55.076,19.63,54.848,19.63z"/>
		<path fill-rule="evenodd" clip-rule="evenodd" fill="#221E1F" d="M3.643,5.971c0,0.003-0.002,0.005-0.002,0.008l-0.164,0
			c-0.229,0-0.549,0.186-0.713,0.414l-2.67,3.731c-0.162,0.228-0.109,0.414,0.119,0.414l5.576-0.008
			c0.014,0,0.031-0.007,0.047-0.008c0.434,0,0.869,0,1.313,0c-2.736,4.804-4.475,9.875-6.512,14.992
			c0.422-0.084,0.674-0.141,0.93-0.185c1.684-0.289,3.359-0.711,5.059-0.834c4.166-0.302,7.986,0.832,11.436,3.171
			c1.941,1.318,3.609,2.917,4.797,4.975c0.342,0.593,0.568,1.196,0.518,1.907c-0.045,0.656,0.012,6.827,0.023,7.493
			c0.684,0,1.246,0,1.881,0c0.057-2.06,0.141-9.517,0.158-11.466c0.041-4.375,0.164-8.746,0.465-13.112
			c0.205-2.951,0.402-5.9,1.16-8.78c0.227-0.866,0.357-1.757,0.545-2.712C19.555,5.971,11.623,5.971,3.643,5.971z M17.818,13.666
			c0.066,0.973,0.057,6.658,0.049,9.591c-1.201-1.05-2.496-1.883-3.891-2.483V10.532c0.965,0,1.93,0,2.896,0
			C17.375,11.367,17.734,12.391,17.818,13.666z M5.244,19.612c0.236-1.845,2.811-7.477,4.164-9.08c0.578,0,1.154,0,1.732,0
			c0.502,0.835,0.861,1.859,0.945,3.134c0.061,0.879,0.059,4.285,0.051,6.467c-1.16-0.317-2.381-0.492-3.664-0.518
			C7.398,19.593,6.324,19.612,5.244,19.612z M23.184,31.371c-0.107-0.218-0.227-0.43-0.318-0.654
			c-0.826-1.992-1.805-3.891-3.156-5.553V10.532c0.607,0,1.213,0,1.824,0c0.49,0.971,0.627,2.039,0.777,3.089
			c0.461,3.232,0.793,6.478,0.855,9.747c0.045,2.423,0.109,4.846,0.166,7.269C23.336,30.868,23.332,31.099,23.184,31.371z"/>
		<path fill-rule="evenodd" clip-rule="evenodd" fill="#221E1F" d="M155.678,41.068c-0.014-0.443-0.035-0.885-0.047-1.327
			c-0.225-8.758,0.086-17.097-4.469-20.405c-1.51-1.097-3.373-1.78-5.82-1.676c-0.518,0.022-0.393-0.073-0.129-0.484
			c0.457-0.712,2.035-3.166,2.836-4.164l2.945-0.001c0.217,0,0.523-0.178,0.682-0.397l2.559-3.576
			c0.156-0.218,0.105-0.397-0.113-0.397l-12.869,0.004c0.109-1.076,0.238-2.013,0.393-2.878c0.199-1.105,0.459-2.219,0.709-3.298
			c0.129-0.554,0.258-1.108,0.381-1.664c0.035-0.166,0.047-0.335,0.057-0.499c0.006-0.068,0.01-0.137,0.016-0.205L142.816,0h-0.418
			v0l-0.215,0h-4.979l-0.004,0.007l-0.379,0.001c-0.229,0-0.549,0.187-0.713,0.415l-2.668,3.73
			c-0.164,0.228-0.111,0.414,0.117,0.414l4.025-0.006c0.164,0.687,0.318,2.133,0.461,4.085l-8.969,0.002
			c-0.217,0-0.523,0.179-0.682,0.397l-2.559,3.577c-0.158,0.218-0.105,0.397,0.111,0.397l5.924-0.002
			c-2.047,7.273-2.311,23.075-2.311,31.918v6.525l0,0v2.453l-0.004,0.003c0,0.202,0,2.194,0,3.249c0,0.249,0,0.512,0,0.741
			c0,0.179,0,0.359,0,0.541c0,0.029,0.002,0.051,0.002,0.063c0,0.012,0.002,0.024,0.002,0.036c0.002,0.06,0,0.117,0.002,0.18
			c0.006,0.073,0.008,0.145,0.012,0.215h0.004c0.002,0.032,0.002,0.063,0.004,0.094c0.014,0.143,0.037,0.288,0.078,0.342
			c0.131,0.171,0.352,0.047,0.367-0.382c0.025-0.634,0.045-1.326,0.066-2.055c0.047-1.468,0.102-3.098,0.168-4.85
			c0.01-0.209,0.02-0.418,0.031-0.63h-0.006c0.498-12.458,1.779-30.559,6.541-38.445l1.473,0c0.488,9.826,0.762,24.815,0.748,29.025
			h1.51c0.006,0.071,0.027-0.001,0.09,0h0.002c0.063,0,0.082,0.058,0.09,0h0.004c0-0.014,0,0.015,0,0
			c0.018-0.843,0.029-13.99,0.047-17.033c0.006-1.086,0.01-2.209,0.018-3.298c0.055-0.009,0.113-0.02,0.182-0.031
			c1.033-0.173,2.42-0.186,3.314-0.127c3.266,0.211,5.785,1.414,7.252,3.594c2.629,3.911,3.393,9.842,3.605,15.502
			c0.012,0.318,0.008,0.637,0.031,0.952c0.049,0.644,0.52,0.621,0.492-0.011C155.68,41.416,155.684,41.242,155.678,41.068z
			 M140.816,20.184c0.016-2.45,0.033-4.513,0.057-5.232c0.02-0.627,0.045-1.277,0.074-1.937l4.32-0.001
			C143.664,14.952,141.742,17.696,140.816,20.184z"/>
		<g>
			<path fill="#221E1F" d="M86.688,10.011h7.295c0.105,0,0.326-0.004,0.633-0.01c0.326-0.006,0.199,0.031,0.023,0.243
				c-0.674,0.812-1.51,1.945-1.973,2.679h3.365c1.775-2.75,4.35-5.345,6.959-6.89c0.326-0.193,0.404-0.25-0.027-0.249l-4.795,0.011
				h-8.463c-0.209,0-0.506,0.172-0.656,0.383L86.58,9.628C86.428,9.839,86.479,10.011,86.688,10.011z"/>
			<path fill="#221E1F" d="M103.094,8.341c-0.225,0-0.539,0.188-0.699,0.416l-2.625,3.749c-0.16,0.229-0.107,0.417,0.115,0.417
				l5.637-0.002l-4.805,7.243c-0.094,0.141,0.037,0.313,0.201,0.274c4.359-1.048,14.146-3.845,21.057,3.452
				c0.174,0.184,0.41,0.532,0.482,0.638c-0.004-0.109-0.008-0.217-0.014-0.325c-0.016-0.393-0.043-0.771-0.146-1.148
				c-0.004-0.022-0.014-0.045-0.021-0.068c-0.018-0.047-0.035-0.093-0.055-0.141c-0.797-1.977-2.619-4.322-4.168-5.397
				c-2.736-1.898-5.5-2.132-8.768-2.378l1.164-2.153l7.633-0.003c0.225,0,0.539-0.188,0.699-0.417l2.625-3.749
				c0.16-0.229,0.107-0.417-0.117-0.417l-8.129,0.003l2.453-3.555c0.098-0.135,0.066-0.245-0.068-0.245l-4.207,0.005
				c-0.135,0-0.324,0.11-0.42,0.245l-2.357,3.552L103.094,8.341z"/>
			<path fill="#221E1F" d="M105.572,22.077l-3.932-0.016c-0.238-0.001-0.42,0.213-0.379,0.448c0.174,0.996,0.586,3.365,0.695,4.248
				c0.314,2.517,0.223,4.833-0.156,7.244c-0.361,2.29-1.279,4.313-2.846,6.053c-0.48,0.535-0.947,1.082-1.438,1.644
				c0.115,0.107,0.205,0.193,0.295,0.276c0.063,0.059,0.156,0.066,0.229,0.02c0.602-0.389,1.188-0.774,1.783-1.145
				c3.309-2.051,5.061-5.066,5.666-8.791c0.324-1.99,0.277-8.62,0.268-9.799C105.756,22.157,105.674,22.078,105.572,22.077z"/>
			<path fill="#221E1F" d="M123.773,56.298v-5.114c0-5.105,0.195-12.068-1.197-16.143c-0.672-1.97-1.65-3.61-2.863-4.703
				c-0.152-0.139-0.094-1.62-0.504-2.873c-0.047-0.138-0.057-0.121,0.09-0.119c0.346,0.004,0.594,0.006,0.676,0.006h2.074
				c0.188,0,0.232-0.154,0.098-0.343l-2.211-3.088c-0.135-0.188-0.4-0.343-0.588-0.343h-4.211l-2.625-0.01
				c-0.387-0.002-0.303,0.028-0.025,0.222c1.422,0.992,3.816,2.912,4.182,4.963c0.02,0.115,0.039,0.117-0.076,0.101
				c-0.414-0.058-0.857-0.071-1.334-0.055c-4.051,0.138-6.254,4.583-4.316,7.833c1.836,3.081,6.359,2.762,7.904-0.432
				c0.18-0.373,0.314-0.767,0.41-1.178c3.945,5.381,3.803,17.489,4.047,23.973c0.018,0.429,0.238,0.553,0.369,0.382
				c0.041-0.055,0.064-0.199,0.078-0.342c0.018-0.177,0.021-0.348,0.023-0.524c0.002-0.151,0.002-2.061,0.002-2.211L123.773,56.298z
				 M117.863,34.05c-0.057,0.528-0.186,1.029-0.402,1.481c-0.762,1.576-2.627,2.103-4.021,1.414
				c-1.512-0.747-1.686-2.794-1.014-3.89c1.213-1.973,3.859-1.487,5.129-0.093C117.918,33.359,117.922,33.526,117.863,34.05z"/>
			<path fill="#221E1F" d="M110.352,25.359c0.016-0.019,0.031-0.039,0.045-0.058c0.051-0.063,0.102-0.127,0.156-0.192
				c0.008-0.01,0.018-0.021,0.025-0.032c0.262-0.313,0.564-0.644,0.914-1.048c0.002-0.001,0-0.001,0.002-0.002
				c0.057-0.066,0.117-0.174,0.117-0.174l-2.646-2.194h-1.629h-0.006c0,0,0,6.13,0.002,9.188v-0.001
				c0.002,3.208,0.002,7.47,0,10.538c-0.002,1.135,0.029,0.839,0.32,0.376c0.111-0.177,1.076-1.83,1.529-2.609
				c-0.012-2.291-0.066-8.392,0.045-10.119c0.035-0.547,0.086-1.007,0.156-1.404c0.004-0.022,0.01-0.041,0.012-0.062
				c0.02-0.106,0.041-0.209,0.064-0.307c0.006-0.032,0.014-0.061,0.021-0.092c0.02-0.083,0.041-0.164,0.064-0.241
				c0.01-0.034,0.021-0.067,0.031-0.101c0.021-0.069,0.043-0.137,0.066-0.203c0.014-0.034,0.025-0.067,0.039-0.1
				c0.023-0.061,0.047-0.121,0.072-0.179c0.016-0.032,0.029-0.064,0.045-0.096c0.027-0.056,0.053-0.111,0.082-0.165
				c0.016-0.03,0.033-0.06,0.049-0.09c0.029-0.053,0.061-0.105,0.092-0.156c0.016-0.028,0.033-0.056,0.051-0.083
				c0.033-0.052,0.068-0.104,0.104-0.155c0.02-0.025,0.035-0.05,0.053-0.075C110.268,25.469,110.311,25.415,110.352,25.359z"/>
			<path fill="#221E1F" d="M100.023,33.484l-3.986,0.01c0-1.634,0-4.469,0-7.472h4.045V24.02c-1.76-0.318-2.99-1.184-3.85-2.187
				c-0.08-0.093-0.143-0.149-0.197-0.179c-0.002-2.874-0.002-5.418-0.004-6.633h-3.146l0.008,16.497v1.978h-2.006l-0.006-13.128
				c0-0.168-0.139-0.404-0.307-0.525l-2.754-1.971c-0.168-0.12-0.305-0.081-0.305,0.087l0.006,15.537h-0.506
				c-0.221,0-0.529,0.18-0.686,0.4l-2.576,3.598c-0.158,0.22-0.105,0.4,0.113,0.4h1.549h9.213c1.633-1.66,3.563-3.05,5.424-4.151
				C100.393,33.542,100.475,33.482,100.023,33.484z"/>
		</g>
	</g>
</g>
</svg>
