<?xml version="1.0" encoding="utf-8"?>
<!-- Generator: Adobe Illustrator 16.0.0, SVG Export Plug-In . SVG Version: 6.00 Build 0)  -->
<!DOCTYPE svg PUBLIC "-//W3C//DTD SVG 1.1//EN" "http://www.w3.org/Graphics/SVG/1.1/DTD/svg11.dtd">
<svg version="1.1" id="圖層_1" xmlns="http://www.w3.org/2000/svg" xmlns:xlink="http://www.w3.org/1999/xlink" x="0px" y="0px"
	 width="45px" height="45px" viewBox="0 0 45 45" enable-background="new 0 0 45 45" xml:space="preserve">
<g>
	<path fill="#FFFFFF" stroke="#2F853A" stroke-miterlimit="10" d="M22.499,0.5L22.499,0.5c12.15,0,22.001,9.85,22.001,21.999V22.5
		c0,12.149-9.851,22-22,22h-0.001C10.35,44.5,0.5,34.649,0.5,22.5v-0.001C0.5,10.35,10.35,0.5,22.499,0.5z"/>
	<g>
		<path fill="#2F853A" d="M14.981,22.203l7.219-7.23c0.266-0.255,0.632-0.41,1.009-0.41c0.378,0,0.743,0.155,0.998,0.41l7.219,7.23
			c0.267,0.255,0.422,0.621,0.422,0.998s-0.155,0.742-0.422,1.009l-0.82,0.831c-0.267,0.256-0.632,0.411-1.009,0.411
			s-0.743-0.155-0.998-0.411l-3.26-3.26v7.807c0,0.776-0.644,1.42-1.42,1.42H22.5c-0.776,0-1.42-0.644-1.42-1.42v-7.807l-3.26,3.26
			c-0.255,0.256-0.621,0.411-0.998,0.411s-0.743-0.155-1.009-0.411l-0.832-0.831c-0.255-0.267-0.41-0.632-0.41-1.009
			S14.727,22.458,14.981,22.203z"/>
	</g>
</g>
</svg>
