<?xml version="1.0" encoding="utf-8"?>
<!-- Generator: Adobe Illustrator 16.0.0, SVG Export Plug-In . SVG Version: 6.00 Build 0)  -->
<!DOCTYPE svg PUBLIC "-//W3C//DTD SVG 1.1//EN" "http://www.w3.org/Graphics/SVG/1.1/DTD/svg11.dtd">
<svg version="1.1" id="圖層_1" xmlns="http://www.w3.org/2000/svg" xmlns:xlink="http://www.w3.org/1999/xlink" x="0px" y="0px"
	 width="16px" height="16px" viewBox="0 0 16 16" enable-background="new 0 0 16 16" xml:space="preserve">
<g>
	<linearGradient id="SVGID_1_" gradientUnits="userSpaceOnUse" x1="9.1357" y1="8" x2="16" y2="8">
		<stop  offset="0" style="stop-color:#E16D7B"/>
		<stop  offset="1" style="stop-color:#DD364A"/>
	</linearGradient>
	<polygon fill="url(#SVGID_1_)" points="9.136,12.576 10.279,13.72 16,8 10.279,2.279 9.136,3.424 13.712,8 	"/>
	<linearGradient id="SVGID_2_" gradientUnits="userSpaceOnUse" x1="0" y1="8" x2="9.1445" y2="8">
		<stop  offset="0" style="stop-color:#E16D7B"/>
		<stop  offset="1" style="stop-color:#DD364A"/>
	</linearGradient>
	<polygon fill="url(#SVGID_2_)" points="9.145,1.145 8,0 0,8 8,16 9.145,14.855 2.289,8 	"/>
	<linearGradient id="SVGID_3_" gradientUnits="userSpaceOnUse" x1="6.834" y1="8" x2="11.4424" y2="8">
		<stop  offset="0" style="stop-color:#E16D7B"/>
		<stop  offset="1" style="stop-color:#DD364A"/>
	</linearGradient>
	<polygon fill="url(#SVGID_3_)" points="6.834,10.275 8.001,11.441 11.442,8 8.001,4.559 6.834,5.725 9.11,8 	"/>
	<linearGradient id="SVGID_4_" gradientUnits="userSpaceOnUse" x1="4.5586" y1="8" x2="6.834" y2="8">
		<stop  offset="0" style="stop-color:#E16D7B"/>
		<stop  offset="1" style="stop-color:#DD364A"/>
	</linearGradient>
	<polygon fill="url(#SVGID_4_)" points="5.696,6.861 6.834,8 5.696,9.138 4.559,8 	"/>
</g>
</svg>
