<?xml version="1.0" encoding="utf-8"?>
<!-- Generator: Adobe Illustrator 16.0.0, SVG Export Plug-In . SVG Version: 6.00 Build 0)  -->
<!DOCTYPE svg PUBLIC "-//W3C//DTD SVG 1.1//EN" "http://www.w3.org/Graphics/SVG/1.1/DTD/svg11.dtd">
<svg version="1.1" xmlns="http://www.w3.org/2000/svg" xmlns:xlink="http://www.w3.org/1999/xlink" x="0px" y="0px"
	 width="31.594px" height="28.516px" viewBox="0 0 31.594 28.516" enable-background="new 0 0 31.594 28.516" xml:space="preserve">
<g id="bg">
</g>
<g id="圖層_3">
</g>
<g id="圖層_1">
	<g>
		<g>
			<path fill="#105A96" d="M3.635,27.439c-0.332,0-0.657-0.065-0.966-0.194c-1.274-0.522-1.894-1.992-1.375-3.274
				c0.699-1.715,2.183-3.94,4.575-5.918l-0.135-1.299c-0.033-0.317-0.064-0.635-0.064-0.965c0-5.583,4.543-10.125,10.126-10.125
				h3.802c2.602,0,4.941-1.367,6.258-3.657C26.176,1.441,26.75,1.1,27.387,1.1c0.69,0,1.301,0.403,1.594,1.052
				c0.97,2.168,1.504,4.754,1.504,7.284c0,8.944-5.737,15.852-13.642,16.425c-0.346,0.038-0.717,0.057-1.079,0.057
				c-2.808,0-5.506-1.21-7.412-3.281c-1.698,1.654-2.361,3.183-2.393,3.256C5.567,26.829,4.654,27.439,3.635,27.439z"/>
			<path fill="#FFFFFF" d="M27.387,2.1c0.272,0,0.543,0.155,0.682,0.463c0.902,2.016,1.416,4.486,1.416,6.873
				c0,8.193-5.252,14.887-12.714,15.428c-0.343,0.037-0.679,0.054-1.007,0.054c-3.35,0-5.904-1.822-7.307-3.724
				C6.033,23.225,5.111,25.33,5.039,25.5c-0.243,0.582-0.808,0.939-1.404,0.939c-0.194,0-0.391-0.038-0.582-0.117
				c-0.775-0.318-1.146-1.201-0.832-1.977C3.343,21.594,8.41,14.27,20.359,14.27c0.418,0,0.76-0.342,0.76-0.762
				c0-0.418-0.342-0.76-0.76-0.76c-6.208,0-10.586,1.844-13.618,4.016c-0.033-0.322-0.071-0.641-0.071-0.975
				c0-5.037,4.088-9.125,9.126-9.125h3.802c3.014,0,5.652-1.598,7.125-4.158C26.876,2.234,27.133,2.1,27.387,2.1 M27.387,0.1
				L27.387,0.1c-0.987,0-1.908,0.545-2.404,1.421c-1.13,1.964-3.146,3.144-5.385,3.144h-3.802c-6.135,0-11.126,4.99-11.126,11.125
				c0,0.399,0.037,0.756,0.07,1.069l0.012,0.11l0.068,0.67c-2.301,2.013-3.748,4.227-4.451,5.952
				c-0.727,1.796,0.138,3.849,1.924,4.581c0.423,0.176,0.877,0.268,1.342,0.268c1.424,0,2.699-0.852,3.25-2.168
				c0.002-0.005,0.43-0.992,1.491-2.208c2.021,1.814,4.657,2.854,7.388,2.854c0.391,0,0.789-0.021,1.185-0.062
				c8.425-0.629,14.536-7.949,14.536-17.42c0-2.668-0.564-5.399-1.591-7.69C29.436,0.729,28.476,0.1,27.387,0.1L27.387,0.1z"/>
		</g>
	</g>
</g>
</svg>
