<?xml version="1.0" encoding="utf-8"?>
<!-- Generator: Adobe Illustrator 16.0.0, SVG Export Plug-In . SVG Version: 6.00 Build 0)  -->
<!DOCTYPE svg PUBLIC "-//W3C//DTD SVG 1.1//EN" "http://www.w3.org/Graphics/SVG/1.1/DTD/svg11.dtd">
<svg version="1.1" xmlns="http://www.w3.org/2000/svg" xmlns:xlink="http://www.w3.org/1999/xlink" x="0px" y="0px"
	 width="23.498px" height="23.499px" viewBox="0 0 23.498 23.499" enable-background="new 0 0 23.498 23.499" xml:space="preserve">
<g id="bg">
</g>
<g id="圖層_3">
</g>
<g id="圖層_1">
	<g>
		<defs>
			<rect id="SVGID_307_" x="463.097" y="-497.894" width="326.639" height="404.615"/>
		</defs>
		<clipPath id="SVGID_1_">
			<use xlink:href="#SVGID_307_"  overflow="visible"/>
		</clipPath>
		<g clip-path="url(#SVGID_1_)">
			<defs>
				<path id="SVGID_309_" d="M789.529-335.272c1.923,13.992-10.112,190.111-14.859,190.764
					c-4.746,0.652-246.546,51.229-246.546,51.229l-108.539-22.284l-22.137-24.107l64.897-103.307l-29.184-160.519l-6.418-60.499
					l146.562-19.872L789.529-335.272z"/>
			</defs>
			<clipPath id="SVGID_2_">
				<use xlink:href="#SVGID_309_"  overflow="visible"/>
			</clipPath>
			<g transform="matrix(1 0 0 1 0 -3.051758e-005)" clip-path="url(#SVGID_2_)">
				
					<image overflow="visible" width="664" height="484" xlink:href="D24D731.png"  transform="matrix(-1.47 -1.1148 -1.1148 1.47 875.6875 -306.9995)">
				</image>
			</g>
		</g>
	</g>
	<linearGradient id="SVGID_3_" gradientUnits="userSpaceOnUse" x1="0" y1="11.7495" x2="23.498" y2="11.7495">
		<stop  offset="0" style="stop-color:#E16D7B"/>
		<stop  offset="1" style="stop-color:#DD364A"/>
	</linearGradient>
	<polygon fill="url(#SVGID_3_)" points="11.751,0 5.875,5.874 0,11.749 5.876,17.624 11.751,23.499 23.498,11.747 	"/>
</g>
</svg>
