<?xml version="1.0" encoding="utf-8"?>
<!-- Generator: Adobe Illustrator 16.0.0, SVG Export Plug-In . SVG Version: 6.00 Build 0)  -->
<!DOCTYPE svg PUBLIC "-//W3C//DTD SVG 1.1//EN" "http://www.w3.org/Graphics/SVG/1.1/DTD/svg11.dtd">
<svg version="1.1" xmlns="http://www.w3.org/2000/svg" xmlns:xlink="http://www.w3.org/1999/xlink" x="0px" y="0px"
	 width="242.188px" height="18.087px" viewBox="0 0 242.188 18.087" enable-background="new 0 0 242.188 18.087"
	 xml:space="preserve">
<g id="圖層_3">
</g>
<g id="圖層_1">
	<path fill="#98B3D0" d="M118.725,0.24c-1.769-0.438-3.67-0.259-5.27,0.4c-2.402,0.054-4.01,1.458-4.487,3.182
		c-3.601,0.291-7.192,0.683-10.768,1.188c-0.029,0.004-0.059,0.009-0.087,0.013c-0.372-0.525-0.945-0.945-1.743-1.141
		c-0.11-0.027-0.22-0.039-0.329-0.054c-1.016-0.445-2.17-0.689-3.17-0.063c-0.847,0.529-1.266,1.419-1.361,2.311
		c-3.506,0.606-6.998,1.27-10.487,1.945c-0.236-0.521-0.592-1-1.078-1.398c-1.548-1.268-3.817-1.284-5.75-0.728
		c-0.911,0.013-1.896,0.332-2.635,0.776c-1.423,0.855-2.435,2.167-2.628,3.604c-3.607,0.619-7.232,1.148-10.883,1.557
		c-0.003-0.006-0.003-0.012-0.006-0.018c-0.258-0.506-0.725-0.884-1.257-1.119c-1.016-0.714-2.525-0.831-3.605,0.074
		c-0.317,0.266-0.515,0.573-0.655,0.891c-0.268,0.202-0.499,0.439-0.662,0.719c-0.339,0.021-0.676,0.056-1.015,0.074
		c-3.839,0.206-7.69,0.248-11.538,0.143C38.945,11,37.605,9.611,35.547,9.222c-1.92-0.362-3.63,0.39-4.608,1.62
		c-0.473,0.336-0.88,0.726-1.19,1.176c-2.164-0.207-4.322-0.461-6.469-0.77C16.502,10.274,5.969,9.42,2.537,3.362
		c-0.784-1.383-3.163-0.17-2.382,1.209c2.681,4.733,8.732,6.437,14.248,7.57c4.86,0.999,9.797,1.738,14.766,2.223
		c0.115,0.937,0.592,1.848,1.353,2.51c2.412,2.1,6.633,1.326,8.231-1.171c0.149-0.233,0.264-0.474,0.361-0.717
		c4.289,0.119,8.521-0.015,12.721-0.315c0.552,1.085,1.863,1.78,3.343,1.573c0.738-0.103,1.404-0.417,1.91-0.856
		c0.359-0.195,0.613-0.506,0.702-0.911c0.058-0.115,0.1-0.232,0.139-0.353c3.821-0.419,7.622-0.958,11.417-1.574
		c1.999,3.76,9.502,2.555,11.43-0.714c0.26-0.44,0.434-0.917,0.525-1.407c2.059-0.387,4.121-0.78,6.189-1.172
		c1.495-0.283,2.992-0.542,4.49-0.794c0.221,0.725,0.821,1.188,1.582,1.403c0.906,0.507,2.023,0.685,3.184,0.306
		c0.371-0.121,0.705-0.291,1.007-0.491c0.893-0.51,1.493-1.387,1.519-2.316c3.257-0.434,6.52-0.8,9.791-1.074
		c0.18,0.507,0.451,1.002,0.847,1.458c2.365,2.728,8.431,3.296,11.155,0.619c0.793-0.78,1.25-1.734,1.403-2.712
		c3.765-0.04,7.538,0.041,11.319,0.248c0.038,0.083,0.085,0.163,0.13,0.243c-0.009,0.104-0.025,0.208-0.025,0.31
		c-0.013,1.782,1.198,3.121,3.204,3.501c1.775,0.336,4.183,0.31,5.484-0.934c0.664-0.633,1.049-1.409,1.207-2.229
		c2.529,0.317,5.05,0.689,7.563,1.101c0.006,0.56,0.153,1.126,0.479,1.654c1.549,2.493,6.004,3.465,8.679,1.8
		c0.702-0.437,1.173-0.989,1.454-1.594c4.665,0.838,9.332,1.646,14.028,2.257c0.331,0.73,0.928,1.376,1.691,1.812
		c0.803,0.666,2.301,0.987,3.384,0.636c0.907-0.293,1.604-0.919,2.054-1.68c0.006-0.008,0.014-0.016,0.021-0.024
		c1.452,0.109,2.906,0.202,4.367,0.25c2.883,0.096,5.752,0.052,8.605-0.11c0.543,0.494,1.51,0.409,2.031-0.054
		c0.006,0.028,0.009,0.057,0.016,0.084c0.938,4.433,7.008,3.89,9.707,1.088c0.852-0.883,1.258-1.775,1.323-2.625
		c10.909-1.836,21.595-4.944,32.049-8.056c1.669-0.497,0.952-2.812-0.733-2.31c-10.464,3.116-21.107,6.241-32.01,8.054
		c-0.946-1.334-2.746-2.363-4.799-2.77c-3.65-0.723-7.702,1.105-8.1,4.207c-0.635,0.033-1.269,0.071-1.904,0.093
		c-3.309,0.11-6.586-0.008-9.844-0.255c-0.086-0.596-0.37-1.14-0.783-1.596c-0.122-0.165-0.257-0.323-0.417-0.466
		c-1.864-1.653-5.149-1.095-6.457,0.847c-0.081,0.12-0.149,0.243-0.209,0.367c-4.638-0.635-9.251-1.452-13.864-2.284
		c-0.357-1.226-1.286-2.36-2.604-2.987c-1.688-0.803-3.549-0.677-5.038,0.062c-0.893,0.179-1.642,0.625-2.185,1.222
		c-2.187-0.349-4.377-0.669-6.576-0.939c-0.703-0.086-1.408-0.146-2.112-0.224c-0.486-1.476-1.621-2.796-3.21-3.389
		c-2.5-0.934-5.786,0.388-6.662,2.552c-3.834-0.213-7.674-0.309-11.515-0.28C121.692,1.849,120.508,0.682,118.725,0.24z
		 M35.541,12.443c-0.004-0.007-0.008-0.014-0.014-0.021c-0.297-0.388-0.714-0.639-1.167-0.761c0.027-0.038,0.054-0.076,0.075-0.115
		c0.247-0.024,0.504-0.005,0.76,0.071c0.568,0.169,0.965,0.488,1.205,0.874C36.113,12.479,35.828,12.458,35.541,12.443z
		 M96.223,8.579c-0.298,0.159-0.65,0.266-1.008,0.322c-0.22-0.107-0.404-0.257-0.563-0.429c0.756,0.097,1.527-0.14,2.017-0.741
		c0.153-0.022,0.306-0.047,0.458-0.069C96.945,8.023,96.652,8.349,96.223,8.579z M204.25,9.35c-0.02-0.044-0.046-0.081-0.069-0.121
		c0.226,0,0.437-0.052,0.623-0.142c0.283,0.127,0.539,0.276,0.761,0.445c-0.388,0.055-0.777,0.103-1.166,0.154L204.25,9.35z
		 M178.769,9.861c0.277-0.33,0.704-0.582,1.146-0.597c0.75-0.026,1.201,0.373,1.359,0.874
		C180.438,10.055,179.604,9.96,178.769,9.861z M178.372,12.768c0.1,0.039,0.178,0.093,0.286,0.125
		c0.583,0.169,1.162,0.184,1.692,0.085c0.016,0.084,0.033,0.169,0.058,0.253c-0.679,0.146-1.402,0.063-2.045-0.287
		C178.348,12.891,178.358,12.83,178.372,12.768z M142.009,6.582c-0.496,1.423-2.123,2.677-3.937,2.188
		c-0.402-0.108-0.715-0.298-0.967-0.525c1.503,0.292,3.129-0.03,4.14-1.217c0.131-0.153,0.241-0.321,0.339-0.496
		C141.726,6.546,141.867,6.565,142.009,6.582z M137.007,6.117c0.208,0.042,0.423,0.068,0.656,0.054
		c0.012-0.001,0.024-0.006,0.036-0.007c0.076,0.006,0.153,0.01,0.23,0.016c0.304,0.024,0.607,0.059,0.911,0.086
		c-0.358,0.359-0.929,0.572-1.462,0.531c-0.392-0.029-0.684-0.149-0.9-0.326c0.02-0.129,0.037-0.258,0.081-0.384
		C136.708,6.097,136.857,6.105,137.007,6.117z M136.692,3.205c0.051-0.066,0.103-0.127,0.155-0.185
		c0.559-0.443,1.242-0.766,1.973-0.855c1.003,0.052,1.732,0.891,1.968,1.889c-0.062-0.006-0.122-0.014-0.183-0.019
		c-0.063-0.121-0.181-0.223-0.377-0.272c-0.356-0.089-0.705-0.134-1.049-0.153C138.557,3.161,137.702,2.955,136.692,3.205z"/>
</g>
<g id="header">
</g>
</svg>
