<?xml version="1.0" encoding="utf-8"?>
<!-- Generator: Adobe Illustrator 16.0.0, SVG Export Plug-In . SVG Version: 6.00 Build 0)  -->
<!DOCTYPE svg PUBLIC "-//W3C//DTD SVG 1.1//EN" "http://www.w3.org/Graphics/SVG/1.1/DTD/svg11.dtd">
<svg version="1.1" xmlns="http://www.w3.org/2000/svg" xmlns:xlink="http://www.w3.org/1999/xlink" x="0px" y="0px"
	 width="242.188px" height="55.887px" viewBox="0 0 242.188 55.887" enable-background="new 0 0 242.188 55.887"
	 xml:space="preserve">
<g id="bg">
</g>
<g id="圖層_1">
	<g>
		<g>
			<g>
				<path fill="#993333" d="M42.313,0.984c2.792,0.729,4.505,1.776,5.141,3.141c0.135,0.25,0.208,0.531,0.219,0.844
					c3.438-0.688,6.104-1.031,8-1.031c0.375,0,0.807,0.479,1.297,1.438v0.203c0.01,0.198-0.385,0.609-1.188,1.234
					c0.438,2.615,0.766,3.922,0.984,3.922c0.073,0,0.349-0.073,0.828-0.219c0.26,0.146,0.463,0.219,0.609,0.219l-0.391,0.609
					c0.302,0.448,0.458,0.859,0.469,1.234c-0.24,0.136-0.51,0.203-0.813,0.203L57.485,13c0.021,0.542,1.422,1.229,4.203,2.063
					c2.323,0.125,3.5,0.464,3.531,1.016l0.016,0.422c0.031,0.969-0.838,1.589-2.609,1.859c-3.969,0.458-5.938,1.005-5.906,1.641
					c-0.125,0.229-0.177,0.568-0.156,1.016l0.078,2.063c0.042,0.802,0.016,1.896-0.078,3.281l0.234,0.438
					c-0.177,3.542-0.37,5.667-0.578,6.375c0,0.135,0.078,0.203,0.234,0.203c0.083,2.063-0.432,3.094-1.547,3.094l-0.422-0.609
					l-0.094-2.281c-0.021-0.49-0.115-1.104-0.281-1.844c0.125-0.208,0.177-0.625,0.156-1.25c-0.01-0.261-0.088-0.391-0.234-0.391
					l0.172-1.047l-0.281-7.203c-0.01-0.302-0.094-0.578-0.25-0.828c0.135-0.26,0.198-0.469,0.188-0.625
					c-0.135,0-0.208-0.063-0.219-0.188c-3.667,1.094-6.865,1.849-9.594,2.266h-0.391c-1.104,0-1.677-0.547-1.719-1.641l-0.016-0.438
					c0.646-0.948,1.385-1.422,2.219-1.422c0,0.125,0.135,0.188,0.406,0.188l-0.188,0.438l0.031,0.797
					c2.448-0.531,3.667-0.942,3.656-1.234l-0.016-0.406l-0.594,0.406c-0.365,0-0.734-0.547-1.109-1.641
					c-0.042-0.958,0.078-1.438,0.359-1.438c-0.01-0.146-0.083-0.219-0.219-0.219c0.302-2.875,0.563-4.927,0.781-6.156
					c-0.125,0-0.193-0.067-0.203-0.203h0.203c1.156,0,1.953,1.026,2.391,3.078l3.859-1.031l-0.078-2.266
					c-0.021-0.5-0.12-1.12-0.297-1.859c0.135-0.25,0.198-0.453,0.188-0.609h-0.422l-2.625,0.609l-0.438-0.188l-1.422,0.625L48,7.656
					c-0.542,0.261-1.016,0.391-1.422,0.391c-1.281-1.042-1.932-1.797-1.953-2.266c-0.021-0.573,0.088-1.255,0.328-2.047
					c-0.563-0.563-0.984-0.844-1.266-0.844c-0.01-0.135,0.057-0.203,0.203-0.203l-0.234-0.406L42.313,0.984z M50.735,14.625
					c-0.24-0.125-0.516-0.188-0.828-0.188H49.5c-0.229,1.083-0.333,1.906-0.313,2.469c0.135,1.229,0.297,1.844,0.484,1.844
					c2.74-0.25,4.094-0.797,4.063-1.641l-0.125-3.094h-0.219C53.089,14.016,52.204,14.219,50.735,14.625z M56.657,13.188
					l0.141,3.516l-0.203,0.406h0.219c0.667,0,2.24-0.276,4.719-0.828l-0.016-0.203c-0.865,0-1.641-0.411-2.328-1.234l-2.328-1.656
					H56.657z"/>
				<path fill="#993333" d="M83.735,1.422c1.927,0.136,4.526,0.938,7.797,2.406c0.542,0,0.943,0.464,1.203,1.391
					c-0.552,0.667-1.073,1.073-1.563,1.219V6.25c-0.76,0.458-1.854,0.808-3.281,1.047c0,0.146-0.401,0.313-1.203,0.5
					c0.344,0.427,0.516,0.833,0.516,1.219v0.703c1.604,0,2.406-0.75,2.406-2.25l0.375-0.172c0.104,0,0.156,0.058,0.156,0.172
					L91,7.297c0.198,0,0.776,0.339,1.734,1.016c1.26,0.042,1.891,0.333,1.891,0.875h-0.344l0.344,0.531
					c0,0.229-0.745,0.568-2.234,1.016c0,0.656-0.177,1.641-0.531,2.953h0.359c1.042,0,1.563,0.349,1.563,1.047h-0.375v0.156h0.375
					v0.172c-2.073,1.833-3.979,2.87-5.719,3.109V18l-0.328,0.172L87.36,18c-0.198,0.115-0.422,0.172-0.672,0.172
					c-0.427-0.427-0.719-1.057-0.875-1.891c-0.344,0-0.516-0.12-0.516-0.359v-0.344c0-0.229,0.172-0.344,0.516-0.344
					c-0.313-1.375-0.599-2.063-0.859-2.063h-0.688c-0.333,0-0.677,0.974-1.031,2.922c-0.583,0.792-0.875,1.484-0.875,2.078
					c0.115,0,0.172,0.058,0.172,0.172c-0.427,0-0.771,1.386-1.031,4.156c-0.26,0.208-1.01,2.167-2.25,5.875
					c-2.292,4.219-4.651,6.578-7.078,7.078v-0.344c1.958-2.011,2.938-3.104,2.938-3.281h-0.172c0,0.229-0.115,0.344-0.344,0.344
					H74.25v-0.188c2.771-4.489,4.38-8.807,4.828-12.953c0.115,0,0.463-1.557,1.047-4.672c-0.125,0-0.188-0.052-0.188-0.156
					c-0.865,0.104-1.438,0.219-1.719,0.344c-1.094,0-2.016-0.578-2.766-1.734H75.11v-0.328l0.172-0.359
					c0.115,0,0.172,0.058,0.172,0.172c3.229-0.375,4.844-0.719,4.844-1.031c0.156-0.667,0.323-1.182,0.5-1.547
					c-0.219,0-0.328-0.12-0.328-0.359L79.61,9.531h-1.906c-1.01-0.958-1.531-1.823-1.563-2.594c0.323-0.271,2.047-0.609,5.172-1.016
					c0.448-1.042,0.854-1.62,1.219-1.734h0.703l0.703,0.688l1.719-0.172V4.359c-0.427,0-1-0.573-1.719-1.719
					c0.104,0,0.156-0.063,0.156-0.188c-0.458-0.229-0.859-0.344-1.203-0.344V1.75C83.089,1.75,83.37,1.641,83.735,1.422z
					 M78.391,27.156c0,0.146-0.229,0.719-0.688,1.719h0.188c0.333-0.396,0.557-0.911,0.672-1.547v-0.172H78.391z M80.469,22.328
					c0,0.208-0.635,1.761-1.906,4.656l0.359-0.156h0.516c0.542-1.364,0.943-2.807,1.203-4.328v-0.172H80.469z M92.563,17.828V18
					l0.328-0.172h0.188c1.146,0,1.719,0.464,1.719,1.391v0.344c0,1.854-0.922,4.099-2.766,6.734v0.328
					c0,0.375,1.906,1.474,5.719,3.297l2.578,1.391c0.344,0.417,0.516,0.813,0.516,1.188l-0.344,0.172h-0.672
					c-0.135,0-0.203-0.058-0.203-0.172c-0.115,0-0.172,0.057-0.172,0.172c-2.396,0-5.156-0.683-8.281-2.047
					c-0.74-0.594-1.26-1.177-1.563-1.75c-2.177,1.5-4.245,2.25-6.203,2.25c-0.719,0-1.24-0.292-1.563-0.875v-0.156h0.344
					c0-0.24-0.115-0.359-0.344-0.359h-1.203v-0.328h1.719c1.823,0,3.552-0.927,5.188-2.781c-0.885-0.698-1.865-1.729-2.938-3.094
					c-0.25,0-0.542-0.401-0.875-1.203c-0.167,0-0.396-0.12-0.688-0.359h-0.859v-0.344c0.469,0,0.875-0.114,1.219-0.344
					c0,0.292,1.146,0.698,3.438,1.219l2.438,2.078h0.172c0.802-1.792,1.203-2.776,1.203-2.953h-0.172
					c-1.5,0.271-2.417,0.505-2.75,0.703c-1.281,0-1.922-0.641-1.922-1.922l-0.328,0.188c-0.24-0.385-0.359-0.729-0.359-1.031
					c0.427-0.354,0.833-0.531,1.219-0.531h0.172v0.359c0.115,0,0.172-0.057,0.172-0.172c0.104,0,0.156,0.058,0.156,0.172
					C87.219,19.391,89.125,18.87,92.563,17.828z M83.938,9.016c0.104,0.636,0.156,1.099,0.156,1.391h0.172
					c0.26,0,0.432-0.292,0.516-0.875V9.359H84.61v0.359h-0.172l-0.172-1.031C84.047,8.708,83.938,8.818,83.938,9.016z
					 M87.547,12.484l0.188,1.547c0.802-0.5,1.203-1.25,1.203-2.25C88.011,11.99,87.547,12.224,87.547,12.484z"/>
				<path fill="#993333" d="M124.141,2.063c0.198,0,0.693,0.125,1.484,0.375V2.25c0.51,0.167,0.88,0.479,1.109,0.938
					c0,1.313-1.172,2.297-3.516,2.953c0,0.24-0.188,0.359-0.563,0.359c0.375,1.479,0.745,2.589,1.109,3.328
					c0.531,0,1.641-0.37,3.328-1.109c0.406,0.25,0.719,0.375,0.938,0.375v0.563h-0.375v0.172l0.172,0.375
					c-1.99,0.854-3.344,1.344-4.063,1.469c0.125,1.458,0.188,2.511,0.188,3.156V15h0.188c0.823,0,2.734-0.489,5.734-1.469v-0.375
					c0-0.292-0.927-0.906-2.781-1.844v-0.375h0.188c0.906,0.427,1.588,0.797,2.047,1.109l1.281-0.188
					c0.865,0.792,1.297,1.349,1.297,1.672c0,0.979-2.588,2.083-7.766,3.313l-0.188,0.391v3.672l-0.188,1.125
					c0.125,0.24,0.188,0.427,0.188,0.563c-0.125,1.333-0.188,2.5-0.188,3.5h-0.188l0.188,0.375
					c-0.125,4.313-0.557,6.469-1.297,6.469h-0.359c-0.75,0-3.828-1.052-9.234-3.156c-1.531-1.104-2.396-1.656-2.594-1.656v-0.922
					c4.74,1.604,8.188,2.406,10.344,2.406v-0.188L121,27.563l-0.188-0.359c0.125-0.239,0.188-0.422,0.188-0.547
					c0-0.135-0.063-0.323-0.188-0.563L121,24.984v-0.188c0-0.125-0.063-0.188-0.188-0.188c0.125-0.219,0.25-0.771,0.375-1.656H121
					l0.188-0.359v-4.813H121c-4.677,1.479-7.698,2.219-9.063,2.219h-0.172c-0.99-0.313-1.484-0.807-1.484-1.484v-0.563
					c0.313,0,0.927-0.307,1.844-0.922h0.375v0.75c1.094,0,4.047-0.739,8.859-2.219v-2.781c0-0.239-0.182-0.359-0.547-0.359
					c-1.479,0.052-2.219,0.172-2.219,0.359c-0.125,0-0.188-0.057-0.188-0.172l-0.906,0.172h-1.859
					c-0.823-0.083-1.625-0.516-2.406-1.297v-0.359l1.109,0.188c0.583,0,2.802-0.313,6.656-0.938V9.828
					c0-0.281-0.063-0.526-0.188-0.734c0-0.125,0.063-0.188,0.188-0.188c-0.125-0.489-0.188-0.922-0.188-1.297h-0.188
					c-1.813,0.74-3.167,1.109-4.063,1.109h-1.109V8.359c0-0.135,2.037-1.489,6.109-4.063l0.734-0.75V3.359h-0.547l-0.938-0.172V3
					c0.042-0.25,0.167-0.375,0.375-0.375v0.188c0.917-0.125,1.838-0.375,2.766-0.75H124.141z"/>
				<path fill="#993333" d="M150.391,2.078h0.188l-0.188,0.375v0.172h0.188c0.229-0.114,0.412-0.172,0.547-0.172
					c0.375,0.438,0.62,1.547,0.734,3.328c0,0.125-0.057,0.188-0.172,0.188l0.172,1.844c0,0.865-0.057,2.651-0.172,5.359
					c0.979-0.333,1.469-0.646,1.469-0.938V11.5l-0.359-0.563l0.359-0.172c1.104,0.656,1.656,1.333,1.656,2.031
					c0,0.906-0.859,1.771-2.578,2.594v0.172l0.359,1.484c0,0.219-0.552,1.083-1.656,2.594l-0.188,1.109
					c1.646,1.604,2.818,2.406,3.516,2.406c0.74,0.604,1.109,1.214,1.109,1.828h-0.188l0.188,0.375c0,0.177-0.188,0.365-0.563,0.563
					h-1.469c-0.156,0-1.021-0.682-2.594-2.047l-0.172,0.391v0.547c0,1.219,0.057,2.693,0.172,4.422l-0.172,0.391l0.172,1.094v0.734
					c0,0.917-0.182,1.411-0.547,1.484l-0.734-0.922c0,0.25-0.125,0.375-0.375,0.375h-0.375c0-0.25-0.245-0.375-0.734-0.375
					l0.188-0.375c0-0.125-0.063-0.308-0.188-0.547c0.125-0.844,0.188-1.521,0.188-2.031c0-0.125-0.063-0.188-0.188-0.188
					c0-0.125,0.063-0.188,0.188-0.188l-0.188-0.922v-4.797l-4.813,3.859l-0.906,0.203h-0.203c0-0.25-0.182-0.375-0.547-0.375v-0.188
					c4.677-5.177,7.016-8.067,7.016-8.672v-1.109c-2.885,0.74-4.609,1.109-5.172,1.109c-0.344,0-0.958-0.188-1.844-0.563v-1.109
					c1.333-0.25,3.797-0.989,7.391-2.219l0.563-4.438l-0.188-0.375c0.24-2.521,0.359-3.995,0.359-4.422l-0.172-1.109
					C149.792,2.573,150.1,2.078,150.391,2.078z M157.594,11.688c1.104,0,1.656,2.401,1.656,7.203
					c-0.24,2.219-0.422,4.625-0.547,7.219c1.302,0.365,2.104,0.547,2.406,0.547c0.396,0,2.12-0.182,5.172-0.547v-0.938
					c0-1.885,0.245-3.979,0.734-6.281c0.979,0,1.469,0.99,1.469,2.969c0.073,0.136,0.385,1.302,0.938,3.5v2.219
					c-0.25,0.302-0.375,0.552-0.375,0.75c-3.208,0.364-5.365,0.547-6.469,0.547h-1.844c-2.031,0-3.63-0.682-4.797-2.047
					c0.479-5.802,0.719-10.109,0.719-12.922l-0.172-0.734C156.6,12.183,156.969,11.688,157.594,11.688z"/>
				<path fill="#993333" d="M187.375,0h0.406c0.135,0,0.203,0.068,0.203,0.203L188.407,0c1.646,0.552,2.469,1.516,2.469,2.891
					l5.547-1.031c0.969,0.823,1.453,1.302,1.453,1.438l-0.219,2.047h1.453v1.234c-1.156,0.698-1.912,1.047-2.266,1.047l-2.266,6.156
					c0.271,0.458,0.406,0.808,0.406,1.047h-0.188l0.188,0.406v0.406c-2.74,1.052-4.109,1.677-4.109,1.875v0.609
					c0.031,0.271,0.172,0.406,0.422,0.406c3.969-1.281,5.958-2.104,5.969-2.469c-0.563-0.698-0.844-1.109-0.844-1.234h0.219
					c0.958,0.271,1.438,0.474,1.438,0.609l0.422-0.203h0.203l0.828,0.625c0,1.25-1.375,2.344-4.125,3.281
					c-2.583,1.125-4.031,1.813-4.344,2.063v1.234c0.354,0,1.318-0.135,2.891-0.406v0.188l0.422-0.188h0.609
					c2.615,0,3.922,0.688,3.922,2.063c-1.208,6.854-2.578,10.281-4.109,10.281l-1.453-0.203v0.203
					c-1.646-0.5-2.469-1.183-2.469-2.047c-1.51,0.677-2.474,1.016-2.891,1.016v-0.188l-0.391,0.188h-0.422
					c-0.271,0-0.406-0.208-0.406-0.625l-0.422,0.219h-0.203c-0.844-0.917-1.938-3.323-3.281-7.219c0-0.135,0.068-0.203,0.203-0.203
					c0.125,0,0.188-0.338,0.188-1.016h0.625c0.354,0.063,0.974,1.229,1.859,3.5c2.156-0.823,5.037-1.713,8.641-2.672
					c0.135,0.261,0.203,0.469,0.203,0.625c0.271,0,0.406-0.146,0.406-0.438v-0.797c-0.406,0-0.609-0.073-0.609-0.219l-0.422,0.219
					c-0.667,0-1.693-0.073-3.078-0.219c-0.292,0-2.073,0.203-5.344,0.609l-0.203-0.391v-0.625l4.516-1.234v-0.422
					c-0.125,0-0.604-0.203-1.438-0.609c-1.729,0.542-3.037,0.813-3.922,0.813h-1.625c-1.104-0.135-1.656-0.614-1.656-1.438
					c0.573-0.552,1.125-0.828,1.656-0.828l0.391,0.609l5.359-1.625v-1.047l-0.203-0.406c-2.135,0.417-3.573,0.625-4.313,0.625
					c-0.198,0-0.406-0.208-0.625-0.625v-0.203c0-0.271,1.234-0.745,3.703-1.422c0.823-0.427,1.234-0.708,1.234-0.844v-1.031h-1.859
					c-0.302,0-0.573,0.073-0.813,0.219c-0.271-0.146-0.479-0.219-0.625-0.219c0,0.146-0.068,0.219-0.203,0.219
					c0-0.083-0.271-0.427-0.813-1.031v-0.609c0-0.364,1.375-0.781,4.125-1.25V10.5l-0.234-0.406
					c-0.969,0.406-2.891,0.677-5.766,0.813c-0.677,0-1.359-0.411-2.047-1.234V8.656c0-0.208,0.276-0.417,0.828-0.625l1.219,0.625
					c1,0,2.922-0.344,5.766-1.031V5.344c0-0.271-0.13-0.406-0.391-0.406c-1.177,0.146-2.141,0.219-2.891,0.219h-0.219
					c-0.229,0-0.432-0.344-0.609-1.031c1.698-0.135,3-0.344,3.906-0.625c-0.271-1.323-0.406-2.078-0.406-2.266h0.219l-0.219-0.422V0
					z M188.829,30.266h-0.609l-0.438-0.203c0,0.271-0.203,0.406-0.609,0.406c0.135,0.26,0.203,0.463,0.203,0.609l4.953-0.813
					l0.188,0.422v0.391c0,0.323-0.338,0.536-1.016,0.641v0.391c0.146,0,0.349,0.073,0.609,0.219c0.76,0,1.583-1.646,2.469-4.938
					v-0.625C191.297,29.099,189.381,30.266,188.829,30.266z M190.704,13.563V15h0.234c1.635,0,2.453-0.823,2.453-2.469
					C192.391,12.531,191.495,12.875,190.704,13.563z M191.063,4.531v1.031l0.234,1.016c2.25,0,3.62-0.75,4.109-2.25l0.406-0.828
					h-0.203L191.063,4.531z M191.063,9.469v1.438h0.234c1.635,0,2.453-0.823,2.453-2.469C192.75,8.438,191.854,8.781,191.063,9.469z
					"/>
			</g>
		</g>
		<path fill="#98B3D0" d="M118.725,38.039c-1.769-0.438-3.669-0.259-5.27,0.4c-2.402,0.054-4.009,1.458-4.487,3.182
			c-3.601,0.291-7.193,0.683-10.768,1.188c-0.029,0.004-0.059,0.009-0.087,0.013c-0.372-0.525-0.945-0.945-1.743-1.141
			c-0.11-0.027-0.219-0.039-0.329-0.054c-1.015-0.445-2.169-0.689-3.17-0.063c-0.846,0.529-1.265,1.419-1.361,2.311
			c-3.506,0.606-6.998,1.27-10.487,1.945c-0.236-0.521-0.592-1-1.078-1.398c-1.548-1.268-3.817-1.284-5.75-0.728
			c-0.911,0.013-1.895,0.332-2.635,0.776c-1.423,0.855-2.435,2.167-2.628,3.604c-3.607,0.619-7.232,1.148-10.883,1.557
			c-0.003-0.006-0.003-0.012-0.006-0.018c-0.257-0.506-0.724-0.884-1.256-1.119c-1.016-0.714-2.525-0.831-3.605,0.074
			c-0.317,0.266-0.515,0.573-0.656,0.891c-0.267,0.202-0.499,0.439-0.662,0.719c-0.339,0.021-0.675,0.056-1.015,0.074
			c-3.839,0.206-7.691,0.248-11.539,0.143c-0.365-1.598-1.705-2.988-3.763-3.376c-1.92-0.362-3.63,0.39-4.608,1.62
			c-0.473,0.336-0.88,0.726-1.191,1.176c-2.164-0.207-4.322-0.461-6.469-0.77c-6.776-0.975-17.311-1.828-20.742-7.887
			c-0.784-1.383-3.163-0.17-2.381,1.209c2.681,4.733,8.732,6.437,14.248,7.57c4.86,0.999,9.797,1.738,14.766,2.223
			c0.115,0.937,0.592,1.848,1.352,2.51c2.413,2.1,6.633,1.326,8.232-1.171c0.149-0.233,0.264-0.474,0.361-0.717
			c4.289,0.119,8.521-0.015,12.721-0.315c0.552,1.085,1.863,1.78,3.343,1.573c0.739-0.103,1.405-0.417,1.911-0.856
			c0.359-0.195,0.612-0.506,0.702-0.911c0.058-0.115,0.1-0.232,0.139-0.353c3.821-0.419,7.623-0.958,11.417-1.574
			c1.999,3.76,9.501,2.555,11.429-0.714c0.259-0.44,0.434-0.917,0.525-1.407c2.059-0.387,4.121-0.78,6.189-1.172
			c1.495-0.283,2.992-0.542,4.49-0.794c0.221,0.725,0.821,1.188,1.583,1.403c0.905,0.507,2.023,0.685,3.183,0.306
			c0.371-0.121,0.706-0.291,1.007-0.491c0.893-0.51,1.494-1.387,1.519-2.316c3.257-0.434,6.52-0.8,9.791-1.074
			c0.18,0.507,0.452,1.002,0.847,1.458c2.365,2.728,8.431,3.296,11.155,0.619c0.793-0.78,1.25-1.734,1.404-2.712
			c3.765-0.04,7.538,0.041,11.319,0.248c0.038,0.083,0.085,0.163,0.13,0.243c-0.009,0.104-0.025,0.208-0.026,0.31
			c-0.013,1.782,1.199,3.121,3.205,3.501c1.775,0.336,4.182,0.31,5.484-0.934c0.664-0.633,1.049-1.409,1.207-2.229
			c2.529,0.317,5.05,0.689,7.564,1.101c0.006,0.56,0.153,1.126,0.48,1.654c1.548,2.493,6.003,3.465,8.679,1.8
			c0.702-0.437,1.173-0.989,1.454-1.594c4.665,0.838,9.332,1.646,14.028,2.257c0.331,0.73,0.928,1.376,1.691,1.812
			c0.803,0.666,2.301,0.987,3.384,0.636c0.907-0.293,1.603-0.919,2.053-1.68c0.006-0.008,0.014-0.016,0.021-0.024
			c1.452,0.109,2.906,0.202,4.368,0.25c2.883,0.096,5.751,0.052,8.605-0.11c0.543,0.494,1.51,0.409,2.032-0.054
			c0.005,0.028,0.008,0.057,0.015,0.084c0.938,4.433,7.008,3.89,9.708,1.088c0.851-0.883,1.258-1.775,1.323-2.625
			c10.909-1.836,21.595-4.944,32.049-8.056c1.669-0.497,0.952-2.812-0.733-2.31c-10.464,3.116-21.108,6.241-32.01,8.054
			c-0.946-1.334-2.746-2.363-4.799-2.77c-3.649-0.723-7.702,1.105-8.1,4.207c-0.634,0.033-1.268,0.071-1.904,0.093
			c-3.309,0.11-6.586-0.008-9.844-0.255c-0.086-0.596-0.37-1.14-0.783-1.596c-0.122-0.165-0.256-0.323-0.417-0.466
			c-1.864-1.653-5.149-1.095-6.457,0.847c-0.081,0.12-0.149,0.243-0.209,0.367c-4.638-0.635-9.251-1.452-13.864-2.284
			c-0.357-1.226-1.286-2.36-2.604-2.987c-1.687-0.803-3.549-0.677-5.038,0.062c-0.893,0.179-1.642,0.625-2.185,1.222
			c-2.187-0.349-4.377-0.669-6.576-0.939c-0.703-0.086-1.408-0.146-2.112-0.224c-0.486-1.476-1.621-2.796-3.21-3.389
			c-2.5-0.934-5.786,0.388-6.662,2.552c-3.833-0.213-7.674-0.309-11.514-0.28C121.692,39.648,120.508,38.481,118.725,38.039z
			 M35.542,50.243c-0.005-0.007-0.009-0.014-0.014-0.021c-0.296-0.388-0.714-0.639-1.167-0.761c0.027-0.038,0.054-0.076,0.075-0.115
			c0.247-0.024,0.504-0.005,0.76,0.071c0.568,0.169,0.964,0.488,1.205,0.874C36.114,50.278,35.828,50.258,35.542,50.243z
			 M96.223,46.378c-0.298,0.159-0.65,0.266-1.008,0.322c-0.22-0.107-0.404-0.257-0.563-0.429c0.755,0.097,1.528-0.14,2.017-0.741
			c0.153-0.022,0.305-0.047,0.458-0.069C96.945,45.823,96.652,46.148,96.223,46.378z M204.25,47.149
			c-0.02-0.044-0.046-0.081-0.07-0.121c0.225,0,0.437-0.052,0.624-0.142c0.283,0.127,0.539,0.276,0.76,0.445
			c-0.388,0.055-0.777,0.103-1.166,0.154L204.25,47.149z M178.769,47.661c0.278-0.33,0.704-0.582,1.146-0.597
			c0.75-0.026,1.201,0.373,1.359,0.874C180.438,47.854,179.603,47.759,178.769,47.661z M178.372,50.567
			c0.1,0.039,0.178,0.093,0.287,0.125c0.582,0.169,1.161,0.184,1.692,0.085c0.016,0.084,0.033,0.169,0.058,0.253
			c-0.678,0.146-1.402,0.063-2.045-0.287C178.348,50.69,178.359,50.629,178.372,50.567z M142.009,44.381
			c-0.496,1.423-2.123,2.677-3.937,2.188c-0.402-0.108-0.714-0.298-0.966-0.525c1.502,0.292,3.129-0.03,4.139-1.217
			c0.131-0.153,0.241-0.321,0.339-0.496C141.726,44.346,141.867,44.365,142.009,44.381z M137.007,43.916
			c0.208,0.042,0.423,0.068,0.656,0.054c0.012-0.001,0.024-0.006,0.036-0.007c0.077,0.006,0.153,0.01,0.23,0.016
			c0.304,0.024,0.607,0.059,0.911,0.086c-0.358,0.359-0.929,0.572-1.462,0.531c-0.391-0.029-0.683-0.149-0.9-0.326
			c0.02-0.129,0.038-0.258,0.081-0.384C136.708,43.896,136.857,43.905,137.007,43.916z M136.692,41.004
			c0.051-0.066,0.103-0.127,0.156-0.185c0.558-0.443,1.242-0.766,1.972-0.855c1.002,0.052,1.732,0.891,1.968,1.889
			c-0.061-0.006-0.122-0.014-0.183-0.019c-0.063-0.121-0.181-0.223-0.377-0.272c-0.356-0.089-0.705-0.134-1.048-0.153
			C138.557,40.96,137.702,40.754,136.692,41.004z"/>
	</g>
</g>
<g id="圖層_2">
</g>
<g id="sam">
</g>
<g id="header">
</g>
</svg>
