<?xml version="1.0" encoding="utf-8"?>
<!-- Generator: Adobe Illustrator 16.0.0, SVG Export Plug-In . SVG Version: 6.00 Build 0)  -->
<!DOCTYPE svg PUBLIC "-//W3C//DTD SVG 1.1//EN" "http://www.w3.org/Graphics/SVG/1.1/DTD/svg11.dtd">
<svg version="1.1" xmlns="http://www.w3.org/2000/svg" xmlns:xlink="http://www.w3.org/1999/xlink" x="0px" y="0px"
	 width="150.507px" height="150.507px" viewBox="0 0 150.507 150.507" enable-background="new 0 0 150.507 150.507"
	 xml:space="preserve">
<g id="圖層_3">
</g>
<g id="圖層_1">
	<g>
		<g opacity="0.5">
			<path fill="#FFFFFF" d="M150.007,142.531c0,4.111-3.364,7.476-7.476,7.476H7.976c-4.111,0-7.476-3.364-7.476-7.476V7.976
				C0.5,3.864,3.864,0.5,7.976,0.5h134.556c4.111,0,7.476,3.364,7.476,7.476V142.531z"/>
			<path fill="none" stroke="#165790" stroke-linejoin="round" stroke-miterlimit="10" d="M150.007,142.531
				c0,4.111-3.364,7.476-7.476,7.476H7.976c-4.111,0-7.476-3.364-7.476-7.476V7.976C0.5,3.864,3.864,0.5,7.976,0.5h134.556
				c4.111,0,7.476,3.364,7.476,7.476V142.531z"/>
		</g>
		<g>
			<path fill="none" stroke="#165790" stroke-linejoin="round" stroke-miterlimit="10" d="M150.007,142.531
				c0,4.111-3.364,7.476-7.476,7.476H7.976c-4.111,0-7.476-3.364-7.476-7.476V7.976C0.5,3.864,3.864,0.5,7.976,0.5h134.556
				c4.111,0,7.476,3.364,7.476,7.476V142.531z"/>
		</g>
		<g>
			
				<rect x="15.845" y="55.282" fill="#FFFFFF" stroke="#165790" stroke-width="0.7626" stroke-miterlimit="10" width="39.64" height="13.213"/>
			
				<rect x="15.845" y="68.495" fill="#FFFFFF" stroke="#165790" stroke-width="0.7626" stroke-miterlimit="10" width="39.64" height="13.214"/>
			
				<rect x="15.845" y="81.709" fill="#FFFFFF" stroke="#165790" stroke-width="0.7626" stroke-miterlimit="10" width="39.64" height="13.211"/>
			
				<rect x="15.845" y="94.92" fill="#FFFFFF" stroke="#165790" stroke-width="0.6382" stroke-miterlimit="10" width="39.64" height="39.64"/>
			
				<rect x="81.858" y="15.946" fill="#FFFFFF" stroke="#165790" stroke-width="0.7626" stroke-miterlimit="10" width="13.213" height="39.638"/>
			
				<rect x="68.646" y="15.946" fill="#FFFFFF" stroke="#165790" stroke-width="0.7626" stroke-miterlimit="10" width="13.213" height="39.638"/>
			
				<rect x="55.432" y="15.946" fill="#FFFFFF" stroke="#165790" stroke-width="0.7626" stroke-miterlimit="10" width="13.214" height="39.638"/>
			
				<rect x="68.646" y="94.92" fill="#FFFFFF" stroke="#165790" stroke-width="0.7626" stroke-miterlimit="10" width="13.213" height="39.639"/>
			
				<rect x="55.432" y="94.92" fill="#FFFFFF" stroke="#165790" stroke-width="0.7626" stroke-miterlimit="10" width="13.214" height="39.639"/>
			
				<rect x="15.795" y="15.946" fill="#FFFFFF" stroke="#165790" stroke-width="0.6382" stroke-miterlimit="10" width="39.637" height="39.638"/>
			
				<rect x="95.071" y="82.01" fill="#FFFFFF" stroke="#165790" stroke-width="0.7626" stroke-miterlimit="10" width="39.637" height="13.213"/>
			
				<rect x="95.071" y="68.797" fill="#FFFFFF" stroke="#165790" stroke-width="0.7626" stroke-miterlimit="10" width="39.637" height="13.213"/>
			
				<rect x="95.071" y="55.584" fill="#FFFFFF" stroke="#165790" stroke-width="0.7626" stroke-miterlimit="10" width="39.637" height="13.213"/>
			
				<rect x="95.071" y="121.347" fill="#FFFFFF" stroke="#165790" stroke-width="0.7626" stroke-miterlimit="10" width="39.637" height="13.213"/>
			
				<rect x="95.071" y="108.133" fill="#FFFFFF" stroke="#165790" stroke-width="0.7626" stroke-miterlimit="10" width="39.637" height="13.214"/>
			
				<rect x="95.071" y="94.92" fill="#FFFFFF" stroke="#165790" stroke-width="0.7626" stroke-miterlimit="10" width="39.637" height="13.213"/>
			
				<rect x="95.071" y="15.946" fill="#FFFFFF" stroke="#165790" stroke-width="0.6382" stroke-miterlimit="10" width="39.637" height="39.638"/>
			<g>
				<g>
					<g>
						<path fill="#2F699C" d="M75.25,110.946c0,0-4.787,0-13.163,0c-4.188,0-9.274,0-15.107,0c-1.103,0-2.241,0-3.413,0
							c-0.931,0.023-1.924-0.19-2.694-0.829c-0.772-0.612-1.308-1.566-1.386-2.602c-0.06-0.516-0.017-1.043-0.03-1.573
							c0-0.708,0-1.425,0-2.149c0-14.359,0-31.112,0-49.062c0-2.244,0-4.507,0-6.785c0-1.03,0-2.063,0-3.101
							c0.023-0.691-0.052-1.391,0.053-2.083c0.103-0.684,0.377-1.362,0.854-1.88c0.448-0.535,1.053-0.954,1.733-1.142
							c0.672-0.23,1.397-0.176,2.102-0.182c0.944,0,1.891,0,2.84,0c9.423,0,18.996,0,28.569,0s19.146,0,28.57,0
							c0.861,0,1.72,0,2.577,0c0.708-0.025,1.422,0.044,2.081,0.305c0.642,0.299,1.195,0.758,1.608,1.327
							c0.369,0.595,0.624,1.267,0.638,1.97c0.005,4.134,0.009,8.217,0.013,12.233c0,17.949,0,34.702,0,49.062
							c0,7.037,0,11.728,0,11.728h-5.789l9.583,9.584l9.583-9.584h-5.789c0,0,0-4.69,0-11.728c0-14.359,0-31.112,0-49.062
							c0-2.244,0-4.506,0-6.785c-0.002-1.161-0.005-2.326-0.007-3.494c-0.068-1.578-0.045-3.19-0.189-4.755
							c-0.215-1.536-0.871-2.979-1.729-4.278c-0.929-1.266-2.165-2.272-3.552-3.009c-0.357-0.159-0.727-0.292-1.089-0.438
							c-0.358-0.168-0.74-0.25-1.125-0.321c-0.387-0.065-0.756-0.192-1.159-0.208l-1.215-0.036c-1.554-0.041-3.466-0.12-4.441-0.098
							c-9.423,0-18.997,0-28.57,0s-19.146,0-28.569,0h-1.766l-2.423,0.07c-0.808,0.032-1.625,0.029-2.422,0.09
							c-0.762,0.174-1.546,0.264-2.258,0.607c-2.953,1.069-5.229,3.755-5.923,6.753l-0.237,1.133l-0.037,1.192l-0.07,2.381
							l-0.034,1.178v0.858v1.712c0,2.278,0,4.541,0,6.785c0,17.949,0,34.702,0,49.062c0,0.449,0,0.896,0,1.34
							c0.018,0.609,0.036,1.217,0.053,1.82c0.018,0.607,0.036,1.21,0.053,1.811c0.016,0.601,0.009,1.205,0.168,1.754
							c0.43,2.248,1.655,4.305,3.356,5.694c1.72,1.391,3.785,2.157,5.906,2.209c1.07,0.032,2.125,0.063,3.165,0.094l0.748,0.02
							h0.558c0.371,0,0.738,0,1.103,0c5.833,0,10.919,0,15.107,0c8.376,0,13.163,0,13.163,0V110.946z"/>
					</g>
				</g>
			</g>
		</g>
	</g>
</g>
<g id="圖層_4">
</g>
<g id="圖層_2">
</g>
</svg>
