<?xml version="1.0" encoding="utf-8"?>
<!-- Generator: Adobe Illustrator 16.0.0, SVG Export Plug-In . SVG Version: 6.00 Build 0)  -->
<!DOCTYPE svg PUBLIC "-//W3C//DTD SVG 1.1//EN" "http://www.w3.org/Graphics/SVG/1.1/DTD/svg11.dtd">
<svg version="1.1" xmlns="http://www.w3.org/2000/svg" xmlns:xlink="http://www.w3.org/1999/xlink" x="0px" y="0px"
	 width="150.507px" height="150.507px" viewBox="0 0 150.507 150.507" enable-background="new 0 0 150.507 150.507"
	 xml:space="preserve">
<g id="圖層_3">
</g>
<g id="圖層_1">
	<g>
		<g opacity="0.5">
			<path fill="#FFFFFF" d="M150.007,142.531c0,4.111-3.364,7.476-7.476,7.476H7.976c-4.112,0-7.476-3.364-7.476-7.476V7.976
				C0.5,3.864,3.864,0.5,7.976,0.5h134.556c4.112,0,7.476,3.364,7.476,7.476V142.531z"/>
			<path fill="none" stroke="#165790" stroke-linejoin="round" stroke-miterlimit="10" d="M150.007,142.531
				c0,4.111-3.364,7.476-7.476,7.476H7.976c-4.112,0-7.476-3.364-7.476-7.476V7.976C0.5,3.864,3.864,0.5,7.976,0.5h134.556
				c4.112,0,7.476,3.364,7.476,7.476V142.531z"/>
		</g>
		<g>
			<path fill="none" stroke="#165790" stroke-linejoin="round" stroke-miterlimit="10" d="M150.007,142.531
				c0,4.111-3.364,7.476-7.476,7.476H7.976c-4.112,0-7.476-3.364-7.476-7.476V7.976C0.5,3.864,3.864,0.5,7.976,0.5h134.556
				c4.112,0,7.476,3.364,7.476,7.476V142.531z"/>
		</g>
		<g>
			<g>
				<path fill="#FFFFFF" stroke="#165790" stroke-width="0.7733" stroke-miterlimit="10" d="M60.096,19.627l8.958,33.432
					c1.983-0.529,4.053-0.838,6.2-0.838V17.634C70.009,17.634,64.931,18.333,60.096,19.627z"/>
				<path fill="#FFFFFF" stroke="#165790" stroke-width="0.7733" stroke-miterlimit="10" d="M75.254,17.634v34.587
					c2.146,0,4.216,0.309,6.196,0.838l8.958-33.434C85.573,18.333,80.495,17.634,75.254,17.634z"/>
				<path fill="#FFFFFF" stroke="#165790" stroke-width="0.7733" stroke-miterlimit="10" d="M104.524,25.488
					c-4.38-2.534-9.114-4.525-14.116-5.863L81.45,53.059c2.047,0.547,3.979,1.367,5.772,2.401L104.524,25.488z"/>
				<path fill="#FFFFFF" stroke="#165790" stroke-width="0.7733" stroke-miterlimit="10" d="M125.939,46.924
					c-2.461-4.243-5.428-8.156-8.839-11.64L92.643,59.745c1.282,1.351,2.389,2.863,3.332,4.482L125.939,46.924z"/>
				<path fill="#FFFFFF" stroke="#165790" stroke-width="0.7733" stroke-miterlimit="10" d="M125.939,46.924L95.974,64.228
					c1.042,1.788,1.863,3.722,2.418,5.763l33.417-8.956C130.463,56.035,128.48,51.301,125.939,46.924z"/>
				<path fill="#FFFFFF" stroke="#165790" stroke-width="0.7733" stroke-miterlimit="10" d="M133.813,76.188
					c0-5.244-0.704-10.32-2.003-15.153L98.392,69.99c0.54,1.974,0.832,4.05,0.832,6.199L133.813,76.188z"/>
				<path fill="#FFFFFF" stroke="#165790" stroke-width="0.7733" stroke-miterlimit="10" d="M99.224,76.189c0,0.002,0,0.002,0,0.002
					c0,2.147-0.309,4.218-0.838,6.197l33.435,8.957c1.291-4.835,1.992-9.912,1.992-15.154v-0.004L99.224,76.189z"/>
				<path fill="#FFFFFF" stroke="#165790" stroke-width="0.7733" stroke-miterlimit="10" d="M98.386,82.389
					c-0.546,2.046-1.367,3.978-2.403,5.77l29.974,17.303c2.532-4.379,4.526-9.113,5.864-14.115L98.386,82.389z"/>
				<path fill="#FFFFFF" stroke="#165790" stroke-width="0.7733" stroke-miterlimit="10" d="M95.983,88.158
					c-1.048,1.818-2.33,3.484-3.799,4.962l24.461,24.46c3.6-3.606,6.742-7.676,9.312-12.119L95.983,88.158z"/>
				<path fill="#FFFFFF" stroke="#165790" stroke-width="0.7733" stroke-miterlimit="10" d="M92.184,93.12
					c-1.472,1.478-3.148,2.746-4.961,3.8l17.302,29.965c4.438-2.572,8.518-5.699,12.121-9.305L92.184,93.12z"/>
				<path fill="#FFFFFF" stroke="#165790" stroke-width="0.7733" stroke-miterlimit="10" d="M69.054,53.059l-8.958-33.432
					c-5.002,1.337-9.738,3.327-14.116,5.865l17.307,29.971C65.074,54.424,67.007,53.605,69.054,53.059z"/>
				<path fill="#FFFFFF" stroke="#165790" stroke-width="0.7733" stroke-miterlimit="10" d="M45.98,25.492
					c-4.438,2.572-8.509,5.709-12.112,9.314l24.467,24.467c1.478-1.472,3.139-2.756,4.952-3.811L45.98,25.492z"/>
				<path fill="#FFFFFF" stroke="#165790" stroke-width="0.7733" stroke-miterlimit="10" d="M24.544,46.914l29.96,17.297
					c1.054-1.815,2.356-3.464,3.831-4.938L33.868,34.807C30.265,38.411,27.113,42.473,24.544,46.914z"/>
				<path fill="#FFFFFF" stroke="#165790" stroke-width="0.7733" stroke-miterlimit="10" d="M18.687,61.034l33.417,8.954
					c0.549-2.048,1.36-3.985,2.4-5.777l-29.96-17.297C22.009,51.295,20.023,56.032,18.687,61.034z"/>
				<path fill="#FFFFFF" stroke="#165790" stroke-width="0.7733" stroke-miterlimit="10" d="M16.698,76.191L16.698,76.191
					l34.585,0.001v-0.001c0-2.146,0.289-4.225,0.82-6.203l-33.417-8.954C17.393,65.87,16.698,70.948,16.698,76.191z"/>
				<path fill="#FFFFFF" stroke="#165790" stroke-width="0.7733" stroke-miterlimit="10" d="M16.698,76.192
					c0,5.329,0.715,10.485,2.056,15.389l33.423-8.957c-0.579-2.044-0.894-4.199-0.894-6.432H16.698z"/>
				<path fill="#FFFFFF" stroke="#165790" stroke-width="0.7733" stroke-miterlimit="10" d="M18.753,91.581
					c1.34,4.913,3.309,9.569,5.805,13.879l29.966-17.3c-1.002-1.721-1.796-3.578-2.348-5.536L18.753,91.581z"/>
				<path fill="#FFFFFF" stroke="#165790" stroke-width="0.7733" stroke-miterlimit="10" d="M24.559,105.46
					c2.575,4.438,5.7,8.518,9.306,12.121L58.326,93.12c-1.48-1.472-2.748-3.146-3.802-4.96L24.559,105.46z"/>
				<path fill="#FFFFFF" stroke="#165790" stroke-width="0.7733" stroke-miterlimit="10" d="M33.865,117.581
					c3.606,3.604,7.674,6.742,12.118,9.313l17.301-29.972c-1.816-1.05-3.483-2.332-4.958-3.802L33.865,117.581z"/>
				<path fill="#FFFFFF" stroke="#165790" stroke-width="0.7733" stroke-miterlimit="10" d="M117.101,35.284
					c-3.72-3.802-7.939-7.115-12.576-9.796L87.223,55.46c2.012,1.162,3.831,2.613,5.42,4.285L117.101,35.284z"/>
			</g>
			<g>
				<g>
					<g>
						<path fill="#2F699C" d="M44.725,99.92c0,0-0.419-0.588-1.205-1.688c-0.194-0.276-0.424-0.577-0.654-0.923
							c-0.213-0.356-0.446-0.746-0.697-1.166c-0.253-0.42-0.525-0.871-0.815-1.353c-0.263-0.496-0.515-1.038-0.798-1.602
							c-1.15-2.243-2.238-5.133-3.006-8.559c-0.758-3.418-1.211-7.419-0.79-11.739c0.39-4.305,1.513-8.92,3.663-13.389
							c2.135-4.464,5.29-8.762,9.354-12.337c4.057-3.562,8.994-6.464,14.46-8.021c5.44-1.597,11.341-1.985,17.039-1.097
							c5.689,0.893,11.194,3.032,15.859,6.282c4.667,3.243,8.53,7.452,11.298,12.093c2.781,4.639,4.456,9.694,5.097,14.604
							c0.64,4.917,0.358,9.676-0.628,13.882c-0.178,1.069-0.567,2.062-0.839,3.059c-0.143,0.497-0.288,0.987-0.49,1.451
							c-0.131,0.332-0.26,0.66-0.387,0.984c-0.063,0.16-0.123,0.313-0.179,0.457c-0.112,0.287-0.209,0.537-0.289,0.743
							c-0.173,0.407-0.296,0.629-0.296,0.629l-5.266-2.406c1.899,3.586,3.153,7.665,3.801,12.188
							c4.418-0.632,9.114-1.969,13.631-4.222l-5.265-2.406c0,0,0.144-0.267,0.352-0.754c0.097-0.246,0.215-0.545,0.351-0.889
							c0.067-0.172,0.139-0.354,0.215-0.547c0.152-0.388,0.306-0.781,0.461-1.179c0.237-0.558,0.415-1.144,0.588-1.739
							c0.335-1.192,0.779-2.387,1.005-3.664c1.179-5.043,1.523-10.714,0.756-16.592c-0.768-5.875-2.776-11.94-6.103-17.49
							c-3.312-5.553-7.928-10.58-13.511-14.453c-5.578-3.882-12.175-6.462-18.987-7.528c-6.814-1.063-13.847-0.599-20.373,1.319
							c-6.546,1.877-12.46,5.337-17.309,9.595c-4.858,4.272-8.629,9.408-11.187,14.755c-2.574,5.35-3.924,10.886-4.383,16.031
							c-0.492,5.158,0.036,9.931,0.945,14.029c0.919,4.104,2.231,7.564,3.601,10.253c0.338,0.675,0.645,1.321,0.961,1.915
							c0.345,0.576,0.669,1.117,0.97,1.62c0.302,0.503,0.583,0.967,0.839,1.393c0.275,0.414,0.546,0.775,0.779,1.106
							c0.942,1.313,1.445,2.015,1.445,2.015L44.725,99.92z"/>
					</g>
				</g>
			</g>
		</g>
	</g>
</g>
<g id="圖層_4">
</g>
<g id="圖層_2">
</g>
</svg>
