<?xml version="1.0" encoding="utf-8"?>
<!-- Generator: Adobe Illustrator 16.0.0, SVG Export Plug-In . SVG Version: 6.00 Build 0)  -->
<!DOCTYPE svg PUBLIC "-//W3C//DTD SVG 1.1//EN" "http://www.w3.org/Graphics/SVG/1.1/DTD/svg11.dtd">
<svg version="1.1" xmlns="http://www.w3.org/2000/svg" xmlns:xlink="http://www.w3.org/1999/xlink" x="0px" y="0px"
	 width="150.507px" height="150.507px" viewBox="0 0 150.507 150.507" enable-background="new 0 0 150.507 150.507"
	 xml:space="preserve">
<g id="圖層_3">
</g>
<g id="圖層_1">
	<g>
		<g opacity="0.5">
			<path fill="#FFFFFF" d="M150.007,142.531c0,4.111-3.364,7.476-7.476,7.476H7.976c-4.112,0-7.476-3.364-7.476-7.476V7.976
				C0.5,3.864,3.864,0.5,7.976,0.5h134.556c4.112,0,7.476,3.364,7.476,7.476V142.531z"/>
			<path fill="none" stroke="#165790" stroke-linejoin="round" stroke-miterlimit="10" d="M150.007,142.531
				c0,4.111-3.364,7.476-7.476,7.476H7.976c-4.112,0-7.476-3.364-7.476-7.476V7.976C0.5,3.864,3.864,0.5,7.976,0.5h134.556
				c4.112,0,7.476,3.364,7.476,7.476V142.531z"/>
		</g>
		<g>
			<path fill="none" stroke="#165790" stroke-linejoin="round" stroke-miterlimit="10" d="M150.007,142.531
				c0,4.111-3.364,7.476-7.476,7.476H7.976c-4.112,0-7.476-3.364-7.476-7.476V7.976C0.5,3.864,3.864,0.5,7.976,0.5h134.556
				c4.112,0,7.476,3.364,7.476,7.476V142.531z"/>
		</g>
		<g>
			<path fill="#FFFFFF" stroke="#165790" stroke-width="0.7733" stroke-miterlimit="10" d="M93.608,98.798
				c9.738,0,17.657-7.916,17.657-17.654c0-9.734-7.919-17.653-17.657-17.653c-9.732,0-17.648,7.919-17.648,17.653
				C75.96,90.882,83.876,98.798,93.608,98.798z"/>
			<path fill="#FFFFFF" stroke="#165790" stroke-width="0.7733" stroke-miterlimit="10" d="M78.603,102.304
				c-6.804,0-12.313,5.51-12.313,12.311v13.753c0,1.306,1.063,2.367,2.368,2.367h49.909c1.308,0,2.368-1.062,2.368-2.367v-13.411
				c0.21-0.359,0.399-0.748,0.552-1.156l9.659-25.571c0.321-0.854,0.491-1.761,0.491-2.681V56.851c0-4.186-3.391-7.575-7.575-7.575
				c-4.188,0-7.577,3.39-7.577,7.575v27.316l-6.845,18.137H78.603z"/>
			<g>
				<g>
					<g>
						<path fill="#FFFFFF" d="M58.604,71.782c1.141,1.144,2.371,2.274,2.732,2.511c0,0,0,0,0.383,0c0.189,0,0.38-0.037,0.563-0.112
							c0.549-0.226,0.549-0.226,0.549-0.226c0.196-0.623,0.356-2.454,0.356-4.069v-5.531c0-1.615,1.322-2.938,2.938-2.938h1.716
							c1.616,0,3.269-0.147,3.672-0.329c0.404-0.181,0.734-2.462,0.734-4.077v-32.83c0-1.615-0.147-3.269-0.328-3.673
							s-2.462-0.735-4.079-0.735H23.277c-1.616,0-3.269,0.148-3.672,0.329s-0.734,2.464-0.734,4.079v32.83
							c0,1.615,0.148,3.268,0.329,3.672s2.462,0.734,4.078,0.734h22.051c1.616,0,3.872,0.937,5.013,2.08L58.604,71.782z"/>
					</g>
					<g>
						<path fill="none" stroke="#165790" stroke-width="0.9544" stroke-miterlimit="10" d="M58.604,71.782
							c1.141,1.144,2.371,2.274,2.732,2.511c0,0,0,0,0.383,0c0.189,0,0.38-0.037,0.563-0.112c0.549-0.226,0.549-0.226,0.549-0.226
							c0.196-0.623,0.356-2.454,0.356-4.069v-5.531c0-1.615,1.322-2.938,2.938-2.938h1.716c1.616,0,3.269-0.147,3.672-0.329
							c0.404-0.181,0.734-2.462,0.734-4.077v-32.83c0-1.615-0.147-3.269-0.328-3.673s-2.462-0.735-4.079-0.735H23.277
							c-1.616,0-3.269,0.148-3.672,0.329s-0.734,2.464-0.734,4.079v32.83c0,1.615,0.148,3.268,0.329,3.672s2.462,0.734,4.078,0.734
							h22.051c1.616,0,3.872,0.937,5.013,2.08L58.604,71.782z"/>
					</g>
				</g>
				<path fill="#165790" d="M43.316,31.171c0.342-0.717,1.063-1.061,1.778-1.061c0.716,0,1.434,0.344,1.434,0.344
					c0.342,0.717,0.719,1.436,0.719,2.153c0,1.06-0.342,1.778-0.719,2.155l-2.838,3.211c-0.713,1.06-1.434,1.779-1.775,2.498
					c-0.339,0.715-0.339,1.775-0.339,2.835v3.212h6.421v-2.837c0-0.717,0-1.435,0.342-1.778c0.345-0.34,0.722-0.717,1.439-1.432
					c0.716-0.719,1.434-1.438,2.152-2.155c0-0.343,0.339-0.719,0.716-1.061c0.341-0.341,0.715-0.718,0.715-1.06
					c0.345,0,0.345-0.342,0.719-1.057c0.345-0.345,0.345-1.438,0.345-2.497c0-2.497-0.719-4.648-2.494-6.052
					c-1.778-1.436-3.934-2.15-6.769-2.15c-2.5,0-4.99,0.715-6.766,2.493c-1.778,1.437-2.839,3.931-3.215,6.769h7.11
					C42.599,32.607,42.942,31.89,43.316,31.171L43.316,31.171z"/>
				<path fill="#165790" d="M45.095,47.922c-1.06,0-2.152,0.34-2.838,1.059c-0.719,0.718-1.061,1.778-1.061,2.838
					c0,1.059,0.342,2.152,1.061,2.839c0.721,0.715,1.434,1.057,2.838,1.057c1.061,0,2.152-0.342,2.836-1.057
					c0.715-0.721,1.06-1.78,1.06-2.839c0-1.06-0.345-2.155-1.06-2.838C47.212,48.297,46.155,47.922,45.095,47.922z"/>
			</g>
		</g>
	</g>
</g>
<g id="圖層_4">
</g>
<g id="圖層_2">
</g>
</svg>
