<?xml version="1.0" encoding="utf-8"?>
<!-- Generator: Adobe Illustrator 16.0.0, SVG Export Plug-In . SVG Version: 6.00 Build 0)  -->
<!DOCTYPE svg PUBLIC "-//W3C//DTD SVG 1.1//EN" "http://www.w3.org/Graphics/SVG/1.1/DTD/svg11.dtd">
<svg version="1.1" xmlns="http://www.w3.org/2000/svg" xmlns:xlink="http://www.w3.org/1999/xlink" x="0px" y="0px" width="151px"
	 height="151px" viewBox="0 0 151 151" enable-background="new 0 0 151 151" xml:space="preserve">
<g id="圖層_3">
</g>
<g id="圖層_1">
	<g>
		<g opacity="0.5">
			<path fill="#FFFFFF" d="M150.5,143c0,4.125-3.375,7.5-7.5,7.5H8c-4.125,0-7.5-3.375-7.5-7.5V8c0-4.125,3.375-7.5,7.5-7.5h135
				c4.125,0,7.5,3.375,7.5,7.5V143z"/>
			<path fill="none" stroke="#165790" stroke-linejoin="round" stroke-miterlimit="10" d="M150.5,143c0,4.125-3.375,7.5-7.5,7.5H8
				c-4.125,0-7.5-3.375-7.5-7.5V8c0-4.125,3.375-7.5,7.5-7.5h135c4.125,0,7.5,3.375,7.5,7.5V143z"/>
		</g>
		<g>
			<path fill="none" stroke="#165790" stroke-linejoin="round" stroke-miterlimit="10" d="M150.5,143c0,4.125-3.375,7.5-7.5,7.5H8
				c-4.125,0-7.5-3.375-7.5-7.5V8c0-4.125,3.375-7.5,7.5-7.5h135c4.125,0,7.5,3.375,7.5,7.5V143z"/>
		</g>
		<g>
			<polygon fill="#FFFFFF" stroke="#165790" stroke-width="0.6757" stroke-linejoin="round" stroke-miterlimit="10" points="
				66.778,27.289 16.719,29.776 13.18,21.739 63.236,19.25 			"/>
			<polygon fill="#FFFFFF" stroke="#165790" stroke-width="0.6757" stroke-linejoin="round" stroke-miterlimit="10" points="
				70.314,35.325 20.258,37.813 16.719,29.776 66.778,27.289 			"/>
			<polygon fill="#FFFFFF" stroke="#165790" stroke-width="0.6757" stroke-linejoin="round" stroke-miterlimit="10" points="
				73.856,43.362 23.794,45.852 20.258,37.813 70.314,35.325 			"/>
			<polygon fill="#FFFFFF" stroke="#165790" stroke-width="0.6757" stroke-linejoin="round" stroke-miterlimit="10" points="
				77.396,51.403 27.333,53.89 23.794,45.852 73.856,43.362 			"/>
			<polygon fill="#FFFFFF" stroke="#165790" stroke-width="0.6757" stroke-linejoin="round" stroke-miterlimit="10" points="
				80.932,59.438 30.875,61.929 27.333,53.89 77.396,51.403 			"/>
			<polygon fill="#FFFFFF" stroke="#165790" stroke-width="0.6757" stroke-linejoin="round" stroke-miterlimit="10" points="
				84.471,67.476 34.411,69.966 30.875,61.929 80.932,59.438 			"/>
			<polygon fill="#FFFFFF" stroke="#165790" stroke-width="0.6757" stroke-linejoin="round" stroke-miterlimit="10" points="
				120.122,89.071 70.065,91.562 66.526,83.522 116.586,81.034 			"/>
			<polygon fill="#FFFFFF" stroke="#165790" stroke-width="0.6757" stroke-linejoin="round" stroke-miterlimit="10" points="
				123.661,97.11 73.604,99.599 70.065,91.562 120.122,89.071 			"/>
			<polygon fill="#FFFFFF" stroke="#165790" stroke-width="0.6757" stroke-linejoin="round" stroke-miterlimit="10" points="
				127.203,105.148 77.144,107.636 73.604,99.599 123.661,97.11 			"/>
			<polygon fill="#FFFFFF" stroke="#165790" stroke-width="0.6757" stroke-linejoin="round" stroke-miterlimit="10" points="
				130.739,113.187 80.686,115.675 77.144,107.636 127.203,105.148 			"/>
			<polygon fill="#FFFFFF" stroke="#165790" stroke-width="0.6757" stroke-linejoin="round" stroke-miterlimit="10" points="
				134.281,121.224 84.222,123.712 80.686,115.675 130.739,113.187 			"/>
			<polygon fill="#FFFFFF" stroke="#165790" stroke-width="0.6757" stroke-linejoin="round" stroke-miterlimit="10" points="
				137.82,129.26 87.758,131.75 84.222,123.712 134.281,121.224 			"/>
			<polygon fill="#FFFFFF" stroke="#165790" stroke-width="0.7731" stroke-linejoin="round" stroke-miterlimit="10" points="
				116.633,81.052 66.576,83.54 34.411,69.966 84.471,67.476 			"/>
			<g>
				<line fill="#165790" x1="52.561" y1="55.296" x2="45.972" y2="35.354"/>
				<g>
					<polygon fill="#165790" points="56.246,55.083 53.39,46.438 52.687,44.311 58.312,43.988 45.972,35.354 39.688,45.058 
						45.315,44.733 46.016,46.862 48.875,55.507 					"/>
				</g>
			</g>
			<g>
				<line fill="#165790" x1="102.676" y1="111.843" x2="96.084" y2="91.901"/>
				<g>
					<polygon fill="#165790" points="106.361,111.632 103.508,102.989 102.802,100.859 108.427,100.536 96.084,91.901 
						89.806,101.608 95.431,101.284 96.134,103.413 98.99,112.056 					"/>
				</g>
			</g>
		</g>
	</g>
</g>
<g id="圖層_4">
</g>
<g id="圖層_2">
</g>
</svg>
