<?xml version="1.0" encoding="utf-8"?>
<!-- Generator: Adobe Illustrator 16.0.0, SVG Export Plug-In . SVG Version: 6.00 Build 0)  -->
<!DOCTYPE svg PUBLIC "-//W3C//DTD SVG 1.1//EN" "http://www.w3.org/Graphics/SVG/1.1/DTD/svg11.dtd">
<svg version="1.1" xmlns="http://www.w3.org/2000/svg" xmlns:xlink="http://www.w3.org/1999/xlink" x="0px" y="0px" width="151px"
	 height="151px" viewBox="0 0 151 151" enable-background="new 0 0 151 151" xml:space="preserve">
<g id="圖層_3">
</g>
<g id="圖層_1">
	<g>
		<g opacity="0.5">
			<path fill="#FFFFFF" d="M150.5,143c0,4.125-3.375,7.5-7.5,7.5H8c-4.125,0-7.5-3.375-7.5-7.5V8c0-4.125,3.375-7.5,7.5-7.5h135
				c4.125,0,7.5,3.375,7.5,7.5V143z"/>
			<path fill="none" stroke="#165790" stroke-linejoin="round" stroke-miterlimit="10" d="M150.5,143c0,4.125-3.375,7.5-7.5,7.5H8
				c-4.125,0-7.5-3.375-7.5-7.5V8c0-4.125,3.375-7.5,7.5-7.5h135c4.125,0,7.5,3.375,7.5,7.5V143z"/>
		</g>
		<g>
			<path fill="none" stroke="#165790" stroke-linejoin="round" stroke-miterlimit="10" d="M150.5,143c0,4.125-3.375,7.5-7.5,7.5H8
				c-4.125,0-7.5-3.375-7.5-7.5V8c0-4.125,3.375-7.5,7.5-7.5h135c4.125,0,7.5,3.375,7.5,7.5V143z"/>
		</g>
		<g>
			
				<rect x="26.249" y="120.251" fill="#FFFFFF" stroke="#165790" stroke-width="0.793" stroke-miterlimit="10" width="49.251" height="11.499"/>
			
				<rect x="26.249" y="108.752" fill="#FFFFFF" stroke="#165790" stroke-width="0.793" stroke-miterlimit="10" width="49.251" height="11.499"/>
			
				<rect x="26.249" y="97.255" fill="#FFFFFF" stroke="#165790" stroke-width="0.793" stroke-miterlimit="10" width="49.251" height="11.497"/>
			
				<rect x="26.249" y="85.755" fill="#FFFFFF" stroke="#165790" stroke-width="0.793" stroke-miterlimit="10" width="49.251" height="11.5"/>
			
				<rect x="26.249" y="74.257" fill="#FFFFFF" stroke="#165790" stroke-width="0.793" stroke-miterlimit="10" width="49.251" height="11.498"/>
			
				<rect x="26.249" y="62.757" fill="#FFFFFF" stroke="#165790" stroke-width="0.793" stroke-miterlimit="10" width="49.251" height="11.5"/>
			
				<rect x="26.249" y="51.26" fill="#FFFFFF" stroke="#165790" stroke-width="0.793" stroke-miterlimit="10" width="49.251" height="11.497"/>
			
				<rect x="75.5" y="120.251" fill="#FFFFFF" stroke="#165790" stroke-width="0.793" stroke-miterlimit="10" width="49.254" height="11.499"/>
			
				<rect x="75.5" y="108.752" fill="#FFFFFF" stroke="#165790" stroke-width="0.793" stroke-miterlimit="10" width="49.254" height="11.499"/>
			
				<rect x="75.5" y="97.255" fill="#FFFFFF" stroke="#165790" stroke-width="0.793" stroke-miterlimit="10" width="49.254" height="11.497"/>
			
				<rect x="75.5" y="85.755" fill="#FFFFFF" stroke="#165790" stroke-width="0.793" stroke-miterlimit="10" width="49.254" height="11.5"/>
			
				<rect x="75.5" y="74.257" fill="#FFFFFF" stroke="#165790" stroke-width="0.793" stroke-miterlimit="10" width="49.254" height="11.498"/>
			
				<rect x="75.5" y="62.757" fill="#FFFFFF" stroke="#165790" stroke-width="0.793" stroke-miterlimit="10" width="49.254" height="11.5"/>
			
				<rect x="75.5" y="51.26" fill="#FFFFFF" stroke="#165790" stroke-width="0.793" stroke-miterlimit="10" width="49.254" height="11.497"/>
			
				<rect x="26.249" y="19.25" fill="#FFFFFF" stroke="#165790" stroke-width="0.904" stroke-miterlimit="10" width="98.505" height="32.004"/>
			<g>
				<g>
					<g>
						<path fill="#2F699C" d="M54.68,72.295c0,0,0-7.938,0-19.847c0-2.733,0.001-5.695,0.001-8.827
							c0.008-1.03,0.372-2.085,1.063-2.922c0.692-0.831,1.696-1.437,2.808-1.618c0.555-0.099,1.126-0.062,1.695-0.068
							c0.893,0,1.792,0,2.696,0c1.915,0,3.853,0,5.807,0c3.907,0,7.877,0,11.846,0c3.713,0,7.427,0,11.083,0
							c1.182-0.003,2.344,0.468,3.179,1.269c0.848,0.789,1.364,1.895,1.446,3.015c0.006,7.076,0.012,13.681,0.018,19.343
							c0,3.703,0,6.173,0,6.173h-5.808l9.614,9.615l9.615-9.615h-5.808c0,0,0-2.47,0-6.173c0-2.978,0-6.202,0-9.613
							c0-1.706,0-3.458,0-5.249c0-0.896,0-1.801,0-2.714c-0.009-0.604-0.017-1.212-0.026-1.822c-0.006-0.643-0.009-1.288-0.103-1.92
							c-0.337-2.534-1.566-4.968-3.468-6.766c-1.895-1.802-4.452-2.949-7.142-3.112c-3.063-0.063-4.583-0.038-6.655-0.043
							c-1.977,0-3.962,0-5.946,0c-3.969,0-7.939,0-11.846,0c-1.954,0-3.892,0-5.807,0c-1.01,0.003-2.014,0.006-3.01,0.009
							c-1.313,0.027-2.633-0.026-3.872,0.287c-2.497,0.543-4.725,1.935-6.299,3.807c-1.573,1.88-2.478,4.215-2.646,6.557
							c-0.011,0.593-0.022,1.182-0.033,1.767c-0.005,0.515-0.011,1.024-0.016,1.532c0,0.828,0,1.645,0,2.447
							c0,1.604,0,3.154,0,4.644c0,11.908,0,19.847,0,19.847H54.68z"/>
					</g>
				</g>
			</g>
		</g>
	</g>
</g>
<g id="圖層_4">
</g>
<g id="圖層_2">
</g>
</svg>
