<?xml version="1.0" encoding="utf-8"?>
<!-- Generator: Adobe Illustrator 16.0.0, SVG Export Plug-In . SVG Version: 6.00 Build 0)  -->
<!DOCTYPE svg PUBLIC "-//W3C//DTD SVG 1.1//EN" "http://www.w3.org/Graphics/SVG/1.1/DTD/svg11.dtd">
<svg version="1.1" xmlns="http://www.w3.org/2000/svg" xmlns:xlink="http://www.w3.org/1999/xlink" x="0px" y="0px"
	 width="150.507px" height="150.507px" viewBox="0 0 150.507 150.507" enable-background="new 0 0 150.507 150.507"
	 xml:space="preserve">
<g id="圖層_3">
</g>
<g id="圖層_1">
	<g>
		<g opacity="0.5">
			<path fill="#FFFFFF" d="M150.007,142.531c0,4.111-3.364,7.476-7.476,7.476H7.976c-4.111,0-7.476-3.364-7.476-7.476V7.976
				C0.5,3.864,3.864,0.5,7.976,0.5h134.556c4.112,0,7.476,3.364,7.476,7.476V142.531z"/>
			<path fill="none" stroke="#165790" stroke-linejoin="round" stroke-miterlimit="10" d="M150.007,142.531
				c0,4.111-3.364,7.476-7.476,7.476H7.976c-4.111,0-7.476-3.364-7.476-7.476V7.976C0.5,3.864,3.864,0.5,7.976,0.5h134.556
				c4.112,0,7.476,3.364,7.476,7.476V142.531z"/>
		</g>
		<g>
			<path fill="none" stroke="#165790" stroke-linejoin="round" stroke-miterlimit="10" d="M150.007,142.531
				c0,4.111-3.364,7.476-7.476,7.476H7.976c-4.111,0-7.476-3.364-7.476-7.476V7.976C0.5,3.864,3.864,0.5,7.976,0.5h134.556
				c4.112,0,7.476,3.364,7.476,7.476V142.531z"/>
		</g>
		<g>
			<g>
				<g>
					<path fill="#FFFFFF" d="M90.678,19.163c-0.025,0-0.049,0-0.075,0c-13.091,0-26.183,0-39.275,0c-0.025,0-0.049,0-0.074,0
						c1.318,3.496,2.433,7.065,3.344,10.693c0.577,0,1.153,0,1.729,0c13.19,0,26.381,0,39.572,0c0.576,0,1.152,0,1.729,0
						C95.489,26.229,93.172,22.659,90.678,19.163z"/>
					<path fill="none" stroke="#165790" stroke-width="0.7733" stroke-miterlimit="10" d="M90.678,19.163c-0.025,0-0.049,0-0.075,0
						c-13.091,0-26.183,0-39.275,0c-0.025,0-0.049,0-0.074,0c1.318,3.496,2.433,7.065,3.344,10.693c0.577,0,1.153,0,1.729,0
						c13.19,0,26.381,0,39.572,0c0.576,0,1.152,0,1.729,0C95.489,26.229,93.172,22.659,90.678,19.163z"/>
				</g>
				<g>
					<path fill="#FFFFFF" d="M97.627,29.856c-0.577,0-1.153,0-1.729,0c-13.191,0-26.381,0-39.572,0c-0.576,0-1.152,0-1.729,0
						c0.912,3.628,1.618,7.313,2.122,11.044c1.18,0,2.361,0,3.54,0c13.237,0,26.475,0,39.712,0c1.18,0,2.36,0,3.54,0
						C101.727,37.17,99.766,33.484,97.627,29.856z"/>
					<path fill="none" stroke="#165790" stroke-width="0.7733" stroke-miterlimit="10" d="M97.627,29.856c-0.577,0-1.153,0-1.729,0
						c-13.191,0-26.381,0-39.572,0c-0.576,0-1.152,0-1.729,0c0.912,3.628,1.618,7.313,2.122,11.044c1.18,0,2.361,0,3.54,0
						c13.237,0,26.475,0,39.712,0c1.18,0,2.36,0,3.54,0C101.727,37.17,99.766,33.484,97.627,29.856z"/>
				</g>
				<g>
					<path fill="#FFFFFF" d="M103.511,40.9c-1.18,0-2.359,0-3.54,0c-13.236,0-26.475,0-39.712,0c-1.179,0-2.361,0-3.54,0
						c0.504,3.729,0.805,7.503,0.902,11.305c1.835,0,3.67,0,5.504,0c13.233,0,26.465,0,39.698,0c1.834,0,3.669,0,5.504,0
						C106.901,48.403,105.294,44.63,103.511,40.9z"/>
					<path fill="none" stroke="#165790" stroke-width="0.7733" stroke-miterlimit="10" d="M103.511,40.9c-1.18,0-2.359,0-3.54,0
						c-13.236,0-26.475,0-39.712,0c-1.179,0-2.361,0-3.54,0c0.504,3.729,0.805,7.503,0.902,11.305c1.835,0,3.67,0,5.504,0
						c13.233,0,26.465,0,39.698,0c1.834,0,3.669,0,5.504,0C106.901,48.403,105.294,44.63,103.511,40.9z"/>
				</g>
				<g>
					<path fill="#FFFFFF" d="M108.329,52.205c-1.835,0-3.67,0-5.504,0c-13.233,0-26.465,0-39.698,0c-1.835,0-3.67,0-5.504,0
						c0.097,3.803-0.011,7.635-0.321,11.48c2.542,0,5.084,0,7.627,0c13.176,0,26.351,0,39.526,0c2.542,0,5.084,0,7.627,0
						C111.008,59.84,109.756,56.008,108.329,52.205z"/>
					<path fill="none" stroke="#165790" stroke-width="0.7733" stroke-miterlimit="10" d="M108.329,52.205c-1.835,0-3.67,0-5.504,0
						c-13.233,0-26.465,0-39.698,0c-1.835,0-3.67,0-5.504,0c0.097,3.803-0.011,7.635-0.321,11.48c2.542,0,5.084,0,7.627,0
						c13.176,0,26.351,0,39.526,0c2.542,0,5.084,0,7.627,0C111.008,59.84,109.756,56.008,108.329,52.205z"/>
				</g>
				<g>
					<path fill="#FFFFFF" d="M112.081,63.686c-2.542,0-5.085,0-7.627,0c-13.176,0-26.351,0-39.526,0c-2.542,0-5.084,0-7.627,0
						c-0.31,3.847-0.825,7.708-1.542,11.568c3.302,0,6.603,0,9.905,0c13.066,0,26.132,0,39.199,0c3.301,0,6.603,0,9.905,0
						C114.049,71.393,113.153,67.532,112.081,63.686z"/>
					<path fill="none" stroke="#165790" stroke-width="0.7733" stroke-miterlimit="10" d="M112.081,63.686c-2.542,0-5.085,0-7.627,0
						c-13.176,0-26.351,0-39.526,0c-2.542,0-5.084,0-7.627,0c-0.31,3.847-0.825,7.708-1.542,11.568c3.302,0,6.603,0,9.905,0
						c13.066,0,26.132,0,39.199,0c3.301,0,6.603,0,9.905,0C114.049,71.393,113.153,67.532,112.081,63.686z"/>
				</g>
				<g>
					<path fill="#FFFFFF" d="M114.767,75.254c-3.301,0-6.603,0-9.905,0c-13.066,0-26.133,0-39.199,0c-3.302,0-6.603,0-9.905,0
						c-0.718,3.861-1.639,7.722-2.764,11.568c4.113,0,8.225,0,12.338,0c12.905,0,25.812,0,38.717,0c4.112,0,8.225,0,12.337,0
						C116.024,82.976,115.484,79.115,114.767,75.254z"/>
					<path fill="none" stroke="#165790" stroke-width="0.7733" stroke-miterlimit="10" d="M114.767,75.254c-3.301,0-6.603,0-9.905,0
						c-13.066,0-26.133,0-39.199,0c-3.302,0-6.603,0-9.905,0c-0.718,3.861-1.639,7.722-2.764,11.568c4.113,0,8.225,0,12.338,0
						c12.905,0,25.812,0,38.717,0c4.112,0,8.225,0,12.337,0C116.024,82.976,115.484,79.115,114.767,75.254z"/>
				</g>
				<g>
					<path fill="#FFFFFF" d="M116.386,86.822c-4.112,0-8.225,0-12.337,0c-12.905,0-25.812,0-38.717,0c-4.112,0-8.225,0-12.338,0
						c-1.125,3.846-2.453,7.676-3.985,11.479c4.976,0,9.952,0,14.928,0c12.693,0,25.384,0,38.077,0c4.977,0,9.952,0,14.928,0
						C116.934,94.498,116.749,90.667,116.386,86.822z"/>
					<path fill="none" stroke="#165790" stroke-width="0.7733" stroke-miterlimit="10" d="M116.386,86.822
						c-4.112,0-8.225,0-12.337,0c-12.905,0-25.812,0-38.717,0c-4.112,0-8.225,0-12.338,0c-1.125,3.846-2.453,7.676-3.985,11.479
						c4.976,0,9.952,0,14.928,0c12.693,0,25.384,0,38.077,0c4.977,0,9.952,0,14.928,0C116.934,94.498,116.749,90.667,116.386,86.822
						z"/>
				</g>
				<g>
					<path fill="#FFFFFF" d="M116.942,98.301c-4.976,0-9.951,0-14.928,0c-12.692,0-25.384,0-38.077,0c-4.976,0-9.952,0-14.928,0
						c-1.533,3.802-3.269,7.575-5.208,11.305c5.891,0,11.782,0,17.673,0c12.427,0,24.854,0,37.281,0c5.891,0,11.783,0,17.674,0
						C116.779,105.876,116.949,102.103,116.942,98.301z"/>
					<path fill="none" stroke="#165790" stroke-width="0.7733" stroke-miterlimit="10" d="M116.942,98.301
						c-4.976,0-9.951,0-14.928,0c-12.692,0-25.384,0-38.077,0c-4.976,0-9.952,0-14.928,0c-1.533,3.802-3.269,7.575-5.208,11.305
						c5.891,0,11.782,0,17.673,0c12.427,0,24.854,0,37.281,0c5.891,0,11.783,0,17.674,0
						C116.779,105.876,116.949,102.103,116.942,98.301z"/>
				</g>
				<g>
					<path fill="#FFFFFF" d="M116.431,109.605c-5.892,0-11.783,0-17.674,0c-12.427,0-24.854,0-37.281,0c-5.891,0-11.782,0-17.673,0
						c-1.939,3.73-4.083,7.416-6.43,11.044c6.857,0,13.714,0,20.572,0c12.112,0,24.223,0,36.335,0c6.856,0,13.715,0,20.571,0
						C115.554,117.021,116.083,113.336,116.431,109.605z"/>
					<path fill="none" stroke="#165790" stroke-width="0.7733" stroke-miterlimit="10" d="M116.431,109.605
						c-5.892,0-11.783,0-17.674,0c-12.427,0-24.854,0-37.281,0c-5.891,0-11.782,0-17.673,0c-1.939,3.73-4.083,7.416-6.43,11.044
						c6.857,0,13.714,0,20.572,0c12.112,0,24.223,0,36.335,0c6.856,0,13.715,0,20.571,0
						C115.554,117.021,116.083,113.336,116.431,109.605z"/>
				</g>
				<g>
					<path fill="#FFFFFF" d="M114.85,120.649c-6.856,0-13.715,0-20.571,0c-12.112,0-24.223,0-36.335,0c-6.857,0-13.715,0-20.572,0
						c-2.346,3.628-4.896,7.197-7.649,10.693c7.876,0,15.751,0,23.628,0c11.743,0,23.486,0,35.229,0c7.875,0,15.752,0,23.628,0
						C113.265,127.847,114.146,124.277,114.85,120.649z"/>
					<path fill="none" stroke="#165790" stroke-width="0.7733" stroke-miterlimit="10" d="M114.85,120.649
						c-6.856,0-13.715,0-20.571,0c-12.112,0-24.223,0-36.335,0c-6.857,0-13.715,0-20.572,0c-2.346,3.628-4.896,7.197-7.649,10.693
						c7.876,0,15.751,0,23.628,0c11.743,0,23.486,0,35.229,0c7.875,0,15.752,0,23.628,0
						C113.265,127.847,114.146,124.277,114.85,120.649z"/>
				</g>
				<g>
					<path fill="#FFFFFF" d="M84.547,88.179c0.991-8.929,0.952-17.945-0.117-26.866"/>
					<g>
						<g>
							<path fill="#2F699C" d="M89.5,88.179c0.367-3.869,0.539-7.756,0.518-11.644c-0.005-0.958-0.021-1.916-0.05-2.874
								c2.399,0,4.798,0,7.197,0c-4.197-4.124-8.441-8.247-12.734-12.349c-3.311,4.102-7.008,8.225-11.093,12.349
								c2.399,0,4.798,0,7.197,0c-0.002,0.958-0.017,1.916-0.042,2.874c-0.106,3.888-0.404,7.774-0.897,11.644
								C82.896,88.179,86.198,88.179,89.5,88.179z"/>
						</g>
					</g>
				</g>
			</g>
		</g>
	</g>
</g>
<g id="圖層_4">
</g>
<g id="圖層_2">
</g>
</svg>
