<?xml version="1.0" encoding="utf-8"?>
<!-- Generator: Adobe Illustrator 16.0.0, SVG Export Plug-In . SVG Version: 6.00 Build 0)  -->
<!DOCTYPE svg PUBLIC "-//W3C//DTD SVG 1.1//EN" "http://www.w3.org/Graphics/SVG/1.1/DTD/svg11.dtd">
<svg version="1.1" xmlns="http://www.w3.org/2000/svg" xmlns:xlink="http://www.w3.org/1999/xlink" x="0px" y="0px" width="165px"
	 height="159.582px" viewBox="0 0 165 159.582" enable-background="new 0 0 165 159.582" xml:space="preserve">
<g id="圖層_1">
	<path fill="#FFFFFF" d="M1.209,159.582c-0.666,0-1.209-0.543-1.209-1.21v-81.29c0-0.668,0.543-1.21,1.209-1.21h24.387
		c0.829,0,1.5-0.671,1.5-1.5V23.53c0-0.56-0.312-1.073-0.809-1.331L8.782,13.124c-0.403-0.209-0.653-0.621-0.653-1.075V1.211
		c0-0.193,0.047-0.386,0.136-0.559C8.473,0.25,8.885,0,9.341,0c0.193,0,0.38,0.046,0.554,0.137l146.322,75.87
		c0.403,0.209,0.654,0.621,0.654,1.075V87.92c0,0.193-0.047,0.386-0.137,0.559c-0.209,0.402-0.621,0.652-1.076,0.652
		c-0.193,0-0.379-0.046-0.554-0.137l-15.011-7.784c-0.217-0.112-0.454-0.169-0.691-0.169c-0.27,0-0.54,0.074-0.779,0.219
		c-0.447,0.271-0.721,0.758-0.721,1.281v46.024c0,0.829,0.672,1.5,1.5,1.5h24.388c0.667,0,1.21,0.542,1.21,1.21v27.097
		c0,0.667-0.543,1.21-1.21,1.21H1.209z M3.919,78.291c-0.829,0-1.5,0.672-1.5,1.5v75.871c0,0.829,0.671,1.5,1.5,1.5H161.08
		c0.828,0,1.5-0.671,1.5-1.5v-21.678c0-0.828-0.672-1.5-1.5-1.5h-51.484c-0.666,0-1.209-0.543-1.209-1.209v-24.387
		c0-0.829-0.672-1.5-1.5-1.5H55.402c-0.666,0-1.209-0.543-1.209-1.211V79.791c0-0.828-0.672-1.5-1.5-1.5H3.919z M85.209,52.942
		c-0.27,0-0.54,0.073-0.779,0.218c-0.447,0.272-0.721,0.758-0.721,1.282v47.026c0,0.828,0.672,1.5,1.5,1.5h24.387
		c0.668,0,1.211,0.543,1.211,1.209v24.388c0,0.829,0.671,1.5,1.5,1.5h21.677c0.829,0,1.5-0.671,1.5-1.5V79.791
		c0-0.56-0.312-1.128-0.81-1.386L85.9,53.111C85.684,52.998,85.446,52.942,85.209,52.942z M31.016,24.84
		c-0.271,0-0.541,0.074-0.779,0.219c-0.447,0.271-0.721,0.758-0.721,1.281v48.032c0,0.829,0.672,1.5,1.5,1.5h24.387
		c0.668,0,1.21,0.542,1.21,1.21v24.387c0,0.828,0.671,1.5,1.5,1.5H79.79c0.829,0,1.5-0.672,1.5-1.5V51.633
		c0-0.561-0.312-1.074-0.81-1.332L31.706,25.009C31.489,24.896,31.252,24.84,31.016,24.84z M12.048,4.168
		c-0.271,0-0.54,0.074-0.779,0.219c-0.447,0.271-0.721,0.758-0.721,1.281v4.734c0,0.56,0.312,1.073,0.81,1.331l140.903,73.062
		c0.217,0.112,0.454,0.168,0.69,0.168c0.271,0,0.541-0.073,0.779-0.219c0.447-0.271,0.721-0.758,0.721-1.281v-4.734
		c0-0.56-0.313-1.073-0.81-1.331L12.738,4.337C12.521,4.225,12.285,4.168,12.048,4.168z"/>
</g>
<g id="footer">
</g>
<g id="header">
</g>
</svg>
