<?xml version="1.0" encoding="utf-8"?>
<!-- Generator: Adobe Illustrator 16.0.0, SVG Export Plug-In . SVG Version: 6.00 Build 0)  -->
<!DOCTYPE svg PUBLIC "-//W3C//DTD SVG 1.1//EN" "http://www.w3.org/Graphics/SVG/1.1/DTD/svg11.dtd">
<svg version="1.1" id="圖層_1" xmlns="http://www.w3.org/2000/svg" xmlns:xlink="http://www.w3.org/1999/xlink" x="0px" y="0px"
	 width="168.798px" height="168.796px" viewBox="0 0 168.798 168.796" enable-background="new 0 0 168.798 168.796"
	 xml:space="preserve">
<path fill="#FFFFFF" d="M93.038,168.796c-0.228-0.001-0.459-0.097-0.627-0.264L0.258,76.381C0.093,76.214,0,75.993,0,75.759V0.88
	C0,0.395,0.396,0,0.882,0h37.439c0.233,0,0.454,0.092,0.621,0.259l50.493,50.492c0.378,0.379,0.889,0.586,1.414,0.586
	c0.126,0,0.254-0.012,0.38-0.036c0.652-0.127,1.199-0.568,1.461-1.18c1.043-2.451,3.439-4.035,6.104-4.037
	c3.661,0,6.641,2.977,6.644,6.636v48.958c0,1.104,0.896,2,2,2h46.079c1.104,0,2-0.896,2-2v-48.96c0-3.66,2.978-6.639,6.639-6.639
	c3.662,0,6.642,2.979,6.642,6.639v115.197c0,0.485-0.396,0.881-0.881,0.881H93.038z M159.277,59.358c-1.104,0-2,0.896-2,2v103.678
	c0,1.104,0.896,2,2,2h5.761c1.104,0,2-0.896,2-2V61.358c0-1.104-0.896-2-2-2H159.277z M107.438,151.516c-1.104,0-2,0.896-2,2v11.521
	c0,1.104,0.896,2,2,2h46.079c1.104,0,2-0.896,2-2v-11.521c0-1.104-0.896-2-2-2H107.438z M95.919,59.358c-1.104,0-2,0.896-2,2
	v103.678c0,1.104,0.896,2,2,2h5.76c1.105,0,2-0.896,2-2V61.358c0-1.104-0.895-2-2-2H95.919z M3.761,70.878c-1.105,0-2,0.896-2,2
	v1.688c0,0.53,0.211,1.039,0.586,1.414l86.398,86.397c0.383,0.383,0.895,0.586,1.414,0.586c0.258,0,0.518-0.05,0.766-0.152
	c0.747-0.31,1.234-1.039,1.234-1.848v-53.526c0-1.104-0.896-2-2-2h-17.28c-0.485,0-0.879-0.396-0.879-0.881v-8.639
	c0-1.104-0.896-2-2-2H49.839c-0.485,0-0.879-0.395-0.879-0.879v-8.642c0-1.104-0.896-2-2-2H26.8c-0.485,0-0.881-0.395-0.881-0.879
	v-8.641c0-1.104-0.895-2-2-2H3.761z M107.438,134.235c-1.104,0-2,0.896-2,2v11.521c0,1.104,0.896,2,2,2h46.079c1.104,0,2-0.896,2-2
	v-11.521c0-1.104-0.896-2-2-2H107.438z M107.438,116.958c-1.104,0-2,0.896-2,2v11.52c0,1.104,0.896,2,2,2h46.079
	c1.104,0,2-0.896,2-2v-11.52c0-1.104-0.896-2-2-2H107.438z M107.438,105.438c-1.104,0-2,0.896-2,2v5.761c0,1.104,0.896,2,2,2h46.079
	c1.104,0,2-0.896,2-2v-5.761c0-1.104-0.896-2-2-2H107.438z M75.759,57.671c-0.258,0-0.518,0.05-0.764,0.152
	c-0.748,0.31-1.235,1.038-1.235,1.848v42.007c0,1.104,0.896,2,2,2h14.399c1.104,0,2-0.896,2-2V74.071
	c0-0.53-0.211-1.039-0.586-1.414l-14.399-14.4C76.792,57.874,76.28,57.671,75.759,57.671z M52.72,34.632
	c-0.258,0-0.518,0.05-0.766,0.152c-0.747,0.31-1.234,1.038-1.234,1.848v53.525c0,1.104,0.896,2,2,2H70c1.104,0,2-0.896,2-2V53.91
	c0-0.53-0.211-1.039-0.586-1.414l-17.28-17.278C53.751,34.835,53.239,34.632,52.72,34.632z M29.679,13.279c-1.104,0-2,0.896-2,2
	v63.359c0,1.104,0.896,2,2,2H46.96c1.104,0,2-0.896,2-2V30.871c0-0.53-0.211-1.039-0.586-1.414L32.781,13.865
	c-0.375-0.375-0.884-0.586-1.414-0.586H29.679z M3.761,13.279c-1.105,0-2,0.896-2,2v51.839c0,1.104,0.895,2,2,2h20.158
	c1.105,0,2-0.896,2-2V15.279c0-1.104-0.895-2-2-2H3.761z M3.761,1.76c-1.105,0-2,0.896-2,2v5.76c0,1.104,0.895,2,2,2h28.8
	c0.234,0,0.454,0.092,0.62,0.257L88.745,67.34c0.383,0.383,0.895,0.586,1.414,0.586c0.258,0,0.518-0.05,0.766-0.152
	c0.747-0.31,1.234-1.039,1.234-1.848v-9.135c0-0.53-0.211-1.039-0.586-1.414L38.541,2.346c-0.375-0.375-0.884-0.586-1.414-0.586
	H3.761z M162.156,47.839c-2.69,0-4.879,2.188-4.879,4.879v2.881c0,1.104,0.896,2,2,2h5.761c1.104,0,2-0.896,2-2v-2.881
	C167.038,50.027,164.848,47.839,162.156,47.839z M98.798,47.839c-2.69,0-4.879,2.188-4.879,4.879v2.881c0,1.104,0.896,2,2,2h5.76
	c1.105,0,2-0.896,2-2v-2.881C103.679,50.027,101.489,47.839,98.798,47.839z"/>
</svg>
