<?xml version="1.0" encoding="utf-8"?>
<!-- Generator: Adobe Illustrator 16.0.0, SVG Export Plug-In . SVG Version: 6.00 Build 0)  -->
<!DOCTYPE svg PUBLIC "-//W3C//DTD SVG 1.1//EN" "http://www.w3.org/Graphics/SVG/1.1/DTD/svg11.dtd">
<svg version="1.1" xmlns="http://www.w3.org/2000/svg" xmlns:xlink="http://www.w3.org/1999/xlink" x="0px" y="0px"
	 width="160.041px" height="62.43px" viewBox="0 0 160.041 62.43" enable-background="new 0 0 160.041 62.43" xml:space="preserve">
<g id="圖層_1">
	<g opacity="0.06">
		<defs>
			<rect id="SVGID_1_" x="-2155.256" y="-291.751" opacity="0.06" width="1920" height="2652.936"/>
		</defs>
		<clipPath id="SVGID_2_">
			<use xlink:href="#SVGID_1_"  overflow="visible"/>
		</clipPath>
		<g clip-path="url(#SVGID_2_)">
			
				<image overflow="visible" width="3696" height="3543" id="樓梯背景去背_3_" xlink:href="5307A550.png"  transform="matrix(0.7488 0 0 0.7488 -2579.0698 -291.876)">
			</image>
		</g>
	</g>
	<g>
		<defs>
			<rect id="SVGID_3_" x="-2155.256" y="-292.07" width="1920" height="935"/>
		</defs>
		<clipPath id="SVGID_4_">
			<use xlink:href="#SVGID_3_"  overflow="visible"/>
		</clipPath>
	</g>
	<g>
	</g>
	<g>
		<g>
			<g>
				<g>
					<defs>
						<rect id="SVGID_138_" x="588.744" y="1014.344" width="89" height="615"/>
					</defs>
					<clipPath id="SVGID_6_">
						<use xlink:href="#SVGID_138_"  overflow="visible"/>
					</clipPath>
					<g id="_x33_.tif_2_" clip-path="url(#SVGID_6_)">
						<g id="IMG_x5F_1306.tif_2_">
							
								<image overflow="visible" width="1260" height="1890" id="IMG_x5F_1306_1_" xlink:href="5307A550.jpg"  transform="matrix(1.3738 0 0 1.3738 -1053.1724 -184.6143)">
							</image>
						</g>
					</g>
				</g>
			</g>
		</g>
	</g>
</g>
<g id="footer">
</g>
<g id="header">
	<g>
		<g>
			<g>
				<rect y="36.676" fill="#238F3A" width="5.834" height="5.844"/>
				<rect x="5.834" y="30.837" fill="#238F3A" width="5.826" height="5.839"/>
				<rect x="17.496" y="19.159" fill="#238F3A" width="5.831" height="5.824"/>
				<path fill="#105A99" d="M3.299,13.317h10.17v12.36c0,0,8.852,0,9.395,0c0.55,0,1.685,0.122,1.685,1.852
					c0,1.737,0,5.888,0,14.991h-9.659c0,0,0-9.806,0-10.657c0-0.843-0.387-1.731-1.42-1.731s-9.088,0-9.088,0
					S3.219,30.1,3.219,29.018C3.219,27.958,3.299,13.317,3.299,13.317z"/>
				<path fill="#105A99" d="M13.885,5.646c0,3.127-2.514,5.659-5.645,5.659c-3.111,0-5.643-2.531-5.643-5.659
					C2.598,2.536,5.129,0,8.24,0C11.371,0,13.885,2.536,13.885,5.646z"/>
			</g>
			<g>
				<path fill="#231815" d="M32.099,19.194h3.663v9.661c0,0.908,0.059,1.721,0.158,2.46c0.129,0.771,0.488,1.295,1.138,1.599
					c0.627,0.303,1.744,0.435,3.347,0.435h3.512v3.059h-3.893c-1.936,0-3.272-0.102-4.014-0.316c-1.893-0.537-3.082-1.75-3.604-3.61
					c-0.206-0.743-0.308-1.958-0.308-3.63V19.194z"/>
				<path fill="#231815" d="M53.617,19.091c4.089,0,6.668,1.459,7.764,4.382c0.49,1.304,0.734,2.839,0.734,4.578
					c0,1.758-0.297,3.285-0.9,4.55c-1.22,2.601-3.662,3.906-7.332,3.906c-3.908,0-6.514-1.318-7.805-3.936
					c-0.632-1.273-0.956-2.85-0.956-4.694c0-3.019,0.69-5.231,2.071-6.655C48.578,19.797,50.719,19.091,53.617,19.091z
					 M53.641,21.98c-1.685,0-2.894,0.56-3.623,1.656c-0.559,0.85-0.867,2.24-0.867,4.128c0,2.015,0.37,3.5,1.079,4.434
					c0.717,0.948,1.864,1.422,3.427,1.422c2.945,0,4.427-1.939,4.427-5.813c0-1.987-0.351-3.447-1.05-4.417
					C56.311,22.458,55.182,21.98,53.641,21.98z"/>
				<path fill="#231815" d="M64.7,36.407V19.194h9.737c1.531,0,2.646,0.173,3.328,0.518c0.793,0.402,1.408,1.066,1.815,2.003
					c0.303,0.641,0.442,1.321,0.442,1.979c0,0.906-0.242,1.733-0.707,2.508c-0.467,0.777-1.081,1.305-1.79,1.606
					c1.678,0.76,2.497,2.113,2.497,4.046c0,1.036-0.228,1.936-0.684,2.675c-0.457,0.721-1.078,1.216-1.878,1.505
					c-0.729,0.252-1.8,0.374-3.224,0.374H64.7z M68.369,26.271h4.998c0.842,0,1.453-0.149,1.833-0.421
					c0.523-0.423,0.786-0.981,0.786-1.7c0-0.711-0.23-1.232-0.74-1.542c-0.375-0.253-0.957-0.37-1.818-0.37h-5.059V26.271z
					 M68.369,33.348h4.998c0.842,0,1.453-0.132,1.833-0.413c0.523-0.417,0.786-0.988,0.786-1.704c0-0.708-0.23-1.229-0.74-1.554
					c-0.375-0.242-0.957-0.356-1.818-0.356h-5.059V33.348z"/>
				<path fill="#231815" d="M104.771,42.52l7.133-17.225h4.224l7.106,17.225h-4.295l-1.661-3.998h-6.541l-1.661,3.998H104.771z
					 M114.015,29.427l-2.478,6.038h4.919L114.015,29.427z"/>
				<path fill="#231815" d="M128.564,29.885V42.52h-3.472V25.295h4.677l6.856,12.835V25.295h3.489V42.52h-4.512L128.564,29.885z"/>
				<path fill="#231815" d="M149.939,32.279h8.469V42.52h-7.707c-2.367,0-4.131-0.446-5.295-1.351
					c-1.793-1.406-2.691-3.803-2.691-7.196c0-4.119,1.303-6.768,3.888-7.939c1.099-0.485,2.528-0.739,4.28-0.739h7.525v3.051h-7.107
					c-1.661,0-2.821,0.39-3.527,1.214c-0.682,0.801-1.026,2.155-1.026,4.061c0,2.259,0.396,3.841,1.191,4.743
					c0.651,0.724,1.813,1.088,3.494,1.088h3.312v-4.11h-4.805V32.279z"/>
				<g>
					<rect x="108.961" y="19.091" fill="#231815" width="3.929" height="4.147"/>
					<rect x="121.418" y="19.091" fill="#231815" width="3.92" height="4.147"/>
					<rect x="127.645" y="19.091" fill="#231815" width="3.926" height="4.147"/>
					<polygon fill="#231815" points="152.564,23.238 158.408,23.238 155.131,19.091 152.564,19.091 					"/>
					<rect x="115.186" y="19.091" fill="#231815" width="3.936" height="4.147"/>
					<rect x="96.502" y="19.091" fill="#231815" width="10.166" height="4.147"/>
					<path fill="#231815" d="M89.124,23.439c0.544-0.135,1.585-0.201,3.118-0.201h1.963v-4.147h-3.08
						c-1.414,0-2.455,0.027-3.126,0.093c-1.981,0.207-3.479,0.996-4.53,2.354c-0.941,1.196-1.413,2.677-1.413,4.456
						c0,2.2,0.778,3.955,2.331,5.229c1.168,0.959,3.068,1.436,5.729,1.436h1.789v-4.153h-0.09c-1.371,0-2.364-0.136-2.951-0.408
						c-0.893-0.376-1.334-1.132-1.334-2.27C87.529,24.504,88.072,23.694,89.124,23.439z"/>
					<rect x="133.874" y="19.091" fill="#231815" width="3.935" height="4.147"/>
					<rect x="146.325" y="19.091" fill="#231815" width="3.937" height="4.147"/>
					<rect x="140.107" y="19.091" fill="#231815" width="3.922" height="4.147"/>
				</g>
				<g>
					<rect x="60.765" y="38.363" fill="#231815" width="3.919" height="4.157"/>
					<rect x="79.451" y="38.363" fill="#231815" width="10.151" height="4.157"/>
					<rect x="54.537" y="38.363" fill="#231815" width="3.92" height="4.157"/>
					<rect x="48.304" y="38.363" fill="#231815" width="3.925" height="4.157"/>
					<rect x="42.086" y="38.363" fill="#231815" width="3.918" height="4.157"/>
					<rect x="73.217" y="38.363" fill="#231815" width="3.939" height="4.157"/>
					<rect x="66.994" y="38.363" fill="#231815" width="3.914" height="4.157"/>
					<path fill="#231815" d="M103.304,31.957c-0.631-1.401-1.774-2.389-3.419-2.952c-0.987-0.333-2.403-0.5-4.314-0.5h-1.365v4.153
						h0.256c1.191,0,2.063,0.167,2.607,0.449c0.967,0.526,1.453,1.368,1.453,2.502c0,0.995-0.414,1.731-1.252,2.228
						c-0.57,0.353-1.721,0.525-3.416,0.525h-1.949v4.157h3.028c1.767,0,3.123-0.08,4.005-0.228c1.854-0.319,3.224-1.278,4.141-2.881
						c0.646-1.118,0.962-2.399,0.962-3.816C104.04,34.312,103.801,33.095,103.304,31.957z"/>
					<polygon fill="#231815" points="39.793,38.363 32.099,38.363 35.369,42.52 39.793,42.52 					"/>
				</g>
			</g>
			<g>
				<path fill="#238F3A" d="M109.483,9.334c0,0.272,0.062,0.497,0.185,0.674c0.121,0.177,0.285,0.323,0.494,0.438
					c0.205,0.116,0.445,0.21,0.719,0.284c0.273,0.073,0.558,0.143,0.854,0.207c0.398,0.088,0.79,0.185,1.176,0.291
					c0.385,0.106,0.729,0.252,1.029,0.438c0.301,0.187,0.545,0.429,0.73,0.729c0.186,0.299,0.279,0.684,0.279,1.154
					c0,0.48-0.101,0.893-0.303,1.24c-0.201,0.348-0.48,0.634-0.836,0.857c-0.357,0.224-0.777,0.389-1.264,0.498
					s-1.019,0.162-1.598,0.162c-0.266,0-0.538-0.015-0.818-0.045c-0.277-0.03-0.543-0.07-0.797-0.121
					c-0.254-0.051-0.482-0.108-0.688-0.173c-0.205-0.064-0.365-0.129-0.482-0.193v-1.029c0.184,0.082,0.391,0.159,0.621,0.228
					c0.23,0.069,0.468,0.128,0.715,0.177c0.245,0.047,0.492,0.086,0.744,0.114c0.25,0.027,0.486,0.041,0.705,0.041
					c0.358,0,0.7-0.028,1.025-0.083c0.325-0.055,0.611-0.148,0.855-0.276c0.246-0.129,0.441-0.305,0.584-0.529
					c0.143-0.223,0.215-0.503,0.215-0.839c0-0.276-0.062-0.504-0.188-0.684c-0.126-0.179-0.293-0.329-0.503-0.446
					s-0.452-0.213-0.726-0.287c-0.273-0.073-0.563-0.142-0.864-0.207c-0.399-0.083-0.79-0.176-1.171-0.279s-0.721-0.248-1.021-0.432
					c-0.299-0.185-0.539-0.421-0.721-0.711s-0.271-0.661-0.271-1.113c0-0.47,0.095-0.874,0.285-1.212
					c0.19-0.338,0.449-0.619,0.775-0.84s0.701-0.384,1.127-0.49c0.424-0.106,0.877-0.159,1.359-0.159
					c0.547,0,1.057,0.048,1.529,0.142c0.475,0.094,0.908,0.217,1.303,0.37V8.27c-0.426-0.161-0.863-0.292-1.316-0.394
					c-0.453-0.101-0.938-0.154-1.455-0.159c-0.389,0-0.727,0.038-1.014,0.115c-0.287,0.076-0.523,0.184-0.714,0.324
					c-0.189,0.141-0.33,0.311-0.422,0.512C109.529,8.868,109.483,9.09,109.483,9.334z"/>
				<path fill="#238F3A" d="M120.854,16.147c-0.102,0.036-0.259,0.071-0.469,0.103c-0.21,0.033-0.46,0.051-0.752,0.056
					c-0.383,0-0.717-0.042-0.998-0.128c-0.281-0.084-0.516-0.207-0.703-0.365c-0.187-0.159-0.326-0.351-0.418-0.577
					c-0.093-0.226-0.139-0.477-0.139-0.753v-3.994h-1.404V9.569h1.404V7.772h1.19v1.797h2.181v0.918h-2.181v3.829
					c0,0.152,0.024,0.292,0.073,0.42c0.049,0.129,0.125,0.242,0.229,0.335c0.105,0.094,0.239,0.168,0.403,0.221
					c0.164,0.053,0.361,0.08,0.592,0.08c0.158,0,0.326-0.012,0.502-0.035c0.178-0.022,0.34-0.053,0.488-0.09V16.147z"/>
				<path fill="#238F3A" d="M126.733,15.408h-0.03c-0.098,0.11-0.221,0.219-0.369,0.328c-0.148,0.107-0.319,0.205-0.514,0.291
					c-0.195,0.084-0.408,0.152-0.638,0.203c-0.23,0.051-0.476,0.076-0.737,0.076c-0.353,0-0.678-0.047-0.971-0.142
					c-0.295-0.094-0.548-0.232-0.76-0.415c-0.213-0.181-0.378-0.403-0.495-0.667c-0.118-0.262-0.177-0.559-0.177-0.892
					c0-0.327,0.064-0.619,0.195-0.877c0.131-0.258,0.314-0.477,0.549-0.656c0.236-0.181,0.519-0.318,0.849-0.415
					c0.329-0.096,0.694-0.146,1.095-0.146c0.379,0.004,0.729,0.035,1.051,0.09c0.324,0.056,0.609,0.125,0.859,0.208h0.031v-0.456
					c0-0.18-0.012-0.338-0.038-0.477s-0.069-0.26-0.132-0.366c-0.131-0.221-0.344-0.404-0.636-0.549s-0.687-0.218-1.183-0.218
					c-0.368,0-0.715,0.031-1.04,0.093c-0.325,0.062-0.648,0.149-0.972,0.259V9.783c0.123-0.055,0.268-0.106,0.434-0.155
					c0.167-0.048,0.342-0.09,0.526-0.125c0.184-0.035,0.379-0.062,0.583-0.079c0.205-0.019,0.41-0.028,0.615-0.028
					c0.736,0,1.34,0.118,1.809,0.353c0.468,0.234,0.805,0.545,1.008,0.933c0.077,0.147,0.133,0.31,0.165,0.486
					c0.034,0.178,0.05,0.373,0.05,0.584v4.38h-0.998L126.733,15.408z M126.672,13.252c-0.219-0.056-0.479-0.108-0.779-0.159
					c-0.301-0.051-0.632-0.078-0.994-0.083c-0.504,0-0.898,0.097-1.184,0.29c-0.286,0.194-0.428,0.491-0.428,0.891
					c0,0.203,0.035,0.381,0.105,0.533c0.072,0.152,0.17,0.277,0.295,0.376c0.125,0.099,0.273,0.173,0.443,0.221
					c0.17,0.049,0.354,0.073,0.547,0.073c0.254,0,0.491-0.033,0.711-0.1c0.217-0.067,0.413-0.146,0.584-0.238
					c0.17-0.092,0.316-0.185,0.436-0.277c0.119-0.092,0.209-0.163,0.264-0.214V13.252z"/>
				<path fill="#238F3A" d="M130.211,8.042V6.847h1.189v1.195H130.211z M130.242,16.133V9.569h1.189v6.563H130.242z"/>
				<path fill="#238F3A" d="M137.812,10.44h-0.092c-0.282,0-0.558,0.022-0.829,0.069c-0.271,0.045-0.525,0.116-0.764,0.211
					c-0.238,0.094-0.453,0.21-0.645,0.348c-0.193,0.139-0.353,0.302-0.48,0.491v4.574h-1.19V9.569h0.921l0.232,1.043h0.021
					c0.117-0.171,0.262-0.329,0.434-0.477c0.172-0.147,0.365-0.277,0.58-0.387c0.215-0.11,0.449-0.197,0.706-0.259
					c0.256-0.063,0.524-0.094,0.806-0.094c0.052,0,0.104,0.001,0.158,0.004c0.053,0.002,0.101,0.006,0.142,0.011V10.44z"/>
				<path fill="#238F3A" d="M139.156,16.133V6.128h1.189v10.004H139.156z"/>
				<path fill="#238F3A" d="M142.771,8.042V6.847h1.19v1.195H142.771z M142.803,16.133V9.569h1.189v6.563H142.803z"/>
				<path fill="#238F3A" d="M150.602,6.971c-0.153-0.028-0.322-0.049-0.506-0.062c-0.186-0.015-0.344-0.021-0.477-0.021
					c-0.266,0-0.506,0.03-0.718,0.09c-0.212,0.061-0.39,0.156-0.533,0.287c-0.144,0.131-0.254,0.304-0.331,0.518
					c-0.076,0.215-0.115,0.474-0.115,0.777v1.009h2.174v0.918h-2.174v5.645h-1.189v-5.645h-1.282V9.569h1.282V8.567
					c0-0.474,0.07-0.874,0.211-1.198c0.141-0.325,0.334-0.592,0.58-0.802c0.245-0.209,0.534-0.364,0.866-0.463
					c0.334-0.099,0.692-0.148,1.075-0.148c0.246,0,0.473,0.011,0.68,0.035c0.207,0.023,0.359,0.048,0.457,0.076V6.971z"/>
				<path fill="#238F3A" d="M155.217,16.147c-0.103,0.036-0.26,0.071-0.469,0.103c-0.211,0.033-0.461,0.051-0.753,0.056
					c-0.384,0-0.717-0.042-0.998-0.128c-0.282-0.084-0.517-0.207-0.702-0.365c-0.188-0.159-0.326-0.351-0.418-0.577
					c-0.094-0.226-0.139-0.477-0.139-0.753v-3.994h-1.405V9.569h1.405V7.772h1.189v1.797h2.18v0.918h-2.18v3.829
					c0,0.152,0.025,0.292,0.073,0.42c0.048,0.129,0.124,0.242,0.23,0.335c0.104,0.094,0.239,0.168,0.402,0.221
					c0.165,0.053,0.361,0.08,0.592,0.08c0.158,0,0.326-0.012,0.503-0.035c0.176-0.022,0.338-0.053,0.488-0.09V16.147z"/>
			</g>
		</g>
		<g>
			<path fill="#231815" d="M3.743,50.783l1.262,0.707c0.056,0.101,0.085,0.158,0.085,0.168c0,0.101-0.09,0.152-0.27,0.152
				c-0.236,0-0.393,0.062-0.472,0.186c-0.539,0.595-1.056,1.139-1.548,1.632c0.381,0.281,0.763,0.6,1.145,0.959
				c0.066-0.089,0.129-0.168,0.185-0.235c0.65-0.774,1.195-1.47,1.633-2.088c0.718,0.618,1.077,0.954,1.077,1.01
				c0,0.067-0.062,0.101-0.186,0.101c-0.27,0-0.438,0.04-0.505,0.118c-0.908,1.133-1.817,2.182-2.727,3.147
				c0.808-0.112,1.761-0.247,2.86-0.404c-0.167-0.336-0.363-0.673-0.588-1.01c0-0.055,0.247-0.212,0.74-0.471
				c0.415,0.651,0.752,1.251,1.01,1.801c0.236,0.482,0.438,1.004,0.606,1.565c0,0.034-0.314,0.124-0.942,0.27
				c-0.067-0.359-0.214-0.808-0.438-1.347c-0.012-0.033-0.023-0.067-0.034-0.101L5.224,57.33v4.848c0,0.123-0.09,0.185-0.269,0.185
				H4.281c-0.135,0-0.202-0.062-0.202-0.185v-4.545l-2.827,0.758c-0.281,0.269-0.438,0.403-0.473,0.403
				c-0.044,0-0.156-0.493-0.336-1.481c0-0.09,0.482-0.229,1.448-0.42c0.595-0.629,1.104-1.196,1.531-1.701
				c-0.583-0.426-1.038-0.729-1.363-0.908c-0.482-0.281-0.999-0.522-1.549-0.724c0-0.112,0.225-0.399,0.673-0.859
				c0.035-0.067,0.079-0.101,0.136-0.101c0.224,0.134,0.442,0.275,0.656,0.42c0.303-0.325,0.572-0.64,0.808-0.942
				C3.231,51.495,3.552,51.063,3.743,50.783z M2.531,58.609c0.808,0.168,1.212,0.297,1.212,0.387s-0.046,0.157-0.136,0.202
				c-0.189,0.067-0.297,0.141-0.318,0.219c-0.169,0.707-0.389,1.291-0.657,1.75c-0.157,0.258-0.349,0.516-0.572,0.774
				c-0.079,0.056-0.146,0.084-0.202,0.084c-0.359-0.112-0.668-0.191-0.926-0.235c-0.101-0.022-0.152-0.079-0.152-0.168
				c0.338-0.337,0.635-0.713,0.893-1.128c0.247-0.404,0.438-0.993,0.572-1.768C2.244,58.649,2.34,58.609,2.531,58.609z
				 M1.791,47.029h13.396c0.18,0,0.271,0.062,0.271,0.185v3.366c0,0.135-0.091,0.203-0.271,0.203H1.791
				c-0.18,0-0.27-0.068-0.27-0.203v-3.366C1.521,47.091,1.611,47.029,1.791,47.029z M5.897,49.772v-1.75H2.732v1.75H5.897z
				 M6.503,58.458c0.079,0,0.124,0.028,0.135,0.084c0.394,0.853,0.751,1.767,1.077,2.744c0,0.157-0.033,0.241-0.102,0.252
				c-0.358,0.235-0.639,0.354-0.84,0.354c-0.338-1.178-0.652-2.166-0.943-2.963C5.83,58.828,6.055,58.671,6.503,58.458z
				 M9.601,50.85c0.808,0.426,1.212,0.673,1.212,0.74c0,0.101-0.033,0.152-0.102,0.152c-0.146,0.022-0.246,0.084-0.303,0.185
				c-0.135,0.302-0.275,0.572-0.422,0.808h2.239c0.136-0.134,0.241-0.247,0.319-0.336c0.258-0.337,0.488-0.747,0.691-1.229
				c0.033-0.078,0.078-0.118,0.134-0.118c0.897,0.371,1.347,0.572,1.347,0.605c0,0.057-0.066,0.101-0.202,0.135
				c-0.179,0.022-0.313,0.096-0.403,0.219c-0.146,0.247-0.314,0.488-0.506,0.724h2.256c0.09,0,0.135,0.067,0.135,0.202v0.556
				c0,0.168-0.045,0.252-0.135,0.252h-2.693v1.683h2.222c0.09,0,0.136,0.073,0.136,0.219v0.521c0,0.19-0.046,0.287-0.136,0.287
				h-2.222v1.733h2.222c0.09,0,0.136,0.068,0.136,0.203v0.538c0,0.18-0.046,0.27-0.136,0.27h-2.222v1.683h2.828
				c0.09,0,0.135,0.067,0.135,0.202v0.539c0,0.179-0.045,0.269-0.135,0.269H9.803v0.286c0,0.123-0.091,0.185-0.27,0.185H8.859
				c-0.135,0-0.201-0.062-0.201-0.185v-7.659c-0.236,0.236-0.529,0.516-0.876,0.842c-0.112,0-0.214-0.045-0.303-0.135
				c-0.146-0.134-0.304-0.274-0.472-0.42c-0.066-0.057-0.101-0.118-0.101-0.186c0.313-0.291,0.628-0.594,0.942-0.908
				c0.404-0.415,0.763-0.876,1.077-1.381c0.258-0.459,0.46-0.908,0.606-1.346C9.556,50.894,9.578,50.85,9.601,50.85z M10.072,49.772
				v-1.75h-3.03v1.75H10.072z M12.023,55.428v-1.683H9.803v1.683H12.023z M9.803,58.188h2.221v-1.733H9.803V58.188z M9.803,60.881
				h2.221v-1.683H9.803V60.881z M14.246,49.772v-1.75h-3.031v1.75H14.246z"/>
			<path fill="#231815" d="M21.57,48.897h5.941c0.279-0.618,0.51-1.273,0.689-1.969c0.045-0.123,0.146-0.185,0.304-0.185
				c0.987,0.348,1.481,0.572,1.481,0.673c0,0.09-0.068,0.157-0.203,0.202c-0.225,0-0.393,0.09-0.504,0.27
				c-0.136,0.348-0.275,0.685-0.422,1.01h7.658c0.135,0,0.203,0.095,0.203,0.286v0.522c0,0.19-0.068,0.286-0.203,0.286h-8.197
				c-0.201,0.381-0.426,0.751-0.672,1.111c-0.506,0.763-1.044,1.441-1.616,2.037h3.147v-1.953c0-0.135,0.09-0.202,0.27-0.202
				c0.854,0,1.279,0.067,1.279,0.202c0,0.157-0.057,0.247-0.168,0.27c-0.113,0.01-0.169,0.124-0.169,0.336v1.347h4.376
				c0.225,0,0.337,0.09,0.337,0.269v6.901c0,0.292-0.259,0.516-0.774,0.673c-0.471,0.113-1.088,0.19-1.852,0.235
				c-0.123,0-0.196-0.067-0.219-0.202c-0.022-0.247-0.151-0.601-0.387-1.06c0-0.045,0.051-0.067,0.15-0.067
				c0.898,0,1.426-0.028,1.584-0.085c0.189-0.056,0.285-0.152,0.285-0.286v-5.285H30.39v8.012c0,0.123-0.084,0.185-0.253,0.185
				h-0.689c-0.18,0-0.27-0.063-0.27-0.185v-8.012h-3.35v6.648c0,0.134-0.095,0.202-0.286,0.202h-0.673
				c-0.18,0-0.27-0.068-0.27-0.202v-6.463c-0.729,0.55-1.549,1.066-2.457,1.549c-0.124,0.044-0.248,0.067-0.371,0.067
				s-0.229-0.062-0.319-0.185c-0.124-0.18-0.259-0.337-0.403-0.472c-0.102-0.044-0.152-0.118-0.152-0.219
				c0-0.045,0.062-0.084,0.186-0.118c0.516-0.168,1.025-0.409,1.531-0.723c0.875-0.482,1.649-1.061,2.322-1.734
				c0.764-0.684,1.432-1.548,2.004-2.591H21.57c-0.135,0-0.203-0.096-0.203-0.286v-0.522C21.367,48.993,21.436,48.897,21.57,48.897z
				"/>
			<path fill="#231815" d="M42.09,55.159h2.895v-1.481c0-0.124,0.09-0.185,0.271-0.185c0.853,0,1.278,0.062,1.278,0.185
				c0,0.157-0.056,0.241-0.168,0.253c-0.112,0.022-0.168,0.146-0.168,0.37v0.858h2.424c0.135,0,0.201,0.09,0.201,0.27v0.539
				c0,0.178-0.066,0.269-0.201,0.269H46.5c0.235,0.348,0.448,0.634,0.64,0.858c0.313,0.382,0.853,0.819,1.616,1.313
				c0.09,0.034,0.134,0.079,0.134,0.135c0,0.033-0.044,0.084-0.134,0.151c-0.135,0.168-0.314,0.359-0.539,0.572
				c-0.079,0.09-0.146,0.135-0.202,0.135s-0.134-0.022-0.235-0.067c-0.506-0.404-0.954-0.853-1.346-1.347
				c-0.08-0.101-0.158-0.213-0.236-0.336v4.528c0,0.123-0.09,0.185-0.27,0.185h-0.673c-0.181,0-0.271-0.062-0.271-0.185V58.29
				c-0.022,0.034-0.044,0.067-0.066,0.101c-0.371,0.527-0.775,1.021-1.213,1.48c-0.494,0.505-0.986,0.932-1.48,1.28
				c-0.123,0-0.225-0.034-0.303-0.102c-0.225-0.213-0.443-0.41-0.657-0.589c-0.033-0.078-0.05-0.141-0.05-0.185
				c0.471-0.292,0.859-0.566,1.162-0.825c0.438-0.359,0.896-0.847,1.379-1.464c0.28-0.359,0.656-0.943,1.129-1.75H42.09
				c-0.135,0-0.201-0.09-0.201-0.269v-0.539C41.889,55.249,41.955,55.159,42.09,55.159z M42.494,48.089h6.059V46.81
				c0-0.134,0.09-0.201,0.27-0.201c0.853,0,1.279,0.067,1.279,0.201c0,0.157-0.057,0.248-0.168,0.269
				c-0.112,0.012-0.169,0.124-0.169,0.337v0.673h6.128c0.134,0,0.201,0.09,0.201,0.27v0.539c0,0.191-0.067,0.286-0.201,0.286H50.59
				c0.324,0.326,0.65,0.628,0.977,0.909c0.617,0.46,1.229,0.831,1.834,1.111c0.842,0.448,1.846,0.819,3.014,1.111
				c0.145,0.022,0.219,0.05,0.219,0.084c0,0.078-0.028,0.145-0.084,0.202c-0.258,0.213-0.488,0.415-0.691,0.606
				c-0.055,0.09-0.111,0.134-0.167,0.134c-0.909-0.235-1.655-0.505-2.239-0.808c-0.842-0.359-1.605-0.808-2.289-1.347
				c-0.426-0.314-0.893-0.712-1.397-1.195v3.635c0,0.124-0.09,0.185-0.269,0.185h-0.674c-0.18,0-0.27-0.062-0.27-0.185V50.16
				c-0.393,0.348-0.746,0.634-1.061,0.858c-0.628,0.471-1.301,0.903-2.02,1.296c-0.842,0.438-1.677,0.802-2.508,1.093
				c-0.135,0-0.241-0.039-0.32-0.117c-0.234-0.225-0.465-0.438-0.689-0.64c-0.044-0.079-0.066-0.141-0.066-0.185
				c0.785-0.237,1.424-0.472,1.918-0.708c0.74-0.302,1.51-0.718,2.306-1.246c0.427-0.28,0.987-0.723,1.684-1.329h-5.302
				c-0.135,0-0.202-0.095-0.202-0.286v-0.539C42.292,48.179,42.359,48.089,42.494,48.089z M49.899,55.159h2.626v-1.481
				c0-0.124,0.09-0.185,0.27-0.185c0.853,0,1.279,0.062,1.279,0.185c0,0.157-0.057,0.241-0.169,0.253
				c-0.112,0.022-0.167,0.146-0.167,0.37v0.858h2.692c0.134,0,0.202,0.09,0.202,0.27v0.539c0,0.178-0.068,0.269-0.202,0.269h-2.475
				c0.348,0.663,0.668,1.184,0.96,1.565c0.348,0.517,0.774,0.982,1.279,1.397c0.414,0.36,0.83,0.634,1.246,0.825
				c0,0.067-0.052,0.124-0.152,0.168c-0.225,0.213-0.42,0.427-0.59,0.64c-0.056,0.079-0.101,0.118-0.135,0.118
				c-0.65-0.426-1.178-0.869-1.582-1.329c-0.471-0.505-0.869-1.044-1.194-1.616c-0.022-0.022-0.04-0.05-0.05-0.084v4.259
				c0,0.123-0.091,0.185-0.27,0.185h-0.674c-0.18,0-0.27-0.062-0.27-0.185v-4.276c-0.112,0.158-0.213,0.304-0.303,0.438
				c-0.393,0.551-0.813,1.055-1.262,1.516c-0.517,0.516-1.027,0.948-1.533,1.296c-0.123,0-0.225-0.034-0.303-0.102
				c-0.225-0.213-0.442-0.41-0.656-0.589c-0.033-0.078-0.051-0.141-0.051-0.185c0.494-0.292,0.898-0.566,1.213-0.825
				c0.459-0.37,0.937-0.864,1.43-1.481c0.27-0.359,0.641-0.937,1.111-1.734h-2.272c-0.135,0-0.202-0.09-0.202-0.269v-0.539
				C49.697,55.249,49.765,55.159,49.899,55.159z"/>
			<path fill="#231815" d="M62.609,50.446h2.088v-3.703c0-0.09,0.066-0.134,0.202-0.134c0.808,0,1.212,0.067,1.212,0.201
				c0,0.146-0.045,0.225-0.135,0.235c-0.09,0.012-0.135,0.113-0.135,0.304v3.097h1.684c0.09,0,0.134,0.073,0.134,0.219v0.522
				c0,0.19-0.044,0.286-0.134,0.286h-1.649c0.28,0.673,0.526,1.212,0.74,1.616c0.292,0.55,0.78,1.19,1.464,1.919
				c0.079,0.045,0.117,0.096,0.117,0.151c0,0.033-0.038,0.079-0.117,0.135c-0.111,0.146-0.264,0.309-0.453,0.488
				c-0.058,0.078-0.113,0.118-0.17,0.118c-0.056,0-0.129-0.034-0.219-0.102c-0.471-0.539-0.881-1.15-1.229-1.834
				c-0.067-0.101-0.123-0.208-0.168-0.32v8.466c0,0.123-0.09,0.185-0.27,0.185h-0.673c-0.136,0-0.202-0.062-0.202-0.185v-7.07
				c-0.202,0.494-0.404,0.954-0.606,1.38c-0.325,0.696-0.706,1.353-1.144,1.97c-0.125,0-0.214-0.028-0.27-0.084
				c-0.248-0.123-0.488-0.241-0.725-0.354c-0.1,0-0.151-0.028-0.151-0.084c0.583-0.785,1.055-1.548,1.414-2.289
				c0.348-0.707,0.623-1.391,0.825-2.054c0.156-0.438,0.348-1.122,0.572-2.053h-2.004c-0.089,0-0.134-0.096-0.134-0.286v-0.522
				C62.476,50.519,62.521,50.446,62.609,50.446z M69.073,47.77h3.097v-1.093c0-0.09,0.068-0.136,0.202-0.136
				c0.809,0,1.212,0.068,1.212,0.203s-0.045,0.208-0.135,0.219c-0.089,0.022-0.135,0.129-0.135,0.32v0.488h3.03
				c0.179,0,0.27,0.062,0.27,0.186v1.616h1.145c0.09,0,0.135,0.067,0.135,0.201v0.539c0,0.135-0.045,0.202-0.135,0.202h-1.145v1.633
				c0,0.123-0.091,0.185-0.27,0.185h-3.03v0.943h3.232c0.18,0,0.27,0.073,0.27,0.219v2.475c0,0.134-0.09,0.201-0.27,0.201h-3.535
				c-0.258,0.359-0.516,0.701-0.773,1.026h5.521c0.09,0,0.135,0.062,0.135,0.186v0.556c0,0.124-0.045,0.185-0.135,0.185h-1.835
				c-0.135,0.314-0.286,0.595-0.455,0.842c-0.258,0.437-0.555,0.808-0.892,1.111c-0.056,0.045-0.112,0.095-0.168,0.151
				c1.088,0.46,2.025,0.886,2.811,1.279c0,0.011-0.028,0.05-0.084,0.118c-0.337,0.448-0.511,0.672-0.521,0.672
				c-1.011-0.504-2.071-0.982-3.181-1.431c-0.023,0.012-0.046,0.023-0.068,0.035c-0.438,0.235-0.971,0.465-1.6,0.689
				c-0.773,0.258-1.693,0.493-2.759,0.707c-0.113,0-0.181-0.033-0.202-0.101c-0.135-0.202-0.293-0.454-0.472-0.757
				c-0.091-0.079-0.136-0.151-0.136-0.219c0.215,0,0.495-0.033,0.842-0.101c0.461-0.067,0.955-0.157,1.482-0.269
				c0.594-0.168,1.115-0.336,1.564-0.505c-0.764-0.281-1.43-0.494-2.002-0.64c-0.203,0.236-0.404,0.449-0.606,0.64
				c-0.673-0.326-1.011-0.528-1.011-0.606c0.494-0.392,1.045-0.931,1.65-1.616h-2.458c-0.09,0-0.134-0.061-0.134-0.185V57.38
				c0-0.124,0.044-0.186,0.134-0.186h3.249c0.258-0.336,0.504-0.678,0.74-1.026h-2.76c-0.191,0-0.286-0.067-0.286-0.201v-2.475
				c0-0.146,0.095-0.219,0.286-0.219h3.281v-0.943h-3.097c-0.18,0-0.269-0.062-0.269-0.185v-1.633h-1.01
				c-0.091,0-0.136-0.067-0.136-0.202v-0.539c0-0.134,0.045-0.201,0.136-0.201h1.01v-1.616C68.805,47.832,68.894,47.77,69.073,47.77
				z M72.17,55.226v-0.993h-2.424v0.993H72.17z M69.949,49.571h2.221v-0.876h-2.221V49.571z M72.17,51.405v-0.892h-2.221v0.892
				H72.17z M73.248,59.753c0.045-0.022,0.084-0.044,0.117-0.067c0.337-0.236,0.629-0.516,0.875-0.842
				c0.169-0.191,0.337-0.432,0.506-0.724H71.48c-0.236,0.292-0.471,0.567-0.707,0.825C71.705,59.238,72.529,59.507,73.248,59.753z
				 M73.314,48.695v0.876h2.154v-0.876H73.314z M75.469,51.405v-0.892h-2.154v0.892H75.469z M75.672,55.226v-0.993h-2.357v0.993
				H75.672z"/>
			<path fill="#231815" d="M83.113,50.11h2.07v-3.165c0-0.135,0.09-0.202,0.27-0.202c0.853,0,1.279,0.067,1.279,0.202
				c0,0.157-0.057,0.247-0.168,0.269c-0.112,0.012-0.169,0.125-0.169,0.337v2.559h1.953c0.134,0,0.202,0.09,0.202,0.269v0.539
				c0,0.18-0.068,0.27-0.202,0.27H86.58c0.314,0.909,0.578,1.554,0.792,1.935c0.304,0.606,0.673,1.173,1.11,1.7
				c0,0.135-0.039,0.225-0.117,0.27c-0.168,0.146-0.398,0.354-0.689,0.623c-0.023,0-0.045-0.022-0.068-0.067
				c-0.246-0.303-0.477-0.69-0.689-1.162c-0.168-0.37-0.343-0.808-0.522-1.313v8.938c0,0.123-0.09,0.185-0.269,0.185h-0.674
				c-0.18,0-0.27-0.062-0.27-0.185v-7.844c-0.18,0.404-0.359,0.786-0.539,1.145c-0.313,0.606-0.673,1.178-1.076,1.716
				c-0.123,0-0.213-0.039-0.27-0.117c-0.247-0.112-0.488-0.225-0.725-0.336c-0.102,0-0.15-0.034-0.15-0.101
				c0.549-0.662,0.987-1.307,1.313-1.936c0.325-0.606,0.583-1.189,0.774-1.75c0.146-0.371,0.313-0.937,0.505-1.7h-1.902
				c-0.146,0-0.219-0.09-0.219-0.27v-0.539C82.895,50.2,82.967,50.11,83.113,50.11z M96.226,46.676l1.027,0.437
				c0.168,0.067,0.252,0.146,0.252,0.236c0,0.09-0.067,0.151-0.202,0.185c-0.158,0-0.258,0.062-0.303,0.185
				c-0.314,0.651-0.629,1.2-0.943,1.649h1.516c0.18,0,0.269,0.068,0.269,0.203v3.568c0,0.179-0.089,0.269-0.269,0.269h-3.434v1.953
				h3.973c0.135,0,0.201,0.096,0.201,0.286c-0.012,1.336-0.084,2.306-0.219,2.912c-0.123,0.707-0.297,1.229-0.521,1.565
				c-0.225,0.381-0.809,0.572-1.75,0.572c-0.472,0-0.714-0.111-0.725-0.336c-0.033-0.247-0.129-0.545-0.285-0.893V59.35
				c0.37,0.033,0.706,0.05,1.01,0.05c0.438,0,0.717-0.117,0.841-0.353c0.146-0.18,0.264-0.539,0.353-1.077
				c0.079-0.337,0.137-0.842,0.17-1.515h-3.047v5.655c0,0.123-0.084,0.185-0.252,0.185h-0.69c-0.181,0-0.27-0.062-0.27-0.185v-4.528
				c-0.28,0.415-0.538,0.774-0.774,1.077c-0.438,0.551-0.914,1.062-1.431,1.532c-0.584,0.517-1.173,0.954-1.768,1.313
				c-0.134,0-0.235-0.04-0.303-0.118c-0.213-0.213-0.433-0.409-0.657-0.589c-0.033-0.078-0.049-0.14-0.049-0.186
				c0.561-0.292,1.021-0.578,1.379-0.858c0.527-0.347,1.072-0.847,1.633-1.497c0.325-0.371,0.769-0.971,1.33-1.801h-2.205
				c-0.067,0.258-0.129,0.516-0.185,0.774c-0.022,0.101-0.046,0.151-0.068,0.151c-0.089,0-0.185-0.011-0.286-0.034
				c-0.247-0.044-0.511-0.101-0.791-0.168c-0.09-0.022-0.134-0.068-0.134-0.135c0.168-0.549,0.28-0.959,0.336-1.228
				c0.124-0.494,0.235-1.044,0.337-1.65c0.102-0.628,0.168-1.284,0.202-1.969c0-0.134,0.044-0.202,0.134-0.202
				c0.461,0.202,0.764,0.336,0.91,0.404h2.39v-2.021h-3.501c-0.09,0-0.135-0.09-0.135-0.269v-0.539c0-0.135,0.045-0.203,0.135-0.203
				h5.049c0.394-0.426,0.695-0.802,0.909-1.127c0.304-0.46,0.532-0.915,0.69-1.363C96.119,46.743,96.169,46.676,96.226,46.676z
				 M91.042,46.743c0.112,0,0.179,0.022,0.202,0.067c0.549,0.562,1.043,1.167,1.48,1.818c0,0.168-0.034,0.258-0.102,0.27
				c-0.414,0.28-0.74,0.421-0.976,0.421c-0.472-0.819-0.921-1.498-1.347-2.037C90.301,47.169,90.548,46.99,91.042,46.743z
				 M92.927,55.361v-1.953h-2.374c-0.056,0.686-0.135,1.308-0.234,1.869c-0.012,0.022-0.018,0.051-0.018,0.084H92.927z
				 M94.139,50.378v2.021h2.49v-2.021H94.139z"/>
			<path fill="#231815" d="M111.325,47.77c-0.639,0.381-1.425,0.707-2.356,0.977v3.215c0,0.404-0.011,0.796-0.033,1.178h4.545v-6.11
				c0-0.146,0.089-0.219,0.27-0.219c0.896,0,1.346,0.073,1.346,0.219c0,0.146-0.056,0.229-0.168,0.252
				c-0.112,0.011-0.168,0.124-0.168,0.336v5.521h3.568c0.135,0,0.202,0.09,0.202,0.269v0.673c0,0.191-0.067,0.287-0.202,0.287
				h-3.568v7.743c0,0.123-0.113,0.185-0.336,0.185h-0.674c-0.181,0-0.27-0.062-0.27-0.185v-7.743h-4.629
				c-0.078,0.741-0.196,1.453-0.354,2.137c-0.303,1.201-0.875,2.267-1.717,3.198c-0.527,0.617-1.257,1.235-2.188,1.851
				c-0.135,0-0.248-0.039-0.337-0.117c-0.169-0.236-0.331-0.444-0.488-0.623c-0.079-0.09-0.118-0.18-0.118-0.27
				c1.83-1.2,3.019-2.631,3.568-4.292c0.146-0.595,0.258-1.223,0.337-1.885h-4.107c-0.135,0-0.202-0.095-0.202-0.287v-0.673
				c0-0.179,0.067-0.269,0.202-0.269h4.225c0.012-0.314,0.017-0.634,0.017-0.96v-3.147c-1.065,0.225-2.165,0.336-3.299,0.336
				c-0.145,0-0.241-0.073-0.285-0.218c-0.135-0.27-0.264-0.483-0.389-0.64c0-0.191,0.068-0.287,0.203-0.287
				c1.728,0,2.956-0.083,3.687-0.252c1.188-0.191,2.216-0.612,3.08-1.262c0.089-0.068,0.19-0.101,0.303-0.101
				c0.057,0,0.135,0.044,0.235,0.134c0.482,0.539,0.724,0.83,0.724,0.875c0,0.146-0.05,0.219-0.151,0.219L111.325,47.77z"/>
			<path fill="#231815" d="M123.684,47.282h4.561c0.292,0,0.482,0.039,0.572,0.118c0.247,0.258,0.371,0.465,0.371,0.623
				l-2.072,4.377c-0.01,0.078-0.016,0.145-0.016,0.202c0,0.044,0.022,0.09,0.067,0.134c0.595,0.707,1.032,1.397,1.313,2.07
				c0.247,0.662,0.37,1.296,0.37,1.902c0,0.942-0.201,1.632-0.605,2.07c-0.471,0.55-1.234,0.825-2.289,0.825
				c-0.505,0-0.77-0.101-0.791-0.303c-0.033-0.259-0.107-0.539-0.219-0.842c0-0.18,0.022-0.27,0.066-0.27l0.943,0.135
				c0.717,0,1.172-0.146,1.363-0.438c0.168-0.303,0.252-0.741,0.252-1.313c0-0.516-0.141-1.083-0.42-1.7
				c-0.293-0.707-0.747-1.369-1.363-1.986c-0.068-0.057-0.102-0.107-0.102-0.152c0-0.044,0.022-0.129,0.066-0.252l2.004-4.191
				h-3.147V62.11c0,0.123-0.09,0.185-0.269,0.185h-0.656c-0.191,0-0.287-0.062-0.287-0.185V47.483
				C123.396,47.349,123.492,47.282,123.684,47.282z M129.725,55.428h4.242v-1.549c0-0.134,0.09-0.202,0.27-0.202
				c0.854,0,1.279,0.067,1.279,0.202c0,0.157-0.057,0.242-0.169,0.253c-0.112,0.011-0.168,0.129-0.168,0.353v0.943h2.962
				c0.135,0,0.202,0.095,0.202,0.286v0.521c0,0.19-0.067,0.286-0.202,0.286h-2.962v2.828h3.703c0.134,0,0.202,0.084,0.202,0.252
				v0.539c0,0.179-0.068,0.269-0.202,0.269h-3.703v1.768c0,0.123-0.089,0.185-0.27,0.185h-0.673c-0.18,0-0.27-0.062-0.27-0.185
				V60.41h-5.184c-0.135,0-0.203-0.09-0.203-0.269v-0.539c0-0.168,0.068-0.252,0.203-0.252h1.816v-2.828h-0.875
				c-0.134,0-0.201-0.096-0.201-0.286v-0.521C129.523,55.523,129.591,55.428,129.725,55.428z M132.553,46.423l1.263,0.572
				c0.101,0.09,0.151,0.163,0.151,0.218c0,0.135-0.111,0.202-0.336,0.202c-0.158,0-0.275,0.05-0.354,0.151
				c-0.068,0.124-0.135,0.236-0.203,0.336h4.395c0.111,0,0.201,0.034,0.269,0.101c0.224,0.303,0.337,0.494,0.337,0.573
				c-0.359,0.785-0.703,1.397-1.027,1.834c-0.382,0.55-0.77,1.005-1.162,1.364c-0.056,0.044-0.105,0.084-0.15,0.117
				c0.235,0.135,0.504,0.275,0.809,0.421c0.481,0.19,1.037,0.392,1.666,0.606c0.291,0.056,0.639,0.129,1.043,0.219
				c0.112,0,0.168,0.022,0.168,0.067c0,0.101-0.056,0.196-0.168,0.286c-0.18,0.224-0.359,0.438-0.539,0.64
				c-0.078,0.112-0.18,0.168-0.303,0.168c-0.965-0.258-1.807-0.572-2.525-0.943c-0.504-0.236-0.926-0.465-1.262-0.69
				c-0.09,0.067-0.186,0.124-0.286,0.168c-0.673,0.371-1.425,0.686-2.256,0.943c-0.55,0.179-1.267,0.354-2.153,0.521
				c-0.146,0-0.253-0.056-0.32-0.168c-0.123-0.18-0.252-0.364-0.387-0.556c-0.068-0.056-0.102-0.112-0.102-0.169
				c0-0.044,0.039-0.072,0.118-0.084c0.55-0.089,1.093-0.195,1.632-0.319c1.011-0.247,1.841-0.55,2.491-0.909
				c0.101-0.056,0.191-0.106,0.271-0.151c-0.292-0.258-0.563-0.532-0.809-0.825c-0.348-0.415-0.713-0.919-1.094-1.514
				c-0.057,0.067-0.124,0.134-0.202,0.202c-0.314,0.314-0.634,0.601-0.959,0.858c-0.326,0.236-0.585,0.41-0.774,0.522
				c-0.102,0-0.186-0.05-0.253-0.151c-0.146-0.236-0.313-0.443-0.505-0.623c-0.123-0.067-0.186-0.124-0.186-0.168
				c0-0.023,0.018-0.04,0.051-0.051c0.448-0.224,0.813-0.448,1.094-0.673c0.416-0.303,0.825-0.684,1.229-1.145
				c0.271-0.292,0.489-0.578,0.657-0.858c0.19-0.292,0.37-0.623,0.538-0.993C132.475,46.457,132.52,46.423,132.553,46.423z
				 M133.967,59.35v-2.828h-2.154v2.828H133.967z M132.671,48.964c0.348,0.55,0.662,0.983,0.942,1.296
				c0.314,0.348,0.686,0.673,1.111,0.976c0.111-0.09,0.219-0.179,0.319-0.269c0.438-0.381,0.803-0.819,1.094-1.313
				c0.135-0.179,0.265-0.41,0.388-0.69H132.671z"/>
			<path fill="#231815" d="M144.573,49.706h2.07v-2.962c0-0.134,0.09-0.203,0.27-0.203c0.852,0,1.278,0.068,1.278,0.203
				c0,0.157-0.056,0.241-0.167,0.252c-0.112,0.022-0.169,0.14-0.169,0.354v2.356h1.885c0.135,0,0.202,0.095,0.202,0.286v0.521
				c0,0.18-0.067,0.27-0.202,0.27h-1.885V50.9c0.28,0.785,0.533,1.409,0.758,1.868c0.303,0.639,0.813,1.375,1.531,2.205
				c0.09,0.057,0.135,0.118,0.135,0.186c0,0.045-0.045,0.096-0.135,0.151c-0.112,0.157-0.275,0.331-0.488,0.522
				c-0.078,0.089-0.141,0.135-0.185,0.135c-0.057,0-0.135-0.04-0.235-0.118c-0.494-0.617-0.933-1.319-1.313-2.104
				c-0.022-0.056-0.045-0.112-0.067-0.168v8.601c0,0.123-0.091,0.185-0.27,0.185h-0.673c-0.18,0-0.27-0.062-0.27-0.185v-7.709
				c-0.18,0.472-0.364,0.915-0.556,1.33c-0.326,0.707-0.701,1.375-1.128,2.003c-0.123,0-0.212-0.039-0.269-0.117
				c-0.247-0.112-0.488-0.225-0.725-0.337c-0.101,0-0.151-0.034-0.151-0.101c0.573-0.786,1.026-1.549,1.364-2.29
				c0.359-0.718,0.639-1.408,0.842-2.07c0.145-0.449,0.319-1.15,0.521-2.104h-1.97c-0.146,0-0.22-0.09-0.22-0.27v-0.521
				C144.354,49.801,144.427,49.706,144.573,49.706z M150.548,48.628h3.501c0.102-0.516,0.152-1.111,0.152-1.784
				c0-0.158,0.084-0.235,0.253-0.235l1.144,0.101c0.225,0,0.337,0.078,0.337,0.235c0,0.202-0.079,0.314-0.235,0.337
				c-0.158,0.022-0.235,0.134-0.235,0.336c-0.022,0.371-0.057,0.707-0.102,1.01h3.737c0.135,0,0.201,0.09,0.201,0.27v0.539
				c0,0.179-0.066,0.27-0.201,0.27h-3.316c0.111,0.269,0.242,0.51,0.387,0.723c0.225,0.382,0.517,0.718,0.875,1.01
				c0.404,0.337,0.859,0.605,1.364,0.808c0.246,0.101,0.482,0.173,0.706,0.219c0.079,0.022,0.119,0.044,0.119,0.067
				c0,0.112-0.035,0.196-0.102,0.252c-0.191,0.225-0.359,0.432-0.506,0.623h1.213c0.135,0,0.201,0.09,0.201,0.27v0.555
				c0,0.168-0.066,0.252-0.201,0.252h-1.48v6.396c0,0.864-0.696,1.296-2.088,1.296h-0.875c-0.078,0-0.119-0.113-0.119-0.337
				c-0.021-0.247-0.117-0.544-0.285-0.892v-0.067c0.427,0.09,0.83,0.134,1.211,0.134c0.629,0,0.943-0.201,0.943-0.606v-5.924h-6.936
				c-0.133,0-0.201-0.084-0.201-0.252v-0.555c0-0.18,0.068-0.27,0.201-0.27h7.794c-0.034-0.011-0.067-0.022-0.101-0.033
				c-0.752-0.336-1.346-0.712-1.784-1.127c-0.359-0.337-0.679-0.724-0.96-1.162c-0.111-0.201-0.219-0.426-0.319-0.673
				c-0.349,0.729-0.78,1.307-1.296,1.734c-0.596,0.539-1.348,0.959-2.256,1.262c-0.123,0-0.207-0.027-0.252-0.084
				c-0.158-0.146-0.348-0.285-0.572-0.42c-0.124-0.089-0.186-0.168-0.186-0.236c0-0.067,0.078-0.112,0.235-0.134
				c0.808-0.359,1.425-0.724,1.853-1.094c0.492-0.359,0.875-0.802,1.145-1.329c0.066-0.124,0.134-0.259,0.201-0.404h-3.165
				c-0.134,0-0.202-0.09-0.202-0.27v-0.539C150.346,48.718,150.414,48.628,150.548,48.628z M150.817,55.832h4.528
				c0.168,0,0.252,0.067,0.252,0.202v4.107c0,0.135-0.084,0.202-0.252,0.202h-0.689c-0.181,0-0.27-0.067-0.27-0.202v-0.185h-2.626
				v0.656c0,0.146-0.091,0.219-0.27,0.219h-0.674c-0.179,0-0.27-0.073-0.27-0.219v-4.51
				C150.548,55.921,150.639,55.832,150.817,55.832z M151.761,58.862h2.626v-1.953h-2.626V58.862z"/>
		</g>
	</g>
</g>
</svg>
