<?xml version="1.0" encoding="utf-8"?>
<!-- Generator: Adobe Illustrator 24.3.0, SVG Export Plug-In . SVG Version: 6.00 Build 0)  -->
<svg version="1.1" id="圖層_1" xmlns="http://www.w3.org/2000/svg" xmlns:xlink="http://www.w3.org/1999/xlink" x="0px" y="0px"
	 viewBox="0 0 214 120" style="enable-background:new 0 0 214 120;" xml:space="preserve">
<style type="text/css">
	.st0{fill:#F07C00;}
	.st1{fill:none;}
	.st2{fill:#FFFFFF;}
	.st3{fill-rule:evenodd;clip-rule:evenodd;fill:#FFFFFF;}
</style>
<rect x="-14.8" y="-14" class="st0" width="243.7" height="148.1"/>
<g>
	<path class="st1" d="M64.2,66.2c-6.3-0.8-12.8-2.3-16.3-6.9c-4.4-5.9-0.8-13.6,5.5-18.2c7.4-5.1,18.6-6.8,24.6,0
		c8.7,9.8,1.5,19.1-11.5,23.6"/>
	<path class="st2" d="M64.6,64.9c-3.9-0.5-7.9-1.2-11.3-3c-3.2-1.7-5.7-4.3-6.1-7.5c-0.4-3.1,1-6.1,3-8.6c2.3-2.7,5.3-4.8,8.6-6.1
		c3.2-1.3,6.7-1.9,10.2-1.6c3.4,0.3,6.5,1.9,8.7,4.5c2.1,2.4,3.5,5.3,3.2,8.3c-0.2,2.5-1.9,5-4.1,6.9c-3,2.5-6.5,4.5-10.2,5.7
		c-1.1,0.4-1.2,3,0.3,2.5c7-2.5,13.7-6.8,15.6-13.3c0.9-3,0.5-6.3-1-9c-1.6-3.2-4.2-5.7-7.4-7.2c-6.6-2.8-14.7-0.6-20.2,3
		c-6.2,4.1-10.6,11.5-8.2,18.1s10.9,8.9,18.2,9.8C65.2,67.7,65.9,65,64.6,64.9z"/>
	<path class="st1" d="M49.7,48.3c7.2,1.9,21.6-1.2,25.5-6.2"/>
	<path class="st2" d="M49.1,49.6c4.6,1.2,9.9,0.5,14.5-0.5c4.6-1.1,9.6-2.9,12.3-6.3c0.4-0.5,0.7-1.3,0.2-1.8
		c-0.5-0.5-1.3,0.1-1.5,0.5c-0.4,0.5-0.9,1-1.5,1.4c-0.8,0.6-1.7,1.1-2.7,1.5c-2.1,1-4.3,1.7-6.5,2.2c-4.2,1-9.2,1.6-13.4,0.5
		C49,46.7,47.8,49.3,49.1,49.6L49.1,49.6z"/>
	<path class="st1" d="M48.6,53.3c6.5,6.3,23.4,2.9,27.5-3.8"/>
	<path class="st2" d="M47.8,54.4c3.7,3.6,10.1,4,15.3,3.1c5.2-0.9,11.1-3.2,13.8-7.4c0.3-0.5,0.7-1.3,0.1-1.8
		c-0.5-0.5-1.3,0.1-1.5,0.5c-1.2,1.7-2.8,3-4.7,3.9c-2.3,1.1-4.8,1.9-7.3,2.3c-4.7,0.7-10.6,0.4-14-2.8C48.6,51.2,47,53.6,47.8,54.4
		L47.8,54.4z"/>
	<path class="st1" d="M56.1,42.6c-3,7.2-2.3,17.2,5.8,21.7"/>
	<path class="st2" d="M54.8,42.9c-3,7.4-2.5,17.6,5.9,22.4c0.6,0.3,1.4,0.1,1.9-0.4c0.3-0.2,1.1-1.2,0.5-1.5c-8-4.5-8.5-14-5.6-21
		c0.2-0.6-0.3-0.9-0.9-0.8C55.8,41.7,55.2,42.2,54.8,42.9L54.8,42.9z"/>
	<path class="st1" d="M66.5,40.1c3.8,1.7,6.4,6,7.9,9.2c2.5,6,0.1,10.4-5.7,14"/>
	<path class="st2" d="M65.4,41.2c2.2,1.1,4,2.7,5.3,4.7c1.4,1.9,2.5,4,3.1,6.3c0.5,2,0.3,4.1-0.7,5.9c-1,1.9-2.9,3.3-4.8,4.5
		c-0.5,0.3-1.1,1.1-0.8,1.7s1.2,0.2,1.6-0.1c2.4-1.4,4.4-3.3,5.9-5.6c1.3-2,1.8-4.5,1.5-6.9c-0.5-2.5-1.5-4.9-3-7
		c-1.4-2.4-3.5-4.3-6-5.6c-0.6-0.2-1.4,0-1.8,0.5C65.5,39.9,64.8,40.9,65.4,41.2L65.4,41.2z"/>
	<path class="st1" d="M60.1,43.1c2.9,7.4,4.6,15,3.6,22.7"/>
	<path class="st2" d="M59.1,43.9c2.8,7.1,4.6,14.5,3.6,22c-0.1,0.4,0.1,1.3,0.9,1.2c0.7-0.1,1.1-0.9,1.2-1.5
		c1-7.9-0.8-15.8-3.7-23.3c-0.1-0.4-0.6-0.6-1-0.5c-0.1,0-0.2,0.1-0.3,0.2C59.1,42.5,58.9,43.2,59.1,43.9L59.1,43.9z"/>
	<path class="st1" d="M43.4,30.5c1.7,2.3,3.5,4.5,5.5,6.5"/>
	<path class="st2" d="M42.2,31.4c1.7,2.4,3.6,4.6,5.6,6.7c0.4,0.5,1.5-0.2,1.8-0.5c0.5-0.4,0.8-1.1,0.3-1.6c-1.9-2-3.7-4.1-5.3-6.4
		C43.9,28.6,41.6,30.5,42.2,31.4z"/>
	<path class="st1" d="M37.1,45.4c2.3,0.5,4.5,1.4,6.5,1.9"/>
	<path class="st2" d="M36.8,46.7c2.2,0.5,4.3,1.3,6.5,1.9c1.2,0.4,2-2.3,0.7-2.7c-2.2-0.6-4.3-1.4-6.5-1.9
		C36.2,43.8,35.5,46.4,36.8,46.7L36.8,46.7z"/>
	<path class="st1" d="M56.5,31.3c0.1,1.5,0,2.9-0.3,4.4"/>
	<path class="st2" d="M55.4,31.7c0.1,1.3,0,2.7-0.3,4C55,36.2,55.1,37,55.8,37c0.8-0.1,1.2-0.8,1.3-1.4c0.3-1.5,0.4-3.1,0.4-4.7
		c0-0.5-0.3-1.1-1-0.9C55.9,30.3,55.4,31,55.4,31.7z"/>
	<path class="st3" d="M111.8,40.4v2.9h-10.2l-0.8,2.3h9.6V59c0,1.4-0.9,2.1-2.8,2.1H89.2V45.6h7.6l0.7-2.3H88v-2.9H111.8z
		 M105.7,58.3c0.6,0,0.9-0.2,0.9-0.6v-3H92.9v3.6H105.7z M92.9,51.9h13.8v-3.4H92.9V51.9z"/>
	<path class="st3" d="M141.3,40.2v2.3h-7.7v3.2h7.5V56c0,0.7-0.3,1.3-0.8,1.7c-0.5,0.4-1.1,0.6-1.8,0.6h-2V57l-0.7-0.7l-0.7,0.7
		h-1.7v1.3h-3.1V57h-1.9l-0.5-0.6l-0.6,0.6h-1.5v1.2h-3V45.8h7.4v-3.2h-7.7v-2.3H141.3z M125.4,43.1h3.5c-0.3,0.8-0.9,1.5-1.5,2
		c-0.5,0.3-1.2,0.5-1.8,0.5h-2.7v-1.6h1.8C124.9,43.9,125.2,43.6,125.4,43.1z M134.7,43.1h3.5l0.2,0.5c0.2,0.2,0.4,0.4,0.7,0.3h2.1
		v1.6h-3.5c-0.9,0.1-1.8-0.4-2.3-1.2L134.7,43.1z M130.5,56.7v-2.8l-1.2,1.3L130.5,56.7z M130.5,53.3v-0.9h-2l-0.4-0.4l-0.4,0.4
		h-1.6v0.9h1.6l0.6,0.6l0.6-0.6H130.5z M130.5,52.2v-2.8l-1.2,1.3L130.5,52.2z M130.5,48.6V48h-4.4v0.7h1.5l0.7,0.8l0.7-0.8H130.5z
		 M133.6,48v0.7h1.9l0.4,0.6l0.5-0.6h1.7V48H133.6z M133.6,49v2.9l1.2-1.4L133.6,49z M133.6,52.4v0.9h1.8L136,54l0.6-0.6h1.6v-0.9
		h-1.8l-0.5-0.6l-0.5,0.6H133.6z M133.6,53.8v2.6l1.3-1.3L133.6,53.8z M138.1,54l-1,1.1l0.9,0.9c0.1-0.2,0.2-0.5,0.2-0.7V54z
		 M126.1,56.3l0.9-1l-0.9-1.1V56.3z M138.2,49.2l-1.1,1.3l1.1,1.4V49.2z M126.1,51.8l0.9-1.1l-0.9-1.2V51.8z M118.2,40.5h3.6v4.1
		h-3.6V40.5z M117.9,45.8h3.5v4h-3.6L117.9,45.8z M117.3,51h4.6v6.7c0,0.8,0.6,1.2,1.8,1.2h17.7v2.3h-18.1c-0.8,0-1.6-0.2-2.2-0.6
		c-0.4,0.6-1.1,0.9-1.8,0.8h-2v-2.6h0.5c0.5,0,0.7-0.2,0.7-0.7v-4.4h-1.3V51z"/>
	<path class="st3" d="M170.5,41.2v3h-10.1v9.2h4.1l1.7,3.6c0.4,0.8,1.2,1.2,2,1.1h2.5V61H166c-1.2-0.1-2.3-0.8-2.8-1.9l-2.8-5.5v7.9
		h-3.7v-7.9l-2.7,5.5c-0.5,1.2-1.7,1.9-3,1.9h-4.4v-2.8h2.8c0.7,0,1.3-0.4,1.5-1.1l1.7-3.6h4.1v-9.2h-10v-3h10v-1.4h3.7v1.4H170.5z
		 M148.9,44.8h3.6l-0.5,1.4h2.1l0.8,2.7c0.2,0.5,0.5,0.8,0.9,0.8h0.3v2.6h-1.8c-0.7,0-1.2-0.5-1.7-1.5l-1.2-3.2l-0.9,2.8
		c-0.4,1.3-1.1,1.9-2,1.9h-1.8v-2.8h0.4c0.4,0,0.7-0.4,0.9-1.1L148.9,44.8z M162.9,44.8h3.6l-0.4,1.4h2.3l1,2.8
		c0.2,0.5,0.6,0.8,1.2,0.8h0.2v2.7h-1.9c-0.7,0-1.4-0.5-1.9-1.6l-1.3-3.2l-0.8,2.7c-0.3,1.2-0.9,1.9-1.7,1.9h-1.9v-2.8h0.5
		c0.3,0,0.4-0.4,0.6-1.1L162.9,44.8z"/>
	<path class="st3" d="M18.7,81.6h6.5c3.6,0,5.3-0.9,5.3-2.9c0-1.5-1.4-2.3-4.3-2.3h-6.2L18.7,81.6z M20.9,73.3h6.4
		c3.1,0,4.6-0.8,4.6-2.4c0-1.3-1.2-1.9-3.7-1.9h-6.2L20.9,73.3z M12,84.9l5.1-19.1h11.3c6.3,0,9.4,1.7,9.4,4.9
		c0,2.3-1.5,3.8-4.5,4.5c2.2,0.7,3.3,1.9,3.3,3.7c0,1.9-1.1,3.6-2.8,4.5c-1.9,1-4.5,1.5-8,1.5L12,84.9z"/>
	<path class="st3" d="M59.7,70.7L56,84.9h-5.1l0.6-2.3c-2,1.7-4.5,2.6-7.1,2.6c-1.6,0.1-3.1-0.3-4.5-1c-1-0.6-1.7-1.6-1.7-2.8
		c0-0.6,0.1-1.1,0.2-1.7l2.4-9.1h5.6L44,79.6c-0.1,0.3-0.1,0.6-0.2,0.9c0,1.1,0.9,1.6,2.6,1.6c1.3,0,2.5-0.3,3.6-1
		c1-0.7,1.7-1.7,2-2.8l2.1-7.6L59.7,70.7z"/>
	<path class="st3" d="M58.3,90.4l0.5-2.8l1.6,0.1c1.9,0,2.9-0.7,2.9-2c0-0.3-0.1-0.6-0.1-0.9v-0.2l-3.3-13.8h5.5l2.1,10.4l6.9-10.4
		h5.8L67.2,87.9c-0.6,0.9-1.5,1.6-2.5,2.1c-1,0.5-2.2,0.7-3.3,0.6C60.7,90.6,59.7,90.6,58.3,90.4z"/>
	<path class="st3" d="M83.8,76.4h8.5c0,0,0-0.1,0-0.2s0-0.2,0-0.3c0-1.8-1.2-2.7-3.7-2.7C86,73.3,84.4,74.3,83.8,76.4z M91,80.8h6
		c-0.7,1.5-2,2.7-3.6,3.3c-2.1,0.8-4.3,1.2-6.5,1.2c-2.4,0.1-4.7-0.5-6.7-1.8c-1.6-1.1-2.5-3-2.4-4.9c0-2.4,1.1-4.6,3-5.9
		c2.3-1.6,5-2.5,7.8-2.3c2.4-0.1,4.7,0.4,6.8,1.7c1.6,1,2.5,2.7,2.4,4.6c0,0.8-0.2,1.7-0.3,2.5H83.3v0.1c0,2.1,1.3,3.1,3.9,3.1
		C88.7,82.4,90,81.9,91,80.8z"/>
	<path class="st3" d="M98.1,84.9l3.8-14.2h5l-0.8,2.8c1.5-2.1,3.9-3.2,6.5-3.2c0.4,0,0.7,0,0.9,0l-1,3.9c-0.6-0.1-1.2-0.2-1.9-0.2
		c-2.7,0-4.4,1.4-5.1,4.1l-1.8,6.7H98.1z"/>
	<path class="st3" d="M111,80.1h5.2c0.1,1.6,1.4,2.4,3.8,2.4c2.1,0,3.1-0.5,3.1-1.5c0-0.6-1-1.2-3-1.6l-0.2,0c-2-0.3-3.9-1-5.7-1.9
		c-0.9-0.6-1.4-1.6-1.4-2.6c0-1.4,0.9-2.7,2.2-3.2c1.9-0.9,4-1.3,6.1-1.2c2.1-0.1,4.2,0.3,6.2,1.2c1.3,0.6,2.2,2,2.2,3.5h-5.2
		c-0.3-1.3-1.4-2-3.5-2c-1.9,0-2.8,0.4-2.8,1.3c0,0.6,1.3,1.1,3.8,1.6c1.9,0.3,3.6,0.9,5.3,1.9c0.9,0.6,1.4,1.6,1.4,2.7
		c0,1.5-0.9,2.9-2.3,3.5c-1.9,1-4.1,1.4-6.2,1.3c-2.3,0.1-4.6-0.3-6.6-1.4c-1.5-0.7-2.4-2.2-2.3-3.8L111,80.1z"/>
	<polygon class="st3" points="129.8,84.9 134.8,65.8 140.8,65.8 136.7,81.5 149.8,81.5 148.9,84.9 	"/>
	<path class="st3" d="M155.5,69.1l0.9-3.3h5.6l-0.8,3.3H155.5z M151.4,84.9l3.7-14.2h5.5l-3.7,14.2H151.4z"/>
	<path class="st3" d="M159.4,84.9l3.7-14.2h5.1l-0.6,2.2c2-1.7,4.5-2.6,7.2-2.6c1.6-0.1,3.1,0.3,4.5,1.1c1,0.6,1.7,1.6,1.7,2.8
		c0,0.6-0.1,1.1-0.2,1.6l-2.4,9.1h-5.6l2.3-9c0.1-0.3,0.1-0.6,0.1-0.9c0-1.1-0.9-1.6-2.6-1.6c-1.3,0-2.6,0.3-3.6,1
		c-1,0.7-1.7,1.6-2,2.8l-2,7.7H159.4z"/>
	<path class="st3" d="M187.9,76.4h8.5c0,0,0-0.1,0-0.2c0-0.1,0-0.2,0-0.3c0-1.8-1.2-2.7-3.7-2.7C190.1,73.3,188.5,74.3,187.9,76.4z
		 M195.1,80.8h6c-0.7,1.5-2,2.7-3.6,3.3c-2.1,0.8-4.3,1.3-6.5,1.2c-2.4,0.1-4.7-0.5-6.7-1.8c-1.6-1.1-2.5-3-2.4-4.9
		c0-2.4,1.1-4.6,3-5.9c2.3-1.6,5-2.5,7.8-2.3c2.4-0.1,4.7,0.4,6.8,1.7c1.6,1,2.5,2.7,2.4,4.6c0,0.8-0.2,1.7-0.4,2.5h-14.2v0.1
		c0,2.1,1.3,3.1,3.9,3.1C192.7,82.4,194.1,81.9,195.1,80.8z"/>
</g>
</svg>
